<svg version="1.1" id="Layer_1" xmlns="http://www.w3.org/2000/svg" xmlns:xlink="http://www.w3.org/1999/xlink" x="0px" y="0px"
	 width="100%" viewBox="0 0 530 530" enable-background="new 0 0 530 530" xml:space="preserve">
<path fill="#FEFEFE" opacity="1.000000" stroke="none" 
	d="
M1.000000,199.000000 
	C1.000000,132.682190 1.000000,66.864380 1.000000,1.023285 
	C177.609467,1.023285 354.218964,1.023285 530.914185,1.023285 
	C530.914185,177.567795 530.914185,354.135651 530.914185,530.851746 
	C354.333435,530.851746 177.666733,530.851746 1.000000,530.851746 
	C1.000000,420.447754 1.000000,309.973877 1.000000,199.000000 
M85.909950,523.970886 
	C86.357048,523.044373 87.192833,522.118347 87.194191,521.191223 
	C87.224869,500.203491 87.166031,479.215668 87.099625,458.227905 
	C87.098770,457.957764 86.782799,457.688568 86.627335,457.440369 
	C84.192657,457.440369 81.794815,457.440369 78.875046,457.440369 
	C78.875046,474.791534 78.875046,491.824371 78.875046,510.118225 
	C76.917473,507.746460 75.747993,506.424438 74.682167,505.023560 
	C63.791164,490.708679 52.680130,476.551605 42.173412,461.959564 
	C38.741276,457.192902 35.077263,456.268555 29.869190,457.583527 
	C29.869190,479.732513 29.869190,501.786255 29.869190,524.182007 
	C32.664852,524.046997 35.081432,523.930298 37.999798,523.789368 
	C37.999798,507.909973 37.999798,492.454956 38.696049,477.018372 
	C39.282612,477.557312 39.967018,478.021851 40.441414,478.646027 
	C51.627415,493.363617 62.798531,508.092529 73.952995,522.833984 
	C76.869476,526.688354 81.516525,527.286499 85.909950,523.970886 
M155.997803,47.492996 
	C129.774155,56.685455 103.558975,65.902222 77.315559,75.037865 
	C74.232986,76.110931 73.027061,77.261414 73.591064,81.112488 
	C75.731880,95.730476 77.226974,110.443146 78.956108,125.121284 
	C81.384415,145.734512 83.743927,166.356094 86.247147,186.960220 
	C89.070389,210.198563 92.093170,233.412735 94.894989,256.653595 
	C97.737030,280.228210 100.340759,303.831848 103.292213,327.392303 
	C103.557823,329.512573 105.118065,332.287476 106.900230,333.279419 
	C137.595108,350.364197 168.423996,367.208099 199.213943,384.122223 
	C222.259552,396.782104 245.291534,409.466797 268.202820,422.070709 
	C287.485992,411.377167 306.816071,400.642639 326.160248,389.933594 
	C360.826996,370.741882 395.522583,351.601868 430.113281,332.274170 
	C431.829071,331.315460 433.464844,328.905029 433.770111,326.956268 
	C435.105377,318.432922 435.946838,309.831787 436.947449,301.256531 
	C439.699615,277.670288 442.357330,254.072647 445.210510,230.498672 
	C448.362274,204.457687 451.769562,178.447617 454.916687,152.406097 
	C457.765564,128.832413 460.051514,105.182739 463.407684,81.683975 
	C464.238495,75.866867 462.090454,74.551323 457.800049,73.095818 
	C434.320221,65.130379 410.875122,57.062454 387.424072,49.012291 
	C354.538177,37.723370 321.696411,26.303913 288.751892,15.188918 
	C278.347473,11.678612 268.048218,5.050273 256.529358,12.054792 
	C255.973785,12.392635 255.282806,12.507263 254.655640,12.728017 
	C222.013397,24.217840 189.371231,35.707893 155.997803,47.492996 
M381.490875,457.103119 
	C374.713196,457.103119 367.935547,457.103119 361.023010,457.103119 
	C361.023010,479.714722 361.023010,501.807678 361.023010,523.848938 
	C363.921234,523.848938 366.536194,523.848938 369.747559,523.848938 
	C369.747559,503.984528 369.747559,484.420441 369.747559,464.610291 
	C376.647888,464.610291 382.952271,464.523682 389.252747,464.642761 
	C393.044250,464.714417 396.707672,465.480377 398.236145,469.612549 
	C399.806671,473.858276 399.404755,478.271637 396.003876,481.165833 
	C392.957947,483.758057 389.071686,485.665985 385.247528,486.972137 
	C378.928101,489.130646 377.953156,491.197113 381.849884,496.764465 
	C386.910797,503.995209 392.033203,511.182922 397.130432,518.388245 
	C401.799011,524.987610 403.585693,525.571899 412.145996,523.129395 
	C404.809662,513.021118 397.529480,502.990295 390.582184,493.418060 
	C395.326019,490.213623 399.901093,487.757294 403.688568,484.409851 
	C408.835602,479.860992 409.346283,473.628113 407.598816,467.331726 
	C405.929688,461.317444 401.275452,458.468933 395.429779,457.727844 
	C391.157196,457.186157 386.803040,457.288116 381.490875,457.103119 
M467.920929,481.146393 
	C465.197235,471.792755 468.129761,466.348816 477.511536,464.843719 
	C482.526123,464.039276 487.779449,464.214844 492.877594,464.591125 
	C497.409515,464.925568 501.875977,466.146912 506.990936,467.091187 
	C505.925812,463.922699 509.065643,460.054626 504.079590,458.887054 
	C493.430939,456.393524 482.664062,455.499115 471.959625,458.226715 
	C461.793610,460.817047 456.983582,468.242737 458.022156,478.798096 
	C458.916138,487.883759 464.966492,493.349365 475.321960,494.087616 
	C479.962341,494.418427 484.646301,494.111359 489.292816,494.389465 
	C496.045563,494.793610 499.406769,497.739624 499.973328,503.328461 
	C500.663574,510.137451 497.712372,514.728882 491.128815,516.306091 
	C488.099121,517.031982 484.840149,517.401550 481.749146,517.149109 
	C474.725830,516.575500 467.742126,515.516846 459.352509,514.484314 
	C460.445648,517.370544 460.907715,521.591980 462.368500,521.971741 
	C473.882507,524.964783 485.652252,526.429504 497.263763,522.439087 
	C506.010193,519.433289 510.153564,511.632019 508.898926,501.646057 
	C507.830688,493.143433 502.417969,487.906067 493.206970,486.984711 
	C488.585083,486.522430 483.896484,486.767731 479.244202,486.557098 
	C475.033844,486.366455 470.868073,485.906586 467.920929,481.146393 
M187.480087,524.024780 
	C192.621765,524.013245 197.838547,524.558472 202.889801,523.876892 
	C214.144608,522.358215 221.573868,515.619934 222.241516,504.324799 
	C223.159973,488.785980 222.471512,473.152222 222.471512,457.328796 
	C219.887985,457.328796 217.308258,457.328796 214.045166,457.328796 
	C214.045166,459.486572 214.046371,461.431122 214.044968,463.375641 
	C214.036255,475.368774 214.101379,487.362610 213.987335,499.354736 
	C213.927780,505.614716 212.273209,511.352020 206.477234,514.777710 
	C192.112228,523.268127 176.232513,514.502441 176.066589,497.995483 
	C175.944366,485.836914 176.049103,473.676147 176.025681,461.516418 
	C176.022934,460.095673 175.848038,458.675262 175.756546,457.308228 
	C172.785263,457.308228 170.329147,457.308228 167.746124,457.308228 
	C167.545868,458.099701 167.250473,458.723755 167.250214,459.347961 
	C167.244202,473.504425 166.833603,487.679077 167.421478,501.811920 
	C167.942505,514.337646 173.956192,520.619995 187.480087,524.024780 
M108.687294,487.637939 
	C109.938560,471.836670 117.871078,464.212555 133.799896,464.088379 
	C138.740479,464.049835 143.693832,465.067627 148.632217,465.675995 
	C150.188583,465.867706 151.715195,466.300995 153.293823,466.631775 
	C154.071396,459.246948 154.119873,458.639008 147.721390,458.128815 
	C139.506943,457.473816 131.040924,456.867157 122.977371,458.125031 
	C109.519081,460.224426 101.804390,469.409546 100.103027,482.896881 
	C97.880920,500.512451 103.214302,514.290222 115.118195,520.179626 
	C126.542557,525.831787 138.552246,525.894836 150.606567,522.304626 
	C151.838516,521.937744 153.531586,520.278320 153.563950,519.176208 
	C153.811371,510.753448 153.699661,502.320129 153.699661,493.769226 
	C150.504700,493.769226 147.918304,493.769226 144.815079,493.769226 
	C144.815079,501.257782 144.815079,508.504730 144.815079,515.594055 
	C123.779129,521.281982 109.549461,511.572510 108.788681,493.566681 
	C108.718414,491.903687 108.703903,490.238312 108.687294,487.637939 
M313.083313,460.458374 
	C303.874725,481.461792 294.666107,502.465210 285.407593,523.582520 
	C293.992645,524.911194 294.006561,524.916870 296.923950,517.797791 
	C302.981354,503.016388 309.012726,488.224304 315.080902,473.447296 
	C315.970947,471.279907 317.004028,469.171295 318.271362,466.371796 
	C320.584595,471.955017 322.513641,476.557251 324.399292,481.177216 
	C326.302582,485.840302 328.162872,490.520935 330.329407,495.908661 
	C326.022034,495.908661 322.670319,496.277374 319.432556,495.826782 
	C313.837311,495.048096 312.115967,497.879150 311.848907,503.127075 
	C313.824615,503.127075 315.621613,503.093445 317.416962,503.133423 
	C322.724243,503.251526 329.174896,501.608154 333.004913,504.055328 
	C336.589722,506.345764 337.437531,512.966309 339.417572,517.711304 
	C342.510834,525.124268 343.088928,525.422913 351.479034,523.146973 
	C340.622498,498.438080 329.791748,473.787994 318.567291,448.241760 
	C316.529022,452.801208 314.969727,456.289246 313.083313,460.458374 
M281.966614,522.313965 
	C281.966614,520.692017 281.966614,519.070068 281.966614,516.924011 
	C270.157593,516.924011 258.757660,516.924011 246.815338,516.924011 
	C246.815338,496.684784 246.815338,476.968811 246.815338,457.497284 
	C243.667465,457.497284 241.096207,457.497284 238.373383,457.497284 
	C238.373383,479.800171 238.373383,501.716583 238.373383,524.003235 
	C252.437195,524.003235 266.220001,524.012878 280.002655,523.969788 
	C280.591949,523.967957 281.179749,523.477783 281.966614,522.313965 
M445.098602,498.478394 
	C445.098602,484.739838 445.098602,471.001312 445.098602,457.333527 
	C441.802551,457.333527 439.347443,457.333527 436.442657,457.333527 
	C436.327911,459.486389 436.138489,461.437012 436.133606,463.388123 
	C436.098969,477.218414 436.181152,491.049530 436.060608,504.878906 
	C435.998352,512.019531 433.191132,515.173889 426.277588,516.559814 
	C425.025177,516.810852 423.777191,517.084045 422.501984,517.352356 
	C422.501984,519.711548 422.501984,521.776184 422.501984,523.811584 
	C437.179688,524.754272 444.986908,517.595764 445.094818,503.466461 
	C445.104980,502.133453 445.097748,500.800354 445.098602,498.478394 
z"/>
<path fill="#B4B3B3" opacity="1.000000" stroke="none" 
	d="
M156.363434,47.345459 
	C189.371231,35.707893 222.013397,24.217840 254.655640,12.728017 
	C255.282806,12.507263 255.973785,12.392635 256.529358,12.054792 
	C268.048218,5.050273 278.347473,11.678612 288.751892,15.188918 
	C321.696411,26.303913 354.538177,37.723370 387.424072,49.012291 
	C410.875122,57.062454 434.320221,65.130379 457.800049,73.095818 
	C462.090454,74.551323 464.238495,75.866867 463.407684,81.683975 
	C460.051514,105.182739 457.765564,128.832413 454.916687,152.406097 
	C451.769562,178.447617 448.362274,204.457687 445.210510,230.498672 
	C442.357330,254.072647 439.699615,277.670288 436.947449,301.256531 
	C435.946838,309.831787 435.105377,318.432922 433.770111,326.956268 
	C433.464844,328.905029 431.829071,331.315460 430.113281,332.274170 
	C395.522583,351.601868 360.826996,370.741882 326.160248,389.933594 
	C306.816071,400.642639 287.485992,411.377167 268.202820,422.070709 
	C245.291534,409.466797 222.259552,396.782104 199.213943,384.122223 
	C168.423996,367.208099 137.595108,350.364197 106.900230,333.279419 
	C105.118065,332.287476 103.557823,329.512573 103.292213,327.392303 
	C100.340759,303.831848 97.737030,280.228210 94.894989,256.653595 
	C92.093170,233.412735 89.070389,210.198563 86.247147,186.960220 
	C83.743927,166.356094 81.384415,145.734512 78.956108,125.121284 
	C77.226974,110.443146 75.731880,95.730476 73.591064,81.112488 
	C73.027061,77.261414 74.232986,76.110931 77.315559,75.037865 
	C103.558975,65.902222 129.774155,56.685455 156.363434,47.345459 
M268.639435,399.817139 
	C316.723145,373.248962 364.818848,346.702332 412.837524,320.017151 
	C414.405640,319.145752 415.903870,316.988190 416.212982,315.216949 
	C417.413269,308.339325 418.132904,301.377167 419.007172,294.443420 
	C423.211914,261.094910 427.416595,227.746399 431.606140,194.395981 
	C435.774933,161.210831 439.873932,128.016739 444.156647,94.846321 
	C444.635254,91.139107 443.554626,89.637466 440.030701,88.453690 
	C408.166412,77.749649 376.383087,66.805038 344.549988,56.007668 
	C319.032349,47.352421 293.478546,38.803814 267.210419,30.034855 
	C260.456665,32.386860 253.688507,34.698368 246.951477,37.097359 
	C197.711731,54.631149 148.484436,72.200020 99.226456,89.682365 
	C96.435661,90.672859 94.761436,91.516052 95.210472,95.149376 
	C98.027367,117.942131 100.568985,140.768845 103.221100,163.582062 
	C109.102089,214.169495 115.027451,264.751831 120.800369,315.351562 
	C121.145943,318.380585 122.251709,320.054230 124.864876,321.497498 
	C170.926163,346.937531 216.935226,372.472137 262.976868,397.947784 
	C264.517090,398.800049 266.279785,399.250153 268.639435,399.817139 
z"/>
<path fill="#070707" opacity="1.000000" stroke="none" 
	d="
M37.999798,476.999969 
	C37.999798,492.454956 37.999798,507.909973 37.999798,523.789368 
	C35.081432,523.930298 32.664852,524.046997 29.869190,524.182007 
	C29.869190,501.786255 29.869190,479.732513 29.869190,457.583527 
	C35.077263,456.268555 38.741276,457.192902 42.173412,461.959564 
	C52.680130,476.551605 63.791164,490.708679 74.682167,505.023560 
	C75.747993,506.424438 76.917473,507.746460 78.875046,510.118225 
	C78.875046,491.824371 78.875046,474.791534 78.875046,457.440369 
	C81.794815,457.440369 84.192657,457.440369 86.627335,457.440369 
	C86.782799,457.688568 87.098770,457.957764 87.099625,458.227905 
	C87.166031,479.215668 87.224869,500.203491 87.194191,521.191223 
	C87.192833,522.118347 86.357048,523.044373 85.067345,523.975586 
	C80.129791,524.704163 77.633240,522.839050 75.214615,519.544861 
	C64.010216,504.283844 52.527813,489.226868 41.128357,474.109314 
	C40.338696,473.062103 39.413631,472.117004 37.999798,470.489105 
	C37.999798,473.382050 37.999798,475.191010 37.999798,476.999969 
z"/>
<path fill="#0C0C0C" opacity="1.000000" stroke="none" 
	d="
M381.988037,457.103149 
	C386.803040,457.288116 391.157196,457.186157 395.429779,457.727844 
	C401.275452,458.468933 405.929688,461.317444 407.598816,467.331726 
	C409.346283,473.628113 408.835602,479.860992 403.688568,484.409851 
	C399.901093,487.757294 395.326019,490.213623 390.582184,493.418060 
	C397.529480,502.990295 404.809662,513.021118 412.145996,523.129395 
	C403.585693,525.571899 401.799011,524.987610 397.130432,518.388245 
	C392.033203,511.182922 386.910797,503.995209 381.849884,496.764465 
	C377.953156,491.197113 378.928101,489.130646 385.247528,486.972137 
	C389.071686,485.665985 392.957947,483.758057 396.003876,481.165833 
	C399.404755,478.271637 399.806671,473.858276 398.236145,469.612549 
	C396.707672,465.480377 393.044250,464.714417 389.252747,464.642761 
	C382.952271,464.523682 376.647888,464.610291 369.747559,464.610291 
	C369.747559,484.420441 369.747559,503.984528 369.747559,523.848938 
	C366.536194,523.848938 363.921234,523.848938 361.023010,523.848938 
	C361.023010,501.807678 361.023010,479.714722 361.023010,457.103119 
	C367.935547,457.103119 374.713196,457.103119 381.988037,457.103149 
z"/>
<path fill="#AA1D18" opacity="1.000000" stroke="none" 
	d="
M468.092102,481.510925 
	C470.868073,485.906586 475.033844,486.366455 479.244202,486.557098 
	C483.896484,486.767731 488.585083,486.522430 493.206970,486.984711 
	C502.417969,487.906067 507.830688,493.143433 508.898926,501.646057 
	C510.153564,511.632019 506.010193,519.433289 497.263763,522.439087 
	C485.652252,526.429504 473.882507,524.964783 462.368500,521.971741 
	C460.907715,521.591980 460.445648,517.370544 459.352509,514.484314 
	C467.742126,515.516846 474.725830,516.575500 481.749146,517.149109 
	C484.840149,517.401550 488.099121,517.031982 491.128815,516.306091 
	C497.712372,514.728882 500.663574,510.137451 499.973328,503.328461 
	C499.406769,497.739624 496.045563,494.793610 489.292816,494.389465 
	C484.646301,494.111359 479.962341,494.418427 475.321960,494.087616 
	C464.966492,493.349365 458.916138,487.883759 458.022156,478.798096 
	C456.983582,468.242737 461.793610,460.817047 471.959625,458.226715 
	C482.664062,455.499115 493.430939,456.393524 504.079590,458.887054 
	C509.065643,460.054626 505.925812,463.922699 506.990936,467.091187 
	C501.875977,466.146912 497.409515,464.925568 492.877594,464.591125 
	C487.779449,464.214844 482.526123,464.039276 477.511536,464.843719 
	C468.129761,466.348816 465.197235,471.792755 468.092102,481.510925 
z"/>
<path fill="#0D0D0D" opacity="1.000000" stroke="none" 
	d="
M187.064209,523.971008 
	C173.956192,520.619995 167.942505,514.337646 167.421478,501.811920 
	C166.833603,487.679077 167.244202,473.504425 167.250214,459.347961 
	C167.250473,458.723755 167.545868,458.099701 167.746124,457.308228 
	C170.329147,457.308228 172.785263,457.308228 175.756546,457.308228 
	C175.848038,458.675262 176.022934,460.095673 176.025681,461.516418 
	C176.049103,473.676147 175.944366,485.836914 176.066589,497.995483 
	C176.232513,514.502441 192.112228,523.268127 206.477234,514.777710 
	C212.273209,511.352020 213.927780,505.614716 213.987335,499.354736 
	C214.101379,487.362610 214.036255,475.368774 214.044968,463.375641 
	C214.046371,461.431122 214.045166,459.486572 214.045166,457.328796 
	C217.308258,457.328796 219.887985,457.328796 222.471512,457.328796 
	C222.471512,473.152222 223.159973,488.785980 222.241516,504.324799 
	C221.573868,515.619934 214.144608,522.358215 202.889801,523.876892 
	C197.838547,524.558472 192.621765,524.013245 187.064209,523.971008 
z"/>
<path fill="#0D0D0D" opacity="1.000000" stroke="none" 
	d="
M108.675400,488.105988 
	C108.703903,490.238312 108.718414,491.903687 108.788681,493.566681 
	C109.549461,511.572510 123.779129,521.281982 144.815079,515.594055 
	C144.815079,508.504730 144.815079,501.257782 144.815079,493.769226 
	C147.918304,493.769226 150.504700,493.769226 153.699661,493.769226 
	C153.699661,502.320129 153.811371,510.753448 153.563950,519.176208 
	C153.531586,520.278320 151.838516,521.937744 150.606567,522.304626 
	C138.552246,525.894836 126.542557,525.831787 115.118195,520.179626 
	C103.214302,514.290222 97.880920,500.512451 100.103027,482.896881 
	C101.804390,469.409546 109.519081,460.224426 122.977371,458.125031 
	C131.040924,456.867157 139.506943,457.473816 147.721390,458.128815 
	C154.119873,458.639008 154.071396,459.246948 153.293823,466.631775 
	C151.715195,466.300995 150.188583,465.867706 148.632217,465.675995 
	C143.693832,465.067627 138.740479,464.049835 133.799896,464.088379 
	C117.871078,464.212555 109.938560,471.836670 108.675400,488.105988 
z"/>
<path fill="#0B0B0B" opacity="1.000000" stroke="none" 
	d="
M313.246887,460.117828 
	C314.969727,456.289246 316.529022,452.801208 318.567291,448.241760 
	C329.791748,473.787994 340.622498,498.438080 351.479034,523.146973 
	C343.088928,525.422913 342.510834,525.124268 339.417572,517.711304 
	C337.437531,512.966309 336.589722,506.345764 333.004913,504.055328 
	C329.174896,501.608154 322.724243,503.251526 317.416962,503.133423 
	C315.621613,503.093445 313.824615,503.127075 311.848907,503.127075 
	C312.115967,497.879150 313.837311,495.048096 319.432556,495.826782 
	C322.670319,496.277374 326.022034,495.908661 330.329407,495.908661 
	C328.162872,490.520935 326.302582,485.840302 324.399292,481.177216 
	C322.513641,476.557251 320.584595,471.955017 318.271362,466.371796 
	C317.004028,469.171295 315.970947,471.279907 315.080902,473.447296 
	C309.012726,488.224304 302.981354,503.016388 296.923950,517.797791 
	C294.006561,524.916870 293.992645,524.911194 285.407593,523.582520 
	C294.666107,502.465210 303.874725,481.461792 313.246887,460.117828 
z"/>
<path fill="#0C0C0C" opacity="1.000000" stroke="none" 
	d="
M281.867432,522.764526 
	C281.179749,523.477783 280.591949,523.967957 280.002655,523.969788 
	C266.220001,524.012878 252.437195,524.003235 238.373383,524.003235 
	C238.373383,501.716583 238.373383,479.800171 238.373383,457.497284 
	C241.096207,457.497284 243.667465,457.497284 246.815338,457.497284 
	C246.815338,476.968811 246.815338,496.684784 246.815338,516.924011 
	C258.757660,516.924011 270.157593,516.924011 281.966614,516.924011 
	C281.966614,519.070068 281.966614,520.692017 281.867432,522.764526 
z"/>
<path fill="#AA1E19" opacity="1.000000" stroke="none" 
	d="
M445.098602,498.972839 
	C445.097748,500.800354 445.104980,502.133453 445.094818,503.466461 
	C444.986908,517.595764 437.179688,524.754272 422.501984,523.811584 
	C422.501984,521.776184 422.501984,519.711548 422.501984,517.352356 
	C423.777191,517.084045 425.025177,516.810852 426.277588,516.559814 
	C433.191132,515.173889 435.998352,512.019531 436.060608,504.878906 
	C436.181152,491.049530 436.098969,477.218414 436.133606,463.388123 
	C436.138489,461.437012 436.327911,459.486389 436.442657,457.333527 
	C439.347443,457.333527 441.802551,457.333527 445.098602,457.333527 
	C445.098602,471.001312 445.098602,484.739838 445.098602,498.972839 
z"/>
<path fill="#CACACA" opacity="1.000000" stroke="none" 
	d="
M38.347923,477.009155 
	C37.999798,475.191010 37.999798,473.382050 37.999798,470.489105 
	C39.413631,472.117004 40.338696,473.062103 41.128357,474.109314 
	C52.527813,489.226868 64.010216,504.283844 75.214615,519.544861 
	C77.633240,522.839050 80.129791,524.704163 84.638947,524.088013 
	C81.516525,527.286499 76.869476,526.688354 73.952995,522.833984 
	C62.798531,508.092529 51.627415,493.363617 40.441414,478.646027 
	C39.967018,478.021851 39.282612,477.557312 38.347923,477.009155 
z"/>
<path fill="#A6130E" opacity="1.000000" stroke="none" 
	d="
M267.940796,30.207878 
	C293.478546,38.803814 319.032349,47.352421 344.549988,56.007668 
	C376.383087,66.805038 408.166412,77.749649 440.030701,88.453690 
	C443.554626,89.637466 444.635254,91.139107 444.156647,94.846321 
	C439.873932,128.016739 435.774933,161.210831 431.606140,194.395981 
	C427.416595,227.746399 423.211914,261.094910 419.007172,294.443420 
	C418.132904,301.377167 417.413269,308.339325 416.212982,315.216949 
	C415.903870,316.988190 414.405640,319.145752 412.837524,320.017151 
	C364.818848,346.702332 316.723145,373.248962 268.299652,399.391663 
	C267.941925,349.334045 267.923981,299.701935 267.849365,249.988342 
	C267.792694,249.906860 267.855896,249.718658 268.327576,249.802063 
	C285.783569,249.904465 302.768951,250.030197 319.751190,249.853058 
	C323.179047,249.817322 324.695038,251.006744 325.983307,254.054520 
	C333.499329,271.835388 341.306244,289.493286 348.816162,307.276672 
	C350.041962,310.179291 351.513306,311.343109 354.678925,311.254150 
	C359.662964,311.114136 364.660034,311.544464 369.652893,311.589813 
	C377.350922,311.659698 385.050018,311.608185 393.374390,311.608185 
	C392.190186,309.036987 391.311310,307.097076 390.406738,305.169220 
	C353.289032,226.065750 316.176819,146.959686 279.036835,67.866661 
	C275.437134,60.200752 271.663879,52.616329 267.948364,44.746735 
	C267.925598,44.499386 267.878418,44.004841 267.909790,43.542019 
	C267.941010,38.788757 267.940887,34.498318 267.940796,30.207878 
z"/>
<path fill="#DD1C17" opacity="1.000000" stroke="none" 
	d="
M267.906036,250.069839 
	C267.923981,299.701935 267.941925,349.334045 267.949341,399.426941 
	C266.279785,399.250153 264.517090,398.800049 262.976868,397.947784 
	C216.935226,372.472137 170.926163,346.937531 124.864876,321.497498 
	C122.251709,320.054230 121.145943,318.380585 120.800369,315.351562 
	C115.027451,264.751831 109.102089,214.169495 103.221100,163.582062 
	C100.568985,140.768845 98.027367,117.942131 95.210472,95.149376 
	C94.761436,91.516052 96.435661,90.672859 99.226456,89.682365 
	C148.484436,72.200020 197.711731,54.631149 246.951477,37.097359 
	C253.688507,34.698368 260.456665,32.386860 267.575623,30.121367 
	C267.940887,34.498318 267.941010,38.788757 267.611877,43.708038 
	C266.860718,45.049572 266.365082,45.729099 266.027344,46.479668 
	C227.071503,133.048889 188.126236,219.622910 149.192398,306.202026 
	C148.552963,307.623962 148.060486,309.112000 147.572708,310.378845 
	C161.297607,310.378845 174.449799,310.248962 187.596252,310.466034 
	C191.077576,310.523529 192.529343,309.175110 193.720078,306.130554 
	C200.574768,288.604248 207.642273,271.161316 214.571579,253.663986 
	C215.488388,251.348907 216.348206,249.807800 219.418945,249.850510 
	C235.579193,250.075180 251.743286,250.024765 267.906036,250.069839 
z"/>
<path fill="#F2F0F0" opacity="1.000000" stroke="none" 
	d="
M267.849365,249.988342 
	C251.743286,250.024765 235.579193,250.075180 219.418945,249.850510 
	C216.348206,249.807800 215.488388,251.348907 214.571579,253.663986 
	C207.642273,271.161316 200.574768,288.604248 193.720078,306.130554 
	C192.529343,309.175110 191.077576,310.523529 187.596252,310.466034 
	C174.449799,310.248962 161.297607,310.378845 147.572708,310.378845 
	C148.060486,309.112000 148.552963,307.623962 149.192398,306.202026 
	C188.126236,219.622910 227.071503,133.048889 266.027344,46.479668 
	C266.365082,45.729099 266.860718,45.049572 267.580505,44.170860 
	C267.878418,44.004841 267.925598,44.499386 267.890381,45.214432 
	C267.886749,71.667625 267.944275,97.405800 267.910492,123.143867 
	C267.907074,125.754013 267.354004,128.363434 267.012939,131.223938 
	C266.977234,131.644104 266.984558,131.813553 266.734070,132.222412 
	C255.057663,159.482880 243.639114,186.503952 232.043808,213.943314 
	C244.630142,213.943314 256.262482,213.943314 267.856354,214.028015 
	C267.817902,214.112732 267.903107,214.278122 267.886841,214.729126 
	C267.865692,226.692978 267.860809,238.205826 267.855896,249.718658 
	C267.855896,249.718658 267.792694,249.906860 267.849365,249.988342 
z"/>
<path fill="#B3B2B2" opacity="1.000000" stroke="none" 
	d="
M267.056000,130.973190 
	C267.354004,128.363434 267.907074,125.754013 267.910492,123.143867 
	C267.944275,97.405800 267.886749,71.667625 267.913147,45.461777 
	C271.663879,52.616329 275.437134,60.200752 279.036835,67.866661 
	C316.176819,146.959686 353.289032,226.065750 390.406738,305.169220 
	C391.311310,307.097076 392.190186,309.036987 393.374390,311.608185 
	C385.050018,311.608185 377.350922,311.659698 369.652893,311.589813 
	C364.660034,311.544464 359.662964,311.114136 354.678925,311.254150 
	C351.513306,311.343109 350.041962,310.179291 348.816162,307.276672 
	C341.306244,289.493286 333.499329,271.835388 325.983307,254.054520 
	C324.695038,251.006744 323.179047,249.817322 319.751190,249.853058 
	C302.768951,250.030197 285.783569,249.904465 268.327576,249.802063 
	C267.860809,238.205826 267.865692,226.692978 268.350281,214.620987 
	C281.755310,214.061829 294.680603,214.061829 307.959076,214.061829 
	C307.656830,212.941620 307.583099,212.288651 307.314911,211.728836 
	C294.801361,185.606567 282.284698,159.485748 269.689819,133.402695 
	C269.206696,132.402206 267.951447,131.774567 267.056000,130.973190 
z"/>
<path fill="#A6130E" opacity="1.000000" stroke="none" 
	d="
M267.012939,131.223938 
	C267.951447,131.774567 269.206696,132.402206 269.689819,133.402695 
	C282.284698,159.485748 294.801361,185.606567 307.314911,211.728836 
	C307.583099,212.288651 307.656830,212.941620 307.959076,214.061829 
	C294.680603,214.061829 281.755310,214.061829 268.366577,214.169983 
	C267.903107,214.278122 267.817902,214.112732 267.885223,213.564301 
	C267.956116,188.105362 267.982941,163.194778 267.921021,138.284424 
	C267.915802,136.183197 267.315674,134.083450 266.991913,131.983017 
	C266.984558,131.813553 266.977234,131.644104 267.012939,131.223938 
z"/>
<path fill="#DC1D18" opacity="1.000000" stroke="none" 
	d="
M266.734070,132.222412 
	C267.315674,134.083450 267.915802,136.183197 267.921021,138.284424 
	C267.982941,163.194778 267.956116,188.105362 267.923676,213.479599 
	C256.262482,213.943314 244.630142,213.943314 232.043808,213.943314 
	C243.639114,186.503952 255.057663,159.482880 266.734070,132.222412 
z"/>
</svg>