<svg enable-background="new 0 0 24 24" id="Layer_1" version="1.1" viewBox="0 0 24 24" xml:space="preserve" xmlns="http://www.w3.org/2000/svg" xmlns:xlink="http://www.w3.org/1999/xlink"><g><g><path d="M23.8228836,11.8184204c-1.0349731-2.5991211-6.6516724-4.6484985-12.9460459-4.7846069    c2.5794067-2.9225464,5.2227793-4.5457764,6.7297983-4.3258057c1.446167,0.2128296,1.4051514,2.1282351,1.2528076,3.2509158    c-0.0371094,0.2733765,0.1542969,0.5252075,0.4277344,0.5628052c0.265564,0.0356445,0.5253181-0.1547241,0.562439-0.4281006    c0.3446655-2.5333865-0.4199219-4.1281128-2.0984497-4.3745728c-2.1220713-0.3098145-5.3277597,1.8637694-8.1808481,5.3110962    C8.3990545,7.055542,7.2982855,7.1495972,6.2884588,7.3059082c-0.3825684-2.2183838-0.2298584-3.961365,0.4226685-4.7809448    c0.9129639-1.1432494,2.5632324-0.1445313,3.4664917,0.5515747c0.2177124,0.1688843,0.5341187,0.1288452,0.7011108-0.0908203    c0.1689453-0.218689,0.1289063-0.5325317-0.0898438-0.7009277c-2.03302-1.5668944-3.8034058-1.7079467-4.8599243-0.3826903    c-0.8771362,1.1015624-1.0506592,3.135376-0.6271973,5.579895C2.9402533,7.9744263,1.1987373,8.8391724,0.4304267,9.9713135    c-0.46875,0.6902466-0.5565796,1.456604-0.2539063,2.2171021c0.3066406,0.7692871,0.9940796,1.4931641,2.0437622,2.1516724    c0.2353516,0.1464233,0.5429077,0.0766602,0.6893921-0.1581421c0.1464844-0.2338257,0.0761719-0.5422974-0.1582031-0.68927    c-0.8533934-0.5349731-1.4227294-1.1138916-1.6453246-1.6742554c-0.1796876-0.4505615-0.1298829-0.8708496,0.1513672-1.2857056    c0.5375366-0.7922974,1.984558-1.5866089,4.2424927-2.064209c0.2304077,1.0095825,0.5516968,2.0717163,0.961731,3.1583252    c-2.1450195,3.8991089-2.9298096,7.4362793-2.0199585,9.3215332c0.3651733,0.7561035,0.9891968,1.2193604,1.8064575,1.3394165    c0.1425781,0.0209961,0.2900391,0.0317383,0.4414063,0.0317383c0.8934326,0,1.9324341-0.3651123,3.0973511-1.0880127    c0.234375-0.1454468,0.3066406-0.4539795,0.1611328-0.6882935c-0.1455078-0.2352295-0.4550171-0.3040771-0.6884155-0.1610718    c-1.1405029,0.708313-2.12677,1.0250854-2.8669434,0.916687c-0.4862671-0.0717163-0.8300171-0.3284912-1.0506592-0.7849121    c-0.5888672-1.2199097-0.2685547-4.0088501,1.6055908-7.6783447c0.4589844,1.0656738,0.9971924,2.1413574,1.6099243,3.1978149    c2.3963013,4.1305542,5.2515259,6.7972412,7.4505014,6.9588013C16.0784378,22.9975586,16.1477737,23,16.2161331,23    c0.7479858,0,1.3856201-0.3070679,1.8543091-0.8952637c1.5252686-1.9168701,0.9452515-6.7693481-1.4100342-11.8004761    c-0.118103-0.2504272-0.4169312-0.3577881-0.664979-0.2406616c-0.249939,0.1166382-0.3583374,0.4144287-0.2411499,0.6643677    c2.1316538,4.5517578,2.7907724,9.1748657,1.533082,10.7539673c-0.3037109,0.3822021-0.703064,0.5471802-1.2059937,0.5134888    c-1.5125742-0.1113281-4.1578379-2.1531372-6.6585703-6.4638062c-0.7528076-1.2977295-1.3672485-2.5905151-1.861084-3.836853    c0.0283203-0.0494995,0.0491333-0.0950317,0.0780029-0.1448364C8.392951,10.2514038,9.2107,9.0747681,10.0481024,8.0255737    c0.0581665-0.0003662,0.1088867-0.0053101,0.1676025-0.0053101c6.5911875,0,11.876893,2.1550903,12.6776133,4.1676636    c0.4403687,1.1070557-0.6201172,1.9285889-1.586792,2.4226074c-0.2460938,0.1259155-0.34375,0.427124-0.2177734,0.6726074    c0.0888672,0.1727905,0.2636719,0.2723999,0.4452515,0.2723999c0.0771484,0,0.1542969-0.0175781,0.2275391-0.0546875    C23.6236649,14.5490112,24.3745804,13.2071533,23.8228836,11.8184204z M7.1148138,10.4880981    C6.8563299,9.7277222,6.6472845,8.9937744,6.486762,8.2955933c0.6932983-0.1072998,1.4458618-0.1854858,2.2630005-0.2288818    C8.1782904,8.8265381,7.6317816,9.6401367,7.1148138,10.4880981z" fill="#676767"/><circle cx="11.9997015" cy="12.003418" fill="#676767" r="1.9996033"/></g><linearGradient gradientUnits="userSpaceOnUse" id="SVGID_1_" x1="1.6871817" x2="22.3125134" y1="7.1925225" y2="16.8102722"><stop offset="0" style="stop-color:#FFFFFF;stop-opacity:0.2"/><stop offset="1" style="stop-color:#FFFFFF;stop-opacity:0"/></linearGradient><path d="M9.9998846,12.003418c0,1.1026611,0.8973999,1.9993896,1.9998169,1.9993896   c1.102478,0,1.9998169-0.8967285,1.9998169-1.9993896s-0.8973389-1.9993896-1.9998169-1.9993896   C10.8972845,10.0040283,9.9998846,10.9007568,9.9998846,12.003418z M23.8228836,11.8184204   c-1.0349731-2.5991211-6.6516724-4.6484985-12.9460459-4.7846069c2.5794067-2.9225464,5.2227793-4.5457764,6.7297983-4.3258057   c1.446167,0.2128296,1.4051514,2.1282351,1.2528076,3.2509158c-0.0371094,0.2733765,0.1542969,0.5252075,0.4277344,0.5628052   c0.265564,0.0356445,0.5253181-0.1547241,0.562439-0.4281006c0.3446655-2.5333865-0.4199219-4.1281128-2.0984497-4.3745728   c-2.1220713-0.3098145-5.3277597,1.8637694-8.1808481,5.3110962C8.3990545,7.055542,7.2982855,7.1495972,6.2884588,7.3059082   c-0.3825684-2.2183838-0.2298584-3.961365,0.4226685-4.7809448c0.9129639-1.1432494,2.5632324-0.1445313,3.4664917,0.5515747   c0.2177124,0.1688843,0.5341187,0.1288452,0.7011108-0.0908203c0.1689453-0.218689,0.1289063-0.5325317-0.0898438-0.7009277   c-2.03302-1.5668944-3.8034058-1.7079467-4.8599243-0.3826903c-0.8771362,1.1015624-1.0506592,3.135376-0.6271973,5.579895   C2.9402533,7.9744263,1.1987373,8.8391724,0.4304267,9.9713135c-0.46875,0.6902466-0.5565796,1.456604-0.2539063,2.2171021   c0.3066406,0.7692871,0.9940796,1.4931641,2.0437622,2.1516724c0.2353516,0.1464233,0.5429077,0.0766602,0.6893921-0.1581421   c0.1464844-0.2338257,0.0761719-0.5422974-0.1582031-0.68927c-0.8533934-0.5349731-1.4227294-1.1138916-1.6453246-1.6742554   c-0.1796876-0.4505615-0.1298829-0.8708496,0.1513672-1.2857056c0.5375366-0.7922974,1.984558-1.5866089,4.2424927-2.064209   c0.2304077,1.0095825,0.5516968,2.0717163,0.961731,3.1583252c-2.1450195,3.8991089-2.9298096,7.4362793-2.0199585,9.3215332   c0.3651733,0.7561035,0.9891968,1.2193604,1.8064575,1.3394165c0.1425781,0.0209961,0.2900391,0.0317383,0.4414063,0.0317383   c0.8934326,0,1.9324341-0.3651123,3.0973511-1.0880127c0.234375-0.1454468,0.3066406-0.4539795,0.1611328-0.6882935   c-0.1455078-0.2352295-0.4550171-0.3040771-0.6884155-0.1610718c-1.1405029,0.708313-2.12677,1.0250854-2.8669434,0.916687   c-0.4862671-0.0717163-0.8300171-0.3284912-1.0506592-0.7849121c-0.5888672-1.2199097-0.2685547-4.0088501,1.6055908-7.6783447   c0.4589844,1.0656738,0.9971924,2.1413574,1.6099243,3.1978149c2.3963013,4.1305542,5.2515259,6.7972412,7.4505014,6.9588013   C16.0784378,22.9975586,16.1477737,23,16.2161331,23c0.7479858,0,1.3856201-0.3070679,1.8543091-0.8952637   c1.5252686-1.9168701,0.9452515-6.7693481-1.4100342-11.8004761c-0.118103-0.2504272-0.4169312-0.3577881-0.664979-0.2406616   c-0.249939,0.1166382-0.3583374,0.4144287-0.2411499,0.6643677c2.1316538,4.5517578,2.7907724,9.1748657,1.533082,10.7539673   c-0.3037109,0.3822021-0.703064,0.5471802-1.2059937,0.5134888c-1.5125742-0.1113281-4.1578379-2.1531372-6.6585703-6.4638062   c-0.7528076-1.2977295-1.3672485-2.5905151-1.861084-3.836853c0.0283203-0.0494995,0.0491333-0.0950317,0.0780029-0.1448364   C8.392951,10.2514038,9.2107,9.0747681,10.0481024,8.0255737c0.0581665-0.0003662,0.1088867-0.0053101,0.1676025-0.0053101   c6.5911875,0,11.876893,2.1550903,12.6776133,4.1676636c0.4403687,1.1070557-0.6201172,1.9285889-1.586792,2.4226074   c-0.2460938,0.1259155-0.34375,0.427124-0.2177734,0.6726074c0.0888672,0.1727905,0.2636719,0.2723999,0.4452515,0.2723999   c0.0771484,0,0.1542969-0.0175781,0.2275391-0.0546875C23.6236649,14.5490112,24.3745804,13.2071533,23.8228836,11.8184204z    M7.1148138,10.4880981C6.8563299,9.7277222,6.6472845,8.9937744,6.486762,8.2955933   c0.6932983-0.1072998,1.4458618-0.1854858,2.2630005-0.2288818C8.1782904,8.8265381,7.6317816,9.6401367,7.1148138,10.4880981z" fill="url(#SVGID_1_)"/></g><g/><g/><g/><g/><g/><g/><g/><g/><g/><g/><g/><g/><g/><g/><g/></svg>
