<svg version="1.1" id="Layer_1" xmlns="http://www.w3.org/2000/svg" xmlns:xlink="http://www.w3.org/1999/xlink" x="0px" y="0px"
	 width="100%" viewBox="0 0 400 400" enable-background="new 0 0 400 400" xml:space="preserve">
<path fill="#345AD5" opacity="1.000000" stroke="none" 
	d="
M277.000000,401.000000 
	C184.695358,401.000000 92.890717,401.000000 1.043040,401.000000 
	C1.043040,267.737030 1.043040,134.474045 1.043040,1.105529 
	C134.221252,1.105529 267.442596,1.105529 400.831970,1.105529 
	C400.831970,134.333160 400.831970,267.666565 400.831970,401.000000 
	C359.807465,401.000000 318.653717,401.000000 277.000000,401.000000 
M230.757889,175.304520 
	C230.757889,175.304520 230.722534,175.418427 230.591415,174.704422 
	C225.537231,170.953293 219.906738,169.527649 213.775696,170.601273 
	C213.775696,170.601273 213.685379,170.696198 213.214966,170.080612 
	C212.636597,169.780212 212.089066,169.325638 211.475174,169.202896 
	C204.007492,167.709641 203.949112,167.722046 203.984589,160.456665 
	C204.114319,133.884598 204.294113,107.312744 204.366699,80.740578 
	C204.368057,80.243805 203.278763,79.744057 202.297089,79.207306 
	C202.297089,79.207306 201.970795,78.970634 201.259811,78.562408 
	C197.285843,78.373894 193.312622,78.041740 189.337784,78.021194 
	C169.847061,77.920464 150.354202,78.032722 130.865952,77.776199 
	C125.026794,77.699333 124.047073,78.017021 124.044937,83.806999 
	C124.016388,161.111053 124.011604,238.415131 124.105370,315.719086 
	C124.107475,317.458588 125.332123,319.196594 126.453560,321.072876 
	C126.911263,321.221741 127.368973,321.370605 128.516708,322.058014 
	C130.114410,322.371002 131.711456,322.952698 133.309906,322.956604 
	C156.694122,323.013916 180.078720,323.031982 203.462540,322.919159 
	C205.285278,322.910400 207.102982,321.856873 209.625031,321.001923 
	C263.565125,313.537994 293.106262,259.247894 269.263916,211.304993 
	C261.319489,195.330017 248.557617,184.276825 232.419220,175.875397 
	C231.827072,175.674713 231.234924,175.474030 230.757889,175.304520 
z"/>
<path fill="#F5F9FD" opacity="1.000000" stroke="none" 
	d="
M232.854233,176.332169 
	C248.557617,184.276825 261.319489,195.330017 269.263916,211.304993 
	C293.106262,259.247894 263.565125,313.537994 208.809998,321.082336 
	C201.188431,321.201813 194.381927,321.249512 187.575363,321.278351 
	C167.659149,321.362732 147.742905,321.439636 127.826675,321.519470 
	C127.368973,321.370605 126.911263,321.221741 126.224037,320.542816 
	C125.994514,239.841736 125.994514,159.670715 125.994514,78.970634 
	C151.768799,78.970634 176.869797,78.970634 201.970795,78.970634 
	C201.970795,78.970634 202.297089,79.207306 202.497284,79.673843 
	C202.697464,109.929924 202.697464,139.719482 202.697464,169.700073 
	C206.808243,170.072739 210.246811,170.384460 213.685379,170.696198 
	C213.685379,170.696198 213.775696,170.601273 214.045258,170.770264 
	C219.784073,172.432312 225.253296,173.925369 230.722534,175.418427 
	C230.722534,175.418427 230.757889,175.304520 230.913330,175.528046 
	C231.663910,175.945114 232.259079,176.138641 232.854233,176.332169 
M146.884399,194.269730 
	C147.169296,194.093018 147.371216,193.847931 148.011749,193.168274 
	C149.209122,191.962143 150.406494,190.756012 151.986160,189.357040 
	C152.225494,189.189590 152.410477,188.975250 153.137314,188.378098 
	C155.816620,186.314087 158.495941,184.250061 161.856461,181.987488 
	C169.595795,178.683716 177.335114,175.379944 185.901550,172.078384 
	C188.172592,171.693756 190.443634,171.309113 192.756958,170.917328 
	C192.884995,170.022797 193.058304,169.375458 193.058685,168.728043 
	C193.073212,143.086853 193.083679,117.445633 193.029846,91.804558 
	C193.027725,90.792999 192.393051,89.782768 191.267502,88.531647 
	C172.691406,88.531647 154.115311,88.531647 135.633209,88.531647 
	C135.633209,129.049408 135.633209,168.825729 135.633209,209.295914 
	C138.999069,204.597931 141.885483,200.569153 145.094955,196.310318 
	C145.294937,196.127609 145.441742,195.909149 145.952606,195.352509 
	C146.114319,195.052979 146.276016,194.753448 146.884399,194.269730 
M149.356689,300.601776 
	C149.356689,300.601776 149.449066,300.593842 149.140244,300.088837 
	C148.532059,299.601257 147.923889,299.113647 147.214600,298.751373 
	C147.214600,298.751373 147.352036,298.667419 147.125839,298.122650 
	C146.542160,297.596497 145.958481,297.070343 145.374512,296.618317 
	C145.374512,296.618317 145.448090,296.609039 145.223267,296.091156 
	C144.706894,295.554230 144.190506,295.017303 143.675049,294.333557 
	C143.675049,294.333557 143.528748,294.321106 143.247864,293.751984 
	C141.891861,292.100067 140.535873,290.448120 139.063507,288.929749 
	C139.063507,288.929749 139.203949,288.821808 139.032669,288.163513 
	C138.001648,286.728394 136.970627,285.293274 135.505569,283.254028 
	C135.505569,287.488342 135.505569,290.733582 135.345490,294.727570 
	C135.397430,295.487396 135.449371,296.247192 135.292679,297.913116 
	C135.292679,302.503143 135.292679,307.093201 135.292679,311.753357 
	C145.023788,311.753357 154.056625,311.753357 163.089478,311.753357 
	C163.201385,311.487091 163.313293,311.220856 163.425217,310.954590 
	C161.670212,309.904785 159.915207,308.854980 158.079788,307.914673 
	C158.079788,307.914673 158.190857,307.836456 157.896469,307.327789 
	C157.390152,307.033997 156.883835,306.740173 156.385849,306.544067 
	C156.385849,306.544067 156.482666,306.528473 156.108795,306.053040 
	C155.428055,305.640015 154.747330,305.226990 154.078201,304.898407 
	C154.078201,304.898407 154.162445,304.885284 153.917801,304.344696 
	C153.277145,303.904419 152.636490,303.464111 151.740585,302.567749 
	C151.450012,302.383179 151.159439,302.198608 150.640610,301.516113 
	C150.212158,301.180420 149.783722,300.844757 149.356689,300.601776 
M258.550690,279.724609 
	C258.790100,279.165985 259.029510,278.607391 259.140686,278.090698 
	C259.140686,278.090698 259.184479,278.218262 259.728088,277.790009 
	C261.228394,274.181366 262.728668,270.572754 264.357422,266.886108 
	C264.357422,266.886108 264.284149,266.754913 264.803802,266.151917 
	C269.180389,252.292358 269.542084,238.455719 264.592499,224.595551 
	C264.592499,224.595551 264.544647,224.559830 264.434723,223.870071 
	C263.695831,222.178589 262.956909,220.487122 262.195190,218.868622 
	C262.195190,218.868622 262.268951,218.888641 262.179657,218.257416 
	C261.854156,217.734268 261.528656,217.211121 261.094818,216.005585 
	C243.364761,180.584244 199.507660,168.435135 166.031250,189.671478 
	C140.984024,205.560623 129.615997,236.634155 138.396774,265.208038 
	C147.145386,293.677246 174.749481,313.252380 204.464691,311.807068 
	C220.458313,311.029144 234.634399,305.635162 246.790375,294.069458 
	C247.966446,292.801971 249.142517,291.534485 250.190857,290.239349 
	C250.190857,290.239349 250.166870,290.367828 250.725204,290.132477 
	C250.941208,289.799744 251.157227,289.467010 251.246353,289.168396 
	C251.246353,289.168396 251.283966,289.294281 251.862717,288.973999 
	C253.030930,287.379791 254.199127,285.785553 255.755524,283.987335 
	C255.983887,283.775269 256.097961,283.513428 256.636536,282.851471 
	C257.119080,281.911499 257.601624,280.971527 258.019714,280.030853 
	C258.019714,280.030853 258.052582,280.086273 258.550690,279.724609 
z"/>
<path fill="#3D5BB8" opacity="1.000000" stroke="none" 
	d="
M201.615295,78.766525 
	C176.869797,78.970634 151.768799,78.970634 125.994514,78.970634 
	C125.994514,159.670715 125.994514,239.841736 125.990509,320.474030 
	C125.332123,319.196594 124.107475,317.458588 124.105370,315.719086 
	C124.011604,238.415131 124.016388,161.111053 124.044937,83.806999 
	C124.047073,78.017021 125.026794,77.699333 130.865952,77.776199 
	C150.354202,78.032722 169.847061,77.920464 189.337784,78.021194 
	C193.312622,78.041740 197.285843,78.373894 201.615295,78.766525 
z"/>
<path fill="#3D5BB8" opacity="1.000000" stroke="none" 
	d="
M213.450165,170.388397 
	C210.246811,170.384460 206.808243,170.072739 202.697464,169.700073 
	C202.697464,139.719482 202.697464,109.929924 202.697906,79.693039 
	C203.278763,79.744057 204.368057,80.243805 204.366699,80.740578 
	C204.294113,107.312744 204.114319,133.884598 203.984589,160.456665 
	C203.949112,167.722046 204.007492,167.709641 211.475174,169.202896 
	C212.089066,169.325638 212.636597,169.780212 213.450165,170.388397 
z"/>
<path fill="#2C50C2" opacity="1.000000" stroke="none" 
	d="
M128.171692,321.788757 
	C147.742905,321.439636 167.659149,321.362732 187.575363,321.278351 
	C194.381927,321.249512 201.188431,321.201813 208.458984,321.225830 
	C207.102982,321.856873 205.285278,322.910400 203.462540,322.919159 
	C180.078720,323.031982 156.694122,323.013916 133.309906,322.956604 
	C131.711456,322.952698 130.114410,322.371002 128.171692,321.788757 
z"/>
<path fill="#3D5BB8" opacity="1.000000" stroke="none" 
	d="
M230.656982,175.061432 
	C225.253296,173.925369 219.784073,172.432312 213.996780,170.726196 
	C219.906738,169.527649 225.537231,170.953293 230.656982,175.061432 
z"/>
<path fill="#3D5BB8" opacity="1.000000" stroke="none" 
	d="
M232.636719,176.103790 
	C232.259079,176.138641 231.663910,175.945114 230.855774,175.512466 
	C231.234924,175.474030 231.827072,175.674713 232.636719,176.103790 
z"/>
<path fill="#355BD4" opacity="1.000000" stroke="none" 
	d="
M246.145432,294.125977 
	C234.634399,305.635162 220.458313,311.029144 204.464691,311.807068 
	C174.749481,313.252380 147.145386,293.677246 138.396774,265.208038 
	C129.615997,236.634155 140.984024,205.560623 166.031250,189.671478 
	C199.507660,168.435135 243.364761,180.584244 261.187073,216.657623 
	C261.609161,217.835999 261.939056,218.362320 262.268951,218.888641 
	C262.268951,218.888641 262.195190,218.868622 262.164917,219.220184 
	C262.937958,221.234436 263.741302,222.897125 264.544647,224.559830 
	C264.544647,224.559830 264.592499,224.595551 264.465881,225.061203 
	C264.312286,226.846603 263.914917,228.293930 264.318390,229.465424 
	C266.976044,237.181580 266.967010,245.050903 266.002502,253.002533 
	C265.446259,257.588654 264.857971,262.170898 264.284149,266.754913 
	C264.284149,266.754913 264.357422,266.886108 263.988586,267.112244 
	C262.141327,270.964996 260.662903,274.591614 259.184479,278.218262 
	C259.184479,278.218262 259.140686,278.090698 258.975403,278.273193 
	C258.557617,278.999207 258.305084,279.542725 258.052582,280.086273 
	C258.052582,280.086273 258.019714,280.030853 257.775635,280.207886 
	C257.053619,281.323883 256.575684,282.262817 256.097778,283.201782 
	C256.097961,283.513428 255.983887,283.775269 255.192856,284.118652 
	C253.514786,285.931427 252.399384,287.612854 251.283966,289.294281 
	C251.283966,289.294281 251.246353,289.168396 251.066437,289.314392 
	C250.646637,289.762848 250.406754,290.065338 250.166870,290.367828 
	C250.166870,290.367828 250.190857,290.239349 249.902588,290.272888 
	C248.458023,291.579620 247.301727,292.852814 246.145432,294.125977 
z"/>
<path fill="#506BC9" opacity="1.000000" stroke="none" 
	d="
M144.771896,196.540375 
	C141.885483,200.569153 138.999069,204.597931 135.633209,209.295914 
	C135.633209,168.825729 135.633209,129.049408 135.633209,88.531647 
	C154.115311,88.531647 172.691406,88.531647 191.568634,88.920670 
	C191.812363,89.490234 191.754959,89.670761 191.261749,89.871071 
	C175.199905,89.898575 159.573883,89.895546 143.947876,89.919022 
	C137.164658,89.929207 136.923416,90.158569 136.920410,96.932106 
	C136.905960,129.514160 136.907410,162.096222 136.926804,194.678253 
	C136.927841,196.407639 137.144394,198.136887 137.340179,201.049988 
	C140.186188,198.882126 142.086792,197.434387 144.180206,196.129822 
	C144.372986,196.272980 144.771896,196.540375 144.771896,196.540375 
z"/>
<path fill="#3B5ECF" opacity="1.000000" stroke="none" 
	d="
M150.868866,302.014038 
	C151.159439,302.198608 151.450012,302.383179 151.979462,303.077942 
	C152.866379,304.020508 153.514404,304.452911 154.162445,304.885284 
	C154.162445,304.885284 154.078201,304.898407 154.226837,305.129120 
	C155.077866,305.749359 155.780273,306.138916 156.482666,306.528473 
	C156.482666,306.528473 156.385849,306.544067 156.517654,306.766418 
	C157.163254,307.271362 157.677063,307.553894 158.190857,307.836456 
	C158.190857,307.836456 158.079788,307.914673 158.030426,308.244659 
	C156.378723,309.347717 154.793213,310.727020 153.170700,310.771973 
	C149.401749,310.876465 145.615173,310.123962 141.835297,310.119751 
	C138.194092,310.115692 136.910583,308.553955 136.836182,305.026855 
	C136.779633,302.345398 135.973785,299.679718 135.501312,297.007019 
	C135.449371,296.247192 135.397430,295.487396 135.671677,294.154663 
	C137.066559,291.995117 138.135254,290.408478 139.203949,288.821808 
	C139.203949,288.821808 139.063507,288.929749 139.118652,289.231323 
	C140.625427,291.128967 142.077087,292.725037 143.528748,294.321106 
	C143.528748,294.321106 143.675049,294.333557 143.702866,294.709808 
	C144.303146,295.593719 144.875626,296.101379 145.448090,296.609039 
	C145.448090,296.609039 145.374512,296.618317 145.457855,296.881897 
	C146.144806,297.652802 146.748413,298.160126 147.352036,298.667419 
	C147.352036,298.667419 147.214600,298.751373 147.367340,298.980804 
	C148.163071,299.671448 148.806061,300.132660 149.449066,300.593842 
	C149.449066,300.593842 149.356689,300.601776 149.461060,300.816772 
	C149.999924,301.359222 150.434387,301.686615 150.868866,302.014038 
z"/>
<path fill="#3552AF" opacity="1.000000" stroke="none" 
	d="
M191.697556,89.851295 
	C191.754959,89.670761 191.812363,89.490234 191.961456,89.040802 
	C192.393051,89.782768 193.027725,90.792999 193.029846,91.804558 
	C193.083679,117.445633 193.073212,143.086853 193.058685,168.728043 
	C193.058304,169.375458 192.884995,170.022797 192.756958,170.917328 
	C190.443634,171.309113 188.172592,171.693756 185.412964,171.825500 
	C184.883118,171.402466 184.841888,171.232300 185.185730,170.912598 
	C191.306244,170.591141 192.462021,167.261658 192.090805,162.170471 
	C191.692749,156.711334 192.025406,151.200485 191.998657,145.712387 
	C191.907959,127.091980 191.799332,108.471657 191.697556,89.851295 
z"/>
<path fill="#536AC6" opacity="1.000000" stroke="none" 
	d="
M135.397003,297.460083 
	C135.973785,299.679718 136.779633,302.345398 136.836182,305.026855 
	C136.910583,308.553955 138.194092,310.115692 141.835297,310.119751 
	C145.615173,310.123962 149.401749,310.876465 153.170700,310.771973 
	C154.793213,310.727020 156.378723,309.347717 158.070618,308.189911 
	C159.915207,308.854980 161.670212,309.904785 163.425217,310.954590 
	C163.313293,311.220856 163.201385,311.487091 163.089478,311.753357 
	C154.056625,311.753357 145.023788,311.753357 135.292679,311.753357 
	C135.292679,307.093201 135.292679,302.503143 135.397003,297.460083 
z"/>
<path fill="#4962BC" opacity="1.000000" stroke="none" 
	d="
M264.543976,266.453430 
	C264.857971,262.170898 265.446259,257.588654 266.002502,253.002533 
	C266.967010,245.050903 266.976044,237.181580 264.318390,229.465424 
	C263.914917,228.293930 264.312286,226.846603 264.453064,225.088196 
	C269.542084,238.455719 269.180389,252.292358 264.543976,266.453430 
z"/>
<path fill="#506BC9" opacity="1.000000" stroke="none" 
	d="
M184.800659,171.062134 
	C184.841888,171.232300 184.883118,171.402466 184.999390,171.824402 
	C177.335114,175.379944 169.595795,178.683716 161.423981,181.987030 
	C160.991501,181.986588 160.807846,181.787018 160.999237,181.515472 
	C168.206573,175.869568 175.850403,171.951126 184.800659,171.062134 
z"/>
<path fill="#536AC6" opacity="1.000000" stroke="none" 
	d="
M139.118317,288.492676 
	C138.135254,290.408478 137.066559,291.995117 135.751709,293.780273 
	C135.505569,290.733582 135.505569,287.488342 135.505569,283.254028 
	C136.970627,285.293274 138.001648,286.728394 139.118317,288.492676 
z"/>
<path fill="#4962BC" opacity="1.000000" stroke="none" 
	d="
M259.456299,278.004150 
	C260.662903,274.591614 262.141327,270.964996 263.924377,267.151245 
	C262.728668,270.572754 261.228394,274.181366 259.456299,278.004150 
z"/>
<path fill="#506BC9" opacity="1.000000" stroke="none" 
	d="
M161.083374,182.086319 
	C158.495941,184.250061 155.816620,186.314087 152.706802,188.364532 
	C152.276291,188.350983 151.998123,187.998123 152.196304,187.727570 
	C155.198944,185.567001 158.003387,183.677017 160.807846,181.787018 
	C160.807846,181.787018 160.991501,181.986588 161.083374,182.086319 
z"/>
<path fill="#536AC6" opacity="1.000000" stroke="none" 
	d="
M143.388306,294.036560 
	C142.077087,292.725037 140.625427,291.128967 139.176834,289.164551 
	C140.535873,290.448120 141.891861,292.100067 143.388306,294.036560 
z"/>
<path fill="#4962BC" opacity="1.000000" stroke="none" 
	d="
M251.573349,289.134155 
	C252.399384,287.612854 253.514786,285.931427 254.998764,284.220642 
	C254.199127,285.785553 253.030930,287.379791 251.573349,289.134155 
z"/>
<path fill="#4962BC" opacity="1.000000" stroke="none" 
	d="
M246.467896,294.097717 
	C247.301727,292.852814 248.458023,291.579620 249.966461,290.286743 
	C249.142517,291.534485 247.966446,292.801971 246.467896,294.097717 
z"/>
<path fill="#506BC9" opacity="1.000000" stroke="none" 
	d="
M151.603867,189.549896 
	C150.406494,190.756012 149.209122,191.962143 147.615921,193.206161 
	C147.220093,193.244049 146.943649,192.959671 147.050995,192.644836 
	C148.435654,191.215347 149.712967,190.100677 151.142303,189.128448 
	C151.294342,189.270905 151.603867,189.549896 151.603867,189.549896 
z"/>
<path fill="#4962BC" opacity="1.000000" stroke="none" 
	d="
M264.489685,224.214951 
	C263.741302,222.897125 262.937958,221.234436 262.176300,219.183701 
	C262.956909,220.487122 263.695831,222.178589 264.489685,224.214951 
z"/>
<path fill="#4962BC" opacity="1.000000" stroke="none" 
	d="
M256.367157,283.026611 
	C256.575684,282.262817 257.053619,281.323883 257.807831,280.208252 
	C257.601624,280.971527 257.119080,281.911499 256.367157,283.026611 
z"/>
<path fill="#536AC6" opacity="1.000000" stroke="none" 
	d="
M145.335678,296.350098 
	C144.875626,296.101379 144.303146,295.593719 143.702393,294.783203 
	C144.190506,295.017303 144.706894,295.554230 145.335678,296.350098 
z"/>
<path fill="#536AC6" opacity="1.000000" stroke="none" 
	d="
M156.295731,306.290771 
	C155.780273,306.138916 155.077866,305.749359 154.221024,305.086914 
	C154.747330,305.226990 155.428055,305.640015 156.295731,306.290771 
z"/>
<path fill="#536AC6" opacity="1.000000" stroke="none" 
	d="
M154.040115,304.614990 
	C153.514404,304.452911 152.866379,304.020508 152.107086,303.305969 
	C152.636490,303.464111 153.277145,303.904419 154.040115,304.614990 
z"/>
<path fill="#536AC6" opacity="1.000000" stroke="none" 
	d="
M149.294647,300.341339 
	C148.806061,300.132660 148.163071,299.671448 147.417892,298.918152 
	C147.923889,299.113647 148.532059,299.601257 149.294647,300.341339 
z"/>
<path fill="#536AC6" opacity="1.000000" stroke="none" 
	d="
M147.238937,298.395020 
	C146.748413,298.160126 146.144806,297.652802 145.457993,296.844849 
	C145.958481,297.070343 146.542160,297.596497 147.238937,298.395020 
z"/>
<path fill="#4962BC" opacity="1.000000" stroke="none" 
	d="
M258.301636,279.905457 
	C258.305084,279.542725 258.557617,278.999207 259.039520,278.252228 
	C259.029510,278.607391 258.790100,279.165985 258.301636,279.905457 
z"/>
<path fill="#536AC6" opacity="1.000000" stroke="none" 
	d="
M150.754730,301.765076 
	C150.434387,301.686615 149.999924,301.359222 149.460358,300.770447 
	C149.783722,300.844757 150.212158,301.180420 150.754730,301.765076 
z"/>
<path fill="#536AC6" opacity="1.000000" stroke="none" 
	d="
M158.043671,307.582123 
	C157.677063,307.553894 157.163254,307.271362 156.513489,306.717590 
	C156.883835,306.740173 157.390152,307.033997 158.043671,307.582123 
z"/>
<path fill="#4962BC" opacity="1.000000" stroke="none" 
	d="
M262.224304,218.573029 
	C261.939056,218.362320 261.609161,217.835999 261.241211,216.998825 
	C261.528656,217.211121 261.854156,217.734268 262.224304,218.573029 
z"/>
<path fill="#4962BC" opacity="1.000000" stroke="none" 
	d="
M250.446045,290.250153 
	C250.406754,290.065338 250.646637,289.762848 251.129883,289.297302 
	C251.157227,289.467010 250.941208,289.799744 250.446045,290.250153 
z"/>
<path fill="#506BC9" opacity="1.000000" stroke="none" 
	d="
M146.437714,194.453903 
	C146.276016,194.753448 146.114319,195.052979 145.608856,195.334518 
	C145.265121,195.316528 144.985855,194.985489 145.143204,194.809692 
	C145.514069,194.402557 145.738235,194.182053 146.089035,194.092957 
	C146.205002,194.213516 146.437714,194.453903 146.437714,194.453903 
z"/>
<path fill="#506BC9" opacity="1.000000" stroke="none" 
	d="
M152.408691,188.532486 
	C152.410477,188.975250 152.225494,189.189590 151.795013,189.453461 
	C151.603867,189.549896 151.294342,189.270905 151.303894,188.957397 
	C151.532959,188.419403 151.761185,188.204147 151.998123,187.998123 
	C151.998123,187.998123 152.276291,188.350983 152.408691,188.532486 
z"/>
<path fill="#506BC9" opacity="1.000000" stroke="none" 
	d="
M145.400238,195.485748 
	C145.441742,195.909149 145.294937,196.127609 144.933426,196.425354 
	C144.771896,196.540375 144.372986,196.272980 144.338425,195.954895 
	C144.519669,195.407623 144.746994,195.190521 144.985855,194.985489 
	C144.985855,194.985489 145.265121,195.316528 145.400238,195.485748 
z"/>
<path fill="#506BC9" opacity="1.000000" stroke="none" 
	d="
M147.355133,193.389282 
	C147.371216,193.847931 147.169296,194.093018 146.661057,194.361816 
	C146.437714,194.453903 146.205002,194.213516 146.245636,193.919220 
	C146.500671,193.398514 146.719803,193.176758 146.943649,192.959671 
	C146.943649,192.959671 147.220093,193.244049 147.355133,193.389282 
z"/>
<path fill="#355BD5" opacity="1.000000" stroke="none" 
	d="
M147.050995,192.644836 
	C146.719803,193.176758 146.500671,193.398514 146.129669,193.798676 
	C145.738235,194.182053 145.514069,194.402557 145.143204,194.809692 
	C144.746994,195.190521 144.519669,195.407623 144.145630,195.811737 
	C142.086792,197.434387 140.186188,198.882126 137.340179,201.049988 
	C137.144394,198.136887 136.927841,196.407639 136.926804,194.678253 
	C136.907410,162.096222 136.905960,129.514160 136.920410,96.932106 
	C136.923416,90.158569 137.164658,89.929207 143.947876,89.919022 
	C159.573883,89.895546 175.199905,89.898575 191.261749,89.871071 
	C191.799332,108.471657 191.907959,127.091980 191.998657,145.712387 
	C192.025406,151.200485 191.692749,156.711334 192.090805,162.170471 
	C192.462021,167.261658 191.306244,170.591141 185.185730,170.912598 
	C175.850403,171.951126 168.206573,175.869568 160.999237,181.515472 
	C158.003387,183.677017 155.198944,185.567001 152.196304,187.727570 
	C151.761185,188.204147 151.532959,188.419403 151.151855,188.814941 
	C149.712967,190.100677 148.435654,191.215347 147.050995,192.644836 
z"/>
</svg>