<svg width="22" height="25" viewBox="0 0 22 25" fill="none" xmlns="http://www.w3.org/2000/svg">
<path d="M21.963 7.33094C21.9628 6.91166 21.874 6.54118 21.6945 6.22321C21.5181 5.91054 21.2541 5.64847 20.8998 5.44127C17.9758 3.73823 15.0489 2.0404 12.1259 0.335623C11.3378 -0.123926 10.5738 -0.107172 9.79155 0.358974C8.6277 1.05229 2.8007 4.42442 1.06434 5.44031C0.34925 5.85845 0.00128906 6.49838 0.00111719 7.33015C0 10.7551 0.00111719 14.1799 0 17.6049C0 18.015 0.0851641 18.3782 0.256781 18.6914C0.433211 19.0136 0.700992 19.2828 1.06339 19.4947C2.79984 20.5106 8.62761 23.8825 9.7912 24.576C10.5737 25.0424 11.3378 25.0591 12.1261 24.5993C15.0493 22.8945 17.9763 21.1967 20.9008 19.4937C21.2632 19.2819 21.531 19.0124 21.7074 18.6906C21.8787 18.3774 21.9641 18.0141 21.9641 17.6039C21.9641 17.6039 21.9641 10.7559 21.963 7.33094Z" fill="#A179DC"/>
<path d="M11.0157 12.4342L0.256836 18.6915C0.433266 19.0136 0.701047 19.2829 1.06345 19.4948C2.7999 20.5107 8.62766 23.8826 9.79126 24.576C10.5738 25.0425 11.3379 25.0591 12.1262 24.5994C15.0493 22.8945 17.9764 21.1968 20.9008 19.4938C21.2632 19.2819 21.531 19.0125 21.7074 18.6906L11.0157 12.4342Z" fill="#280068"/>
<path d="M21.9629 7.33099C21.9628 6.91172 21.874 6.54124 21.6945 6.22327L11.0156 12.4342L21.7074 18.6906C21.8787 18.3774 21.9639 18.0142 21.9641 17.604C21.9641 17.604 21.9641 10.756 21.9629 7.33099Z" fill="#390091"/>
<path d="M17.3501 10.095V11.2646H18.508V10.095H19.087V11.2646H20.2449V11.8494H19.087V13.0189H20.2449V13.6037H19.087V14.7733H18.508V13.6037H17.3501V14.7733H16.7712V13.6037H15.6133V13.0189H16.7712V11.8494H15.6133V11.2646H16.7712V10.095H17.3501ZM18.508 11.8494H17.3501V13.0189H18.508V11.8494Z" fill="white"/>
<path d="M11.0391 4.22095C14.0593 4.22095 16.6961 5.87774 18.1085 8.3404L18.0947 8.31669L14.5413 10.3834C13.8412 9.18602 12.5577 8.378 11.0855 8.36135L11.0391 8.36109C8.79394 8.36109 6.97374 10.1996 6.97374 12.4674C6.97374 13.2091 7.16949 13.9042 7.50991 14.5047C8.21065 15.7404 9.52797 16.5739 11.0391 16.5739C12.5596 16.5739 13.8844 15.7298 14.5816 14.4809L14.5646 14.5109L18.1127 16.5871C16.7158 19.0289 14.1151 20.6806 11.1301 20.7135L11.0391 20.714C8.00942 20.714 5.36507 19.047 3.95627 16.5713C3.26851 15.3627 2.875 13.9616 2.875 12.4674C2.875 7.91308 6.53012 4.22095 11.0391 4.22095Z" fill="white"/>
</svg>
