<svg version="1.1" id="Layer_1" xmlns="http://www.w3.org/2000/svg" xmlns:xlink="http://www.w3.org/1999/xlink" x="0px" y="0px"
	 width="100%" viewBox="0 0 300 327" enable-background="new 0 0 300 327" xml:space="preserve">
<path fill="#004A7C" opacity="1.000000" stroke="none" 
	d="
M1.000000,238.000000 
	C1.000000,188.979111 1.000000,139.958206 1.362572,90.532700 
	C2.977969,88.058739 4.291150,86.023232 5.473523,83.914383 
	C11.706570,72.797211 22.261868,66.886429 32.887600,61.035328 
	C48.809956,52.267609 64.610275,43.272057 80.650185,34.725655 
	C99.468918,24.698639 118.500183,15.070955 137.406219,5.206739 
	C139.708923,4.005303 141.807053,2.411800 144.000000,1.000000 
	C148.356903,1.000000 152.713806,1.000000 157.481598,1.367768 
	C158.380157,2.134405 158.811722,2.650458 159.363800,2.914808 
	C169.956924,7.987018 180.793686,12.603218 191.123550,18.162064 
	C217.314819,32.256454 243.265854,46.796772 269.342072,61.105698 
	C281.641968,67.855072 293.457214,75.062096 299.106415,88.929932 
	C299.320862,89.456390 300.350311,89.650841 301.000000,90.000000 
	C301.000000,139.020889 301.000000,188.041794 300.643005,237.461166 
	C299.672943,238.606277 298.885101,239.267868 298.474060,240.112762 
	C294.732697,247.803482 289.035126,253.743362 281.766022,258.035889 
	C264.976807,267.950226 248.228043,277.953186 231.156525,287.364502 
	C207.707443,300.291626 183.968094,312.691925 160.388840,325.384277 
	C159.407547,325.912506 158.788040,327.112793 158.000000,328.000000 
	C153.643097,328.000000 149.286194,328.000000 144.526489,327.634644 
	C143.372543,326.661957 142.701019,325.896759 141.858002,325.471619 
	C132.852386,320.930420 123.626678,316.788635 114.829895,311.877167 
	C86.689301,296.165558 58.745380,280.102051 30.640574,264.325775 
	C19.253305,257.933655 8.325341,251.200623 2.662755,238.624496 
	C2.491397,238.243912 1.571113,238.200577 1.000000,238.000000 
M112.722275,291.790802 
	C123.358658,297.329895 134.064713,302.740906 144.597977,308.469574 
	C148.956924,310.840271 152.793121,311.034424 157.196976,308.559662 
	C195.816437,286.857239 234.576324,265.403503 273.108643,243.548248 
	C281.063995,239.036041 285.173218,231.819794 285.105835,222.015213 
	C284.841278,183.530899 284.812103,145.042236 285.114349,106.558472 
	C285.201355,95.482643 280.421539,87.815353 271.609772,82.047745 
	C269.105499,80.408600 266.464783,78.966171 263.826508,77.545204 
	C228.783417,58.671314 193.699951,39.872040 158.709930,20.900377 
	C153.359070,17.999128 148.617004,18.004375 143.276215,20.909454 
	C105.825249,41.280655 68.207329,61.346409 30.840893,81.870499 
	C21.490204,87.006500 16.872456,95.216232 16.986931,106.583794 
	C17.371098,144.732849 17.390104,182.890976 16.972374,221.039322 
	C16.850752,232.146210 21.594494,239.487152 30.590076,244.680435 
	C57.710434,260.337433 84.912613,275.852722 112.722275,291.790802 
z"/>
<path fill="#2887CE" opacity="1.000000" stroke="none" 
	d="
M112.402573,291.607056 
	C84.912613,275.852722 57.710434,260.337433 30.590076,244.680435 
	C21.594494,239.487152 16.850752,232.146210 16.972374,221.039322 
	C17.390104,182.890976 17.371098,144.732849 16.986931,106.583794 
	C16.872456,95.216232 21.490204,87.006500 30.840893,81.870499 
	C68.207329,61.346409 105.825249,41.280655 143.276215,20.909454 
	C148.617004,18.004375 153.359070,17.999128 158.709930,20.900377 
	C193.699951,39.872040 228.783417,58.671314 263.826508,77.545204 
	C266.464783,78.966171 269.105499,80.408600 271.609772,82.047745 
	C280.421539,87.815353 285.201355,95.482643 285.114349,106.558472 
	C284.812103,145.042236 284.841278,183.530899 285.105835,222.015213 
	C285.173218,231.819794 281.063995,239.036041 273.108643,243.548248 
	C234.576324,265.403503 195.816437,286.857239 157.196976,308.559662 
	C152.793121,311.034424 148.956924,310.840271 144.597977,308.469574 
	C134.064713,302.740906 123.358658,297.329895 112.402573,291.607056 
M116.995255,85.489441 
	C116.178566,85.653351 115.358475,85.801979 114.545708,85.983459 
	C101.973801,88.790680 89.622452,92.152206 79.449783,100.665588 
	C74.078300,105.160927 71.492523,110.665894 73.486832,117.875061 
	C98.332306,114.808601 122.943031,111.717522 147.579315,108.845680 
	C149.303970,108.644653 151.916107,109.520813 152.932739,110.820946 
	C160.730057,120.792618 168.273758,130.964432 175.778763,141.160538 
	C176.698654,142.410278 177.393890,144.169357 177.400467,145.695816 
	C177.501160,169.026825 177.523468,192.358871 177.320953,215.688583 
	C177.310120,216.935883 175.311172,218.987183 173.956680,219.257858 
	C168.420105,220.364212 162.794022,221.143768 157.165451,221.648453 
	C127.589729,224.300339 102.788162,214.891190 83.341606,192.130951 
	C82.809219,191.507828 82.054771,191.074463 80.810448,190.076828 
	C81.580902,197.019455 82.619225,203.119385 82.847153,209.249466 
	C83.135765,217.011642 85.960518,223.774506 91.128685,229.089905 
	C96.049919,234.151306 101.571594,239.076630 107.724602,242.408310 
	C125.879768,252.238846 145.686737,252.768112 165.644135,250.479950 
	C179.418259,248.900711 192.470749,244.902420 202.966980,235.327621 
	C205.592773,232.932343 207.959915,229.281052 208.621399,225.854767 
	C215.529221,190.074890 222.023682,154.215439 228.737289,118.397659 
	C230.137619,110.926758 228.012634,105.023666 222.138077,100.259094 
	C214.320572,93.918648 205.173447,90.459038 195.626694,87.961624 
	C169.909180,81.233932 143.938248,81.047272 116.995255,85.489441 
M101.150307,199.397446 
	C120.443230,213.031799 142.200699,213.346222 164.383316,210.820511 
	C165.688446,210.671906 167.637436,207.962067 167.699936,206.381378 
	C168.357239,189.754456 168.649094,173.113510 169.148788,156.479645 
	C169.252472,153.029022 167.897003,151.844376 164.466278,151.809296 
	C155.653351,151.719208 146.814514,151.655899 138.039062,150.935699 
	C120.843208,149.524399 104.083145,146.227890 88.828812,137.529099 
	C87.891930,136.994843 86.764519,136.794708 85.185837,136.254288 
	C85.185837,138.544525 85.030594,140.339096 85.211075,142.099243 
	C86.364960,153.352509 88.153313,164.574661 88.627190,175.853500 
	C89.042130,185.729675 93.435699,192.894440 101.150307,199.397446 
M137.276794,143.148605 
	C146.628036,143.148605 155.979279,143.148605 166.259125,143.148605 
	C160.898071,135.268600 155.793503,127.947632 150.904846,120.485207 
	C149.094040,117.721062 147.056412,117.077019 143.801453,117.529045 
	C129.137665,119.565468 114.427910,121.269058 99.741966,123.149223 
	C95.426750,123.701675 91.135361,124.440147 86.833046,125.093353 
	C86.808517,125.596741 86.783981,126.100136 86.759453,126.603523 
	C101.261650,137.962524 118.685356,140.897186 137.276794,143.148605 
z"/>
<path fill="#FDFEFE" opacity="1.000000" stroke="none" 
	d="
M117.412560,85.394791 
	C143.938248,81.047272 169.909180,81.233932 195.626694,87.961624 
	C205.173447,90.459038 214.320572,93.918648 222.138077,100.259094 
	C228.012634,105.023666 230.137619,110.926758 228.737289,118.397659 
	C222.023682,154.215439 215.529221,190.074890 208.621399,225.854767 
	C207.959915,229.281052 205.592773,232.932343 202.966980,235.327621 
	C192.470749,244.902420 179.418259,248.900711 165.644135,250.479950 
	C145.686737,252.768112 125.879768,252.238846 107.724602,242.408310 
	C101.571594,239.076630 96.049919,234.151306 91.128685,229.089905 
	C85.960518,223.774506 83.135765,217.011642 82.847153,209.249466 
	C82.619225,203.119385 81.580902,197.019455 80.810448,190.076828 
	C82.054771,191.074463 82.809219,191.507828 83.341606,192.130951 
	C102.788162,214.891190 127.589729,224.300339 157.165451,221.648453 
	C162.794022,221.143768 168.420105,220.364212 173.956680,219.257858 
	C175.311172,218.987183 177.310120,216.935883 177.320953,215.688583 
	C177.523468,192.358871 177.501160,169.026825 177.400467,145.695816 
	C177.393890,144.169357 176.698654,142.410278 175.778763,141.160538 
	C168.273758,130.964432 160.730057,120.792618 152.932739,110.820946 
	C151.916107,109.520813 149.303970,108.644653 147.579315,108.845680 
	C122.943031,111.717522 98.332306,114.808601 73.486832,117.875061 
	C71.492523,110.665894 74.078300,105.160927 79.449783,100.665588 
	C89.622452,92.152206 101.973801,88.790680 114.545708,85.983459 
	C115.358475,85.801979 116.178566,85.653351 117.412560,85.394791 
z"/>
<path fill="#004A7D" opacity="1.000000" stroke="none" 
	d="
M100.872360,199.172241 
	C93.435699,192.894440 89.042130,185.729675 88.627190,175.853500 
	C88.153313,164.574661 86.364960,153.352509 85.211075,142.099243 
	C85.030594,140.339096 85.185837,138.544525 85.185837,136.254288 
	C86.764519,136.794708 87.891930,136.994843 88.828812,137.529099 
	C104.083145,146.227890 120.843208,149.524399 138.039062,150.935699 
	C146.814514,151.655899 155.653351,151.719208 164.466278,151.809296 
	C167.897003,151.844376 169.252472,153.029022 169.148788,156.479645 
	C168.649094,173.113510 168.357239,189.754456 167.699936,206.381378 
	C167.637436,207.962067 165.688446,210.671906 164.383316,210.820511 
	C142.200699,213.346222 120.443230,213.031799 100.872360,199.172241 
z"/>
<path fill="#014B7D" opacity="1.000000" stroke="none" 
	d="
M136.826859,143.104019 
	C118.685356,140.897186 101.261650,137.962524 86.759453,126.603523 
	C86.783981,126.100136 86.808517,125.596741 86.833046,125.093353 
	C91.135361,124.440147 95.426750,123.701675 99.741966,123.149223 
	C114.427910,121.269058 129.137665,119.565468 143.801453,117.529045 
	C147.056412,117.077019 149.094040,117.721062 150.904846,120.485207 
	C155.793503,127.947632 160.898071,135.268600 166.259125,143.148605 
	C155.979279,143.148605 146.628036,143.148605 136.826859,143.104019 
z"/>
</svg>