<svg width="16" height="18" viewBox="0 0 16 18" fill="none" xmlns="http://www.w3.org/2000/svg">
<path d="M15.8317 0L14.3894 16.1575L7.90614 17.9548L1.44078 16.16L0 0H15.8317Z" fill="#264DE4"/>
<path d="M13.1548 15.1286L14.3873 1.32129H7.91602V16.581L13.1548 15.1286Z" fill="#2965F1"/>
<path d="M3.30273 7.31482L3.48037 9.29676H7.91561V7.31482H3.30273Z" fill="#EBEBEB"/>
<path d="M7.9161 3.30334H7.90925H2.94629L3.12646 5.28532H7.9161V3.30334Z" fill="#EBEBEB"/>
<path d="M7.91602 14.5242V12.4621L7.90734 12.4644L5.70002 11.8684L5.55891 10.2877H4.48633H3.56934L3.84701 13.3997L7.9069 14.5267L7.91602 14.5242Z" fill="#EBEBEB"/>
<path d="M10.3497 9.29681L10.1197 11.8673L7.90918 12.4639V14.5259L11.9723 13.3998L12.0021 13.0649L12.4678 7.84709L12.5162 7.31488L12.874 3.30334H7.90918V5.28532H10.702L10.5216 7.31488H7.90918V9.29681H10.3497Z" fill="white"/>
</svg>
