<svg version="1.1" id="Layer_1" xmlns="http://www.w3.org/2000/svg" xmlns:xlink="http://www.w3.org/1999/xlink" x="0px" y="0px"
	 width="100%" viewBox="0 0 225 225" enable-background="new 0 0 225 225" xml:space="preserve">
<path fill="#5D5D5F" opacity="1.000000" stroke="none" 
	d="
M154.094360,214.122803 
	C89.164848,240.350525 15.786909,198.365128 6.085131,129.758850 
	C-2.357689,70.055328 37.484890,15.646305 96.761375,6.271198 
	C102.525475,5.359554 108.634727,6.690351 114.423386,5.860913 
	C125.302818,4.302040 135.490753,6.884734 145.640152,9.877129 
	C186.083618,21.801258 216.808243,58.888420 221.182861,100.837128 
	C226.361023,150.491196 200.830261,193.796310 154.094360,214.122803 
M121.516052,66.395599 
	C117.555717,66.395599 113.595383,66.395599 109.134689,66.395599 
	C109.669281,68.306831 110.021591,69.705170 110.450546,71.079575 
	C120.445000,103.102112 130.373260,135.145767 140.550919,167.110001 
	C141.716217,170.769806 141.222977,173.269440 138.197708,175.158127 
	C135.270096,176.985855 132.243637,178.817551 129.017426,179.961929 
	C125.304604,181.278915 121.324982,181.843750 116.998810,182.841965 
	C117.932526,188.807785 118.862808,194.751663 119.780525,200.615295 
	C147.031219,199.035461 163.772690,185.194962 171.701920,159.991501 
	C178.380020,138.764847 185.358368,117.632591 192.216461,96.462654 
	C195.415512,86.587685 198.644547,76.722435 202.008942,66.395546 
	C194.285614,66.395546 187.282303,66.675529 180.316071,66.288277 
	C176.277145,66.063744 174.954254,67.673019 174.059708,71.285698 
	C168.749374,92.732269 163.240234,114.129776 157.735413,135.527710 
	C157.266327,137.351044 156.340332,139.056808 155.626572,140.817200 
	C155.189041,140.696945 154.751495,140.576706 154.313950,140.456467 
	C148.357483,115.842957 142.401001,91.229446 136.391251,66.395866 
	C131.460175,66.395866 126.981575,66.395866 121.516052,66.395599 
M58.438217,123.805885 
	C58.938137,114.889404 58.506439,105.793282 60.182091,97.103516 
	C62.122993,87.038208 68.851311,82.267815 78.973679,83.152832 
	C85.015907,83.681122 90.871429,86.344818 97.466408,88.236641 
	C100.363174,84.305847 103.898590,79.508430 107.409790,74.743874 
	C93.227837,60.772610 65.659042,58.853409 49.913647,70.552734 
	C27.067347,87.528259 23.926529,131.068954 44.479469,151.116379 
	C57.745571,164.056183 74.042564,165.910934 91.167374,161.079941 
	C97.147568,159.392899 102.585075,155.782120 108.599083,152.891891 
	C104.108406,146.576157 100.496918,141.496902 96.923378,136.471039 
	C73.768707,150.675400 59.707119,139.609375 58.438217,123.805885 
z"/>
<path fill="#FDFDFD" opacity="1.000000" stroke="none" 
	d="
M122.009506,66.395737 
	C126.981575,66.395866 131.460175,66.395866 136.391251,66.395866 
	C142.401001,91.229446 148.357483,115.842957 154.313950,140.456467 
	C154.751495,140.576706 155.189041,140.696945 155.626572,140.817200 
	C156.340332,139.056808 157.266327,137.351044 157.735413,135.527710 
	C163.240234,114.129776 168.749374,92.732269 174.059708,71.285698 
	C174.954254,67.673019 176.277145,66.063744 180.316071,66.288277 
	C187.282303,66.675529 194.285614,66.395546 202.008942,66.395546 
	C198.644547,76.722435 195.415512,86.587685 192.216461,96.462654 
	C185.358368,117.632591 178.380020,138.764847 171.701920,159.991501 
	C163.772690,185.194962 147.031219,199.035461 119.780525,200.615295 
	C118.862808,194.751663 117.932526,188.807785 116.998810,182.841965 
	C121.324982,181.843750 125.304604,181.278915 129.017426,179.961929 
	C132.243637,178.817551 135.270096,176.985855 138.197708,175.158127 
	C141.222977,173.269440 141.716217,170.769806 140.550919,167.110001 
	C130.373260,135.145767 120.445000,103.102112 110.450546,71.079575 
	C110.021591,69.705170 109.669281,68.306831 109.134689,66.395599 
	C113.595383,66.395599 117.555717,66.395599 122.009506,66.395737 
z"/>
<path fill="#FEFEFE" opacity="1.000000" stroke="none" 
	d="
M58.543274,124.231705 
	C59.707119,139.609375 73.768707,150.675400 96.923378,136.471039 
	C100.496918,141.496902 104.108406,146.576157 108.599083,152.891891 
	C102.585075,155.782120 97.147568,159.392899 91.167374,161.079941 
	C74.042564,165.910934 57.745571,164.056183 44.479469,151.116379 
	C23.926529,131.068954 27.067347,87.528259 49.913647,70.552734 
	C65.659042,58.853409 93.227837,60.772610 107.409790,74.743874 
	C103.898590,79.508430 100.363174,84.305847 97.466408,88.236641 
	C90.871429,86.344818 85.015907,83.681122 78.973679,83.152832 
	C68.851311,82.267815 62.122993,87.038208 60.182091,97.103516 
	C58.506439,105.793282 58.938137,114.889404 58.543274,124.231705 
z"/>
</svg>