<svg version="1.1" id="Layer_1" xmlns="http://www.w3.org/2000/svg" xmlns:xlink="http://www.w3.org/1999/xlink" x="0px" y="0px"
	 width="100%" viewBox="0 0 890 890" enable-background="new 0 0 890 890" xml:space="preserve">
<path fill="#6411EC" opacity="1.000000" stroke="none" 
	d="
M406.468658,891.000000 
	C405.438568,890.341675 404.937286,889.177734 404.306458,889.102783 
	C397.502838,888.293091 390.678802,887.654846 383.522369,886.581787 
	C384.431793,884.653687 385.555115,882.990112 386.945892,881.592651 
	C400.228363,868.245789 413.556122,854.944092 426.870850,841.629395 
	C534.331177,734.168945 641.805420,626.722473 749.192505,519.188904 
	C752.880737,515.495605 755.695679,510.930176 759.072083,506.482666 
	C762.110596,502.782806 764.994690,499.371521 768.219360,495.889252 
	C770.363892,494.388306 772.329590,493.120331 773.948120,491.504669 
	C808.492737,457.022858 842.967773,422.471252 877.582886,388.060455 
	C879.808899,385.847565 883.058350,384.664124 885.831726,383.001831 
	C886.911560,394.310944 887.977905,405.621399 889.112610,416.924988 
	C889.166687,417.463593 889.826172,417.941376 890.601807,418.223755 
	C891.000000,428.687561 891.000000,439.375122 890.642639,450.569092 
	C888.042908,452.697632 885.529846,454.048798 883.596863,455.980530 
	C753.453186,586.038940 623.356140,716.143921 493.255127,846.244934 
	C480.410034,859.090088 467.519623,871.890625 454.775635,884.835327 
	C453.128876,886.508057 452.239960,888.926819 451.000000,891.000000 
	C436.312439,891.000000 421.624878,891.000000 406.468658,891.000000 
z"/>
<path fill="#E80E9E" opacity="1.000000" stroke="none" 
	d="
M361.995392,10.167040 
	C390.748016,4.475315 419.779877,2.189731 449.441071,3.416946 
	C448.449615,5.463400 447.211304,7.247594 445.701416,8.760754 
	C421.110321,33.405052 396.477722,58.007870 371.868378,82.633980 
	C249.647736,204.938080 127.433487,327.248596 5.176555,449.516418 
	C4.066583,450.626495 2.404396,451.184357 1.000003,452.000000 
	C1.000000,436.312439 1.000000,420.624878 1.000004,404.468658 
	C1.641209,403.670227 2.793276,403.410492 2.849515,403.000458 
	C4.638725,389.955048 6.321729,376.895050 8.463633,363.404297 
	C11.107998,361.643768 13.684640,360.693329 15.455120,358.932404 
	C44.736416,329.808899 73.916435,300.583557 103.119041,271.380951 
	C187.900833,186.599121 272.690186,101.824860 357.415497,16.986649 
	C359.314392,15.085215 360.485046,12.456503 361.995392,10.167040 
z"/>
<path fill="#DD0EA4" opacity="1.000000" stroke="none" 
	d="
M1.000003,452.468658 
	C2.404396,451.184357 4.066583,450.626495 5.176555,449.516418 
	C127.433487,327.248596 249.647736,204.938080 371.868378,82.633980 
	C396.477722,58.007870 421.110321,33.405052 445.701416,8.760754 
	C447.211304,7.247594 448.449615,5.463400 449.904968,3.485903 
	C466.302612,2.422761 482.499023,3.561560 498.626892,5.964335 
	C500.256683,6.207143 501.934235,6.129552 503.640259,6.835291 
	C502.570953,8.702937 501.500397,9.985375 500.323944,11.161930 
	C337.295990,174.204620 174.262833,337.242188 11.192452,500.242462 
	C9.341031,502.093109 7.001442,503.455414 4.889726,505.045654 
	C4.260007,500.836365 3.675498,496.619537 2.978192,492.421478 
	C2.701430,490.755219 2.174475,489.130524 1.380715,487.743469 
	C1.000000,476.312439 1.000000,464.624878 1.000003,452.468658 
z"/>
<path fill="#5911F2" opacity="1.000000" stroke="none" 
	d="
M451.468658,891.000000 
	C452.239960,888.926819 453.128876,886.508057 454.775635,884.835327 
	C467.519623,871.890625 480.410034,859.090088 493.255127,846.244934 
	C623.356140,716.143921 753.453186,586.038940 883.596863,455.980530 
	C885.529846,454.048798 888.042908,452.697632 890.642639,451.037750 
	C891.000000,460.020905 891.000000,469.041779 891.000000,478.531342 
	C890.333374,480.378967 889.254028,481.703705 889.064575,483.145386 
	C887.352051,496.174438 885.795410,509.224030 883.665894,522.667175 
	C881.032227,524.604797 878.677795,525.894531 876.854858,527.716248 
	C760.425781,644.066650 644.039795,760.460144 527.651367,876.851196 
	C526.591370,877.911255 525.249329,878.834961 524.592041,880.107910 
	C524.022827,881.210388 524.240417,882.719055 524.110229,884.048218 
	C518.932129,885.032532 513.785278,886.252869 508.568359,886.943909 
	C501.304138,887.906128 493.986023,888.459045 486.697144,889.244385 
	C486.313354,889.285767 485.987030,889.860596 485.816956,890.593567 
	C474.645782,891.000000 463.291534,891.000000 451.468658,891.000000 
z"/>
<path fill="#F50D96" opacity="1.000000" stroke="none" 
	d="
M361.589478,10.110796 
	C360.485046,12.456503 359.314392,15.085215 357.415497,16.986649 
	C272.690186,101.824860 187.900833,186.599121 103.119041,271.380951 
	C73.916435,300.583557 44.736416,329.808899 15.455120,358.932404 
	C13.684640,360.693329 11.107998,361.643768 8.540833,362.978638 
	C10.442720,353.199280 12.161633,343.244690 15.095467,333.662048 
	C20.678911,315.424988 26.444508,297.210968 33.062946,279.331055 
	C43.660648,250.700989 58.449657,224.086273 75.273842,198.727036 
	C84.439613,184.911407 94.833054,171.817337 105.584045,159.172592 
	C116.167641,146.724762 127.293800,134.595825 139.291412,123.529884 
	C153.239624,110.664810 168.022659,98.621338 183.110825,87.094978 
	C206.719849,69.059280 232.595230,54.568375 259.578522,42.292290 
	C288.073792,29.328318 317.611237,19.167273 348.403381,12.976199 
	C352.686127,12.115110 356.924622,11.033876 361.589478,10.110796 
z"/>
<path fill="#A80FC3" opacity="1.000000" stroke="none" 
	d="
M716.110352,94.954010 
	C722.783264,100.178795 729.661804,105.165161 736.071594,110.694969 
	C742.565063,116.296982 748.594910,122.436317 754.680176,128.825165 
	C754.012207,129.725891 753.446350,130.096130 752.978271,130.564148 
	C671.206665,212.313934 589.434570,294.063293 507.738861,375.888916 
	C506.353088,377.276917 505.894104,379.590271 504.546539,381.525757 
	C481.373566,380.943146 466.678009,398.571655 464.352875,415.009949 
	C462.046051,416.131714 459.757477,416.892883 458.205170,418.408295 
	C448.707733,427.679993 439.415070,437.161133 429.951660,446.468262 
	C428.483032,447.912659 426.488495,448.822235 424.604095,449.529724 
	C424.443329,441.092499 424.201263,433.098328 424.440155,425.118500 
	C424.767151,414.194092 422.587280,404.094269 416.093109,394.918396 
	C417.613586,393.144897 418.902802,391.613617 420.312927,390.203217 
	C517.287964,293.210419 614.271484,196.226013 711.268494,99.255127 
	C712.792542,97.731468 714.492493,96.383804 716.110352,94.954010 
z"/>
<path fill="#B30FBD" opacity="1.000000" stroke="none" 
	d="
M715.962402,94.640320 
	C714.492493,96.383804 712.792542,97.731468 711.268494,99.255127 
	C614.271484,196.226013 517.287964,293.210419 420.312927,390.203217 
	C418.902802,391.613617 417.613586,393.144897 415.795837,394.754486 
	C407.131592,385.574005 396.672089,381.569611 384.440979,381.598358 
	C375.961456,381.618286 367.481628,381.518585 359.043579,381.147705 
	C360.687561,378.751312 362.084991,376.474823 363.921509,374.637146 
	C464.968811,273.523682 566.056519,172.450562 667.105591,71.338837 
	C668.948853,69.494400 670.375854,67.234001 671.997070,65.167694 
	C682.921021,72.202980 693.881714,79.182335 704.749146,86.303871 
	C708.555481,88.798210 712.132568,91.642265 715.962402,94.640320 
z"/>
<path fill="#BD0FB7" opacity="1.000000" stroke="none" 
	d="
M671.681519,65.013138 
	C670.375854,67.234001 668.948853,69.494400 667.105591,71.338837 
	C566.056519,172.450562 464.968811,273.523682 363.921509,374.637146 
	C362.084991,376.474823 360.687561,378.751312 358.577759,381.200806 
	C348.739288,381.590179 339.401367,381.391998 330.080383,381.703094 
	C325.514893,381.855499 320.871094,382.538361 316.453796,383.704712 
	C304.351624,386.900177 290.750427,401.441040 290.729248,417.028137 
	C290.721100,423.012085 290.425018,428.995667 289.951324,435.031799 
	C288.067932,436.249939 286.325012,437.245392 284.945953,438.608917 
	C275.617279,447.832672 266.428864,457.199310 257.029724,466.349915 
	C255.361359,467.974121 252.919846,468.804169 250.713379,469.545654 
	C250.673019,454.393982 250.754608,439.697571 251.191650,424.932220 
	C253.716812,423.389923 256.190491,422.220764 258.012878,420.399841 
	C380.918579,297.589905 503.777893,174.733521 626.581055,51.821056 
	C628.758728,49.641491 630.208191,46.734432 631.997437,44.166840 
	C641.446838,48.705730 650.965393,53.108429 660.312561,57.848866 
	C664.185852,59.813198 667.692566,62.500206 671.681519,65.013138 
z"/>
<path fill="#C50FB2" opacity="1.000000" stroke="none" 
	d="
M631.670166,44.006203 
	C630.208191,46.734432 628.758728,49.641491 626.581055,51.821056 
	C503.777893,174.733521 380.918579,297.589905 258.012878,420.399841 
	C256.190491,422.220764 253.716812,423.389923 251.069504,424.533722 
	C250.927917,410.830292 246.914886,399.216095 237.128845,389.989349 
	C239.516876,388.233337 241.723038,386.729218 243.578674,384.874451 
	C359.376770,269.128418 475.147552,153.355057 590.909180,37.572540 
	C593.378601,35.102631 595.712097,32.496788 598.109009,29.954357 
	C606.373962,33.115120 614.674194,36.187969 622.885010,39.483650 
	C625.815796,40.660011 628.529907,42.375938 631.670166,44.006203 
z"/>
<path fill="#9D10CA" opacity="1.000000" stroke="none" 
	d="
M505.002625,381.471802 
	C505.894104,379.590271 506.353088,377.276917 507.738861,375.888916 
	C589.434570,294.063293 671.206665,212.313934 752.978271,130.564148 
	C753.446350,130.096130 754.012207,129.725891 754.821289,129.131195 
	C766.517822,141.222397 777.923767,153.494034 789.335754,165.760040 
	C790.460510,166.968933 791.622131,168.143524 792.502502,169.793396 
	C789.893616,172.600418 787.550232,174.949417 785.203979,177.295670 
	C717.662842,244.837204 650.116638,312.373840 582.605652,379.945435 
	C580.877380,381.675232 579.532166,383.787628 577.661194,385.635010 
	C571.099976,384.236206 564.914978,381.983734 558.666199,381.790100 
	C540.792236,381.236328 522.892334,381.518433 505.002625,381.471802 
z"/>
<path fill="#CC0EAE" opacity="1.000000" stroke="none" 
	d="
M597.916382,29.627331 
	C595.712097,32.496788 593.378601,35.102631 590.909180,37.572540 
	C475.147552,153.355057 359.376770,269.128418 243.578674,384.874451 
	C241.723038,386.729218 239.516876,388.233337 236.808929,389.884766 
	C228.579468,383.878296 219.847992,381.574066 210.342529,381.595947 
	C202.895020,381.613098 195.447235,381.517792 188.041595,381.145325 
	C189.381943,378.724792 190.356903,376.317261 192.033554,374.591400 
	C200.138321,366.248749 208.348099,358.002563 216.724121,349.933350 
	C218.546799,348.177460 221.204041,347.287872 223.561554,346.438293 
	C223.754013,349.258240 223.861832,351.639221 223.986328,354.288574 
	C224.329147,354.633698 224.655304,354.710419 225.447968,354.846130 
	C233.965744,354.905151 242.017014,354.905151 250.836823,354.905151 
	C250.836823,345.505951 250.836823,336.753723 251.179749,327.924744 
	C252.976028,326.770935 254.593735,325.858307 255.859329,324.593384 
	C356.161530,224.342010 456.441956,124.068840 556.659485,23.732889 
	C558.195923,22.194658 558.930847,19.855820 560.039795,17.890633 
	C570.173401,20.856901 580.313599,23.801048 590.435913,26.805344 
	C592.895386,27.535316 595.296082,28.463337 597.916382,29.627331 
z"/>
<path fill="#D70EA8" opacity="1.000000" stroke="none" 
	d="
M223.476913,345.999268 
	C221.204041,347.287872 218.546799,348.177460 216.724121,349.933350 
	C208.348099,358.002563 200.138321,366.248749 192.033554,374.591400 
	C190.356903,376.317261 189.381943,378.724792 187.575653,381.195984 
	C175.458008,381.625092 163.828339,381.266541 152.243637,381.831207 
	C137.655640,382.542297 127.436775,390.314575 120.366119,402.926300 
	C115.883904,410.921082 116.984550,419.526886 116.128494,428.012573 
	C113.617897,429.422119 111.120094,430.486298 109.333710,432.264984 
	C77.722420,463.740082 46.207527,495.312012 14.626060,526.817139 
	C13.017113,528.422180 10.996351,529.614380 9.167320,530.998840 
	C7.771956,522.642822 6.376596,514.286743 4.935481,505.488159 
	C7.001442,503.455414 9.341031,502.093109 11.192452,500.242462 
	C174.262833,337.242188 337.295990,174.204620 500.323944,11.161930 
	C501.500397,9.985375 502.570953,8.702937 503.870361,7.181636 
	C513.093018,8.270299 522.136230,9.647259 531.556274,11.442780 
	C530.397156,13.965740 529.109314,16.317976 527.289856,18.139002 
	C435.754456,109.755432 344.164795,201.317657 252.648849,292.953522 
	C250.376923,295.228394 248.865860,298.263153 246.538544,301.031799 
	C238.805725,301.120026 231.534302,301.120026 223.476913,301.120026 
	C223.476913,316.495575 223.476913,331.247406 223.476913,345.999268 
z"/>
<path fill="#9110D1" opacity="1.000000" stroke="none" 
	d="
M578.008301,385.721558 
	C579.532166,383.787628 580.877380,381.675232 582.605652,379.945435 
	C650.116638,312.373840 717.662842,244.837204 785.203979,177.295670 
	C787.550232,174.949417 789.893616,172.600418 792.535645,170.127777 
	C800.889099,181.082138 808.945312,192.161438 816.761536,203.772934 
	C813.963562,206.420929 811.213684,208.344650 808.875488,210.680511 
	C740.867859,278.618958 672.908997,346.606171 604.887207,414.530396 
	C603.081238,416.333740 600.664246,417.525208 598.453979,418.573486 
	C597.396790,403.687317 590.382935,393.020721 578.008301,385.721558 
z"/>
<path fill="#D30EAA" opacity="1.000000" stroke="none" 
	d="
M246.999939,300.943542 
	C248.865860,298.263153 250.376923,295.228394 252.648849,292.953522 
	C344.164795,201.317657 435.754456,109.755432 527.289856,18.139002 
	C529.109314,16.317976 530.397156,13.965740 531.965759,11.513729 
	C539.959717,12.908182 547.921082,14.649433 555.881897,16.393152 
	C557.129883,16.666496 558.375427,16.951056 559.830933,17.560528 
	C558.930847,19.855820 558.195923,22.194658 556.659485,23.732889 
	C456.441956,124.068840 356.161530,224.342010 255.859329,324.593384 
	C254.593735,325.858307 252.976028,326.770935 251.058212,327.469330 
	C250.564880,319.684479 250.425568,312.276215 250.564896,304.873230 
	C250.616196,302.148041 249.688248,300.896790 246.999939,300.943542 
z"/>
<path fill="#8B10D5" opacity="1.000000" stroke="none" 
	d="
M598.532227,419.002075 
	C600.664246,417.525208 603.081238,416.333740 604.887207,414.530396 
	C672.908997,346.606171 740.867859,278.618958 808.875488,210.680511 
	C811.213684,208.344650 813.963562,206.420929 816.815125,204.128815 
	C821.065674,210.030487 825.022705,216.108459 828.838013,222.833511 
	C826.583679,226.034180 824.661926,228.778183 822.330566,231.113205 
	C774.382751,279.135773 726.377502,327.100983 678.445129,375.139008 
	C676.646912,376.941223 675.467773,379.361115 673.577637,381.616547 
	C657.080811,382.801971 643.684082,393.613190 640.007690,409.340668 
	C638.745300,414.741180 638.742432,420.436096 637.821106,426.073578 
	C635.912537,427.339996 634.192505,428.373077 632.806580,429.744019 
	C623.716003,438.736481 614.778809,447.885925 605.589355,456.775024 
	C603.669189,458.632477 600.904419,459.616821 598.475220,460.537567 
	C598.458496,446.381775 598.495361,432.691925 598.532227,419.002075 
z"/>
<path fill="#6F11E5" opacity="1.000000" stroke="none" 
	d="
M885.748169,382.605591 
	C883.058350,384.664124 879.808899,385.847565 877.582886,388.060455 
	C842.967773,422.471252 808.492737,457.022858 773.948120,491.504669 
	C772.329590,493.120331 770.363892,494.388306 768.280212,495.515472 
	C769.463928,488.389709 771.934875,481.604584 772.192566,474.736359 
	C772.838867,457.512939 772.483398,440.251923 772.854736,422.966492 
	C775.010254,421.560913 777.040833,420.395386 778.641663,418.799011 
	C808.188904,389.332947 837.671692,359.802338 867.224915,330.342377 
	C868.939880,328.632782 871.138672,327.408508 873.112305,325.958405 
	C876.075073,337.678741 879.219604,349.357178 881.931580,361.135223 
	C883.530212,368.078339 884.443176,375.179382 885.748169,382.605591 
z"/>
<path fill="#7811E0" opacity="1.000000" stroke="none" 
	d="
M873.065308,325.555023 
	C871.138672,327.408508 868.939880,328.632782 867.224915,330.342377 
	C837.671692,359.802338 808.188904,389.332947 778.641663,418.799011 
	C777.040833,420.395386 775.010254,421.560913 772.800171,422.513123 
	C772.452698,410.091797 768.474915,399.699371 760.127808,390.846558 
	C761.065979,389.674652 761.775269,388.742371 762.595886,387.921265 
	C794.281128,356.218018 825.973816,324.522217 857.682434,292.842316 
	C858.735474,291.790222 859.963379,290.913147 861.109741,289.954468 
	C864.412537,299.192200 867.755981,308.415710 870.990662,317.677246 
	C871.839722,320.108246 872.351624,322.657013 873.065308,325.555023 
z"/>
<path fill="#8310D9" opacity="1.000000" stroke="none" 
	d="
M837.043213,236.884521 
	C841.606201,245.690552 846.169189,254.496597 850.431580,263.685120 
	C848.619080,265.014038 846.861938,265.714630 845.630981,266.942566 
	C809.394470,303.090759 773.192383,339.273560 737.080627,375.546265 
	C735.582703,377.050812 735.007751,379.474335 733.536987,381.524048 
	C721.381775,381.542633 709.692322,381.506805 698.044922,381.146515 
	C699.452148,378.987213 700.613464,376.948761 702.212341,375.347107 
	C745.400513,332.084320 788.661316,288.893890 831.782837,245.564850 
	C834.102051,243.234482 835.315186,239.803299 837.043213,236.884521 
z"/>
<path fill="#7E10DC" opacity="1.000000" stroke="none" 
	d="
M734.002808,381.469666 
	C735.007751,379.474335 735.582703,377.050812 737.080627,375.546265 
	C773.192383,339.273560 809.394470,303.090759 845.630981,266.942566 
	C846.861938,265.714630 848.619080,265.014038 850.478027,264.034851 
	C854.222168,272.396851 857.619324,280.791687 861.063110,289.570496 
	C859.963379,290.913147 858.735474,291.790222 857.682434,292.842316 
	C825.973816,324.522217 794.281128,356.218018 762.595886,387.921265 
	C761.775269,388.742371 761.065979,389.674652 759.799805,390.730286 
	C752.067200,384.535583 743.289490,382.320404 734.002808,381.469666 
z"/>
<path fill="#8810D7" opacity="1.000000" stroke="none" 
	d="
M837.020020,236.526077 
	C835.315186,239.803299 834.102051,243.234482 831.782837,245.564850 
	C788.661316,288.893890 745.400513,332.084320 702.212341,375.347107 
	C700.613464,376.948761 699.452148,378.987213 697.578979,381.199951 
	C689.380798,381.549652 681.690430,381.521423 674.000122,381.493225 
	C675.467773,379.361115 676.646912,376.941223 678.445129,375.139008 
	C726.377502,327.100983 774.382751,279.135773 822.330566,231.113205 
	C824.661926,228.778183 826.583679,226.034180 828.873108,223.187576 
	C831.698975,227.318909 834.347900,231.743256 837.020020,236.526077 
z"/>
<path fill="#5112F7" opacity="1.000000" stroke="none" 
	d="
M524.537964,884.027649 
	C524.240417,882.719055 524.022827,881.210388 524.592041,880.107910 
	C525.249329,878.834961 526.591370,877.911255 527.651367,876.851196 
	C644.039795,760.460144 760.425781,644.066650 876.854858,527.716248 
	C878.677795,525.894531 881.032227,524.604797 883.486328,523.033875 
	C882.224365,531.930908 881.133118,540.993652 878.885681,549.760010 
	C875.392578,563.385071 871.112854,576.808350 866.652222,590.691956 
	C864.385132,592.251404 862.384644,593.188110 860.915161,594.656311 
	C771.793396,683.699036 682.711121,772.781372 593.667297,861.902039 
	C592.194641,863.375916 591.238647,865.366028 590.041565,867.115173 
	C575.356812,871.410034 560.726929,875.907349 545.962891,879.909912 
	C539.098083,881.770996 531.972839,882.671326 524.537964,884.027649 
z"/>
<path fill="#4912FB" opacity="1.000000" stroke="none" 
	d="
M590.437988,867.064941 
	C591.238647,865.366028 592.194641,863.375916 593.667297,861.902039 
	C682.711121,772.781372 771.793396,683.699036 860.915161,594.656311 
	C862.384644,593.188110 864.385132,592.251404 866.485352,591.033691 
	C858.199890,617.750671 846.862793,643.313293 832.206665,667.288391 
	C822.527954,683.121094 812.607788,698.862976 801.796143,713.928101 
	C793.399475,725.628235 783.721191,736.454651 774.114075,747.224670 
	C767.096069,755.092102 759.247559,762.216675 751.804749,769.707520 
	C735.298462,786.320496 716.734314,800.414490 697.575562,813.739929 
	C677.180420,827.925232 655.602783,840.159851 632.978027,850.359253 
	C619.222778,856.560181 604.901489,861.505371 590.437988,867.064941 
z"/>
<path fill="#7811E0" opacity="1.000000" stroke="none" 
	d="
M320.950165,873.110840 
	C316.732666,871.965942 312.458649,870.993958 308.309875,869.638611 
	C300.611572,867.123840 292.986389,864.385193 285.319763,861.135193 
	C286.310150,859.416199 287.262115,858.252502 288.319824,857.194580 
	C403.178589,742.320984 518.042114,627.452148 632.945801,512.623535 
	C634.420532,511.149750 636.413208,510.194275 638.288208,509.405884 
	C638.533386,511.561859 638.654358,513.308838 638.808167,515.529480 
	C653.211792,515.529480 667.109192,515.529480 680.967285,515.854492 
	C679.800659,517.771118 678.855286,519.539185 677.513550,520.922974 
	C672.435730,526.159607 667.142944,531.189758 662.127319,536.483521 
	C660.736450,537.951416 660.025269,540.063354 658.539612,541.960571 
	C651.696655,542.041321 645.316284,542.041321 638.166748,542.041321 
	C638.166748,547.811462 638.166748,552.903625 637.798096,558.023865 
	C635.291443,559.529602 632.865417,560.719116 631.056580,562.526245 
	C529.085876,664.404236 427.165344,766.332642 325.253754,868.269897 
	C323.729828,869.794189 322.380829,871.493286 320.950165,873.110840 
z"/>
<path fill="#7F10DC" opacity="1.000000" stroke="none" 
	d="
M638.164062,508.996826 
	C636.413208,510.194275 634.420532,511.149750 632.945801,512.623535 
	C518.042114,627.452148 403.178589,742.320984 288.319824,857.194580 
	C287.262115,858.252502 286.310150,859.416199 285.129456,860.818970 
	C279.673279,859.077026 274.340912,857.178162 269.135223,854.979370 
	C263.923859,852.778198 258.838989,850.277527 253.763245,847.472168 
	C255.810410,845.265564 257.885590,843.587463 259.762482,841.711060 
	C383.684784,717.818054 507.587311,593.905212 631.533264,470.035797 
	C633.478882,468.091370 635.942139,466.664948 638.286743,465.451965 
	C638.327759,480.270355 638.245911,494.633606 638.164062,508.996826 
z"/>
<path fill="#9E10C9" opacity="1.000000" stroke="none" 
	d="
M154.956116,783.113281 
	C145.776062,774.714722 136.571014,766.343201 127.444435,757.886902 
	C126.159103,756.695984 125.257362,755.091064 124.323387,753.183838 
	C124.988373,752.274292 125.553497,751.904114 126.021240,751.436462 
	C202.794327,674.685181 279.568237,597.934753 356.264984,521.107239 
	C357.650330,519.719604 358.110474,517.408386 359.467957,515.475830 
	C379.956696,515.458557 399.979828,515.493591 419.962402,515.853516 
	C418.435577,518.131104 417.152740,520.287170 415.433838,522.007446 
	C330.295593,607.212341 245.118225,692.378174 159.960297,777.563354 
	C158.201523,779.322693 156.620224,781.259399 154.956116,783.113281 
z"/>
<path fill="#6E11E6" opacity="1.000000" stroke="none" 
	d="
M659.002197,541.879822 
	C660.025269,540.063354 660.736450,537.951416 662.127319,536.483521 
	C667.142944,531.189758 672.435730,526.159607 677.513550,520.922974 
	C678.855286,519.539185 679.800659,517.771118 681.432861,515.804443 
	C696.068359,515.417297 710.206360,515.116333 724.327271,515.479980 
	C736.766968,515.800293 748.657410,514.736450 758.917664,506.771240 
	C755.695679,510.930176 752.880737,515.495605 749.192505,519.188904 
	C641.805420,626.722473 534.331177,734.168945 426.870850,841.629395 
	C413.556122,854.944092 400.228363,868.245789 386.945892,881.592651 
	C385.555115,882.990112 384.431793,884.653687 383.093140,886.513000 
	C374.420990,885.440430 365.834534,884.080994 357.263367,882.631409 
	C355.388184,882.314331 353.567322,881.675903 351.394043,880.661621 
	C352.250031,878.386353 353.185333,876.387146 354.652161,874.919067 
	C447.379150,782.113403 540.145630,689.347107 632.950439,596.619263 
	C634.423828,595.147095 636.416382,594.194458 638.304199,593.366211 
	C639.010315,594.418884 639.569641,595.692871 640.148926,595.701965 
	C648.391296,595.831848 656.636414,595.790527 665.033752,595.790527 
	C665.033752,577.783813 665.033752,560.390442 665.024536,542.718262 
	C664.677063,542.363586 664.338806,542.287659 663.586670,542.150391 
	C661.782532,542.019348 660.392334,541.949585 659.002197,541.879822 
z"/>
<path fill="#9710CD" opacity="1.000000" stroke="none" 
	d="
M155.095322,783.421326 
	C156.620224,781.259399 158.201523,779.322693 159.960297,777.563354 
	C245.118225,692.378174 330.295593,607.212341 415.433838,522.007446 
	C417.152740,520.287170 418.435577,518.131104 420.409119,515.801392 
	C425.587891,516.054626 423.902222,512.139832 425.072449,510.006287 
	C427.310364,508.781158 429.505127,507.867371 431.081970,506.322784 
	C440.465332,497.131317 449.667603,487.755127 459.033844,478.545868 
	C460.505646,477.098755 462.503510,476.186676 464.390472,475.476410 
	C464.662811,489.090790 464.802765,502.255981 464.943848,515.771484 
	C463.459229,518.418518 462.327240,521.068665 460.436920,522.961426 
	C368.887909,614.626587 277.268890,706.221802 185.699478,797.866577 
	C183.868500,799.699036 182.531067,802.024658 180.963379,804.120178 
	C172.387085,797.323242 163.810806,790.526306 155.095322,783.421326 
z"/>
<path fill="#A80FC3" opacity="1.000000" stroke="none" 
	d="
M359.002319,515.528076 
	C358.110474,517.408386 357.650330,519.719604 356.264984,521.107239 
	C279.568237,597.934753 202.794327,674.685181 126.021240,751.436462 
	C125.553497,751.904114 124.988373,752.274292 124.180092,752.869019 
	C114.320000,742.256470 104.748512,731.464844 95.337387,720.212158 
	C97.682884,717.983032 100.049232,716.396362 102.026909,714.420593 
	C168.698166,647.812622 235.325790,581.160950 302.006927,514.562927 
	C303.838684,512.733459 306.187592,511.421814 308.639404,509.937195 
	C315.542603,513.806458 322.524353,515.645447 330.190521,515.455933 
	C339.787994,515.218506 349.397827,515.481201 359.002319,515.528076 
z"/>
<path fill="#8410D8" opacity="1.000000" stroke="none" 
	d="
M638.163879,464.996765 
	C635.942139,466.664948 633.478882,468.091370 631.533264,470.035797 
	C507.587311,593.905212 383.684784,717.818054 259.762482,841.711060 
	C257.885590,843.587463 255.810410,845.265564 253.479919,847.221802 
	C245.503357,843.518982 237.874680,839.630737 230.277542,835.136353 
	C231.897964,832.828247 233.437592,831.076965 235.082840,829.431335 
	C310.562225,753.935608 386.059723,678.458008 461.487152,602.910461 
	C463.380249,601.014404 464.512726,598.358887 466.461304,595.968994 
	C474.857391,595.880432 482.792145,595.880432 491.523560,595.880432 
	C491.523560,587.859314 491.523560,580.430359 491.848724,572.961243 
	C493.649841,571.913086 495.325500,571.105957 496.571564,569.866821 
	C513.038269,553.491089 529.464722,537.074646 545.828430,520.596069 
	C547.166626,519.248413 547.973511,517.373169 549.476196,515.610046 
	C557.761719,514.652832 565.985291,515.055603 573.349365,512.733032 
	C586.208435,508.677399 594.743408,499.397278 596.881042,485.721069 
	C598.151306,477.594543 598.026489,469.250031 598.528870,461.003510 
	C600.904419,459.616821 603.669189,458.632477 605.589355,456.775024 
	C614.778809,447.885925 623.716003,438.736481 632.806580,429.744019 
	C634.192505,428.373077 635.912537,427.339996 637.943481,426.528900 
	C638.327209,439.603699 638.245544,452.300262 638.163879,464.996765 
z"/>
<path fill="#9010D2" opacity="1.000000" stroke="none" 
	d="
M181.127930,804.421021 
	C182.531067,802.024658 183.868500,799.699036 185.699478,797.866577 
	C277.268890,706.221802 368.887909,614.626587 460.436920,522.961426 
	C462.327240,521.068665 463.459229,518.418518 465.415955,515.761841 
	C481.252106,515.515503 496.617310,515.629028 511.972076,516.072021 
	C511.127594,517.946167 510.562531,519.739258 509.408752,520.988647 
	C506.058350,524.616638 502.376465,527.937439 499.005951,531.548035 
	C495.897522,534.877808 493.023865,538.426758 489.580994,541.958252 
	C481.069672,542.037354 473.024170,542.037354 464.471222,542.037354 
	C464.471222,550.496521 464.471222,558.249695 464.146729,566.044861 
	C462.104553,567.334839 460.182098,568.377930 458.698608,569.860229 
	C376.683350,651.809448 294.699707,733.790283 212.755356,815.810364 
	C210.905487,817.661987 209.544540,820.002014 207.955521,822.114197 
	C199.646469,816.600525 191.339981,811.083008 183.022476,805.582092 
	C182.489319,805.229553 181.871124,805.005615 181.127930,804.421021 
z"/>
<path fill="#6F11E5" opacity="1.000000" stroke="none" 
	d="
M638.166626,592.999451 
	C636.416382,594.194458 634.423828,595.147095 632.950439,596.619263 
	C540.145630,689.347107 447.379150,782.113403 354.652161,874.919067 
	C353.185333,876.387146 352.250031,878.386353 351.033630,880.485229 
	C342.529541,878.830139 334.057892,876.830383 325.588104,874.822449 
	C324.175598,874.487671 322.771423,874.117615 321.156769,873.437378 
	C322.380829,871.493286 323.729828,869.794189 325.253754,868.269897 
	C427.165344,766.332642 529.085876,664.404236 631.056580,562.526245 
	C632.865417,560.719116 635.291443,559.529602 637.921570,558.478882 
	C638.331360,570.270386 638.248962,581.634888 638.166626,592.999451 
z"/>
<path fill="#B00FBE" opacity="1.000000" stroke="none" 
	d="
M308.295349,509.868713 
	C306.187592,511.421814 303.838684,512.733459 302.006927,514.562927 
	C235.325790,581.160950 168.698166,647.812622 102.026909,714.420593 
	C100.049232,716.396362 97.682884,717.983032 95.185577,719.902954 
	C88.248367,710.954529 81.623344,701.854309 75.233688,692.224121 
	C76.227592,691.046387 77.034363,690.446838 77.737663,689.743652 
	C134.172440,633.325134 190.606064,576.905334 246.984756,520.430725 
	C248.315048,519.098206 249.022507,517.143799 250.123962,515.216064 
	C250.430344,514.634583 250.633224,514.316589 251.205200,513.971619 
	C253.468719,512.710449 255.630905,511.749268 257.213562,510.197174 
	C266.573486,501.017792 275.758850,491.660492 285.111115,482.473145 
	C286.575928,481.034180 288.593597,480.158020 290.505066,479.369629 
	C291.061218,482.362915 291.298798,485.047668 291.904755,487.646515 
	C294.174652,497.381561 300.777771,503.974487 308.295349,509.868713 
z"/>
<path fill="#8A10D5" opacity="1.000000" stroke="none" 
	d="
M208.101196,822.429443 
	C209.544540,820.002014 210.905487,817.661987 212.755356,815.810364 
	C294.699707,733.790283 376.683350,651.809448 458.698608,569.860229 
	C460.182098,568.377930 462.104553,567.334839 464.198059,566.510620 
	C464.586273,575.009277 464.523438,583.085693 464.673584,591.158081 
	C464.704132,592.798950 465.536987,594.424805 465.999939,596.057617 
	C464.512726,598.358887 463.380249,601.014404 461.487152,602.910461 
	C386.059723,678.458008 310.562225,753.935608 235.082840,829.431335 
	C233.437592,831.076965 231.897964,832.828247 230.129730,834.818604 
	C222.715866,830.986206 215.481354,826.865417 208.101196,822.429443 
z"/>
<path fill="#B70FBB" opacity="1.000000" stroke="none" 
	d="
M250.020477,515.479492 
	C249.022507,517.143799 248.315048,519.098206 246.984756,520.430725 
	C190.606064,576.905334 134.172440,633.325134 77.737663,689.743652 
	C77.034363,690.446838 76.227592,691.046387 75.179474,691.871216 
	C69.263123,682.972717 63.636356,673.897217 58.156677,664.174316 
	C59.773815,661.946655 61.196030,660.318604 62.720879,658.793152 
	C108.455383,613.041565 154.210510,567.310486 199.901443,521.515381 
	C201.581146,519.831848 202.648590,517.537415 204.467102,515.475952 
	C219.962051,515.442688 234.991272,515.461060 250.020477,515.479492 
z"/>
<path fill="#BE0FB6" opacity="1.000000" stroke="none" 
	d="
M204.001343,515.527649 
	C202.648590,517.537415 201.581146,519.831848 199.901443,521.515381 
	C154.210510,567.310486 108.455383,613.041565 62.720879,658.793152 
	C61.196030,660.318604 59.773815,661.946655 58.127132,663.816528 
	C52.631214,653.994080 47.311935,643.881958 42.272659,633.319702 
	C43.997910,631.783386 45.598907,630.853210 46.865742,629.588318 
	C83.143837,593.366516 119.399818,557.122498 155.596680,520.819580 
	C157.044296,519.367676 157.879883,517.305481 159.466492,515.476135 
	C174.621994,515.458984 189.311661,515.493286 204.001343,515.527649 
z"/>
<path fill="#CC0EAE" opacity="1.000000" stroke="none" 
	d="
M27.874264,599.052551 
	C23.575687,585.325623 19.277111,571.598755 15.221813,557.287231 
	C18.023670,554.588135 20.771618,552.663513 23.112019,550.330200 
	C52.251667,521.278748 81.315742,492.151398 110.469833,463.114471 
	C112.160034,461.431030 114.457527,460.357361 116.523392,459.465820 
	C116.585930,463.393555 116.790894,466.867584 116.573677,470.315063 
	C115.851120,481.782776 117.744453,492.494324 125.001060,502.101440 
	C123.603676,504.136627 122.459717,505.988281 120.963196,507.488129 
	C92.067810,536.448914 63.145531,565.382935 34.169361,594.262878 
	C32.318386,596.107666 29.983845,597.467224 27.874264,599.052551 
z"/>
<path fill="#C50FB2" opacity="1.000000" stroke="none" 
	d="
M27.924892,599.440430 
	C29.983845,597.467224 32.318386,596.107666 34.169361,594.262878 
	C63.145531,565.382935 92.067810,536.448914 120.963196,507.488129 
	C122.459717,505.988281 123.603676,504.136627 125.298203,502.267303 
	C134.551636,512.114197 145.800247,516.239746 159.000656,515.527649 
	C157.879883,517.305481 157.044296,519.367676 155.596680,520.819580 
	C119.399818,557.122498 83.143837,593.366516 46.865742,629.588318 
	C45.598907,630.853210 43.997910,631.783386 42.212410,632.954590 
	C37.922249,623.918945 33.949627,614.807922 30.041050,605.669556 
	C29.230555,603.774597 28.657824,601.778015 27.924892,599.440430 
z"/>
<path fill="#D50EA9" opacity="1.000000" stroke="none" 
	d="
M116.472412,458.999939 
	C114.457527,460.357361 112.160034,461.431030 110.469833,463.114471 
	C81.315742,492.151398 52.251667,521.278748 23.112019,550.330200 
	C20.771618,552.663513 18.023670,554.588135 15.170435,556.879211 
	C12.926003,548.646973 10.976232,540.238098 9.096891,531.414062 
	C10.996351,529.614380 13.017113,528.422180 14.626060,526.817139 
	C46.207527,495.312012 77.722420,463.740082 109.333710,432.264984 
	C111.120094,430.486298 113.617897,429.422119 116.179459,428.478546 
	C116.540359,438.954437 116.506386,448.977173 116.472412,458.999939 
z"/>
<path fill="#FFFFFF" opacity="1.000000" stroke="none" 
	d="
M638.286743,465.451965 
	C638.245544,452.300262 638.327209,439.603699 638.286499,426.451843 
	C638.742432,420.436096 638.745300,414.741180 640.007690,409.340668 
	C643.684082,393.613190 657.080811,382.801971 673.577637,381.616577 
	C681.690430,381.521423 689.380798,381.549652 697.536987,381.524414 
	C709.692322,381.506805 721.381775,381.542633 733.536987,381.524078 
	C743.289490,382.320404 752.067200,384.535583 759.622864,391.021729 
	C768.474915,399.699371 772.452698,410.091797 772.475098,422.552612 
	C772.483398,440.251923 772.838867,457.512939 772.192566,474.736359 
	C771.934875,481.604584 769.463928,488.389709 767.939697,495.586456 
	C764.994690,499.371521 762.110596,502.782806 759.072083,506.482666 
	C748.657410,514.736450 736.766968,515.800293 724.327271,515.479980 
	C710.206360,515.116333 696.068359,515.417297 681.472168,515.479431 
	C667.109192,515.529480 653.211792,515.529480 638.808167,515.529480 
	C638.654358,513.308838 638.533386,511.561859 638.288208,509.405853 
	C638.245911,494.633606 638.327759,480.270355 638.286743,465.451965 
M728.109131,408.365417 
	C711.776917,408.346039 695.444458,408.265228 679.112610,408.332306 
	C670.494995,408.367676 665.537109,412.295776 665.436890,420.058380 
	C665.213318,437.375397 665.520874,454.699280 665.370422,472.923645 
	C665.370422,478.018097 665.370422,483.112549 665.370422,488.430359 
	C667.477722,488.541260 668.941956,488.684143 670.406250,488.685425 
	C690.545959,488.703369 710.685730,488.723755 730.825439,488.695801 
	C741.086365,488.681580 745.673889,484.088348 745.694458,473.804749 
	C745.728088,456.993988 745.722473,440.182983 745.686096,423.372223 
	C745.661865,412.182556 740.361938,407.523956 728.109131,408.365417 
z"/>
<path fill="#FFFFFF" opacity="1.000000" stroke="none" 
	d="
M308.639404,509.937195 
	C300.777771,503.974487 294.174652,497.381561 291.904755,487.646515 
	C291.298798,485.047668 291.061218,482.362915 290.611023,478.910339 
	C290.465057,463.728485 290.362579,449.353943 290.260132,434.979401 
	C290.425018,428.995667 290.721100,423.012085 290.729248,417.028137 
	C290.750427,401.441040 304.351624,386.900177 316.453796,383.704712 
	C320.871094,382.538361 325.514893,381.855499 330.080383,381.703094 
	C339.401367,381.391998 348.739288,381.590179 358.536102,381.525482 
	C367.481628,381.518585 375.961456,381.618286 384.440979,381.598358 
	C396.672089,381.569611 407.131592,385.574005 415.621002,395.053101 
	C422.587280,404.094269 424.767151,414.194092 424.440155,425.118500 
	C424.201263,433.098328 424.443329,441.092499 424.472534,449.983185 
	C424.563965,470.599426 424.653870,490.312775 424.743774,510.026123 
	C423.902222,512.139832 425.587891,516.054626 420.449677,515.476562 
	C399.979828,515.493591 379.956696,515.458557 359.467957,515.475830 
	C349.397827,515.481201 339.787994,515.218506 330.190521,515.455933 
	C322.524353,515.645447 315.542603,513.806458 308.639404,509.937195 
M317.750854,478.826477 
	C318.748413,486.297699 324.959320,488.717773 331.049744,488.709381 
	C352.042145,488.680511 373.034607,488.707764 394.027039,488.679169 
	C395.127319,488.677673 396.227142,488.358032 397.587219,488.145996 
	C397.587219,465.086456 397.743317,442.287720 397.482086,419.493774 
	C397.413116,413.475220 393.159332,409.770172 386.309906,408.457275 
	C368.044312,408.406219 349.778656,408.299988 331.513184,408.326447 
	C321.796478,408.340515 317.347870,412.933594 317.316925,422.841278 
	C317.265594,439.283020 317.282990,455.725037 317.322327,472.166840 
	C317.326996,474.128998 317.649506,476.090332 317.750854,478.826477 
z"/>
<path fill="#FFFFFF" opacity="1.000000" stroke="none" 
	d="
M511.982544,515.742554 
	C496.617310,515.629028 481.252106,515.515503 465.414795,515.411560 
	C464.802765,502.255981 464.662811,489.090790 464.524414,475.023193 
	C464.587830,454.413147 464.649658,434.705566 464.711487,414.997986 
	C466.678009,398.571655 481.373566,380.943146 504.546539,381.525757 
	C522.892334,381.518433 540.792236,381.236328 558.666199,381.790100 
	C564.914978,381.983734 571.099976,384.236206 577.661194,385.635040 
	C590.382935,393.020721 597.396790,403.687317 598.453918,418.573486 
	C598.495361,432.691925 598.458496,446.381775 598.475220,460.537567 
	C598.026489,469.250031 598.151306,477.594543 596.881042,485.721069 
	C594.743408,499.397278 586.208435,508.677399 573.349365,512.733032 
	C565.985291,515.055603 557.761719,514.652832 549.023193,515.474854 
	C536.075012,515.562622 524.028809,515.652588 511.982544,515.742554 
M568.941833,413.271179 
	C565.866333,411.627319 562.822754,408.634277 559.710144,408.560730 
	C540.940796,408.117218 522.153564,408.180969 503.376770,408.424713 
	C496.058044,408.519684 491.513336,412.990448 491.430420,420.261017 
	C491.182159,442.029968 491.338959,463.803345 491.279419,485.574860 
	C491.271759,488.373962 492.453827,489.161285 495.899689,488.624786 
	C516.499329,488.650299 537.099121,488.725250 557.698608,488.678711 
	C566.794312,488.658142 571.617188,483.955963 571.668457,474.968842 
	C571.769043,457.359619 571.804382,439.747894 571.576416,422.140991 
	C571.540894,419.404388 569.970703,416.687683 568.941833,413.271179 
z"/>
<path fill="#9E10C9" opacity="1.000000" stroke="none" 
	d="
M464.352905,415.009949 
	C464.649658,434.705566 464.587830,454.413147 464.392059,474.573975 
	C462.503510,476.186676 460.505646,477.098755 459.033844,478.545868 
	C449.667603,487.755127 440.465332,497.131317 431.081970,506.322784 
	C429.505127,507.867371 427.310364,508.781158 425.072449,510.006287 
	C424.653870,490.312775 424.563965,470.599426 424.605591,450.432617 
	C426.488495,448.822235 428.483032,447.912659 429.951660,446.468262 
	C439.415070,437.161133 448.707733,427.679993 458.205170,418.408295 
	C459.757477,416.892883 462.046051,416.131714 464.352905,415.009949 
z"/>
<path fill="#FFFFFF" opacity="1.000000" stroke="none" 
	d="
M116.523392,459.465820 
	C116.506386,448.977173 116.540359,438.954437 116.523361,428.465698 
	C116.984550,419.526886 115.883904,410.921082 120.366119,402.926300 
	C127.436775,390.314575 137.655640,382.542297 152.243637,381.831207 
	C163.828339,381.266541 175.458008,381.625092 187.533646,381.523102 
	C195.447235,381.517792 202.895020,381.613098 210.342529,381.595947 
	C219.847992,381.574066 228.579468,383.878296 236.463470,389.973022 
	C246.914886,399.216095 250.927917,410.830292 250.714050,424.602692 
	C250.754608,439.697571 250.673019,454.393982 250.592316,470.000916 
	C250.674179,485.273834 250.755142,499.636200 250.836121,513.998535 
	C250.633224,514.316589 250.430344,514.634583 250.123962,515.216064 
	C234.991272,515.461060 219.962051,515.442688 204.467102,515.475952 
	C189.311661,515.493286 174.621994,515.458984 159.466492,515.476135 
	C145.800247,516.239746 134.551636,512.114197 125.387482,501.919983 
	C117.744453,492.494324 115.851120,481.782776 116.573677,470.315063 
	C116.790894,466.867584 116.585930,463.393555 116.523392,459.465820 
M149.078857,486.776886 
	C151.956070,487.417267 154.829086,488.589966 157.711182,488.612671 
	C178.168518,488.773865 198.627747,488.707275 219.086319,488.684143 
	C220.510605,488.682526 221.934631,488.446777 223.629425,488.295776 
	C223.629425,465.072571 223.690277,442.306885 223.517746,419.542969 
	C223.503433,417.654205 221.910797,415.777435 220.921539,413.204041 
	C217.666336,411.576141 214.443817,408.621277 211.150528,408.540222 
	C192.692093,408.085785 174.214996,408.185822 155.747650,408.394287 
	C148.187714,408.479584 143.527771,413.201385 143.460480,420.677643 
	C143.292770,439.312317 143.160904,457.955841 143.640747,476.579681 
	C143.724213,479.819061 146.866653,482.979645 149.078857,486.776886 
z"/>
<path fill="#B70FBB" opacity="1.000000" stroke="none" 
	d="
M251.205200,513.971619 
	C250.755142,499.636200 250.674179,485.273834 250.714264,470.456238 
	C252.919846,468.804169 255.361359,467.974121 257.029724,466.349915 
	C266.428864,457.199310 275.617279,447.832672 284.945953,438.608917 
	C286.325012,437.245392 288.067932,436.249939 289.951294,435.031799 
	C290.362579,449.353943 290.465057,463.728485 290.461548,478.562317 
	C288.593597,480.158020 286.575928,481.034180 285.111115,482.473145 
	C275.758850,491.660492 266.573486,501.017792 257.213562,510.197174 
	C255.630905,511.749268 253.468719,512.710449 251.205200,513.971619 
z"/>
<path fill="#FFFFFF" opacity="1.000000" stroke="none" 
	d="
M246.538544,301.031799 
	C249.688248,300.896790 250.616196,302.148041 250.564896,304.873230 
	C250.425568,312.276215 250.564880,319.684479 250.715271,327.546082 
	C250.836823,336.753723 250.836823,345.505951 250.836823,354.905151 
	C242.017014,354.905151 233.965744,354.905151 225.300354,354.691772 
	C224.477524,354.278503 224.238663,354.125763 223.969650,354.020172 
	C223.861832,351.639221 223.754013,349.258240 223.561554,346.438293 
	C223.476913,331.247406 223.476913,316.495575 223.476913,301.120026 
	C231.534302,301.120026 238.805725,301.120026 246.538544,301.031799 
z"/>
<path fill="#F1E2FA" opacity="1.000000" stroke="none" 
	d="
M223.986328,354.288574 
	C224.238663,354.125763 224.477524,354.278503 224.833862,354.632751 
	C224.655304,354.710419 224.329147,354.633698 223.986328,354.288574 
z"/>
<path fill="#FFFFFF" opacity="1.000000" stroke="none" 
	d="
M638.304138,593.366211 
	C638.248962,581.634888 638.331360,570.270386 638.290222,558.450806 
	C638.166748,552.903625 638.166748,547.811462 638.166748,542.041321 
	C645.316284,542.041321 651.696655,542.041321 658.539612,541.960571 
	C660.392334,541.949585 661.782532,542.019348 663.735840,542.310303 
	C664.511780,542.737427 664.756714,542.892639 665.033752,542.997131 
	C665.033752,560.390442 665.033752,577.783813 665.033752,595.790527 
	C656.636414,595.790527 648.391296,595.831848 640.148926,595.701965 
	C639.569641,595.692871 639.010315,594.418884 638.304138,593.366211 
z"/>
<path fill="#F1E2FA" opacity="1.000000" stroke="none" 
	d="
M665.024536,542.718262 
	C664.756714,542.892639 664.511780,542.737427 664.149780,542.371582 
	C664.338806,542.287659 664.677063,542.363586 665.024536,542.718262 
z"/>
<path fill="#8A10D5" opacity="1.000000" stroke="none" 
	d="
M511.972076,516.072021 
	C524.028809,515.652588 536.075012,515.562622 548.574280,515.607910 
	C547.973511,517.373169 547.166626,519.248413 545.828430,520.596069 
	C529.464722,537.074646 513.038269,553.491089 496.571564,569.866821 
	C495.325500,571.105957 493.649841,571.913086 491.760803,572.499939 
	C491.243835,562.384949 491.139923,552.690979 491.012970,542.712769 
	C490.642181,542.356018 490.294403,542.283569 489.932343,542.116272 
	C489.918030,542.021423 490.046844,541.879150 490.046844,541.879150 
	C493.023865,538.426758 495.897522,534.877808 499.005951,531.548035 
	C502.376465,527.937439 506.058350,524.616638 509.408752,520.988647 
	C510.562531,519.739258 511.127594,517.946167 511.972076,516.072021 
z"/>
<path fill="#FFFFFF" opacity="1.000000" stroke="none" 
	d="
M491.036011,542.997070 
	C491.139923,552.690979 491.243835,562.384949 491.435669,572.540161 
	C491.523560,580.430359 491.523560,587.859314 491.523560,595.880432 
	C482.792145,595.880432 474.857391,595.880432 466.461304,595.968994 
	C465.536987,594.424805 464.704132,592.798950 464.673584,591.158081 
	C464.523438,583.085693 464.586273,575.009277 464.522552,566.468628 
	C464.471222,558.249695 464.471222,550.496521 464.471222,542.037354 
	C473.024170,542.037354 481.069672,542.037354 489.580994,541.958252 
	C490.046844,541.879150 489.918030,542.021423 490.092682,542.275513 
	C490.494476,542.733215 490.750702,542.889099 491.036011,542.997070 
z"/>
<path fill="#7811E0" opacity="1.000000" stroke="none" 
	d="
M729.019897,408.612000 
	C740.361938,407.523956 745.661865,412.182556 745.686096,423.372223 
	C745.722473,440.182983 745.728088,456.993988 745.694458,473.804749 
	C745.673889,484.088348 741.086365,488.681580 730.825439,488.695801 
	C710.685730,488.723755 690.545959,488.703369 670.406250,488.685425 
	C668.941956,488.684143 667.477722,488.541260 665.370422,488.430359 
	C665.370422,483.112549 665.370422,478.018097 665.809204,472.425415 
	C667.716553,470.900085 669.374023,470.062897 670.625061,468.817383 
	C689.097900,450.427032 707.536255,432.001770 725.908142,413.510620 
	C727.239868,412.170319 727.996094,410.258240 729.019897,408.612000 
z"/>
<path fill="#8010DB" opacity="1.000000" stroke="none" 
	d="
M728.564514,408.488708 
	C727.996094,410.258240 727.239868,412.170319 725.908142,413.510620 
	C707.536255,432.001770 689.097900,450.427032 670.625061,468.817383 
	C669.374023,470.062897 667.716553,470.900085 665.930054,471.973785 
	C665.520874,454.699280 665.213318,437.375397 665.436890,420.058380 
	C665.537109,412.295776 670.494995,408.367676 679.112610,408.332306 
	C695.444458,408.265228 711.776917,408.346039 728.564514,408.488708 
z"/>
<path fill="#AB0FC2" opacity="1.000000" stroke="none" 
	d="
M387.055237,408.818787 
	C393.159332,409.770172 397.413116,413.475220 397.482086,419.493774 
	C397.743317,442.287720 397.587219,465.086456 397.587219,488.145996 
	C396.227142,488.358032 395.127319,488.677673 394.027039,488.679169 
	C373.034607,488.707764 352.042145,488.680511 331.049744,488.709381 
	C324.959320,488.717773 318.748413,486.297699 318.131165,478.353699 
	C319.840302,476.920990 321.327881,476.120331 322.474365,474.977448 
	C343.058533,454.457764 363.615540,433.910736 384.118408,413.309906 
	C385.354065,412.068359 386.087891,410.327362 387.055237,408.818787 
z"/>
<path fill="#B30FBD" opacity="1.000000" stroke="none" 
	d="
M386.682556,408.638031 
	C386.087891,410.327362 385.354065,412.068359 384.118408,413.309906 
	C363.615540,433.910736 343.058533,454.457764 322.474365,474.977448 
	C321.327881,476.120331 319.840302,476.920990 318.168091,477.966492 
	C317.649506,476.090332 317.326996,474.128998 317.322327,472.166840 
	C317.282990,455.725037 317.265594,439.283020 317.316925,422.841278 
	C317.347870,412.933594 321.796478,408.340515 331.513184,408.326447 
	C349.778656,408.299988 368.044312,408.406219 386.682556,408.638031 
z"/>
<path fill="#9810CD" opacity="1.000000" stroke="none" 
	d="
M494.988464,488.384460 
	C492.453827,489.161285 491.271759,488.373962 491.279419,485.574860 
	C491.338959,463.803345 491.182159,442.029968 491.430420,420.261017 
	C491.513336,412.990448 496.058044,408.519684 503.376770,408.424713 
	C522.153564,408.180969 540.940796,408.117218 559.710144,408.560730 
	C562.822754,408.634277 565.866333,411.627319 568.687256,413.702301 
	C567.106628,415.104584 565.627563,415.922333 564.477112,417.069580 
	C542.317505,439.167816 520.180054,461.288361 498.107422,483.473389 
	C496.771759,484.815857 496.014771,486.734131 494.988464,488.384460 
z"/>
<path fill="#9010D2" opacity="1.000000" stroke="none" 
	d="
M495.444092,488.504639 
	C496.014771,486.734131 496.771759,484.815857 498.107422,483.473389 
	C520.180054,461.288361 542.317505,439.167816 564.477112,417.069580 
	C565.627563,415.922333 567.106628,415.104584 568.771484,414.047607 
	C569.970703,416.687683 571.540894,419.404388 571.576416,422.140991 
	C571.804382,439.747894 571.769043,457.359619 571.668457,474.968842 
	C571.617188,483.955963 566.794312,488.658142 557.698608,488.678711 
	C537.099121,488.725250 516.499329,488.650299 495.444092,488.504639 
z"/>
<path fill="#CC0EAE" opacity="1.000000" stroke="none" 
	d="
M148.596222,486.176605 
	C146.866653,482.979645 143.724213,479.819061 143.640747,476.579681 
	C143.160904,457.955841 143.292770,439.312317 143.460480,420.677643 
	C143.527771,413.201385 148.187714,408.479584 155.747650,408.394287 
	C174.214996,408.185822 192.692093,408.085785 211.150528,408.540222 
	C214.443817,408.621277 217.666336,411.576141 220.751801,413.791809 
	C219.334198,415.474457 218.018219,416.501404 216.848572,417.674286 
	C194.087570,440.498230 171.343643,463.339172 148.596222,486.176605 
z"/>
<path fill="#C40FB3" opacity="1.000000" stroke="none" 
	d="
M148.837540,486.476746 
	C171.343643,463.339172 194.087570,440.498230 216.848572,417.674286 
	C218.018219,416.501404 219.334198,415.474457 220.816772,414.137329 
	C221.910797,415.777435 223.503433,417.654205 223.517746,419.542969 
	C223.690277,442.306885 223.629425,465.072571 223.629425,488.295776 
	C221.934631,488.446777 220.510605,488.682526 219.086319,488.684143 
	C198.627747,488.707275 178.168518,488.773865 157.711182,488.612671 
	C154.829086,488.589966 151.956070,487.417267 148.837540,486.476746 
z"/>
<path fill="#F1E2FA" opacity="1.000000" stroke="none" 
	d="
M491.013000,542.712769 
	C490.750702,542.889099 490.494476,542.733215 490.106995,542.370361 
	C490.294403,542.283569 490.642181,542.356018 491.013000,542.712769 
z"/>
</svg>