<svg xmlns="http://www.w3.org/2000/svg" viewBox="0 0 64 64"><g data-name="Web Coding"><path fill="#7c8c97" d="M26.16,50,32,48.65,37.84,50v5.19L32,56.52l-5.84-1.34Z"/><path fill="#f5f9f9" d="M9.39,11.76a2,2,0,0,0-2,2V42.69l24.06,2.65,25.16-2.65V13.76a2,2,0,0,0-2-2H9.39Z"/><path fill="#dbebf0" d="M56.61 42.69H7.39V48a2 2 0 002 2H54.61a2 2 0 002-2zM50 11.76a2 2 0 012 2V42.69h4.62V13.76a2 2 0 00-2-2H50z"/><path fill="#cae3e8" d="M52,42.69V48a2,2,0,0,1-2,2h4.62a2,2,0,0,0,2-2v-5.3Z"/><path fill="#dbebf0" d="M22.29,55.18H41.71a1.91,1.91,0,0,1,0,3.82H22.29a1.91,1.91,0,0,1,0-3.82Z"/><path fill="#cae3e8" d="M37.45,55.18a1.91,1.91,0,1,1,0,3.82h4.26a1.91,1.91,0,0,0,0-3.82Z"/><path fill="#566b76" d="M26.16 50v3H34.3v2.2h3.54V50zM14.46 5a2.59 2.59 0 00-2.6 2.6V22.92l21.28 4.4 19-4.4V7.6A2.59 2.59 0 0049.54 5z"/><path fill="#8d9ca7" d="M35.57,22.92l-4.06,7.85,4.06,6.61h14a2.59,2.59,0,0,0,2.6-2.6V22.92Z"/><path fill="#7c8c97" d="M11.86 22.92V34.78a2.59 2.59 0 002.6 2.6H35.57V22.92zM48.14 22.92V34.78a2.59 2.59 0 01-2.6 2.6h4a2.59 2.59 0 002.6-2.6V22.92z"/><path fill="#465961" d="M45.54,5a2.59,2.59,0,0,1,2.6,2.6V22.92h4V7.6A2.59,2.59,0,0,0,49.54,5Z"/><path fill="#fee35a" d="M47.76,30.15a3.48,3.48,0,1,1-3.48-3.47A3.48,3.48,0,0,1,47.76,30.15Z"/><path d="M9.39,51H25.16v3.19H22.29a2.91,2.91,0,0,0,0,5.82H41.71a2.91,2.91,0,0,0,0-5.82H38.84V51H54.61a3,3,0,0,0,3-3V13.76a3,3,0,0,0-3-3H53.14V7.6A3.6,3.6,0,0,0,49.54,4H14.46a3.6,3.6,0,0,0-3.6,3.6v3.16H9.39a3,3,0,0,0-3,3V48A3,3,0,0,0,9.39,51Zm32.32,5.19a.91.91,0,1,1,0,1.82H22.29a.91.91,0,0,1,0-1.82Zm-14.55-2V51h9.68v3.19ZM12.86,7.6A1.6,1.6,0,0,1,14.46,6H49.54a1.6,1.6,0,0,1,1.6,1.6V21.92H12.86ZM51.14,23.92V34.78a1.6,1.6,0,0,1-1.6,1.6h-13V23.92Zm-38.28,0H34.57V36.38H14.46a1.6,1.6,0,0,1-1.6-1.6ZM8.39,13.76a1,1,0,0,1,1-1h1.47v22a3.6,3.6,0,0,0,3.6,3.6H49.54a3.6,3.6,0,0,0,3.6-3.6v-22h1.47a1,1,0,0,1,1,1V41.69H8.39Zm0,29.93H55.61V48a1,1,0,0,1-1,1H9.39a1,1,0,0,1-1-1Z"/><path d="M15.7 11.08h3.46a1 1 0 000-2H15.7a1 1 0 000 2zM22.31 11.08h9.43a1 1 0 000-2H22.31a1 1 0 000 2zM35.57 11.08H39a1 1 0 000-2H35.57a1 1 0 000 2zM48.3 9.08H43a1 1 0 000 2H48.3a1 1 0 000-2zM48.3 13.31H44.84a1 1 0 000 2H48.3a1 1 0 000-2zM42.69 14.31a1 1 0 00-1-1H32.26a1 1 0 000 2h9.43A1 1 0 0042.69 14.31zM25 13.31a1 1 0 000 2h3.45a1 1 0 000-2zM22 14.31a1 1 0 00-1-1H15.7a1 1 0 000 2H21A1 1 0 0022 14.31zM17.06 33.55a1 1 0 101.41-1.42l-1.79-1.79 1.79-1.8a1 1 0 000-1.41 1 1 0 00-1.41 0l-2.51 2.5a1 1 0 000 1.41zM24.2 33.55a1 1 0 00.71.29 1 1 0 00.71-.29L28.12 31a1 1 0 000-1.41l-2.5-2.5a1 1 0 00-1.42 1.41l1.8 1.8-1.8 1.79A1 1 0 0024.2 33.55zM20.48 33.81l.24 0a1 1 0 001-.76l1.24-5A1 1 0 0021 27.59l-1.24 5A1 1 0 0020.48 33.81zM19.16 17.54H15.7a1 1 0 100 2h3.46a1 1 0 100-2zM31.74 17.54H22.31a1 1 0 100 2h9.43a1 1 0 100-2zM39 17.54H35.57a1 1 0 000 2H39a1 1 0 000-2zM48.3 17.54H43a1 1 0 000 2H48.3a1 1 0 000-2zM44.28 34.63a4.48 4.48 0 10-4.48-4.48A4.49 4.49 0 0044.28 34.63zm0-7a2.48 2.48 0 11-2.48 2.47A2.48 2.48 0 0144.28 27.68z"/></g></svg>