<svg version="1.1" id="Layer_1" xmlns="http://www.w3.org/2000/svg" xmlns:xlink="http://www.w3.org/1999/xlink" x="0px" y="0px"
	 width="100%" viewBox="0 0 227 222" enable-background="new 0 0 227 222" xml:space="preserve">
<path fill="#013E51" opacity="1.000000" stroke="none" 
	d="
M0.999999,171.000000 
	C1.000000,169.611115 1.000000,168.222214 1.338048,166.158295 
	C1.775248,164.828674 1.960823,164.174164 1.961165,163.519547 
	C1.978938,129.555252 1.991141,95.590935 1.943204,61.626713 
	C1.941497,60.417370 1.328237,59.208885 1.000000,58.000000 
	C1.000000,56.611111 1.000000,55.222221 1.351364,53.265068 
	C6.421388,27.614145 20.898434,11.139618 45.232212,3.370242 
	C47.810860,2.546922 50.410240,1.788520 53.000000,1.000000 
	C93.354225,1.000000 133.708450,1.000000 174.686096,1.366751 
	C200.112274,5.749378 216.720551,19.590981 225.001877,43.316757 
	C226.218399,46.802048 227.011169,50.435242 228.000000,54.000000 
	C228.000000,55.066669 228.000000,56.133339 227.661957,57.858376 
	C227.224762,59.171303 227.039200,59.825813 227.038849,60.480427 
	C227.020966,94.111420 227.008575,127.742432 227.056534,161.373352 
	C227.058258,162.582687 227.671661,163.791138 228.000000,165.000000 
	C228.000000,166.714355 228.000000,168.428711 227.645935,170.726929 
	C222.578522,196.391678 208.159286,212.914932 183.765442,220.605820 
	C180.878937,221.515884 177.923492,222.207245 175.000000,223.000000 
	C134.312439,223.000000 93.624878,223.000000 52.332302,222.645584 
	C50.289043,221.900681 48.852741,221.502899 47.412277,221.120789 
	C24.700348,215.096207 10.046457,200.747009 3.204248,178.329102 
	C2.459533,175.889114 1.734279,173.443176 0.999999,171.000000 
M90.283829,144.893707 
	C105.238876,144.928925 120.193947,144.983109 135.148926,144.965347 
	C136.423279,144.963837 137.697052,144.482864 139.595840,144.546463 
	C141.447845,148.415695 142.780930,152.658966 145.249512,156.083771 
	C152.544510,166.204544 166.945038,169.883255 178.330154,165.029663 
	C189.648895,160.204361 194.323822,150.623734 192.145309,136.816910 
	C189.736618,121.551239 187.227158,106.299736 185.010727,91.005959 
	C182.828812,75.950340 173.424545,65.554642 158.603058,62.230572 
	C129.240829,55.645390 99.882957,55.660793 70.515198,62.176483 
	C55.586834,65.488571 46.317177,75.461067 43.947777,90.764740 
	C43.516148,93.552597 42.998070,96.326965 42.550766,99.112511 
	C40.443085,112.237869 38.299107,125.357643 36.257538,138.493317 
	C33.818634,154.185455 44.616608,166.929016 60.408344,167.098709 
	C74.130386,167.246185 83.206100,160.225143 90.283829,144.893707 
z"/>
<path fill="#788993" opacity="1.000000" stroke="none" 
	d="
M1.000000,58.468658 
	C1.328237,59.208885 1.941497,60.417370 1.943204,61.626713 
	C1.991141,95.590935 1.978938,129.555252 1.961165,163.519547 
	C1.960823,164.174164 1.775248,164.828674 1.338048,165.741623 
	C1.000000,130.312439 1.000000,94.624878 1.000000,58.468658 
z"/>
<path fill="#788993" opacity="1.000000" stroke="none" 
	d="
M228.000000,164.531342 
	C227.671661,163.791138 227.058258,162.582687 227.056534,161.373352 
	C227.008575,127.742432 227.020966,94.111420 227.038849,60.480427 
	C227.039200,59.825813 227.224762,59.171303 227.661957,58.258369 
	C228.000000,93.354225 228.000000,128.708450 228.000000,164.531342 
z"/>
<path fill="#FDFDFD" opacity="1.000000" stroke="none" 
	d="
M89.248642,144.787704 
	C83.206100,160.225143 74.130386,167.246185 60.408344,167.098709 
	C44.616608,166.929016 33.818634,154.185455 36.257538,138.493317 
	C38.299107,125.357643 40.443085,112.237869 42.550766,99.112511 
	C42.998070,96.326965 43.516148,93.552597 43.947777,90.764740 
	C46.317177,75.461067 55.586834,65.488571 70.515198,62.176483 
	C99.882957,55.660793 129.240829,55.645390 158.603058,62.230572 
	C173.424545,65.554642 182.828812,75.950340 185.010727,91.005959 
	C187.227158,106.299736 189.736618,121.551239 192.145309,136.816910 
	C194.323822,150.623734 189.648895,160.204361 178.330154,165.029663 
	C166.945038,169.883255 152.544510,166.204544 145.249512,156.083771 
	C142.780930,152.658966 141.447845,148.415695 138.863052,144.165955 
	C123.191116,143.768173 108.251862,143.723618 93.312988,143.779633 
	C91.956963,143.784698 90.603363,144.436325 89.248642,144.787704 
M77.127876,116.468605 
	C77.127975,117.799400 77.212036,119.136520 77.112419,120.459808 
	C76.814819,124.412872 78.295502,126.105469 82.549660,126.126930 
	C86.796097,126.148361 89.311401,125.310623 89.037773,120.463860 
	C88.846413,117.074234 89.000862,113.665085 89.000862,110.147858 
	C92.975540,110.147858 96.151634,110.367775 99.276321,110.062164 
	C101.040230,109.889633 103.959473,109.145592 104.195641,108.147346 
	C104.810768,105.547318 104.829208,102.420273 103.842316,100.013245 
	C103.436317,99.023041 99.843079,99.133675 97.696381,99.115150 
	C95.002846,99.091896 92.306015,99.450294 89.000328,99.687836 
	C89.000328,94.952347 89.328972,90.953926 88.835220,87.059784 
	C88.643288,85.546074 86.595322,84.267700 85.392815,82.882126 
	C83.016724,84.984650 77.646477,81.103470 77.188652,86.806252 
	C76.886810,90.566002 77.131538,94.369629 77.131538,98.599037 
	C72.866684,98.599037 69.074150,98.610397 65.281708,98.596123 
	C60.685875,98.578819 61.682907,101.987335 61.613411,104.658768 
	C61.543564,107.343513 61.234898,110.251945 65.388100,110.160255 
	C69.166824,110.076828 72.948845,110.142586 77.127876,110.142586 
	C77.127876,112.278015 77.127876,113.904686 77.127876,116.468605 
M148.107132,123.740387 
	C151.868805,120.299561 152.901215,116.188950 150.537689,111.642303 
	C148.506470,107.734917 145.020508,106.011490 140.612961,106.579849 
	C136.389923,107.124405 133.007339,109.597610 132.763336,113.676117 
	C132.570404,116.901245 133.709579,120.954132 135.749359,123.389816 
	C138.825790,127.063400 143.345612,126.863747 148.107132,123.740387 
M149.537262,87.184196 
	C147.031036,92.739059 147.481140,96.608383 151.210739,99.832687 
	C154.766617,102.906822 158.813522,103.150612 162.768219,100.875984 
	C166.887848,98.506477 167.998230,94.556274 167.032684,90.107941 
	C165.391785,82.548256 156.487534,80.713295 149.537262,87.184196 
z"/>
<path fill="#003046" opacity="1.000000" stroke="none" 
	d="
M89.766235,144.840698 
	C90.603363,144.436325 91.956963,143.784698 93.312988,143.779633 
	C108.251862,143.723618 123.191116,143.768173 138.550690,144.005035 
	C137.697052,144.482864 136.423279,144.963837 135.148926,144.965347 
	C120.193947,144.983109 105.238876,144.928925 89.766235,144.840698 
z"/>
<path fill="#044053" opacity="1.000000" stroke="none" 
	d="
M77.127876,115.999985 
	C77.127876,113.904686 77.127876,112.278015 77.127876,110.142586 
	C72.948845,110.142586 69.166824,110.076828 65.388100,110.160255 
	C61.234898,110.251945 61.543564,107.343513 61.613411,104.658768 
	C61.682907,101.987335 60.685875,98.578819 65.281708,98.596123 
	C69.074150,98.610397 72.866684,98.599037 77.131538,98.599037 
	C77.131538,94.369629 76.886810,90.566002 77.188652,86.806252 
	C77.646477,81.103470 83.016724,84.984650 85.392815,82.882126 
	C86.595322,84.267700 88.643288,85.546074 88.835220,87.059784 
	C89.328972,90.953926 89.000328,94.952347 89.000328,99.687836 
	C92.306015,99.450294 95.002846,99.091896 97.696381,99.115150 
	C99.843079,99.133675 103.436317,99.023041 103.842316,100.013245 
	C104.829208,102.420273 104.810768,105.547318 104.195641,108.147346 
	C103.959473,109.145592 101.040230,109.889633 99.276321,110.062164 
	C96.151634,110.367775 92.975540,110.147858 89.000862,110.147858 
	C89.000862,113.665085 88.846413,117.074234 89.037773,120.463860 
	C89.311401,125.310623 86.796097,126.148361 82.549660,126.126930 
	C78.295502,126.105469 76.814819,124.412872 77.112419,120.459808 
	C77.212036,119.136520 77.127975,117.799400 77.127876,115.999985 
z"/>
<path fill="#074053" opacity="1.000000" stroke="none" 
	d="
M147.785919,123.952324 
	C143.345612,126.863747 138.825790,127.063400 135.749359,123.389816 
	C133.709579,120.954132 132.570404,116.901245 132.763336,113.676117 
	C133.007339,109.597610 136.389923,107.124405 140.612961,106.579849 
	C145.020508,106.011490 148.506470,107.734917 150.537689,111.642303 
	C152.901215,116.188950 151.868805,120.299561 147.785919,123.952324 
z"/>
<path fill="#043F52" opacity="1.000000" stroke="none" 
	d="
M149.762619,86.850967 
	C156.487534,80.713295 165.391785,82.548256 167.032684,90.107941 
	C167.998230,94.556274 166.887848,98.506477 162.768219,100.875984 
	C158.813522,103.150612 154.766617,102.906822 151.210739,99.832687 
	C147.481140,96.608383 147.031036,92.739059 149.762619,86.850967 
z"/>
</svg>