<svg version="1.1" id="Layer_1" xmlns="http://www.w3.org/2000/svg" xmlns:xlink="http://www.w3.org/1999/xlink" x="0px" y="0px"
	 width="100%" viewBox="0 0 225 224" enable-background="new 0 0 225 224" xml:space="preserve">
<path fill="#3B3B3B" opacity="1.000000" stroke="none" 
	d="
M189.000000,225.000000 
	C137.645767,225.000000 86.291542,225.000000 34.356125,224.647980 
	C12.685847,219.097137 1.772699,202.191437 1.938462,180.936127 
	C2.291737,135.636673 2.044913,90.332581 2.047120,45.030384 
	C2.048081,25.304955 13.947683,9.984525 33.105598,5.266027 
	C33.550053,5.361161 33.807060,5.254508 34.402885,4.897020 
	C35.600945,4.632231 36.399490,4.362901 37.198143,4.362585 
	C87.001465,4.342850 136.804794,4.339339 186.608109,4.373580 
	C188.070953,4.374585 189.533508,4.794700 191.103027,5.117921 
	C191.209869,5.216438 191.635849,5.275832 191.635849,5.275832 
	C191.635849,5.275832 192.014481,5.096077 192.382141,5.142056 
	C196.787567,7.105521 201.101379,8.599623 204.811951,11.018963 
	C216.482681,18.628424 222.551498,29.691381 222.596497,43.570633 
	C222.749832,90.879234 222.675018,138.188644 222.640167,185.497711 
	C222.632233,196.269226 218.701385,205.489883 211.290649,213.301682 
	C205.171844,219.751648 197.263474,222.689789 189.000000,225.000000 
M14.954756,56.500172 
	C14.954757,99.331299 15.183736,142.164291 14.832837,184.992554 
	C14.706900,200.363647 26.199669,212.427261 41.964340,212.300964 
	C88.625549,211.927078 135.296799,211.784149 181.952637,212.408737 
	C195.344894,212.588013 210.479630,202.694168 210.513214,184.008255 
	C210.596497,137.677521 210.673538,91.345932 210.465561,45.015984 
	C210.392914,28.829212 198.924072,16.581606 183.924088,16.525522 
	C136.427261,16.347935 88.929268,16.508820 41.431915,16.429171 
	C27.882376,16.406450 13.298775,29.560276 14.886089,43.508755 
	C15.335440,47.457409 14.954762,51.500515 14.954756,56.500172 
z"/>
<path opacity="1.000000" stroke="none" 
	d="
M190.996201,5.019404 
	C189.533508,4.794700 188.070953,4.374585 186.608109,4.373580 
	C136.804794,4.339339 87.001465,4.342850 37.198143,4.362585 
	C36.399490,4.362901 35.600945,4.632231 34.130367,4.845803 
	C33.298519,5.008416 33.138657,5.101246 32.978798,5.194077 
	C13.947683,9.984525 2.048081,25.304955 2.047120,45.030384 
	C2.044913,90.332581 2.291737,135.636673 1.938462,180.936127 
	C1.772699,202.191437 12.685847,219.097137 33.887466,224.647980 
	C23.006479,225.000000 12.012959,225.000000 1.014580,225.000000 
	C1.009720,150.383804 1.009720,75.767593 1.009720,1.075696 
	C75.905289,1.075696 150.810669,1.075696 225.858032,1.075696 
	C225.858032,75.666473 225.858032,150.333206 225.858032,225.000000 
	C213.923233,225.000000 201.930267,225.000000 189.468658,225.000000 
	C197.263474,222.689789 205.171844,219.751648 211.290649,213.301682 
	C218.701385,205.489883 222.632233,196.269226 222.640167,185.497711 
	C222.675018,138.188644 222.749832,90.879234 222.596497,43.570633 
	C222.551498,29.691381 216.482681,18.628424 204.811951,11.018963 
	C201.101379,8.599623 196.787567,7.105521 192.133820,5.039902 
	C191.343964,4.934313 191.170074,4.976859 190.996201,5.019404 
z"/>
<path fill="#FEFEFE" opacity="1.000000" stroke="none" 
	d="
M14.954756,56.000237 
	C14.954762,51.500515 15.335440,47.457409 14.886089,43.508755 
	C13.298775,29.560276 27.882376,16.406450 41.431915,16.429171 
	C88.929268,16.508820 136.427261,16.347935 183.924088,16.525522 
	C198.924072,16.581606 210.392914,28.829212 210.465561,45.015984 
	C210.673538,91.345932 210.596497,137.677521 210.513214,184.008255 
	C210.479630,202.694168 195.344894,212.588013 181.952637,212.408737 
	C135.296799,211.784149 88.625549,211.927078 41.964340,212.300964 
	C26.199669,212.427261 14.706900,200.363647 14.832837,184.992554 
	C15.183736,142.164291 14.954757,99.331299 14.954756,56.000237 
M181.983597,149.163300 
	C181.490723,148.835785 180.998535,148.222961 180.504883,148.221771 
	C158.696793,148.169281 136.888504,148.153656 115.080704,148.242661 
	C114.379082,148.245514 113.682098,149.385864 112.866615,150.868988 
	C112.934845,152.917572 113.003067,154.966156 112.996101,157.588837 
	C113.326324,157.708405 113.656548,157.827972 114.907585,158.144440 
	C136.608688,158.078766 158.309784,158.013077 180.591888,158.000092 
	C180.798676,157.684769 181.005463,157.369461 181.878433,156.591339 
	C181.889374,154.400635 181.900299,152.209915 181.983597,149.163300 
M101.567513,112.050247 
	C104.173897,110.978981 106.809563,109.973045 109.379639,108.820801 
	C113.024620,107.186646 112.241447,103.795074 111.884331,101.006813 
	C111.654617,99.213272 110.500259,96.704224 109.057228,96.037376 
	C100.637772,92.146599 92.018089,88.687309 83.451279,85.117691 
	C73.686089,81.048744 63.907444,77.012047 54.130367,72.971703 
	C51.013115,71.683510 47.882195,70.428398 43.918533,68.817070 
	C43.918533,72.154579 44.174484,74.321678 43.862988,76.403885 
	C43.289623,80.236488 44.956463,81.999580 48.473900,83.192291 
	C53.331581,84.839439 57.998814,87.049667 62.743053,89.029655 
	C73.111313,93.356819 83.476692,97.690849 94.781021,102.413879 
	C79.313934,108.884987 64.922363,115.199341 50.281197,120.869171 
	C45.303482,122.796806 43.287495,125.207703 43.789242,130.569626 
	C44.173046,134.671097 44.963783,135.871155 49.147354,134.080063 
	C66.336632,126.720848 83.635109,119.616699 101.567513,112.050247 
z"/>
<path fill="#5C5C5C" opacity="1.000000" stroke="none" 
	d="
M33.105598,5.266027 
	C33.138657,5.101246 33.298519,5.008416 33.730904,4.966802 
	C33.807060,5.254508 33.550053,5.361161 33.105598,5.266027 
z"/>
<path fill="#5C5C5C" opacity="1.000000" stroke="none" 
	d="
M191.103027,5.117921 
	C191.170074,4.976859 191.343964,4.934313 191.766159,4.993923 
	C192.014481,5.096077 191.635849,5.275832 191.635849,5.275832 
	C191.635849,5.275832 191.209869,5.216438 191.103027,5.117921 
z"/>
<path fill="#3B3B3B" opacity="1.000000" stroke="none" 
	d="
M101.230469,112.234489 
	C83.635109,119.616699 66.336632,126.720848 49.147354,134.080063 
	C44.963783,135.871155 44.173046,134.671097 43.789242,130.569626 
	C43.287495,125.207703 45.303482,122.796806 50.281197,120.869171 
	C64.922363,115.199341 79.313934,108.884987 94.781021,102.413879 
	C83.476692,97.690849 73.111313,93.356819 62.743053,89.029655 
	C57.998814,87.049667 53.331581,84.839439 48.473900,83.192291 
	C44.956463,81.999580 43.289623,80.236488 43.862988,76.403885 
	C44.174484,74.321678 43.918533,72.154579 43.918533,68.817070 
	C47.882195,70.428398 51.013115,71.683510 54.130367,72.971703 
	C63.907444,77.012047 73.686089,81.048744 83.451279,85.117691 
	C92.018089,88.687309 100.637772,92.146599 109.057228,96.037376 
	C110.500259,96.704224 111.654617,99.213272 111.884331,101.006813 
	C112.241447,103.795074 113.024620,107.186646 109.379639,108.820801 
	C106.809563,109.973045 104.173897,110.978981 101.230469,112.234489 
z"/>
<path fill="#393939" opacity="1.000000" stroke="none" 
	d="
M180.010895,157.947388 
	C158.309784,158.013077 136.608688,158.078766 114.327271,157.860718 
	C113.556244,157.348114 113.331017,157.160706 113.071297,157.014740 
	C113.003067,154.966156 112.934845,152.917572 113.392334,150.380310 
	C136.582443,149.934158 159.246841,149.976685 181.911240,150.019211 
	C181.900299,152.209915 181.889374,154.400635 181.327118,156.949326 
	C180.520828,157.520676 180.265854,157.734039 180.010895,157.947388 
z"/>
<path fill="#585858" opacity="1.000000" stroke="none" 
	d="
M181.947418,149.591248 
	C159.246841,149.976685 136.582443,149.934158 113.450500,149.943787 
	C113.682098,149.385864 114.379082,148.245514 115.080704,148.242661 
	C136.888504,148.153656 158.696793,148.169281 180.504883,148.221771 
	C180.998535,148.222961 181.490723,148.835785 181.947418,149.591248 
z"/>
<path fill="#242424" opacity="1.000000" stroke="none" 
	d="
M113.033699,157.301788 
	C113.331017,157.160706 113.556244,157.348114 113.866867,157.762268 
	C113.656548,157.827972 113.326324,157.708405 113.033699,157.301788 
z"/>
<path fill="#242424" opacity="1.000000" stroke="none" 
	d="
M180.301392,157.973755 
	C180.265854,157.734039 180.520828,157.520676 180.994019,157.180725 
	C181.005463,157.369461 180.798676,157.684769 180.301392,157.973755 
z"/>
</svg>