<svg xmlns="http://www.w3.org/2000/svg" enable-background="new 0 0 512 512" viewBox="0 0 512 512"><rect width="346.305" height="176.164" x="51.681" y="211.84" fill="#fff"/><path fill="#ff787d" d="M220.351,45.562c0,26.015-21.002,56.6-47.017,56.6c-25.921,0-47.016-30.585-47.016-56.6
			c0-25.921,21.096-37.527,47.016-37.527C199.349,8.034,220.351,19.641,220.351,45.562z"/><path fill="#fff" d="M213.501,66.821v9.419c0,22.72-18.597,42.499-41.309,41.879
			c-10.66-0.291-20.248-4.723-27.258-11.733c-7.255-7.319-11.749-17.334-11.749-28.442V66.821c0-10.486,8.501-18.987,18.987-18.987
			h42.342C205,47.834,213.501,56.334,213.501,66.821z"/><path fill="#ffcd7e" d="M257.801,207.573v4.266H84.648v-4.266c0-37.414,38.792-67.673,86.576-67.673
			c23.892,0,45.553,7.548,61.175,19.822C248.087,171.997,257.801,188.866,257.801,207.573z"/><path fill="#fff" d="M431.477,344.606v10.35c0,24.968-20.437,46.703-45.396,46.023
			c-11.714-0.319-22.251-5.19-29.955-12.894c-7.973-8.043-12.911-19.049-12.911-31.256v-12.223c0-11.524,9.342-20.866,20.866-20.866
			h46.531C422.135,323.74,431.477,333.082,431.477,344.606z"/><path fill="#4de2c9" d="M480.16,499.284v4.688H289.876v-4.688c0-41.115,42.63-74.368,95.142-74.368
			c26.256,0,50.059,8.295,67.227,21.784C469.484,460.188,480.16,478.726,480.16,499.284z"/><path fill="#ff787d" d="M436.861,319.533c0,13.009-11.161,27.103-22.887,38.319c-14.92,14.273-38.356,14.273-53.277,0
			c-11.725-11.217-22.886-25.31-22.886-38.319c0-27.303,22.221-39.529,49.524-39.529
			C414.739,280.003,436.861,292.229,436.861,319.533z"/><path fill="#43c3ff" d="M387.346,24.679v27.684c0,9.196-7.455,16.651-16.651,16.651h-71.753l-33.317,25.329V24.679
			c0-9.196,7.455-16.651,16.651-16.651h88.42C379.891,8.028,387.346,15.483,387.346,24.679z"/><path fill="#ffcd7e" d="M177.957,269.981v27.684c0,9.196,7.455,16.651,16.651,16.651h71.753l33.317,25.329v-69.663
			c0-9.196-7.455-16.651-16.651-16.651h-88.42C185.412,253.33,177.957,260.785,177.957,269.981z"/><path fill="#33226e" d="M125.186 77.946c0 26.05 20.652 47.455 46.784 48.167 27.268.757 49.533-22.696 49.533-49.873v-1.974c4.334-9.212 6.843-19.186 6.843-28.702 0-28.083-21.076-45.526-55.01-45.526S118.32 17.48 118.32 45.562c0 9.542 2.509 19.549 6.866 28.784V77.946zM205.506 76.239c0 17.686-14.23 34.238-33.098 33.883-17.572-.475-31.223-14.904-31.223-32.176V66.822c0-6.062 4.929-10.991 10.991-10.991h42.339c6.062 0 10.991 4.929 10.991 10.991V76.239zM173.337 16.035c11.733 0 39.011 2.879 39.011 29.528 0 .355-.082.727-.092 1.084-4.757-4.188-10.922-6.814-17.742-6.814h-42.339c-6.837 0-13.017 2.637-17.777 6.843-.01-.368-.08-.748-.08-1.113C134.318 18.913 161.604 16.035 173.337 16.035zM385.861 408.975c30.046.777 53.619-25.116 53.619-54.017v-10.35c0-1.749-.179-3.45-.485-5.107 3.864-7.004 5.868-13.681 5.868-19.968 0-23.762-14.492-40.225-38.878-45.61V219.84h11.842c4.421 0 7.999-3.582 7.999-7.999s-3.578-7.999-7.999-7.999c-38.55 0-113.662 0-152.252 0-2.67-44.317-49.018-71.941-94.346-71.941-50.577 0-91.885 31.952-94.339 71.941-1.845 0-47.057 0-45.052 0-4.421 0-7.999 3.582-7.999 7.999s3.578 7.999 7.999 7.999H43.68v168.165c0 4.417 3.578 7.999 7.999 7.999H352.96C362.086 404.036 373.621 408.643 385.861 408.975zM386.298 392.985c-18.067-.496-33.146-14.14-34.776-33.034 1.197 1.224 2.351 2.442 3.647 3.682 18.04 17.251 46.291 17.256 64.337 0 1.222-1.169 2.305-2.317 3.44-3.473C420.208 379.699 403.893 393.599 386.298 392.985zM428.864 319.532c0 8.386-7.249 19.943-20.42 32.539-11.842 11.327-30.387 11.319-42.214 0-13.17-12.596-20.42-24.154-20.42-32.539 0-28.454 29.044-31.528 41.527-31.528C399.82 288.004 428.864 291.078 428.864 319.532zM171.228 147.899c36.39 0 75.566 21.25 78.421 55.943H92.799C95.346 172.669 129.553 147.899 171.228 147.899zM59.678 219.84c110.47 0 220.411 0 330.307 0v52.252c-.887-.023-1.744-.086-2.648-.086-35.48 0-57.525 18.213-57.525 47.526 0 6.342 2.029 13.079 5.96 20.149-.292 1.61-.554 3.232-.554 4.927v12.221c0 8.165 1.917 16.038 5.462 23.177H59.678V219.84zM385.017 416.916c-56.869 0-103.137 36.949-103.137 82.37v4.687c0 4.417 3.578 7.999 7.999 7.999h190.284c4.421 0 7.999-3.582 7.999-7.999v-4.687C488.162 457.809 446.893 416.916 385.017 416.916zM297.988 495.973c2.273-35.066 40.441-63.059 87.029-63.059 40.927 0 84.509 24.208 87.037 63.059H297.988zM270.467 100.709l31.168-23.697h69.063c13.592 0 24.646-11.057 24.646-24.65V24.678c0-13.592-11.053-24.65-24.646-24.65h-88.42c-13.592 0-24.654 11.057-24.654 24.65v69.664C257.625 101.003 265.245 104.682 270.467 100.709zM273.623 24.678c0-4.769 3.882-8.651 8.655-8.651h88.42c4.765 0 8.647 3.882 8.647 8.651v27.684c0 4.769-3.882 8.651-8.647 8.651h-71.758c-1.75 0-3.453.574-4.843 1.633l-20.474 15.565V24.678z"/><path fill="#33226e" d="M308.486 46.305h35.996c4.421 0 7.999-3.582 7.999-7.999s-3.578-7.999-7.999-7.999h-35.996c-4.421 0-7.999 3.582-7.999 7.999S304.065 46.305 308.486 46.305zM283.028 245.329h-88.42c-13.592 0-24.654 11.061-24.654 24.654v27.681c0 13.592 11.061 24.654 24.654 24.654h69.055l31.168 23.693c5.244 3.991 12.842.257 12.842-6.366v-69.66C307.674 256.391 296.62 245.329 283.028 245.329zM291.676 323.516l-20.474-15.565c-1.398-1.058-3.093-1.633-4.843-1.633h-71.75c-4.773 0-8.655-3.882-8.655-8.655v-27.681c0-4.773 3.882-8.655 8.655-8.655h88.42c4.765 0 8.647 3.882 8.647 8.655V323.516z"/><path fill="#33226e" d="M256.812,275.611h-35.996c-4.421,0-7.999,3.582-7.999,7.999s3.578,7.999,7.999,7.999h35.996
				c4.421,0,7.999-3.582,7.999-7.999S261.234,275.611,256.812,275.611z"/></svg>