<svg width="19" height="25" viewBox="0 0 19 25" fill="none" xmlns="http://www.w3.org/2000/svg">
<path fill-rule="evenodd" clip-rule="evenodd" d="M5.81563 18.9359C5.81563 18.9359 4.88046 19.4802 6.48192 19.6639C8.42234 19.8854 9.4139 19.8535 11.5516 19.4495C11.5516 19.4495 12.1148 19.8017 12.8999 20.1069C8.10618 22.1607 2.05074 19.9879 5.81563 18.9359Z" fill="#0074BD"/>
<path fill-rule="evenodd" clip-rule="evenodd" d="M5.22942 16.2552C5.22942 16.2552 4.18039 17.0319 5.78304 17.1976C7.85601 17.4116 9.49246 17.4291 12.3258 16.8838C12.3258 16.8838 12.7168 17.281 13.3325 17.498C7.53752 19.1931 1.0831 17.6314 5.22942 16.2552Z" fill="#0074BD"/>
<path fill-rule="evenodd" clip-rule="evenodd" d="M10.1681 11.7077C11.3499 13.068 9.85819 14.2912 9.85819 14.2912C9.85819 14.2912 12.8572 12.7433 11.4802 10.804C10.1936 8.99635 9.20728 8.09839 14.5472 5.00159C14.5472 5.00159 6.16486 7.0946 10.1681 11.7077Z" fill="#EA2D2E"/>
<path fill-rule="evenodd" clip-rule="evenodd" d="M16.5076 20.9189C16.5076 20.9189 17.1998 21.4896 15.7451 21.9309C12.9788 22.7688 4.22925 23.0215 1.79906 21.9644C0.926075 21.5842 2.56393 21.0572 3.07926 20.9459C3.61659 20.8296 3.92338 20.8509 3.92338 20.8509C2.95181 20.1667 -2.3563 22.1945 1.22745 22.7761C11.0005 24.3602 19.0422 22.0626 16.5076 20.9189Z" fill="#0074BD"/>
<path fill-rule="evenodd" clip-rule="evenodd" d="M6.26601 13.4775C6.26601 13.4775 1.81604 14.5348 4.69023 14.919C5.90418 15.0815 8.32273 15.0441 10.5772 14.8549C12.4192 14.7004 14.2677 14.3697 14.2677 14.3697C14.2677 14.3697 13.6187 14.6481 13.1488 14.9688C8.62898 16.1576 -0.10077 15.6039 2.41278 14.3886C4.53753 13.3607 6.26601 13.4775 6.26601 13.4775Z" fill="#0074BD"/>
<path fill-rule="evenodd" clip-rule="evenodd" d="M14.249 17.9395C18.8433 15.5528 16.7188 13.259 15.2361 13.5679C14.8735 13.6436 14.7109 13.7091 14.7109 13.7091C14.7109 13.7091 14.8459 13.4975 15.1032 13.4064C18.0365 12.3757 20.2919 16.4476 14.1572 18.0603C14.1572 18.0603 14.2278 17.9964 14.249 17.9395Z" fill="#0074BD"/>
<path fill-rule="evenodd" clip-rule="evenodd" d="M11.4797 0C11.4797 0 14.0235 2.54524 9.06623 6.458C5.09086 9.59792 8.15982 11.3875 9.06482 13.4333C6.7441 11.3397 5.04189 9.49636 6.18365 7.78104C7.86029 5.26348 12.5058 4.04248 11.4797 0Z" fill="#EA2D2E"/>
<path fill-rule="evenodd" clip-rule="evenodd" d="M6.71742 24.409C11.1263 24.6909 17.8986 24.2522 18.0589 22.1658C18.0589 22.1658 17.7508 22.9567 14.4148 23.5843C10.6514 24.2928 6.0085 24.2103 3.25586 23.7558C3.25586 23.7558 3.81978 24.2225 6.71742 24.409Z" fill="#0074BD"/>
</svg>
