<?xml version="1.0" ?><!DOCTYPE svg  PUBLIC '-//W3C//DTD SVG 1.1//EN'  'http://www.w3.org/Graphics/SVG/1.1/DTD/svg11.dtd'><svg height="512px" style="enable-background:new 0 0 512 512;" version="1.1" viewBox="0 0 512 512" width="512px" xml:space="preserve" xmlns="http://www.w3.org/2000/svg" xmlns:xlink="http://www.w3.org/1999/xlink"><g id="_x31_86-joomla"><g><path d="M26.667,87.799c0-34.185,27.511-61.694,61.388-61.694c30.797,0,55.947,22.48,60.771,51.532    c33.467-7.802,68.882,0.615,99.063,30.797l-45.476,45.476c-21.044-21.044-43.73-16.732-56.872-3.593    c-14.679,14.681-14.679,38.906,0,53.586l102.142,102.143l-45.167,45.475c-90.029-89.516-51.02-51.019-102.45-102.346    c-27.512-27.204-35.93-66.521-25.458-101.526C46.993,141.693,26.667,117.159,26.667,87.799z" style="fill:#7AC043;"/><path d="M159.607,207.29l45.476,45.478c10.266-10.267,92.082-92.082,102.347-102.451    c14.681-14.679,38.6-14.679,53.278,0c13.14,13.14,17.451,35.931-3.592,56.871l45.167,45.477    c32.028-32.028,39.523-69.396,29.668-103.887c29.975-4.21,53.277-29.977,53.277-61.081c0-34.082-27.511-61.695-61.388-61.695    c-31.105,0-56.871,23.097-61.079,52.97c-34.697-10.163-73.604-1.539-100.91,25.767    C243.065,124.346,188.862,178.137,159.607,207.29z" style="fill:#F9AE41;"/><path d="M432.979,363.531c8.417-33.568-0.925-70.319-26.999-96.395    c-12.113-12.522,5.132,4.825-102.144-102.346l-45.475,45.477l102.347,102.346c14.681,14.682,14.681,38.6,0,53.278    c-13.14,13.14-35.929,17.452-56.872-3.592l-45.167,45.476c28.334,31.001,69.805,39.831,105.427,28.743    c5.646,28.129,30.489,49.378,60.465,49.378c33.877,0,61.387-27.512,61.387-61.694C485.947,393.197,462.851,367.74,432.979,363.531    L432.979,363.531z" style="fill:#EE4035;"/><path d="M346.438,309.02l-45.168-45.475c-89.31,88.693-51.738,51.737-102.348,102.45    c-14.679,14.679-38.598,14.679-53.277,0c-13.449-13.757-17.349-36.238,3.286-56.871l-45.169-45.476    C72.76,294.65,64.753,330.579,73.479,364.56c-27.408,6.158-47.426,30.692-47.426,59.743c0,34.186,27.511,61.696,61.388,61.696    c29.359,0,53.894-20.326,60.155-47.94c33.568,8.417,70.319-0.615,96.702-26.689C277.249,378.519,256.82,398.639,346.438,309.02    L346.438,309.02z" style="fill:#4F91CD;"/></g></g><g id="Layer_1"/></svg>