<?xml version="1.0" ?><!DOCTYPE svg  PUBLIC '-//W3C//DTD SVG 1.1//EN'  'http://www.w3.org/Graphics/SVG/1.1/DTD/svg11.dtd'><svg id="Lager_1" style="enable-background:new 0 0 128 128;" version="1.1" viewBox="0 0 128 128" xml:space="preserve" xmlns="http://www.w3.org/2000/svg" xmlns:xlink="http://www.w3.org/1999/xlink"><g><g><g><circle cx="64" cy="64" r="50" style="fill:#0769AD;"/></g></g><g id="Layer_6"><g><g><path d="M36.8,49.9c-5.2,7.5-4.6,17.3-0.6,25.3c0.1,0.2,0.2,0.4,0.3,0.6c0.1,0.1,0.1,0.2,0.2,0.4      c0,0.1,0.1,0.1,0.1,0.2c0.1,0.1,0.1,0.2,0.2,0.4c0.1,0.2,0.3,0.4,0.4,0.7c0.1,0.1,0.1,0.2,0.2,0.4c0.1,0.2,0.3,0.5,0.4,0.7      c0.1,0.1,0.1,0.2,0.2,0.3c0.2,0.3,0.4,0.6,0.6,0.9l0,0l0.1,0.1c0.2,0.3,0.4,0.5,0.6,0.8c0.1,0.1,0.1,0.2,0.2,0.3      c0.2,0.2,0.4,0.4,0.5,0.7c0.1,0.1,0.1,0.2,0.2,0.2c0.2,0.3,0.5,0.6,0.8,0.9l0,0l0,0c0.3,0.3,0.5,0.5,0.8,0.8      c0.1,0.1,0.2,0.2,0.2,0.2c0.2,0.2,0.4,0.4,0.6,0.6c0.1,0.1,0.2,0.2,0.3,0.2c0.3,0.3,0.6,0.5,0.8,0.8l0,0l0.1,0.1      c0.3,0.2,0.5,0.4,0.8,0.6c0.1,0.1,0.2,0.2,0.3,0.3c0.2,0.2,0.4,0.3,0.6,0.5c0.1,0.1,0.2,0.2,0.3,0.3c0.2,0.2,0.5,0.3,0.7,0.5      c0.1,0.1,0.2,0.1,0.3,0.2c0,0,0,0,0.1,0.1c0.2,0.2,0.5,0.3,0.7,0.5c0.1,0.1,0.2,0.1,0.3,0.2c0.4,0.2,0.7,0.4,1.1,0.7      c0.1,0.1,0.2,0.1,0.3,0.2c0.3,0.2,0.5,0.3,0.8,0.5c0.1,0.1,0.3,0.2,0.4,0.2c0.2,0.1,0.4,0.2,0.6,0.3c0,0,0.1,0,0.1,0.1      c0.1,0,0.2,0.1,0.2,0.1c0.3,0.1,0.6,0.3,0.9,0.4c0.1,0,0.1,0.1,0.2,0.1c0.4,0.2,0.7,0.3,1.1,0.4c0.1,0,0.2,0.1,0.3,0.1      c0.3,0.1,0.7,0.3,1,0.4h0.1c0.4,0.1,0.8,0.3,1.1,0.4c0.1,0,0.2,0.1,0.3,0.1c0.4,0.1,0.8,0.3,1.2,0.3      c25.3,4.6,32.7-15.2,32.7-15.2C84.3,85.9,73.3,88,63,85.6c-0.4-0.1-0.8-0.2-1.2-0.3c-0.1,0-0.2-0.1-0.3-0.1      c-0.4-0.1-0.7-0.2-1.1-0.4c-0.1,0-0.1,0-0.2-0.1c-0.3-0.1-0.7-0.2-1-0.4c-0.1,0-0.2-0.1-0.3-0.1c-0.4-0.1-0.7-0.3-1.1-0.4      c-0.1,0-0.1-0.1-0.2-0.1c-0.3-0.1-0.6-0.3-0.9-0.4c-0.1,0-0.2-0.1-0.3-0.1c-0.2-0.1-0.5-0.2-0.7-0.4c-0.2-0.1-0.3-0.2-0.5-0.2      c-0.3-0.2-0.6-0.3-0.8-0.5c-0.1-0.1-0.2-0.1-0.3-0.2c-0.4-0.2-0.7-0.4-1.1-0.7c-0.1-0.1-0.2-0.1-0.3-0.2      c-0.3-0.2-0.5-0.3-0.8-0.5c-0.1-0.1-0.2-0.1-0.2-0.2c-0.2-0.2-0.5-0.3-0.7-0.5c-0.1-0.1-0.2-0.2-0.3-0.2      c-0.2-0.2-0.4-0.3-0.7-0.5c-0.1-0.1-0.2-0.2-0.3-0.2c-0.3-0.2-0.5-0.5-0.8-0.7c0,0-0.1,0-0.1-0.1c-0.3-0.3-0.6-0.5-0.9-0.8      c-0.1-0.1-0.2-0.2-0.2-0.2c-0.2-0.2-0.4-0.4-0.6-0.6c-0.1-0.1-0.2-0.2-0.2-0.2c-0.3-0.3-0.5-0.5-0.8-0.8l0,0      c-0.3-0.3-0.5-0.6-0.8-0.9c-0.1-0.1-0.1-0.2-0.2-0.2c-0.2-0.2-0.4-0.5-0.6-0.7c-0.1-0.1-0.1-0.2-0.2-0.3      c-0.2-0.3-0.4-0.6-0.6-0.9c-5.8-7.9-7.8-18.7-3.2-27.6" style="fill:#78CFF5;"/><path d="M53,43.5C49.2,49,49.4,56.2,52.4,62c0.5,1,1.1,1.9,1.7,2.8c0.6,0.8,1.2,1.8,1.9,2.4      c0.3,0.3,0.6,0.6,0.9,0.9c0.1,0.1,0.1,0.1,0.2,0.2c0.3,0.3,0.6,0.5,0.9,0.8l0,0l0,0c0.3,0.3,0.7,0.6,1,0.8      c0.1,0.1,0.2,0.1,0.2,0.2c0.3,0.3,0.7,0.5,1.1,0.8l0,0c0.2,0.1,0.3,0.2,0.5,0.3c0.1,0.1,0.2,0.1,0.2,0.2      c0.3,0.2,0.5,0.3,0.8,0.5c0,0,0.1,0,0.1,0.1c0.2,0.1,0.5,0.3,0.7,0.4c0.1,0,0.2,0.1,0.2,0.1c0.2,0.1,0.3,0.2,0.5,0.3      c0,0,0,0,0.1,0c0.3,0.2,0.7,0.3,1,0.5c0.1,0,0.1,0.1,0.2,0.1c0.3,0.1,0.6,0.2,0.8,0.3c0.1,0,0.2,0.1,0.4,0.1      c0.3,0.1,0.5,0.2,0.8,0.3c0.1,0,0.2,0.1,0.3,0.1c0.4,0.1,0.7,0.3,1.1,0.3c19.6,3.2,24.1-11.8,24.1-11.8      c-4.1,5.9-12,8.7-20.4,6.5c-0.4-0.1-0.7-0.2-1.1-0.3c-0.1,0-0.2-0.1-0.3-0.1c-0.3-0.1-0.5-0.2-0.8-0.3c-0.1,0-0.2-0.1-0.3-0.1      c-0.3-0.1-0.6-0.2-0.8-0.3c-0.1,0-0.2-0.1-0.2-0.1c-0.3-0.2-0.7-0.3-1-0.5c-0.2-0.1-0.3-0.2-0.5-0.3c-0.1-0.1-0.2-0.1-0.3-0.2      c-0.2-0.1-0.4-0.2-0.6-0.4c-0.1,0-0.1-0.1-0.2-0.1c-0.3-0.2-0.5-0.3-0.8-0.5c-0.1-0.1-0.2-0.1-0.2-0.2c-0.2-0.1-0.3-0.2-0.5-0.3      c-0.4-0.2-0.7-0.5-1.1-0.8c-0.1-0.1-0.2-0.1-0.2-0.2c-3.7-2.9-6.6-6.9-8-11.4c-1.5-4.7-1.1-9.9,1.4-14.2" style="fill:#78CFF5;"/><path d="M66.7,38.8c-2.2,3.3-2.5,7.4-0.9,11c1.6,3.9,5,6.9,8.9,8.3c0.2,0.1,0.3,0.1,0.5,0.2      c0.1,0,0.1,0,0.2,0.1c0.2,0.1,0.5,0.2,0.7,0.2c10.8,2.1,13.7-5.5,14.5-6.7c-2.6,3.7-6.9,4.6-12.2,3.3c-0.4-0.1-0.9-0.3-1.3-0.4      c-0.5-0.2-1-0.4-1.5-0.6c-0.9-0.5-1.8-1-2.7-1.6c-4.7-3.6-7.7-10.4-4.6-16" style="fill:#78CFF5;"/></g></g></g></g></svg>