<?xml version="1.0" ?><svg id="Layer_1" style="enable-background:new 0 0 128 128;" version="1.1" viewBox="0 0 128 128" xml:space="preserve" xmlns="http://www.w3.org/2000/svg" xmlns:xlink="http://www.w3.org/1999/xlink"><style type="text/css">
	.st0{fill:#0D2531;}
	.st1{fill:#AAD1EB;}
</style><g><g><path class="st0" d="M64,111.2C38,111.2,16.8,90,16.8,64S38,16.8,64,16.8S111.2,38,111.2,64S90,111.2,64,111.2z"/><path class="st1" d="M64,19.7c24.4,0,44.3,19.9,44.3,44.3S88.4,108.3,64,108.3S19.7,88.4,19.7,64S39.6,19.7,64,19.7 M64,14    c-27.6,0-50,22.4-50,50s22.4,50,50,50s50-22.4,50-50S91.6,14,64,14L64,14z"/></g><g><path class="st1" d="M72.7,60.5c0-0.4,0-1.5-0.2-3.5c0-0.3,0.1-0.4,0.3-0.5c2.2-0.9,7.5-2.5,13.3-2.5c0.3,0,0.4,0.1,0.4,0.4v5.2    c0,0.3-0.1,0.4-0.4,0.4c-2.3-0.1-5.7,0.2-6.9,0.7v22.9c0,0.3-0.1,0.4-0.4,0.4h-5.7c-0.3,0-0.4-0.1-0.4-0.4L72.7,60.5L72.7,60.5    L72.7,60.5L72.7,60.5z M45.9,84c-0.4,0-0.5-0.2-0.5-0.5V44.5c0-0.3,0.1-0.5,0.4-0.5h5.7c0.3,0,0.4,0.1,0.4,0.4V78h14.9    c0.3,0,0.4,0.1,0.3,0.4l-0.9,5.1C66.2,83.9,66,84,65.7,84L45.9,84L45.9,84z"/></g></g></svg>