<svg xmlns="http://www.w3.org/2000/svg" enable-background="new 0 0 67 67" viewBox="0 0 67 67"><path fill="#FFF" d="M52.63887,10.38989v49.40363c0,2.39309-1.9425,4.33559-4.34562,4.33559H19.62639
		c-2.40312,0-4.34562-1.9425-4.34562-4.33559V10.38989c0-2.39303,1.9425-4.33554,4.34562-4.33554h28.66685
		C50.69636,6.05435,52.63887,7.99686,52.63887,10.38989z"/><path fill="#8F9FFF" d="M15.28077 56.46753v3.32606c0 2.39303 1.9425 4.33553 4.34562 4.33553h28.66685c2.40312 0 4.34562-1.9425 4.34562-4.33553v-3.32606H15.28077zM52.63887 12.45695v-2.06699c0-2.3931-1.9425-4.3356-4.34562-4.3356H19.62639c-2.40312 0-4.34562 1.9425-4.34562 4.3356v2.06699H52.63887z"/><rect width="28.735" height="8.54" x="4.724" y="18.973" fill="#FFF"/><rect width="16.146" height="13.009" x="41.067" y="29.093" fill="#FFF"/><polygon fill="#8F9FFF" points="51.858 35.602 47.196 38.546 47.196 32.649"/><path fill="#FFF" d="M25.10315,43.77114c-0.16771,0.68761-0.44163,1.33611-0.79942,1.9231l1.10133,1.6212l-1.75539,1.75539
		l-1.62123-1.10129c-0.58698,0.35776-1.23546,0.63172-1.9231,0.79383l-0.36895,1.9287h-2.48214l-0.36895-1.9231
		c-0.68764-0.16771-1.33052-0.44167-1.9175-0.79942l-1.62123,1.10129l-1.75539-1.75539l1.10133-1.6212
		c-0.35779-0.58699-0.63172-1.23549-0.79386-1.9231l-1.92866-0.36898v-2.48214l1.92866-0.36895
		c0.16214-0.68761,0.43607-1.33052,0.79386-1.9175l-1.10133-1.62123l1.75539-1.75539l1.62123,1.10133
		c0.58699-0.35779,1.22986-0.63172,1.9175-0.79942l0.36895-1.9231h2.48214l0.36895,1.9287
		c0.68764,0.16211,1.33611,0.43604,1.9231,0.79383l1.62123-1.10133l1.75539,1.75539l-1.10133,1.62123
		c0.35779,0.58699,0.63172,1.23546,0.79386,1.9231l1.9231,0.36335v2.48214L25.10315,43.77114z"/><path fill="#2A44E2" d="M60.26645 18.50707c.14592.23469.45393.30584.68847.16064.23536-.146.30665-.45459.16114-.68896-.61914-.99463-1.30176-1.9707-2.0293-2.90039-.1709-.21826-.48438-.25537-.70215-.08545-.2168.16992-.25488.48438-.08496.70166C59.00473 16.59643 59.66684 17.54272 60.26645 18.50707zM63.30648 22.14672c-.11035-.25342-.4043-.36719-.6582-.25879-.25293.11035-.36816.40527-.25781.6582 1.73144 3.9707 2.60937 8.19141 2.60937 12.54541 0 4.30664-.86035 8.48828-2.55761 12.42871-.10938.25342.00781.54785.26074.65674.25299.10925.54823-.00714.65723-.26123 1.75195-4.06592 2.63964-8.38086 2.63964-12.82422C65.99984 30.59936 65.09359 26.24389 63.30648 22.14672zM3.3348 44.41576c-.08154-.26318-.35693-.40869-.62598-.3291-.26367.08203-.41113.36182-.3291.62598 1.78076 5.73633 5.12793 10.875 9.68018 14.86035.20784.18226.52413.1611.70557-.04639.18213-.20801.16113-.52393-.04639-.70557C8.30551 54.95678 5.06039 49.97582 3.3348 44.41576zM2.48324 41.00463c-.23633-1.24023-.39893-2.50928-.48389-3.77246C1.9808 36.95678 1.76156 36.76 1.46664 36.76683c-.27539.01855-.48389.25684-.46533.53271.08789 1.30322.25586 2.61279.49951 3.89258.05067.26416.30503.44914.58496.39746C2.35678 41.53783 2.535 41.27611 2.48324 41.00463zM53.13852 14.4663c0-.10827 0-4.34573 0-4.07642 0-2.6665-2.17383-4.83545-4.8457-4.83545H19.62631c-2.67188 0-4.8457 2.16895-4.8457 4.83545 0 .10268 0 3.28743 0 3.17035-1.67725 1.45715-3.17944 3.10638-4.47986 4.91315H4.72445c-.27637 0-.5.22363-.5.5v8.54053c0 .27637.22363.5.5.5h1.10822c-.5824 2.26563-.90948 4.63263-.90948 7.07763 0 8.59399 3.82697 16.30414 9.85742 21.53918v3.16296c0 2.6665 2.17383 4.83545 4.8457 4.83545h28.66651c2.67188 0 4.8457-2.16895 4.8457-4.83545 0-.18658 0-4.18876 0-4.07672 5.44916-5.19897 8.85645-12.51886 8.85645-20.62543C61.99496 26.98516 58.58773 19.66527 53.13852 14.4663zM41.56723 41.60228V29.5935h15.14551v12.00879H41.56723zM41.06723 28.5935c-.27637 0-.5.22363-.5.5v13.00879c0 .27637.22363.5.5.5h11.07129v13.36523H15.7806v-7.03479c.22095.08936.44446.17126.67236.23792l.31006 1.61572c.04541.23535.25146.40576.49121.40576h2.48193c.23975 0 .4458-.17041.49121-.40625l.30957-1.61865c.50732-.14502 1-.34863 1.47021-.60791l1.36133.92529c.19922.13574.46582.11035.63477-.06006l1.75537-1.75537c.16992-.16943.19482-.43604.06006-.63428l-.9248-1.36182c.25732-.46777.46191-.95996.61133-1.47021l1.61035-.30957c.23535-.04541.40527-.25146.40527-.49121v-2.48193c0-.24023-.1709-.44678-.40723-.49121l-1.6123-.30469c-.14551-.50732-.34863-.99951-.60742-1.46973l.9248-1.36084c.13477-.19873.10986-.46533-.06006-.63477l-1.75537-1.75537c-.16992-.16992-.43604-.19482-.63428-.06006l-1.36133.9248c-.4707-.25928-.96338-.46289-1.4707-.60791l-.30957-1.61865c-.04541-.23535-.25146-.40576-.49121-.40576h-2.48193c-.23975 0-.4458.17041-.49121.40576l-.31006 1.61523c-.22791.06665-.45142.14856-.67236.23792v-7.38098h17.67871c.27637 0 .5-.22363.5-.5v-8.54053c0-.27637-.22363-.5-.5-.5H15.7806v-5.5166h36.35791V28.5935H41.06723zM13.11947 45.43383c-.34082-.55908-.58789-1.15723-.73389-1.77734-.04541-.19189-.19922-.33936-.39307-.37646l-1.52246-.2915v-1.65479l1.52246-.2915c.19385-.03711.34766-.18457.39307-.37646.14453-.61426.3916-1.21045.73389-1.77197.10205-.16748.09717-.37891-.01318-.5415l-.86914-1.27881 1.17041-1.17041 1.2793.86865c.16211.11035.37354.11572.54102.01318.55811-.33984 1.15527-.58936 1.77539-.74023.19043-.04639.33594-.19922.37305-.3916l.29102-1.51709h1.65527l.2915 1.52246c.03711.19336.18457.34717.37646.39258.62012.146 1.21826.39307 1.77783.73389.16797.10254.37939.09717.54102-.01318l1.2793-.86865 1.17041 1.17041-.86914 1.27881c-.11035.1626-.11523.37402-.01318.5415.34082.55908.58789 1.15723.73389 1.77783.04541.19238.19971.33984.39404.37646l1.51611.28662v1.6543l-1.51221.29102c-.19189.03711-.34473.18262-.39111.37256-.15283.62695-.40234 1.22607-.74072 1.78125-.10205.16748-.09717.37891.01318.54102l.86914 1.27979-1.17041 1.17041L22.3099 47.5559c-.16309-.11035-.37354-.11572-.5415-.01318-.55957.34082-1.15771.58789-1.77783.73389-.19189.04541-.33936.19922-.37646.39307l-.2915 1.52246h-1.65527l-.29102-1.51758c-.03711-.19238-.18262-.34521-.37305-.3916-.62012-.15088-1.21729-.40039-1.77539-.74023-.1665-.10107-.37793-.09668-.5415.01318l-1.27881.86914-1.17041-1.17041.86914-1.27979C13.21664 45.81273 13.22152 45.60131 13.11947 45.43383zM15.7806 10.38988c0-2.11475 1.7251-3.83545 3.8457-3.83545h28.66651c2.12012 0 3.8457 1.7207 3.8457 3.83545v1.56689H15.7806V10.38988zM14.7806 14.90093v3.57245h-3.23645C12.51913 17.19048 13.60043 15.99438 14.7806 14.90093zM5.22445 19.47338h27.73487v7.54053H5.22445V19.47338zM5.92318 35.09154c0-2.44873.33795-4.81689.94171-7.07763h7.91571v7.61267l-1.15332-.78308c-.19824-.13428-.46387-.10986-.63428.06006l-1.75537 1.75537c-.16992.16943-.19482.43604-.06006.63477l.9248 1.36084c-.25928.4707-.46289.96094-.60742 1.46484l-1.61865.30957c-.23584.04541-.40625.25146-.40625.49121v2.48193c0 .23975.17041.4458.40625.49121l1.61865.30957c.14502.50781.34863 1 .60742 1.47021l-.9248 1.36182c-.13477.19824-.10986.46484.06006.63428l1.75537 1.75537c.17041.16992.43652.19531.63477.06006l1.15283-.78345v6.58148C9.3428 50.25042 5.92318 43.06737 5.92318 35.09154zM52.13852 59.79369c0 2.11475-1.72559 3.83545-3.8457 3.83545H19.62631c-2.12061 0-3.8457-1.7207-3.8457-3.83545v-2.82617h36.35791V59.79369zM53.13852 54.30846V42.60228h4.07422c.27637 0 .5-.22363.5-.5V29.0935c0-.27637-.22363-.5-.5-.5h-4.07422V15.87731c4.85211 4.96509 7.85645 11.74164 7.85645 19.21423C60.99496 42.56493 57.99118 49.34301 53.13852 54.30846z"/><circle cx="33.96" cy="60.298" r="1.436" fill="#2A44E2"/><path fill="#2A44E2" d="M33.69369 8.75561h-3.45166c-.27637 0-.5.22363-.5.5s.22363.5.5.5h3.45166c.27637 0 .5-.22363.5-.5S33.97006 8.75561 33.69369 8.75561zM37.67758 8.75561h-1.33594c-.27637 0-.5.22363-.5.5s.22363.5.5.5h1.33594c.27637 0 .5-.22363.5-.5S37.95395 8.75561 37.67758 8.75561zM47.46371 32.22631c-.1543-.09814-.34961-.10303-.5088-.01563-.15917.08789-.25878.25586-.25878.43799v5.89746c0 .18213.09863.3501.25878.43799.15902.08777.35416.08206.50782-.01514l4.66211-2.94385c.31152-.19653.3099-.649.00098-.84521L47.46371 32.22631zM47.69613 37.6389v-4.08154l3.22656 2.04443L47.69613 37.6389zM12.21029 22.15551c-.25195-.11279-.54785.00244-.65967.25439l-.54639 1.23291-.69482-1.27002c-.1748-.32129-.70215-.32129-.87695 0l-.7417 1.35596-.74219-1.35596c-.13281-.24316-.43555-.33301-.67822-.19873-.24268.13232-.33154.43604-.19873.67822l1.18066 2.1582c.1748.32129.70215.32129.87695 0l.7417-1.35596.74219 1.35596c.08789.16113.25635.26025.43848.26025.00684 0 .01367 0 .021-.00049.18994-.00781.35889-.12305.43604-.29688l.95605-2.1582C12.5765 22.56273 12.46273 22.26732 12.21029 22.15551zM18.98715 22.15551c-.25195-.11279-.54785.00244-.65967.25439l-.54639 1.23291-.69482-1.27002c-.1748-.32129-.70215-.32129-.87695 0l-.7417 1.35596-.74219-1.35596c-.13281-.24316-.43604-.33301-.67822-.19873-.24268.13232-.33154.43604-.19873.67822l1.18066 2.1582c.1748.32129.70215.32129.87695 0l.7417-1.35596.74219 1.35596c.08789.16113.25635.26025.43848.26025.00684 0 .01367 0 .021-.00049.18994-.00781.35889-.12305.43604-.29688l.95605-2.1582C19.35336 22.56273 19.23959 22.26732 18.98715 22.15551zM25.764 22.15551c-.25195-.11279-.54785.00244-.65967.25439l-.54639 1.23291-.69482-1.27002c-.1748-.32129-.70215-.32129-.87695 0l-.7417 1.35596-.74219-1.35596c-.13232-.24316-.43555-.33301-.67822-.19873-.24268.13232-.33154.43604-.19873.67822l1.18066 2.1582c.1748.32129.70215.32129.87695 0l.7417-1.35596.74219 1.35596c.08789.16113.25635.26025.43848.26025.00684 0 .01367 0 .021-.00049.18994-.00781.35889-.12305.43604-.29688l.95605-2.1582C26.13021 22.56273 26.01644 22.26732 25.764 22.15551zM18.49545 45.91967c2.0708 0 3.75537-1.68506 3.75537-3.75586s-1.68457-3.75537-3.75537-3.75537-3.75586 1.68457-3.75586 3.75537S16.42465 45.91967 18.49545 45.91967zM18.49545 39.40844c1.51953 0 2.75537 1.23584 2.75537 2.75537s-1.23584 2.75586-2.75537 2.75586-2.75586-1.23633-2.75586-2.75586S16.97592 39.40844 18.49545 39.40844zM33.9598 3.37084h7.07813c.27637 0 .5-.22363.5-.5s-.22363-.5-.5-.5H33.9598c-.27637 0-.5.22363-.5.5S33.68344 3.37084 33.9598 3.37084zM29.33334 3.37084h1.81738c.27637 0 .5-.22363.5-.5s-.22363-.5-.5-.5h-1.81738c-.27637 0-.5.22363-.5.5S29.05697 3.37084 29.33334 3.37084z"/></svg>