<svg width="19" height="22" viewBox="0 0 19 22" fill="none" xmlns="http://www.w3.org/2000/svg">
<path d="M9.50373 21.4192C9.2169 21.4192 8.93202 21.3439 8.68055 21.1991L6.06031 19.6478C5.66896 19.429 5.85992 19.3516 5.989 19.307C6.51081 19.1243 6.6167 19.083 7.17368 18.7667C7.23222 18.7333 7.30884 18.7451 7.36876 18.7804L9.38173 19.975C9.45442 20.0142 9.55757 20.0142 9.62495 19.975L17.4737 15.4445C17.5464 15.4032 17.5935 15.3188 17.5935 15.2323V6.17534C17.5935 6.08497 17.5464 6.00442 17.4721 5.95923L9.62652 1.43271C9.55383 1.38949 9.45757 1.38949 9.38487 1.43271L1.54086 5.95923C1.46483 6.00245 1.4165 6.08693 1.4165 6.17338V15.2304C1.4165 15.3168 1.46365 15.3993 1.53831 15.4406L3.68762 16.6822C4.85462 17.2657 5.56778 16.5781 5.56778 15.8865V6.94744C5.56778 6.81974 5.66798 6.72151 5.79568 6.72151H6.78978C6.91356 6.72151 7.01572 6.81974 7.01572 6.94744V15.8905C7.01572 17.4465 6.16699 18.3404 4.69155 18.3404C4.23772 18.3404 3.88016 18.3404 2.88212 17.8492L0.823183 16.6626C0.314342 16.3679 0 15.8178 0 15.2304V6.17338C0 5.58399 0.314342 5.03389 0.823183 4.74312L8.67977 0.210707C9.17682 -0.0702357 9.83694 -0.0702357 10.3301 0.210707L18.1768 4.74509C18.6837 5.03782 19 5.58595 19 6.17534V15.2323C19 15.8197 18.6837 16.3679 18.1768 16.6626L10.3301 21.195C10.0786 21.3404 9.79371 21.415 9.50295 21.415" fill="#689F63"/>
<path d="M12.4057 14.9298C8.9715 14.9298 8.25146 13.3534 8.25146 12.0312C8.25146 11.9054 8.35284 11.8053 8.47877 11.8053H9.49253C9.60451 11.8053 9.69881 11.8868 9.71649 11.9974C9.86974 13.0304 10.3255 13.5514 12.4022 13.5514C14.0564 13.5514 14.7597 13.1777 14.7597 12.3005C14.7597 11.7956 14.5593 11.4204 11.9896 11.1689C9.84027 10.9567 8.51217 10.4833 8.51217 8.76419C8.51217 7.1807 9.84812 6.23767 12.0858 6.23767C14.5986 6.23767 15.8442 7.10997 16.0014 8.98423C16.0073 9.04906 15.9837 9.11193 15.9405 9.15908C15.8972 9.20427 15.8363 9.23177 15.7735 9.23177H14.7538C14.6477 9.23177 14.5554 9.15712 14.5338 9.05496C14.2882 7.96851 13.6949 7.62077 12.0819 7.62077C10.2764 7.62077 10.0662 8.24946 10.0662 8.72097C10.0662 9.29268 10.3137 9.45967 12.7499 9.78187C15.1625 10.1021 16.3078 10.554 16.3078 12.2495C16.3078 13.9587 14.8815 14.939 12.3943 14.939" fill="#689F63"/>
</svg>
