<?xml version="1.0" ?><!DOCTYPE svg  PUBLIC '-//W3C//DTD SVG 1.1//EN'  'http://www.w3.org/Graphics/SVG/1.1/DTD/svg11.dtd'><svg id="Lager_1" style="enable-background:new 0 0 128 128;" version="1.1" viewBox="0 0 128 128" xml:space="preserve" xmlns="http://www.w3.org/2000/svg" xmlns:xlink="http://www.w3.org/1999/xlink"><g><g><linearGradient gradientTransform="matrix(1 0 0 -1 0 128)" gradientUnits="userSpaceOnUse" id="SVGID_1_" x1="14" x2="114" y1="64" y2="64"><stop offset="0" style="stop-color:#6CB7E9"/><stop offset="1" style="stop-color:#78C3EB"/></linearGradient><circle cx="64" cy="64" r="50" style="fill:url(#SVGID_1_);"/></g><g><path d="M95.8,54.6c-1-2.6-5.7-3.6-17-3.6c-27.9,0-34-1.3-41.1-8.7c-0.4-0.4-0.9-0.4-1.3-0.1    c-0.4,0.3-0.5,0.9-0.2,1.3c0.3,0.5,0.6,1,0.9,1.5c2.8,4.8,7,12,31.7,12c0.7,0,1.4,0,2.1,0c0.8,0,1.6,0,2.3,0    c10.9,0,13.1,1.4,13.5,2.2c0.5,1.2-2.1,3.9-4.4,6.3c-2.1,2.1-4.4,4.6-5.9,7.1c-0.2,0.4-0.1,1,0.2,1.3c0.2,0.1,0.4,0.2,0.6,0.2    s0.5-0.1,0.7-0.3c2.5-2.3,5-4.4,7.2-6.2C92.5,61.4,96.9,57.6,95.8,54.6z" style="fill:#FFFFFF;"/><path d="M51.4,77.8c-2.8,0-5.1,2.3-5.1,5.1c0,2.8,2.3,5.1,5.1,5.1s5.1-2.3,5.1-5.1    C56.5,80.1,54.2,77.8,51.4,77.8z" style="fill:#FFFFFF;"/><path d="M70.2,77.8c-2.8,0-5.1,2.3-5.1,5.1c0,2.8,2.3,5.1,5.1,5.1c2.8,0,5.1-2.3,5.1-5.1    C75.4,80.1,73.1,77.8,70.2,77.8z" style="fill:#FFFFFF;"/></g></g></svg>