<svg version="1.1" id="Layer_1" xmlns="http://www.w3.org/2000/svg" xmlns:xlink="http://www.w3.org/1999/xlink" x="0px" y="0px"
	 width="100%" viewBox="0 0 200 200" enable-background="new 0 0 200 200" xml:space="preserve">
<path opacity="1.000000" stroke="none" 
	d="
M111.000000,201.000000 
	C74.022827,201.000000 37.545647,201.000000 1.034236,201.000000 
	C1.034236,134.397858 1.034236,67.795700 1.034236,1.096767 
	C67.560341,1.096767 134.120865,1.096767 200.840698,1.096767 
	C200.840698,67.666367 200.840698,134.333145 200.840698,201.000000 
	C171.129318,201.000000 141.314651,201.000000 111.000000,201.000000 
M97.891388,196.977020 
	C106.807831,195.889862 115.997810,195.820267 124.585907,193.511658 
	C144.790009,188.080521 161.762924,177.314209 174.992691,160.660080 
	C189.652496,142.205719 196.527420,121.415527 195.979141,97.105392 
	C195.232651,82.110649 191.363678,68.070518 184.046265,54.858887 
	C174.149994,36.991146 160.129227,23.357338 141.912140,14.574835 
	C126.133995,6.968150 109.384735,4.237483 91.515099,5.582725 
	C79.223152,6.508073 67.836990,9.432765 57.149654,14.595990 
	C36.592304,24.527573 21.657562,40.272377 12.230075,61.275951 
	C4.254799,79.044136 2.042766,97.560875 5.141508,116.510811 
	C9.242964,141.592743 21.793924,162.054642 42.058628,177.400864 
	C53.060642,185.732574 65.306778,191.869766 79.175751,194.092010 
	C85.114471,195.043579 91.064690,195.923386 97.891388,196.977020 
z"/>
<path fill="#E03338" opacity="1.000000" stroke="none" 
	d="
M97.009682,196.835815 
	C91.064690,195.923386 85.114471,195.043579 79.175751,194.092010 
	C65.306778,191.869766 53.060642,185.732574 42.058628,177.400864 
	C21.793924,162.054642 9.242964,141.592743 5.141508,116.510811 
	C2.042766,97.560875 4.254799,79.044136 12.230075,61.275951 
	C21.657562,40.272377 36.592304,24.527573 57.149654,14.595990 
	C67.836990,9.432765 79.223152,6.508073 91.515099,5.582725 
	C109.384735,4.237483 126.133995,6.968150 141.912140,14.574835 
	C160.129227,23.357338 174.149994,36.991146 184.046265,54.858887 
	C191.363678,68.070518 195.232651,82.110649 195.631165,97.683647 
	C193.803040,97.609634 191.981796,97.307159 190.897125,96.249374 
	C182.740158,88.294395 174.768539,80.149582 166.630402,72.174873 
	C165.311554,70.882500 163.455200,70.138649 161.868073,69.119713 
	C161.888870,69.098175 161.907745,69.154770 161.909363,68.817696 
	C161.479721,68.046623 161.048447,67.612625 160.709869,67.142258 
	C160.802551,67.105888 160.828918,67.303268 160.761017,67.012459 
	C160.377167,66.497711 160.061234,66.273773 159.465515,65.882187 
	C156.813629,63.172356 154.441513,60.630177 152.027176,57.764290 
	C151.102097,56.624706 150.219238,55.808830 149.211945,54.661377 
	C136.781921,42.468777 121.832535,36.704323 105.034409,35.096752 
	C102.611046,34.864841 101.679222,35.700741 101.565712,37.856125 
	C100.253036,37.116814 99.204094,36.535469 97.926498,35.620171 
	C79.371216,35.600185 63.752636,42.261459 49.598560,55.476521 
	C52.307293,57.786800 54.547508,59.519711 56.579285,61.469799 
	C60.103352,64.852180 60.049259,64.908539 56.155380,67.935226 
	C53.341122,64.693451 50.427082,61.336735 47.289490,57.722507 
	C35.482227,70.487495 29.014893,85.163376 27.777723,102.125664 
	C27.694435,103.267593 28.561211,104.478806 28.999443,105.933670 
	C29.335976,107.250267 29.659180,108.290985 29.555138,109.513496 
	C28.659576,110.462662 27.793884,111.227058 27.788086,111.997917 
	C27.753115,116.645195 27.915121,121.293945 28.146708,126.248688 
	C50.060123,148.408386 71.849777,170.249954 93.587761,192.142807 
	C94.936180,193.500824 95.878448,195.262146 97.009682,196.835815 
z"/>
<path fill="#B52F32" opacity="1.000000" stroke="none" 
	d="
M161.847290,69.141251 
	C163.455200,70.138649 165.311554,70.882500 166.630402,72.174873 
	C174.768539,80.149582 182.740158,88.294395 190.897125,96.249374 
	C191.981796,97.307159 193.803040,97.609634 195.570221,98.123749 
	C196.527420,121.415527 189.652496,142.205719 174.992691,160.660080 
	C161.762924,177.314209 144.790009,188.080521 124.585907,193.511658 
	C115.997810,195.820267 106.807831,195.889862 97.450531,196.906418 
	C95.878448,195.262146 94.936180,193.500824 93.587761,192.142807 
	C71.849777,170.249954 50.060123,148.408386 28.614223,126.221039 
	C76.648849,125.886902 124.351456,125.886902 171.904510,125.886902 
	C171.904510,120.008812 171.904510,114.944756 171.904510,109.665321 
	C168.821030,109.665321 166.164810,109.680153 163.508835,109.661095 
	C160.927200,109.642570 157.685593,110.271553 159.563202,105.117401 
	C163.670837,105.117401 167.896851,105.117401 172.288788,105.117401 
	C172.207764,91.687981 167.922852,80.154953 161.847290,69.141251 
z"/>
<path fill="#F3F1F2" opacity="1.000000" stroke="none" 
	d="
M161.868073,69.119713 
	C167.922852,80.154953 172.207764,91.687981 172.288788,105.117401 
	C167.896851,105.117401 163.670837,105.117401 159.563202,105.117401 
	C157.685593,110.271553 160.927200,109.642570 163.508835,109.661095 
	C166.164810,109.680153 168.821030,109.665321 171.904510,109.665321 
	C171.904510,114.944756 171.904510,120.008812 171.904510,125.886902 
	C124.351456,125.886902 76.648849,125.886902 28.478729,125.914551 
	C27.915121,121.293945 27.753115,116.645195 27.788086,111.997917 
	C27.793884,111.227058 28.659576,110.462662 30.000946,109.644249 
	C33.961895,109.512497 37.049793,109.431778 40.270149,109.457336 
	C40.402607,109.563614 40.701027,109.404045 40.701027,109.404045 
	C40.701027,109.404045 40.710476,109.065697 40.880146,108.692139 
	C40.936569,107.523575 40.823326,106.728577 40.705467,105.764496 
	C40.700851,105.595428 40.402130,105.436821 40.402130,105.436821 
	C40.402130,105.436821 40.138184,105.648949 39.686493,105.526817 
	C35.818573,105.489059 32.402344,105.573425 28.986115,105.657799 
	C28.561211,104.478806 27.694435,103.267593 27.777723,102.125664 
	C29.014893,85.163376 35.482227,70.487495 47.289490,57.722507 
	C50.427082,61.336735 53.341122,64.693451 56.155380,67.935226 
	C60.049259,64.908539 60.103352,64.852180 56.579285,61.469799 
	C54.547508,59.519711 52.307293,57.786800 49.598560,55.476521 
	C63.752636,42.261459 79.371216,35.600185 97.854675,36.084396 
	C98.011513,40.628227 98.011513,44.373871 98.011513,48.119518 
	C98.467834,48.422565 98.924149,48.725613 99.380470,49.028660 
	C100.257637,47.979336 101.741150,47.008286 101.888779,45.864777 
	C102.220757,43.293293 101.890282,40.636288 101.829437,38.014091 
	C101.679222,35.700741 102.611046,34.864841 105.034409,35.096752 
	C121.832535,36.704323 136.781921,42.468777 149.015701,54.950058 
	C145.728058,58.536270 142.512222,61.502216 139.296402,64.468163 
	C139.634735,65.156914 139.973068,65.845657 140.311401,66.534409 
	C141.742126,66.314026 143.593460,66.582207 144.524094,65.780983 
	C147.236481,63.445801 149.580765,60.683086 152.069382,58.087997 
	C154.441513,60.630177 156.813629,63.172356 159.567719,66.160912 
	C160.242767,66.839279 160.535843,67.071274 160.828918,67.303268 
	C160.828918,67.303268 160.802551,67.105888 160.767227,67.449829 
	C161.123856,68.247444 161.515793,68.701111 161.907745,69.154770 
	C161.907745,69.154770 161.888870,69.098175 161.868073,69.119713 
M63.539772,107.677429 
	C91.269341,107.677429 118.998917,107.677429 146.727570,107.677429 
	C146.517776,79.435211 123.732536,58.761955 95.528549,60.951954 
	C68.168495,63.076420 51.702354,88.656075 53.680931,107.677223 
	C56.611073,107.677223 59.584763,107.677223 63.539772,107.677429 
z"/>
<path fill="#BD3235" opacity="1.000000" stroke="none" 
	d="
M152.027176,57.764290 
	C149.580765,60.683086 147.236481,63.445801 144.524094,65.780983 
	C143.593460,66.582207 141.742126,66.314026 140.311401,66.534409 
	C139.973068,65.845657 139.634735,65.156914 139.296402,64.468163 
	C142.512222,61.502216 145.728058,58.536270 149.140137,55.281639 
	C150.219238,55.808830 151.102097,56.624706 152.027176,57.764290 
z"/>
<path fill="#B72F32" opacity="1.000000" stroke="none" 
	d="
M40.710079,105.933571 
	C40.823326,106.728577 40.936569,107.523575 40.772308,108.710274 
	C40.494801,109.101967 40.137688,109.351059 40.137688,109.351059 
	C37.049793,109.431778 33.961895,109.512497 30.428190,109.462463 
	C29.659180,108.290985 29.335976,107.250267 28.999443,105.933670 
	C32.402344,105.573425 35.818573,105.489059 39.766304,105.601456 
	C40.297802,105.798233 40.710079,105.933571 40.710079,105.933571 
z"/>
<path fill="#B93538" opacity="1.000000" stroke="none" 
	d="
M101.565712,37.856125 
	C101.890282,40.636288 102.220757,43.293293 101.888779,45.864777 
	C101.741150,47.008286 100.257637,47.979336 99.380470,49.028660 
	C98.924149,48.725613 98.467834,48.422565 98.011513,48.119518 
	C98.011513,44.373871 98.011513,40.628227 98.083328,36.418354 
	C99.204094,36.535469 100.253036,37.116814 101.565712,37.856125 
z"/>
<path fill="#B52F32" opacity="1.000000" stroke="none" 
	d="
M161.909363,68.817696 
	C161.515793,68.701111 161.123856,68.247444 160.674530,67.486206 
	C161.048447,67.612625 161.479721,68.046623 161.909363,68.817696 
z"/>
<path fill="#B52F32" opacity="1.000000" stroke="none" 
	d="
M160.761017,67.012459 
	C160.535843,67.071274 160.242767,66.839279 159.847488,66.328560 
	C160.061234,66.273773 160.377167,66.497711 160.761017,67.012459 
z"/>
<path fill="#B73134" opacity="1.000000" stroke="none" 
	d="
M63.049114,107.677322 
	C59.584763,107.677223 56.611073,107.677223 53.680931,107.677223 
	C51.702354,88.656075 68.168495,63.076420 95.528549,60.951954 
	C123.732536,58.761955 146.517776,79.435211 146.727570,107.677429 
	C118.998917,107.677429 91.269341,107.677429 63.049114,107.677322 
z"/>
<path fill="#E03338" opacity="1.000000" stroke="none" 
	d="
M40.705467,105.764496 
	C40.710079,105.933571 40.297802,105.798233 40.217995,105.723587 
	C40.138184,105.648949 40.402130,105.436821 40.402130,105.436821 
	C40.402130,105.436821 40.700851,105.595428 40.705467,105.764496 
z"/>
<path fill="#E03338" opacity="1.000000" stroke="none" 
	d="
M40.270149,109.457336 
	C40.137688,109.351059 40.494801,109.101967 40.602638,109.083832 
	C40.710476,109.065697 40.701027,109.404045 40.701027,109.404045 
	C40.701027,109.404045 40.402607,109.563614 40.270149,109.457336 
z"/>
</svg>