<svg width="23" height="23" viewBox="0 0 23 23" fill="none" xmlns="http://www.w3.org/2000/svg">
<path d="M11.846 0.000970409C10.9371 0.00519372 10.0692 0.0827005 9.30602 0.217886C7.05557 0.615433 6.64712 1.44721 6.64712 2.98187V5.00827H11.9629V5.6836H6.64712H4.65245C3.10747 5.6836 1.75363 6.61234 1.3313 8.3782C0.84314 10.4026 0.821528 11.6676 1.3313 13.7813C1.70922 15.3552 2.61178 16.4758 4.15675 16.4758H5.98467V14.0469C5.98467 12.2922 7.50289 10.7436 9.30582 10.7436H14.6157C16.0939 10.7436 17.2746 9.52662 17.2746 8.04311V2.98108C17.2746 1.5404 16.0592 0.458992 14.6157 0.217093C13.7024 0.0650736 12.7549 -0.00398647 11.8458 0.000177357L11.846 0.000970409ZM8.97093 1.63061C9.52016 1.63061 9.96847 2.08645 9.96847 2.64679C9.96847 3.20514 9.51996 3.65681 8.97093 3.65681C8.41992 3.65681 7.9734 3.20533 7.9734 2.64679C7.9734 2.08645 8.41992 1.63061 8.97093 1.63061Z" fill="url(#paint0_linear_83_1922)"/>
<path d="M17.9374 5.68201V8.04349C17.9374 9.87379 16.3857 11.4142 14.6162 11.4142H9.30636C7.8518 11.4142 6.64746 12.659 6.64746 14.1148V19.1768C6.64746 20.6175 7.90038 21.4649 9.30636 21.8773C10.9891 22.3722 12.6037 22.4616 14.6162 21.8773C15.9546 21.4899 17.2751 20.7099 17.2751 19.1768V17.1504H11.9653V16.475H17.2751H19.934C21.479 16.475 22.0556 15.3974 22.5929 13.7805C23.1479 12.1151 23.1243 10.5128 22.5929 8.37739C22.2111 6.83935 21.4818 5.6828 19.934 5.6828H17.9394L17.9374 5.68201ZM14.9513 18.5026C15.5023 18.5026 15.9489 18.9541 15.9489 19.5127C15.9489 20.073 15.5023 20.5288 14.9513 20.5288C14.4021 20.5288 13.9538 20.073 13.9538 19.5127C13.9538 18.9543 14.4023 18.5026 14.9513 18.5026Z" fill="url(#paint1_linear_83_1922)"/>
<defs>
<linearGradient id="paint0_linear_83_1922" x1="0.956679" y1="0.000534262" x2="13.2196" y2="10.4465" gradientUnits="userSpaceOnUse">
<stop stop-color="#5A9FD4"/>
<stop offset="1" stop-color="#306998"/>
</linearGradient>
<linearGradient id="paint1_linear_83_1922" x1="14.8259" y1="19.3489" x2="10.4196" y2="13.1839" gradientUnits="userSpaceOnUse">
<stop stop-color="#FFD43B"/>
<stop offset="1" stop-color="#FFE873"/>
</linearGradient>
</defs>
</svg>
