<svg width="24" height="24" viewBox="0 0 24 24" fill="none" xmlns="http://www.w3.org/2000/svg">
<path d="M12 15.8263C18.0751 15.8263 23 13.9459 23 11.6263C23 9.30667 18.0751 7.42627 12 7.42627C5.92487 7.42627 1 9.30667 1 11.6263C1 13.9459 5.92487 15.8263 12 15.8263Z" stroke="#61DAFB"/>
<path d="M8.36259 13.7263C11.4002 18.9875 15.4911 22.3124 17.4999 21.1526C19.5087 19.9928 18.6748 14.7875 15.6372 9.52628C12.5996 4.26506 8.50873 0.940202 6.4999 2.1C4.49107 3.2598 5.32503 8.46506 8.36259 13.7263Z" stroke="#61DAFB"/>
<path d="M8.36259 9.52623C5.32503 14.7874 4.49107 19.9927 6.4999 21.1525C8.50873 22.3123 12.5996 18.9874 15.6372 13.7262C18.6748 8.46501 19.5087 3.25975 17.4999 2.09995C15.4911 0.940153 11.4002 4.26501 8.36259 9.52623Z" stroke="#61DAFB"/>
</svg>
