<svg version="1.1" id="Layer_1" xmlns="http://www.w3.org/2000/svg" xmlns:xlink="http://www.w3.org/1999/xlink" x="0px" y="0px"
	 width="100%" viewBox="0 0 139 144" enable-background="new 0 0 139 144" xml:space="preserve">
<path opacity="1.000000" stroke="none" 
	d="
M75.000000,145.000000 
	C50.000000,145.000000 25.500000,145.000000 1.000000,145.000000 
	C1.000000,97.000000 1.000000,49.000000 1.000000,1.000000 
	C47.333332,1.000000 93.666664,1.000000 140.000000,1.000000 
	C140.000000,49.000000 140.000000,97.000000 140.000000,145.000000 
	C118.500000,145.000000 97.000000,145.000000 75.000000,145.000000 
M40.747063,122.042885 
	C41.695107,119.970512 39.358692,116.039207 43.927841,116.025673 
	C62.593971,115.970360 81.260643,115.963181 99.925888,116.103165 
	C100.945503,116.110809 102.881607,117.689842 102.820488,118.402771 
	C102.340828,123.997383 105.732979,124.251160 109.808121,124.007973 
	C112.299286,123.859314 114.807419,123.933380 117.306099,123.989334 
	C119.921844,124.047905 122.472641,123.481667 121.858192,120.310387 
	C120.874092,115.231323 125.157585,109.084793 118.888367,105.084404 
	C118.642509,104.927528 118.082207,105.159538 117.926094,104.982780 
	C116.907829,103.829826 115.126747,102.621910 115.115295,101.417503 
	C114.937775,82.752853 114.947502,64.085602 115.104279,45.420559 
	C115.113869,44.279396 116.761246,42.147881 117.565346,42.186111 
	C121.707542,42.383038 122.111946,40.170761 122.020744,36.871918 
	C121.567764,20.488026 124.868988,23.341255 107.471695,22.997873 
	C104.291527,22.935102 102.745560,24.207460 103.026245,27.419758 
	C103.284492,30.375309 101.726585,31.057655 99.093079,31.048357 
	C80.926910,30.984224 62.759869,31.067781 44.595264,30.887152 
	C43.387405,30.875141 41.258942,29.166014 41.163719,28.102533 
	C40.781651,23.835499 38.376091,22.858690 34.712814,22.997068 
	C31.716965,23.110235 28.641481,22.651470 25.745184,23.202515 
	C24.340242,23.469814 22.359337,25.368296 22.209225,26.704657 
	C21.747063,30.819073 21.874838,35.030239 22.165421,39.176338 
	C22.234224,40.158035 23.887001,41.865742 24.726273,41.815704 
	C29.022057,41.559597 29.063972,44.103733 29.051350,47.226532 
	C28.980608,64.725998 29.025536,82.225891 29.003622,99.725616 
	C29.001608,101.335121 28.807207,102.944374 28.680573,104.884148 
	C22.446690,104.026062 21.557688,107.403328 21.972979,112.102058 
	C22.221483,114.913750 21.875444,117.777046 22.106737,120.591675 
	C22.197693,121.698532 23.149900,123.670151 23.682600,123.660995 
	C29.237436,123.565422 34.786713,123.146713 40.747063,122.042885 
z"/>
<path fill="#373934" opacity="1.000000" stroke="none" 
	d="
M40.542297,122.430237 
	C34.786713,123.146713 29.237436,123.565422 23.682600,123.660995 
	C23.149900,123.670151 22.197693,121.698532 22.106737,120.591675 
	C21.875444,117.777046 22.221483,114.913750 21.972979,112.102058 
	C21.557688,107.403328 22.446690,104.026062 28.680573,104.884148 
	C28.807207,102.944374 29.001608,101.335121 29.003622,99.725616 
	C29.025536,82.225891 28.980608,64.725998 29.051350,47.226532 
	C29.063972,44.103733 29.022057,41.559597 24.726273,41.815704 
	C23.887001,41.865742 22.234224,40.158035 22.165421,39.176338 
	C21.874838,35.030239 21.747063,30.819073 22.209225,26.704657 
	C22.359337,25.368296 24.340242,23.469814 25.745184,23.202515 
	C28.641481,22.651470 31.716965,23.110235 34.712814,22.997068 
	C38.376091,22.858690 40.781651,23.835499 41.163719,28.102533 
	C41.258942,29.166014 43.387405,30.875141 44.595264,30.887152 
	C62.759869,31.067781 80.926910,30.984224 99.093079,31.048357 
	C101.726585,31.057655 103.284492,30.375309 103.026245,27.419758 
	C102.745560,24.207460 104.291527,22.935102 107.471695,22.997873 
	C124.868988,23.341255 121.567764,20.488026 122.020744,36.871918 
	C122.111946,40.170761 121.707542,42.383038 117.565346,42.186111 
	C116.761246,42.147881 115.113869,44.279396 115.104279,45.420559 
	C114.947502,64.085602 114.937775,82.752853 115.115295,101.417503 
	C115.126747,102.621910 116.907829,103.829826 117.926094,104.982780 
	C118.082207,105.159538 118.642509,104.927528 118.888367,105.084404 
	C125.157585,109.084793 120.874092,115.231323 121.858192,120.310387 
	C122.472641,123.481667 119.921844,124.047905 117.306099,123.989334 
	C114.807419,123.933380 112.299286,123.859314 109.808121,124.007973 
	C105.732979,124.251160 102.340828,123.997383 102.820488,118.402771 
	C102.881607,117.689842 100.945503,116.110809 99.925888,116.103165 
	C81.260643,115.963181 62.593971,115.970360 43.927841,116.025673 
	C39.358692,116.039207 41.695107,119.970512 40.542297,122.430237 
M48.617722,112.794571 
	C51.777683,112.809471 54.938797,112.886322 58.097389,112.827522 
	C67.204887,112.658012 76.311371,112.433784 86.143501,112.496719 
	C91.690163,112.496719 97.236816,112.496719 102.711090,112.496719 
	C103.588058,105.777657 103.588058,105.777657 110.925453,104.608513 
	C110.925453,99.075256 110.925453,93.477158 111.088837,86.975250 
	C111.088837,72.069443 111.088837,57.163635 111.088837,41.406155 
	C103.700714,44.251900 102.909073,39.655220 102.719986,34.839409 
	C97.495659,34.839409 92.694130,34.839409 86.985817,34.649475 
	C81.170334,34.751545 75.354843,34.853619 68.579132,34.676342 
	C64.458466,34.752930 60.337799,34.829517 55.258560,34.757931 
	C50.637638,34.757931 46.016716,34.757931 41.553448,34.757931 
	C39.948967,40.957268 39.948967,40.957268 33.196243,42.853733 
	C33.196243,63.412800 33.196243,83.993462 33.196243,105.017784 
	C39.062458,104.173775 41.412518,107.041855 40.928097,112.631027 
	C43.543297,112.631027 45.670929,112.631027 48.617722,112.794571 
M106.427879,110.102882 
	C106.427879,113.503059 106.427879,116.903236 106.427879,120.201263 
	C110.908554,120.201263 114.614288,120.201263 118.190048,120.201263 
	C118.190048,116.068222 118.190048,112.362221 118.190048,107.993774 
	C114.017921,108.452927 110.332687,108.858498 106.427879,110.102882 
M118.555481,28.861654 
	C118.012688,28.184822 117.500397,26.954239 116.922066,26.922369 
	C113.545555,26.736311 110.153564,26.831158 106.789642,26.831158 
	C106.789642,31.208567 106.789642,34.910671 106.789642,38.698944 
	C110.746033,38.698944 114.334541,38.698944 118.572151,38.698944 
	C118.572151,35.615261 118.572151,32.694168 118.555481,28.861654 
M37.202766,118.198608 
	C37.202766,115.085342 37.202766,111.972076 37.202766,108.776581 
	C32.889156,108.776581 29.145905,108.776581 25.337296,108.776581 
	C25.337296,112.745918 25.337296,116.361115 25.337296,121.176712 
	C29.521746,120.448296 33.341038,119.783440 37.202766,118.198608 
M25.151110,31.550915 
	C25.151110,33.825176 25.151110,36.099438 25.151110,38.528297 
	C29.436773,38.528297 33.148960,38.528297 36.826385,38.528297 
	C36.826385,34.478992 36.826385,30.755482 36.826385,26.823498 
	C33.832020,26.823498 31.170773,27.010256 28.547352,26.775072 
	C25.438503,26.496370 24.822279,28.051315 25.151110,31.550915 
z"/>
<path fill="#FD6701" opacity="1.000000" stroke="none" 
	d="
M110.925453,87.879059 
	C110.925453,93.477158 110.925453,99.075256 110.925453,104.608513 
	C103.588058,105.777657 103.588058,105.777657 102.711090,112.496719 
	C97.236816,112.496719 91.690163,112.496719 85.559113,112.058708 
	C68.024208,88.442535 63.246075,62.813648 69.539360,34.955688 
	C75.354843,34.853619 81.170334,34.751545 87.447906,35.218193 
	C87.690277,56.637611 95.711998,73.847069 110.925453,87.879059 
z"/>
<path fill="#01AAFC" opacity="1.000000" stroke="none" 
	d="
M69.059250,34.816017 
	C63.246075,62.813648 68.024208,88.442535 85.196487,111.925873 
	C76.311371,112.433784 67.204887,112.658012 58.097389,112.827522 
	C54.938797,112.886322 51.777683,112.809471 48.084038,112.317841 
	C46.704441,106.459923 45.512707,101.106773 45.073639,95.692581 
	C43.351978,74.462685 47.154381,54.187923 56.217133,34.906109 
	C60.337799,34.829517 64.458466,34.752930 69.059250,34.816017 
z"/>
<path fill="#00C702" opacity="1.000000" stroke="none" 
	d="
M55.737846,34.832020 
	C47.154381,54.187923 43.351978,74.462685 45.073639,95.692581 
	C45.512707,101.106773 46.704441,106.459923 47.674458,112.236069 
	C45.670929,112.631027 43.543297,112.631027 40.928097,112.631027 
	C41.412518,107.041855 39.062458,104.173775 33.196243,105.017784 
	C33.196243,83.993462 33.196243,63.412800 33.196243,42.853733 
	C39.948967,40.957268 39.948967,40.957268 41.553448,34.757931 
	C46.016716,34.757931 50.637638,34.757931 55.737846,34.832020 
z"/>
<path fill="#FFC700" opacity="1.000000" stroke="none" 
	d="
M111.007141,87.427155 
	C95.711998,73.847069 87.690277,56.637611 87.901291,35.313156 
	C92.694130,34.839409 97.495659,34.839409 102.719986,34.839409 
	C102.909073,39.655220 103.700714,44.251900 111.088837,41.406155 
	C111.088837,57.163635 111.088837,72.069443 111.007141,87.427155 
z"/>
<path fill="#E4E4E4" opacity="1.000000" stroke="none" 
	d="
M106.537674,109.683472 
	C110.332687,108.858498 114.017921,108.452927 118.190048,107.993774 
	C118.190048,112.362221 118.190048,116.068222 118.190048,120.201263 
	C114.614288,120.201263 110.908554,120.201263 106.427879,120.201263 
	C106.427879,116.903236 106.427879,113.503059 106.537674,109.683472 
z"/>
<path fill="#EDEDED" opacity="1.000000" stroke="none" 
	d="
M118.563812,29.317366 
	C118.572151,32.694168 118.572151,35.615261 118.572151,38.698944 
	C114.334541,38.698944 110.746033,38.698944 106.789642,38.698944 
	C106.789642,34.910671 106.789642,31.208567 106.789642,26.831158 
	C110.153564,26.831158 113.545555,26.736311 116.922066,26.922369 
	C117.500397,26.954239 118.012688,28.184822 118.563812,29.317366 
z"/>
<path fill="#EDEDED" opacity="1.000000" stroke="none" 
	d="
M37.181549,118.658600 
	C33.341038,119.783440 29.521746,120.448296 25.337296,121.176712 
	C25.337296,116.361115 25.337296,112.745918 25.337296,108.776581 
	C29.145905,108.776581 32.889156,108.776581 37.202766,108.776581 
	C37.202766,111.972076 37.202766,115.085342 37.181549,118.658600 
z"/>
<path fill="#F7F7F7" opacity="1.000000" stroke="none" 
	d="
M25.151217,31.085846 
	C24.822279,28.051315 25.438503,26.496370 28.547352,26.775072 
	C31.170773,27.010256 33.832020,26.823498 36.826385,26.823498 
	C36.826385,30.755482 36.826385,34.478992 36.826385,38.528297 
	C33.148960,38.528297 29.436773,38.528297 25.151110,38.528297 
	C25.151110,36.099438 25.151110,33.825176 25.151217,31.085846 
z"/>
</svg>