<svg version="1.1" id="Layer_1" xmlns="http://www.w3.org/2000/svg" xmlns:xlink="http://www.w3.org/1999/xlink" x="0px" y="0px"
	 width="100%" viewBox="0 0 237 213" enable-background="new 0 0 237 213" xml:space="preserve">
<path opacity="1.000000" stroke="none" 
	d="
M1.000000,81.000000 
	C1.000000,54.000004 1.000000,27.500010 1.000000,1.000011 
	C79.999977,1.000007 158.999954,1.000007 237.999954,1.000004 
	C237.999969,71.999969 237.999969,142.999939 237.999985,213.999939 
	C159.000046,213.999954 80.000092,213.999954 1.000069,213.999969 
	C1.000000,169.833328 1.000000,125.666664 1.000000,81.000000 
M229.607574,123.063461 
	C235.629822,113.292389 236.121384,103.412262 230.347565,93.318283 
	C229.642151,92.085060 229.251328,90.514900 229.205276,89.085098 
	C228.524414,67.947136 223.601395,47.607407 217.609863,27.483324 
	C215.399612,20.059652 212.785751,12.756149 210.307663,5.251527 
	C205.019470,13.948659 200.035156,22.146019 194.513031,31.227890 
	C191.220551,25.581354 188.934280,21.353237 186.359589,17.308729 
	C180.960632,8.827691 173.139282,4.199880 163.082626,4.152535 
	C133.918808,4.015239 104.753540,4.019141 75.589668,4.150764 
	C65.159798,4.197836 56.973309,8.751329 51.677296,17.890059 
	C37.080074,43.078854 22.546455,68.304535 8.004457,93.525307 
	C2.533309,103.014137 2.684790,112.479622 8.154699,121.943298 
	C22.473757,146.717163 36.753883,171.513535 51.066360,196.291214 
	C56.701698,206.047089 65.069664,211.046646 76.451431,211.024796 
	C104.949173,210.970093 133.447098,210.990265 161.944931,211.015305 
	C173.052658,211.025070 181.467911,206.401306 187.044632,196.731003 
	C201.089493,172.376633 215.139542,148.025269 229.607574,123.063461 
z"/>
<path fill="#6EB340" opacity="1.000000" stroke="none" 
	d="
M229.397552,123.368088 
	C215.139542,148.025269 201.089493,172.376633 187.044632,196.731003 
	C181.467911,206.401306 173.052658,211.025070 161.944931,211.015305 
	C133.447098,210.990265 104.949173,210.970093 76.451431,211.024796 
	C65.069664,211.046646 56.701698,206.047089 51.066360,196.291214 
	C36.753883,171.513535 22.473757,146.717163 8.154699,121.943298 
	C2.684790,112.479622 2.533309,103.014137 8.004457,93.525307 
	C22.546455,68.304535 37.080074,43.078854 51.677296,17.890059 
	C56.973309,8.751329 65.159798,4.197836 75.589668,4.150764 
	C104.753540,4.019141 133.918808,4.015239 163.082626,4.152535 
	C173.139282,4.199880 180.960632,8.827691 186.359589,17.308729 
	C188.934280,21.353237 191.220551,25.581354 194.513031,31.227890 
	C200.035156,22.146019 205.019470,13.948659 210.307663,5.251527 
	C212.785751,12.756149 215.399612,20.059652 217.609863,27.483324 
	C223.601395,47.607407 228.524414,67.947136 229.205276,89.085098 
	C229.251328,90.514900 229.642151,92.085060 230.347565,93.318283 
	C236.121384,103.412262 235.629822,113.292389 229.397552,123.368088 
M192.349442,90.294647 
	C192.598709,91.280304 192.847977,92.265961 193.036789,93.952301 
	C176.595810,126.702766 151.637573,149.775681 116.479019,161.195892 
	C104.871620,164.966217 93.207306,168.561356 80.215271,172.664078 
	C89.445511,172.664078 97.168991,172.721527 104.891342,172.653015 
	C125.847786,172.467133 146.833694,174.776215 167.740860,170.965698 
	C195.469406,165.911926 213.779861,150.701157 221.250824,123.139809 
	C225.824997,106.265060 225.429550,89.239571 223.076202,72.117462 
	C220.497253,53.353977 215.503418,35.217503 209.584885,17.514744 
	C204.584991,23.723631 200.239532,30.267263 194.782074,35.692234 
	C174.452362,55.900921 149.583267,65.359085 121.040291,66.156097 
	C111.606209,66.419510 102.031311,67.244576 92.831184,69.242287 
	C63.938389,75.516022 44.724094,99.477829 46.173889,126.951523 
	C46.790989,138.645676 50.495148,149.239594 60.648319,156.305176 
	C62.661850,157.706375 65.744896,159.087875 67.871529,158.571350 
	C86.260094,154.105011 104.906433,150.270645 122.774162,144.186798 
	C151.882248,134.275696 174.521393,115.316048 192.349442,90.294647 
M64.963921,172.014847 
	C62.335922,166.063446 57.911217,163.689392 52.993828,165.592346 
	C48.585869,167.298172 46.100040,171.937286 47.200550,176.403915 
	C48.297977,180.858032 52.609337,183.699417 57.403210,183.127975 
	C62.424316,182.529434 64.931725,179.156204 64.963921,172.014847 
z"/>
<path fill="#FEFFFE" opacity="1.000000" stroke="none" 
	d="
M191.712219,89.856300 
	C174.521393,115.316048 151.882248,134.275696 122.774162,144.186798 
	C104.906433,150.270645 86.260094,154.105011 67.871529,158.571350 
	C65.744896,159.087875 62.661850,157.706375 60.648319,156.305176 
	C50.495148,149.239594 46.790989,138.645676 46.173889,126.951523 
	C44.724094,99.477829 63.938389,75.516022 92.831184,69.242287 
	C102.031311,67.244576 111.606209,66.419510 121.040291,66.156097 
	C149.583267,65.359085 174.452362,55.900921 194.782074,35.692234 
	C200.239532,30.267263 204.584991,23.723631 209.584885,17.514744 
	C215.503418,35.217503 220.497253,53.353977 223.076202,72.117462 
	C225.429550,89.239571 225.824997,106.265060 221.250824,123.139809 
	C213.779861,150.701157 195.469406,165.911926 167.740860,170.965698 
	C146.833694,174.776215 125.847786,172.467133 104.891342,172.653015 
	C97.168991,172.721527 89.445511,172.664078 80.215271,172.664078 
	C93.207306,168.561356 104.871620,164.966217 116.479019,161.195892 
	C151.637573,149.775681 176.595810,126.702766 193.328308,93.352203 
	C195.389984,88.067444 197.160156,83.382767 198.930328,78.698090 
	C198.540131,78.530098 198.149918,78.362106 197.759720,78.194115 
	C195.743881,82.081505 193.728058,85.968903 191.712219,89.856300 
z"/>
<path fill="#FCFDFB" opacity="1.000000" stroke="none" 
	d="
M65.013260,172.419312 
	C64.931725,179.156204 62.424316,182.529434 57.403210,183.127975 
	C52.609337,183.699417 48.297977,180.858032 47.200550,176.403915 
	C46.100040,171.937286 48.585869,167.298172 52.993828,165.592346 
	C57.911217,163.689392 62.335922,166.063446 65.013260,172.419312 
z"/>
<path fill="#72B644" opacity="1.000000" stroke="none" 
	d="
M192.030823,90.075470 
	C193.728058,85.968903 195.743881,82.081505 197.759720,78.194115 
	C198.149918,78.362106 198.540131,78.530098 198.930328,78.698090 
	C197.160156,83.382767 195.389984,88.067444 193.358521,93.001862 
	C192.847977,92.265961 192.598709,91.280304 192.030823,90.075470 
z"/>
</svg>