<svg version="1.1" id="Layer_1" xmlns="http://www.w3.org/2000/svg" xmlns:xlink="http://www.w3.org/1999/xlink" x="0px" y="0px"
	 width="100%" viewBox="0 0 300 225" enable-background="new 0 0 300 225" xml:space="preserve">
<path opacity="1.000000" stroke="none" 
	d="
M164.000000,226.000000 
	C109.333344,226.000000 55.166679,226.000000 1.000015,226.000000 
	C1.000010,151.000015 1.000010,76.000031 1.000005,1.000035 
	C100.999969,1.000023 200.999939,1.000023 300.999939,1.000012 
	C300.999939,75.999962 300.999939,150.999924 300.999969,225.999939 
	C255.500000,226.000000 210.000000,226.000000 164.000000,226.000000 
M81.979469,205.046936 
	C81.979469,205.046936 81.965996,205.143906 82.871582,205.020035 
	C92.229805,205.012299 101.615364,204.544617 110.940208,205.098618 
	C127.195663,206.064392 143.398315,208.455490 159.651703,208.769913 
	C176.312714,209.092178 193.008041,210.015411 209.716461,207.165253 
	C241.210785,201.792862 261.960388,184.168320 273.114685,154.589798 
	C277.511292,142.931046 280.640900,131.004807 281.015228,118.484604 
	C281.381653,106.228249 282.672943,93.885651 281.692474,81.731430 
	C280.435455,66.148956 277.500305,50.685703 274.917419,35.233059 
	C273.605255,27.382828 271.480469,19.668430 269.424347,10.571151 
	C267.859894,12.948884 267.251038,14.062854 266.466614,15.035162 
	C262.132233,20.407623 258.308197,26.347061 253.279099,30.971987 
	C242.298447,41.070133 229.908218,49.256054 216.208908,55.385914 
	C200.539886,62.397152 184.197128,66.598129 167.029617,66.913025 
	C158.109329,67.076630 149.163620,65.919136 140.245209,66.107437 
	C127.209946,66.382645 114.029701,66.282082 101.197556,68.228836 
	C79.750961,71.482491 62.360134,82.212387 49.909187,100.414131 
	C40.559959,114.081528 36.841099,129.176376 38.024204,145.544815 
	C39.071465,160.033859 44.006664,172.541702 57.458096,181.118973 
	C68.426544,190.901138 68.801926,201.874146 60.803547,213.418900 
	C66.633041,210.862396 72.310715,208.372482 78.746284,205.945999 
	C79.856415,205.650208 80.966537,205.354431 81.979469,205.046936 
M31.390453,215.697052 
	C33.214142,215.798218 35.038784,215.884644 36.861351,216.003082 
	C45.370182,216.555954 50.977428,210.869278 52.767479,205.008499 
	C55.194294,197.062866 51.595894,188.778214 44.686436,184.902130 
	C36.559357,180.342972 25.783089,183.592834 21.615200,191.859848 
	C17.004601,201.004974 20.821131,210.850098 31.390453,215.697052 
z"/>
<path fill="#C2CD23" opacity="1.000000" stroke="none" 
	d="
M56.826019,180.796860 
	C44.006664,172.541702 39.071465,160.033859 38.024204,145.544815 
	C36.841099,129.176376 40.559959,114.081528 49.909187,100.414131 
	C62.360134,82.212387 79.750961,71.482491 101.197556,68.228836 
	C114.029701,66.282082 127.209946,66.382645 140.245209,66.107437 
	C149.163620,65.919136 158.109329,67.076630 167.029617,66.913025 
	C184.197128,66.598129 200.539886,62.397152 216.208908,55.385914 
	C229.908218,49.256054 242.298447,41.070133 253.279099,30.971987 
	C258.308197,26.347061 262.132233,20.407623 266.466614,15.035162 
	C267.251038,14.062854 267.859894,12.948884 269.424347,10.571151 
	C271.480469,19.668430 273.605255,27.382828 274.917419,35.233059 
	C277.500305,50.685703 280.435455,66.148956 281.692474,81.731430 
	C282.672943,93.885651 281.381653,106.228249 281.015228,118.484604 
	C280.640900,131.004807 277.511292,142.931046 273.114685,154.589798 
	C261.960388,184.168320 241.210785,201.792862 209.716461,207.165253 
	C193.008041,210.015411 176.312714,209.092178 159.651703,208.769913 
	C143.398315,208.455490 127.195663,206.064392 110.940208,205.098618 
	C101.615364,204.544617 92.229805,205.012299 82.515060,204.713623 
	C83.713043,203.840042 85.227379,203.094727 86.828369,202.733826 
	C99.980324,199.769012 113.117165,196.725082 126.317032,193.986954 
	C180.666016,182.713028 218.830231,150.635406 244.398361,102.332169 
	C245.637421,99.991364 246.388474,97.392242 247.366791,94.913414 
	C246.980896,94.735519 246.595001,94.557632 246.209106,94.379738 
	C245.442245,95.384377 244.621307,96.352577 243.916351,97.398911 
	C217.601166,136.456558 180.981766,160.727310 135.375931,170.803650 
	C118.248703,174.587814 100.372459,174.939804 82.859337,177.037338 
	C74.156319,178.079681 65.502235,179.530701 56.826019,180.796860 
z"/>
<path fill="#3A7D2C" opacity="1.000000" stroke="none" 
	d="
M57.142059,180.957916 
	C65.502235,179.530701 74.156319,178.079681 82.859337,177.037338 
	C100.372459,174.939804 118.248703,174.587814 135.375931,170.803650 
	C180.981766,160.727310 217.601166,136.456558 243.916351,97.398911 
	C244.621307,96.352577 245.442245,95.384377 246.209106,94.379738 
	C246.595001,94.557632 246.980896,94.735519 247.366791,94.913414 
	C246.388474,97.392242 245.637421,99.991364 244.398361,102.332169 
	C218.830231,150.635406 180.666016,182.713028 126.317032,193.986954 
	C113.117165,196.725082 99.980324,199.769012 86.828369,202.733826 
	C85.227379,203.094727 83.713043,203.840042 82.062271,204.775543 
	C81.965996,205.143906 81.979469,205.046936 81.708565,204.846924 
	C80.287903,205.058807 79.138145,205.470688 77.988388,205.882568 
	C72.310715,208.372482 66.633041,210.862396 60.803547,213.418900 
	C68.801926,201.874146 68.426544,190.901138 57.142059,180.957916 
z"/>
<path fill="#387C2C" opacity="1.000000" stroke="none" 
	d="
M31.040424,215.483643 
	C20.821131,210.850098 17.004601,201.004974 21.615200,191.859848 
	C25.783089,183.592834 36.559357,180.342972 44.686436,184.902130 
	C51.595894,188.778214 55.194294,197.062866 52.767479,205.008499 
	C50.977428,210.869278 45.370182,216.555954 36.861351,216.003082 
	C35.038784,215.884644 33.214142,215.798218 31.040424,215.483643 
z"/>
<path fill="#C2CD23" opacity="1.000000" stroke="none" 
	d="
M78.367340,205.914276 
	C79.138145,205.470688 80.287903,205.058807 81.757164,204.852783 
	C80.966537,205.354431 79.856415,205.650208 78.367340,205.914276 
z"/>
</svg>