<svg version="1.1" id="Layer_1" xmlns="http://www.w3.org/2000/svg" xmlns:xlink="http://www.w3.org/1999/xlink" x="0px" y="0px"
	 width="100%" viewBox="0 0 237 213" enable-background="new 0 0 237 213" xml:space="preserve">
<path fill="#68BD45" opacity="1.000000" stroke="none" 
	d="
M1.000000,114.000000 
	C1.000000,109.975456 1.000000,105.950912 1.308957,101.282486 
	C2.925575,97.787880 4.020478,94.815163 5.574231,92.105560 
	C19.181131,68.376419 33.155777,44.852352 46.394093,20.920490 
	C51.704239,11.320955 58.291046,4.048265 69.000000,1.000000 
	C102.354225,1.000000 135.708450,1.000000 169.716888,1.318706 
	C174.891922,3.972390 179.497986,6.161385 183.886414,8.723200 
	C185.379974,9.595096 186.596085,11.251981 187.481476,12.810138 
	C204.361862,42.516857 221.173828,72.262459 238.000000,102.000000 
	C238.000000,105.692909 238.000000,109.385818 237.676056,113.688080 
	C236.008484,117.133369 234.849197,120.075050 233.292374,122.788666 
	C219.686279,146.504944 205.691681,170.005692 192.508682,193.953720 
	C187.208603,203.581772 180.640533,210.830750 170.000000,214.000000 
	C136.312439,214.000000 102.624878,214.000000 68.282898,213.694901 
	C60.458099,211.115860 54.235558,207.452805 50.399509,200.739777 
	C33.891171,171.850433 17.459560,142.917221 1.000000,114.000000 
M87.634071,49.702377 
	C83.520317,48.156811 80.554008,50.414436 77.737045,52.827244 
	C61.271740,66.930237 53.333313,84.762383 53.952541,106.517937 
	C54.931530,140.913086 86.309753,170.277283 120.603432,168.675049 
	C161.331161,166.772232 189.900879,131.455063 182.918488,91.328728 
	C180.091705,75.083702 171.786133,61.898945 158.809448,51.728481 
	C153.992188,47.952972 149.334183,48.261299 146.011749,52.297935 
	C142.631027,56.405354 143.514618,61.149815 148.418610,65.227531 
	C149.059219,65.760193 149.706924,66.284973 150.333191,66.834106 
	C167.417969,81.814758 171.963226,105.977898 161.451614,125.924644 
	C151.070709,145.623398 128.461075,155.801254 106.812843,149.939789 
	C88.579376,145.002914 76.603050,132.998047 72.294815,114.686005 
	C67.756783,95.397285 73.519432,78.840355 88.729393,65.862541 
	C95.589989,60.008781 95.512299,54.527130 87.634071,49.702377 
M128.706131,99.287674 
	C128.706146,87.631973 128.712418,75.976273 128.703659,64.320580 
	C128.698914,57.993626 128.913544,51.653656 128.577744,45.343582 
	C128.270996,39.579506 124.210091,35.934681 118.923454,35.956215 
	C113.592453,35.977932 109.389671,39.721558 109.339256,45.385216 
	C109.165833,64.865280 109.170479,84.348732 109.339081,103.828888 
	C109.385880,109.237000 113.457848,112.982040 118.503479,113.171555 
	C123.714088,113.367271 127.607964,110.115234 128.489120,104.700958 
	C128.727798,103.234467 128.642593,101.715256 128.706131,99.287674 
z"/>
<path opacity="1.000000" stroke="none" 
	d="
M238.000000,101.531342 
	C221.173828,72.262459 204.361862,42.516857 187.481476,12.810138 
	C186.596085,11.251981 185.379974,9.595096 183.886414,8.723200 
	C179.497986,6.161385 174.891922,3.972390 170.185547,1.318706 
	C192.607834,1.000000 215.215683,1.000000 238.000000,1.000000 
	C238.000000,34.354019 238.000000,67.708351 238.000000,101.531342 
z"/>
<path opacity="1.000000" stroke="none" 
	d="
M170.468658,214.000000 
	C180.640533,210.830750 187.208603,203.581772 192.508682,193.953720 
	C205.691681,170.005692 219.686279,146.504944 233.292374,122.788666 
	C234.849197,120.075050 236.008484,117.133369 237.676056,114.148720 
	C238.000000,147.246307 238.000000,180.492599 238.000000,214.000000 
	C215.646454,214.000000 193.291885,214.000000 170.468658,214.000000 
z"/>
<path opacity="1.000000" stroke="none" 
	d="
M68.531342,1.000000 
	C58.291046,4.048265 51.704239,11.320955 46.394093,20.920490 
	C33.155777,44.852352 19.181131,68.376419 5.574231,92.105560 
	C4.020478,94.815163 2.925575,97.787880 1.308957,100.819298 
	C1.000000,67.753685 1.000000,34.507366 1.000000,1.000000 
	C23.353550,1.000000 45.708118,1.000000 68.531342,1.000000 
z"/>
<path opacity="1.000000" stroke="none" 
	d="
M1.000000,114.468658 
	C17.459560,142.917221 33.891171,171.850433 50.399509,200.739777 
	C54.235558,207.452805 60.458099,211.115860 67.814240,213.694901 
	C45.725327,214.000000 23.450651,214.000000 1.000000,214.000000 
	C1.000000,180.979309 1.000000,147.958313 1.000000,114.468658 
z"/>
<path fill="#FDFEFD" opacity="1.000000" stroke="none" 
	d="
M87.991531,49.830643 
	C95.512299,54.527130 95.589989,60.008781 88.729393,65.862541 
	C73.519432,78.840355 67.756783,95.397285 72.294815,114.686005 
	C76.603050,132.998047 88.579376,145.002914 106.812843,149.939789 
	C128.461075,155.801254 151.070709,145.623398 161.451614,125.924644 
	C171.963226,105.977898 167.417969,81.814758 150.333191,66.834106 
	C149.706924,66.284973 149.059219,65.760193 148.418610,65.227531 
	C143.514618,61.149815 142.631027,56.405354 146.011749,52.297935 
	C149.334183,48.261299 153.992188,47.952972 158.809448,51.728481 
	C171.786133,61.898945 180.091705,75.083702 182.918488,91.328728 
	C189.900879,131.455063 161.331161,166.772232 120.603432,168.675049 
	C86.309753,170.277283 54.931530,140.913086 53.952541,106.517937 
	C53.333313,84.762383 61.271740,66.930237 77.737045,52.827244 
	C80.554008,50.414436 83.520317,48.156811 87.991531,49.830643 
z"/>
<path fill="#FAFDF9" opacity="1.000000" stroke="none" 
	d="
M128.706085,99.753960 
	C128.642593,101.715256 128.727798,103.234467 128.489120,104.700958 
	C127.607964,110.115234 123.714088,113.367271 118.503479,113.171555 
	C113.457848,112.982040 109.385880,109.237000 109.339081,103.828888 
	C109.170479,84.348732 109.165833,64.865280 109.339256,45.385216 
	C109.389671,39.721558 113.592453,35.977932 118.923454,35.956215 
	C124.210091,35.934681 128.270996,39.579506 128.577744,45.343582 
	C128.913544,51.653656 128.698914,57.993626 128.703659,64.320580 
	C128.712418,75.976273 128.706146,87.631973 128.706085,99.753960 
z"/>
</svg>