<svg version="1.1" id="Layer_1" xmlns="http://www.w3.org/2000/svg" xmlns:xlink="http://www.w3.org/1999/xlink" x="0px" y="0px"
	 width="100%" viewBox="0 0 400 415" enable-background="new 0 0 400 415" xml:space="preserve">
<path opacity="1.000000" stroke="none" 
	d="
M1.000003,129.000000 
	C1.000000,86.361717 1.000000,43.723431 1.000000,1.042572 
	C134.216248,1.042572 267.432495,1.042572 401.000000,1.042572 
	C401.000000,44.020256 401.000000,87.041473 400.761353,130.278839 
	C397.114441,121.629227 391.225677,116.018913 381.212555,116.015533 
	C329.596588,115.998123 277.980591,115.978760 226.364700,116.033028 
	C214.844833,116.045143 207.357269,123.486465 206.713852,135.273010 
	C206.306839,146.018539 206.097672,156.426956 206.050308,166.836121 
	C206.040863,168.912231 206.649765,170.991165 207.332336,173.280548 
	C216.505005,173.661087 225.318527,173.943207 234.132858,173.972031 
	C247.291153,174.015076 245.898453,175.044189 246.005173,162.188858 
	C246.061996,155.346466 246.328339,155.019653 252.995163,155.015121 
	C286.650787,154.992233 320.306427,154.992493 353.962036,155.014694 
	C360.658997,155.019119 360.954315,155.329926 360.959381,162.162857 
	C360.980499,190.653488 360.979431,219.144165 360.961334,247.634811 
	C360.956818,254.744873 360.725616,254.981918 353.663300,254.986343 
	C321.840393,255.006256 290.017517,255.008682 258.194611,254.992508 
	C244.403519,254.985504 245.979950,255.950760 246.060104,243.013321 
	C246.088669,238.402222 244.278854,236.847137 239.824982,236.949417 
	C230.832672,237.155899 221.829742,237.140518 212.836441,236.958389 
	C208.529556,236.871140 206.891251,238.557327 206.958420,242.849609 
	C207.127884,253.676712 206.926025,264.509216 207.044327,275.337677 
	C207.147766,284.804901 212.274887,291.419556 221.546921,293.805939 
	C224.880493,294.663910 228.442902,294.950745 231.901718,294.955963 
	C279.552643,295.027588 327.204193,294.891266 374.854462,295.082062 
	C387.182861,295.131439 396.714752,291.571472 401.000000,279.000000 
	C401.000000,324.636902 401.000000,370.273834 401.000000,415.955383 
	C267.783295,415.955383 134.566589,415.955383 1.000000,415.955383 
	C1.000000,371.313049 1.000000,326.625183 1.252306,281.697388 
	C5.107728,289.109222 10.518724,294.022858 19.551579,294.014832 
	C71.545898,293.968506 123.541237,293.825043 175.533920,294.120575 
	C186.968796,294.185547 194.910568,283.648926 194.952148,275.273193 
	C195.006760,264.274780 194.898560,253.275162 195.013657,242.277679 
	C195.054337,238.391449 193.364349,236.929886 189.589020,236.984619 
	C181.591736,237.100540 173.591400,237.002686 165.592316,237.000320 
	C154.211441,236.996964 155.037842,236.417343 154.990707,247.590714 
	C154.960556,254.736572 154.744537,254.982819 147.720612,254.986832 
	C114.224251,255.005981 80.727867,255.006302 47.231510,254.986298 
	C40.244530,254.982132 40.015362,254.737488 40.010635,247.542770 
	C39.992023,219.212509 39.992290,190.882233 40.009834,162.551971 
	C40.014400,155.184784 40.189922,155.012894 47.636246,155.008987 
	C79.132820,154.992493 110.629417,155.000595 142.126007,155.000076 
	C154.571426,154.999878 154.684479,154.997910 154.950241,167.314423 
	C155.035858,171.282349 156.346451,173.093353 160.498764,173.027740 
	C170.161896,172.875031 179.829865,172.908569 189.494232,173.014877 
	C193.191681,173.055557 195.055099,171.776138 195.009109,167.813736 
	C194.887299,157.316452 195.296906,146.802704 194.859482,136.322037 
	C194.355133,124.238564 186.311752,115.721542 173.395920,115.828674 
	C122.571587,116.250221 71.741631,116.043129 20.913937,115.961067 
	C12.624906,115.947685 6.418541,118.960869 2.688120,126.552811 
	C2.255816,127.432625 1.568888,128.187317 1.000003,129.000000 
M120.985420,363.938416 
	C173.608795,363.955139 226.232193,364.002258 278.855499,363.962433 
	C289.076691,363.954681 297.662476,355.640747 297.902283,345.346313 
	C298.165985,334.028412 297.902893,322.699188 298.014954,311.376312 
	C298.052490,307.585144 296.575531,305.920837 292.707520,305.980286 
	C284.716125,306.103119 276.721313,305.997406 268.727905,305.995880 
	C258.077850,305.993835 258.077850,305.997955 258.000275,316.438080 
	C257.945465,323.818146 257.813751,323.987946 250.386353,323.991913 
	C219.078629,324.008698 187.770920,324.000336 156.463196,324.000946 
	C143.599045,324.001190 143.490494,324.004761 143.040680,311.292908 
	C142.904755,307.451202 141.429291,305.933868 137.629028,305.979095 
	C127.971725,306.094025 118.310669,306.109955 108.654099,305.965576 
	C104.650490,305.905731 102.911934,307.389435 102.970688,311.515137 
	C103.120049,322.004364 102.854210,332.500671 103.074188,342.987427 
	C103.315559,354.494476 108.877312,361.105988 120.985420,363.938416 
M283.490814,104.001701 
	C286.323151,103.997475 289.168365,103.819481 291.984894,104.028358 
	C296.603790,104.370911 298.136780,102.282356 298.051208,97.828758 
	C297.856049,87.669350 298.030823,77.503387 297.986603,67.340385 
	C297.927856,53.837147 290.077850,46.023087 276.473724,46.015842 
	C225.824280,45.988880 175.174820,45.990589 124.525368,46.014858 
	C111.765648,46.020969 103.389130,53.952347 103.083443,66.639648 
	C102.826675,77.296455 103.097252,87.964996 102.984245,98.626755 
	C102.943947,102.428711 104.447990,104.074303 108.307259,104.015625 
	C116.302505,103.894081 124.301117,103.998741 132.298340,104.000229 
	C142.922882,104.002213 142.922882,103.998055 143.002563,93.525406 
	C143.058456,86.180649 143.189774,86.014328 150.660156,86.010468 
	C181.982849,85.994308 213.305527,86.002289 244.628220,86.001747 
	C257.331207,86.001526 257.445831,85.997276 257.961914,98.811111 
	C258.120361,102.745331 259.798218,104.084587 263.500854,104.015167 
	C269.829651,103.896523 276.162506,103.994629 283.490814,104.001701 
M296.549042,197.282562 
	C292.280884,188.398712 284.703156,185.062012 275.400055,185.035156 
	C246.908356,184.952927 218.416260,184.996323 189.924316,184.999847 
	C167.930588,185.002563 145.935257,184.863602 123.943779,185.091446 
	C112.116295,185.213989 102.704407,194.469971 103.250175,205.615891 
	C103.733429,215.485321 110.999573,225.146652 124.296150,225.086838 
	C175.114105,224.858276 225.933716,225.020615 276.752686,224.978119 
	C292.287598,224.965118 301.141052,212.983536 296.549042,197.282562 
z"/>
<path fill="#6DB33F" opacity="1.000000" stroke="none" 
	d="
M401.000000,278.531342 
	C396.714752,291.571472 387.182861,295.131439 374.854462,295.082062 
	C327.204193,294.891266 279.552643,295.027588 231.901718,294.955963 
	C228.442902,294.950745 224.880493,294.663910 221.546921,293.805939 
	C212.274887,291.419556 207.147766,284.804901 207.044327,275.337677 
	C206.926025,264.509216 207.127884,253.676712 206.958420,242.849609 
	C206.891251,238.557327 208.529556,236.871140 212.836441,236.958389 
	C221.829742,237.140518 230.832672,237.155899 239.824982,236.949417 
	C244.278854,236.847137 246.088669,238.402222 246.060104,243.013321 
	C245.979950,255.950760 244.403519,254.985504 258.194611,254.992508 
	C290.017517,255.008682 321.840393,255.006256 353.663300,254.986343 
	C360.725616,254.981918 360.956818,254.744873 360.961334,247.634811 
	C360.979431,219.144165 360.980499,190.653488 360.959381,162.162857 
	C360.954315,155.329926 360.658997,155.019119 353.962036,155.014694 
	C320.306427,154.992493 286.650787,154.992233 252.995163,155.015121 
	C246.328339,155.019653 246.061996,155.346466 246.005173,162.188858 
	C245.898453,175.044189 247.291153,174.015076 234.132858,173.972031 
	C225.318527,173.943207 216.505005,173.661087 207.337402,172.807251 
	C206.978622,159.726868 206.973587,147.331528 206.968552,134.936188 
	C207.357269,123.486465 214.844833,116.045143 226.364700,116.033028 
	C277.980591,115.978760 329.596588,115.998123 381.212555,116.015533 
	C391.225677,116.018913 397.114441,121.629227 400.761353,130.747498 
	C401.000000,180.020889 401.000000,229.041794 401.000000,278.531342 
z"/>
<path fill="#6DB33F" opacity="1.000000" stroke="none" 
	d="
M1.000003,129.468658 
	C1.568888,128.187317 2.255816,127.432625 2.688120,126.552811 
	C6.418541,118.960869 12.624906,115.947685 20.913937,115.961067 
	C71.741631,116.043129 122.571587,116.250221 173.395920,115.828674 
	C186.311752,115.721542 194.355133,124.238564 194.859482,136.322037 
	C195.296906,146.802704 194.887299,157.316452 195.009109,167.813736 
	C195.055099,171.776138 193.191681,173.055557 189.494232,173.014877 
	C179.829865,172.908569 170.161896,172.875031 160.498764,173.027740 
	C156.346451,173.093353 155.035858,171.282349 154.950241,167.314423 
	C154.684479,154.997910 154.571426,154.999878 142.126007,155.000076 
	C110.629417,155.000595 79.132820,154.992493 47.636246,155.008987 
	C40.189922,155.012894 40.014400,155.184784 40.009834,162.551971 
	C39.992290,190.882233 39.992023,219.212509 40.010635,247.542770 
	C40.015362,254.737488 40.244530,254.982132 47.231510,254.986298 
	C80.727867,255.006302 114.224251,255.005981 147.720612,254.986832 
	C154.744537,254.982819 154.960556,254.736572 154.990707,247.590714 
	C155.037842,236.417343 154.211441,236.996964 165.592316,237.000320 
	C173.591400,237.002686 181.591736,237.100540 189.589020,236.984619 
	C193.364349,236.929886 195.054337,238.391449 195.013657,242.277679 
	C194.898560,253.275162 195.006760,264.274780 194.952148,275.273193 
	C194.910568,283.648926 186.968796,294.185547 175.533920,294.120575 
	C123.541237,293.825043 71.545898,293.968506 19.551579,294.014832 
	C10.518724,294.022858 5.107728,289.109222 1.252306,281.228760 
	C1.000000,230.645767 1.000000,180.291550 1.000003,129.468658 
z"/>
<path fill="#6DB33F" opacity="1.000000" stroke="none" 
	d="
M120.543503,363.909180 
	C108.877312,361.105988 103.315559,354.494476 103.074188,342.987427 
	C102.854210,332.500671 103.120049,322.004364 102.970688,311.515137 
	C102.911934,307.389435 104.650490,305.905731 108.654099,305.965576 
	C118.310669,306.109955 127.971725,306.094025 137.629028,305.979095 
	C141.429291,305.933868 142.904755,307.451202 143.040680,311.292908 
	C143.490494,324.004761 143.599045,324.001190 156.463196,324.000946 
	C187.770920,324.000336 219.078629,324.008698 250.386353,323.991913 
	C257.813751,323.987946 257.945465,323.818146 258.000275,316.438080 
	C258.077850,305.997955 258.077850,305.993835 268.727905,305.995880 
	C276.721313,305.997406 284.716125,306.103119 292.707520,305.980286 
	C296.575531,305.920837 298.052490,307.585144 298.014954,311.376312 
	C297.902893,322.699188 298.165985,334.028412 297.902283,345.346313 
	C297.662476,355.640747 289.076691,363.954681 278.855499,363.962433 
	C226.232193,364.002258 173.608795,363.955139 120.543503,363.909180 
z"/>
<path fill="#6DB33F" opacity="1.000000" stroke="none" 
	d="
M282.992249,104.001701 
	C276.162506,103.994629 269.829651,103.896523 263.500854,104.015167 
	C259.798218,104.084587 258.120361,102.745331 257.961914,98.811111 
	C257.445831,85.997276 257.331207,86.001526 244.628220,86.001747 
	C213.305527,86.002289 181.982849,85.994308 150.660156,86.010468 
	C143.189774,86.014328 143.058456,86.180649 143.002563,93.525406 
	C142.922882,103.998055 142.922882,104.002213 132.298340,104.000229 
	C124.301117,103.998741 116.302505,103.894081 108.307259,104.015625 
	C104.447990,104.074303 102.943947,102.428711 102.984245,98.626755 
	C103.097252,87.964996 102.826675,77.296455 103.083443,66.639648 
	C103.389130,53.952347 111.765648,46.020969 124.525368,46.014858 
	C175.174820,45.990589 225.824280,45.988880 276.473724,46.015842 
	C290.077850,46.023087 297.927856,53.837147 297.986603,67.340385 
	C298.030823,77.503387 297.856049,87.669350 298.051208,97.828758 
	C298.136780,102.282356 296.603790,104.370911 291.984894,104.028358 
	C289.168365,103.819481 286.323151,103.997475 282.992249,104.001701 
z"/>
<path fill="#6DB33F" opacity="1.000000" stroke="none" 
	d="
M296.687714,197.653336 
	C301.141052,212.983536 292.287598,224.965118 276.752686,224.978119 
	C225.933716,225.020615 175.114105,224.858276 124.296150,225.086838 
	C110.999573,225.146652 103.733429,215.485321 103.250175,205.615891 
	C102.704407,194.469971 112.116295,185.213989 123.943779,185.091446 
	C145.935257,184.863602 167.930588,185.002563 189.924316,184.999847 
	C218.416260,184.996323 246.908356,184.952927 275.400055,185.035156 
	C284.703156,185.062012 292.280884,188.398712 296.687714,197.653336 
z"/>
<path fill="#66CC33" opacity="1.000000" stroke="none" 
	d="
M206.713852,135.273010 
	C206.973587,147.331528 206.978622,159.726868 206.978607,172.595490 
	C206.649765,170.991165 206.040863,168.912231 206.050308,166.836121 
	C206.097672,156.426956 206.306839,146.018539 206.713852,135.273010 
z"/>
</svg>