<svg version="1.1" id="Layer_1" xmlns="http://www.w3.org/2000/svg" xmlns:xlink="http://www.w3.org/1999/xlink" x="0px" y="0px"
	 width="100%" viewBox="0 0 300 300" enable-background="new 0 0 300 300" xml:space="preserve">
<path fill="#77BC1F" opacity="1.000000" stroke="none" 
	d="
M1.000004,184.000000 
	C1.000000,177.312363 1.000000,170.624710 1.408142,163.594360 
	C3.551760,157.677673 5.486721,152.156479 6.978549,146.518021 
	C9.576395,136.699310 15.970195,129.207413 22.718328,122.344322 
	C27.454296,117.527679 33.956913,114.454994 39.644810,110.565788 
	C47.792797,104.994476 56.979855,102.530396 66.658386,102.073868 
	C74.550087,101.701614 82.473328,101.998161 90.707184,101.998161 
	C83.772202,100.346649 77.008095,98.735832 70.276901,97.132851 
	C90.423744,53.287189 169.783142,20.109793 230.060272,76.229012 
	C233.436768,70.133934 236.720276,64.206711 240.338272,57.675667 
	C241.173340,58.551617 242.517014,59.337421 242.879059,60.444313 
	C244.895828,66.610138 246.894272,72.798065 248.489212,79.082428 
	C251.810135,92.167351 254.755508,105.348625 258.183044,118.404236 
	C258.652435,120.192238 260.728577,122.263695 262.518311,122.884048 
	C273.232697,126.597885 281.263489,133.962524 288.308563,142.245758 
	C293.513367,148.365234 297.566864,155.491623 299.129181,163.683640 
	C299.231842,164.221771 300.352722,164.565735 301.000000,165.000000 
	C301.000000,176.687561 301.000000,188.375122 300.643555,200.297974 
	C299.933563,200.865784 299.374176,201.137955 299.256409,201.539612 
	C295.316132,214.979721 287.817291,226.002350 276.347656,234.016312 
	C271.398865,237.474091 266.079041,240.821152 260.425934,242.740433 
	C253.886948,244.960434 246.795242,245.552505 239.653137,246.553726 
	C238.373306,246.170837 237.383865,246.011215 236.394379,246.010986 
	C183.019455,245.998535 129.644547,245.993011 76.269653,246.034821 
	C74.865044,246.035934 73.460846,246.567581 71.659958,246.897583 
	C69.267372,246.296829 67.263855,245.073395 65.276428,245.098984 
	C53.780888,245.247040 43.859589,240.875732 34.562679,234.746674 
	C16.887283,223.094055 5.567149,207.275925 2.908588,185.845993 
	C2.823765,185.162262 1.660519,184.612305 1.000004,184.000000 
M183.617706,114.097160 
	C175.616943,115.396713 167.650696,117.006203 159.605011,117.902496 
	C152.555847,118.687782 145.412354,118.593292 138.321167,119.051819 
	C135.718872,119.220085 132.926544,119.355927 130.600327,120.373718 
	C121.543190,124.336510 111.656937,127.050552 104.960655,135.027283 
	C100.490517,140.352173 94.861298,145.462875 92.613495,151.700958 
	C89.850616,159.368500 89.393005,168.094376 89.199074,176.392242 
	C89.024925,183.844116 92.039917,190.835312 97.114838,196.466217 
	C100.206062,199.896118 103.972023,202.999725 109.157654,201.854568 
	C117.408638,200.032486 125.597702,197.929825 133.812088,195.942291 
	C145.669952,193.073166 157.356232,189.914536 168.465591,184.519211 
	C180.526062,178.661972 191.509674,171.550156 201.244766,162.335190 
	C209.654343,154.374924 217.874237,146.335403 223.130432,135.802322 
	C225.404083,131.246078 227.736374,126.719109 230.042038,122.178848 
	C231.356293,123.880363 232.009720,125.882446 231.537079,127.568977 
	C230.226456,132.245743 229.005890,137.091415 226.732224,141.323700 
	C222.456604,149.282501 217.691315,157.005325 212.725510,164.560638 
	C202.591736,179.978836 188.352615,191.120529 172.375031,199.543320 
	C162.521957,204.737534 151.309113,207.363678 140.682510,211.073364 
	C136.786057,212.433578 132.819733,213.593674 128.885284,214.845047 
	C129.003555,215.348297 129.121841,215.851547 129.240112,216.354782 
	C153.773117,214.340591 178.465012,218.569901 202.990524,213.201584 
	C215.090805,210.552994 226.007385,206.051529 234.645737,197.568375 
	C245.798172,186.616333 250.798431,172.057327 252.697845,157.028671 
	C254.111832,145.840591 254.260529,134.336594 251.181488,122.979996 
	C248.407806,112.749504 247.165558,102.113091 244.915817,91.727638 
	C243.644287,85.857971 241.703278,80.133316 239.712891,73.103943 
	C233.209167,84.983894 224.744171,93.403328 215.027695,100.035179 
	C205.791504,106.339203 195.729599,111.734535 183.617706,114.097160 
M103.497719,216.968201 
	C102.728737,214.039413 101.943687,210.774857 98.090950,211.130615 
	C95.726570,211.348923 92.600334,212.114960 91.405861,213.777283 
	C90.164200,215.505280 89.851440,219.226730 90.931160,220.948425 
	C92.174683,222.931305 95.438599,224.806900 97.734589,224.704285 
	C101.382179,224.541275 103.773964,221.707138 103.497719,216.968201 
z"/>
<path opacity="1.000000" stroke="none" 
	d="
M301.000000,164.531342 
	C300.352722,164.565735 299.231842,164.221771 299.129181,163.683640 
	C297.566864,155.491623 293.513367,148.365234 288.308563,142.245758 
	C281.263489,133.962524 273.232697,126.597885 262.518311,122.884048 
	C260.728577,122.263695 258.652435,120.192238 258.183044,118.404236 
	C254.755508,105.348625 251.810135,92.167351 248.489212,79.082428 
	C246.894272,72.798065 244.895828,66.610138 242.879059,60.444313 
	C242.517014,59.337421 241.173340,58.551617 240.338272,57.675667 
	C236.720276,64.206711 233.436768,70.133934 230.060272,76.229012 
	C169.783142,20.109793 90.423744,53.287189 70.276901,97.132851 
	C77.008095,98.735832 83.772202,100.346649 90.707184,101.998161 
	C82.473328,101.998161 74.550087,101.701614 66.658386,102.073868 
	C56.979855,102.530396 47.792797,104.994476 39.644810,110.565788 
	C33.956913,114.454994 27.454296,117.527679 22.718328,122.344322 
	C15.970195,129.207413 9.576395,136.699310 6.978549,146.518021 
	C5.486721,152.156479 3.551760,157.677673 1.408142,163.125824 
	C1.000000,109.037758 1.000000,55.075516 1.000000,1.113274 
	C1.128792,1.075516 1.257583,1.004666 1.386377,1.004660 
	C101.149910,0.999957 200.913437,1.000000 301.000000,1.000000 
	C301.000000,55.353802 301.000000,109.708244 301.000000,164.531342 
z"/>
<path opacity="1.000000" stroke="none" 
	d="
M1.000004,184.468658 
	C1.660519,184.612305 2.823765,185.162262 2.908588,185.845993 
	C5.567149,207.275925 16.887283,223.094055 34.562679,234.746674 
	C43.859589,240.875732 53.780888,245.247040 65.276428,245.098984 
	C67.263855,245.073395 69.267372,246.296829 72.122421,246.964233 
	C102.309753,246.990082 131.638138,247.015991 160.966492,246.993759 
	C187.292175,246.973801 213.617844,246.900909 239.943512,246.851364 
	C246.795242,245.552505 253.886948,244.960434 260.425934,242.740433 
	C266.079041,240.821152 271.398865,237.474091 276.347656,234.016312 
	C287.817291,226.002350 295.316132,214.979721 299.256409,201.539612 
	C299.374176,201.137955 299.933563,200.865784 300.643555,200.766632 
	C301.000000,234.305115 301.000000,267.610229 301.000000,300.957672 
	C201.112869,300.957672 101.225723,300.957672 1.000000,300.957672 
	C1.000000,262.313110 1.000000,223.625214 1.000004,184.468658 
z"/>
<path fill="#FEFFFE" opacity="1.000000" stroke="none" 
	d="
M184.034485,114.048645 
	C195.729599,111.734535 205.791504,106.339203 215.027695,100.035179 
	C224.744171,93.403328 233.209167,84.983894 239.712891,73.103943 
	C241.703278,80.133316 243.644287,85.857971 244.915817,91.727638 
	C247.165558,102.113091 248.407806,112.749504 251.181488,122.979996 
	C254.260529,134.336594 254.111832,145.840591 252.697845,157.028671 
	C250.798431,172.057327 245.798172,186.616333 234.645737,197.568375 
	C226.007385,206.051529 215.090805,210.552994 202.990524,213.201584 
	C178.465012,218.569901 153.773117,214.340591 129.240112,216.354782 
	C129.121841,215.851547 129.003555,215.348297 128.885284,214.845047 
	C132.819733,213.593674 136.786057,212.433578 140.682510,211.073364 
	C151.309113,207.363678 162.521957,204.737534 172.375031,199.543320 
	C188.352615,191.120529 202.591736,179.978836 212.725510,164.560638 
	C217.691315,157.005325 222.456604,149.282501 226.732224,141.323700 
	C229.005890,137.091415 230.226456,132.245743 231.537079,127.568977 
	C232.009720,125.882446 231.356293,123.880363 230.042038,122.178848 
	C227.736374,126.719109 225.404083,131.246078 223.130432,135.802322 
	C217.874237,146.335403 209.654343,154.374924 201.244766,162.335190 
	C191.509674,171.550156 180.526062,178.661972 168.465591,184.519211 
	C157.356232,189.914536 145.669952,193.073166 133.812088,195.942291 
	C125.597702,197.929825 117.408638,200.032486 109.157654,201.854568 
	C103.972023,202.999725 100.206062,199.896118 97.114838,196.466217 
	C92.039917,190.835312 89.024925,183.844116 89.199074,176.392242 
	C89.393005,168.094376 89.850616,159.368500 92.613495,151.700958 
	C94.861298,145.462875 100.490517,140.352173 104.960655,135.027283 
	C111.656937,127.050552 121.543190,124.336510 130.600327,120.373718 
	C132.926544,119.355927 135.718872,119.220085 138.321167,119.051819 
	C145.412354,118.593292 152.555847,118.687782 159.605011,117.902496 
	C167.650696,117.006203 175.616943,115.396713 184.034485,114.048645 
z"/>
<path fill="#FFFF00" opacity="1.000000" stroke="none" 
	d="
M239.653137,246.553726 
	C213.617844,246.900909 187.292175,246.973801 160.966492,246.993759 
	C131.638138,247.015991 102.309753,246.990082 72.518921,246.918472 
	C73.460846,246.567581 74.865044,246.035934 76.269653,246.034821 
	C129.644547,245.993011 183.019455,245.998535 236.394379,246.010986 
	C237.383865,246.011215 238.373306,246.170837 239.653137,246.553726 
z"/>
<path fill="#000000" opacity="1.000000" stroke="none" 
	d="
M103.696091,217.307831 
	C103.773964,221.707138 101.382179,224.541275 97.734589,224.704285 
	C95.438599,224.806900 92.174683,222.931305 90.931160,220.948425 
	C89.851440,219.226730 90.164200,215.505280 91.405861,213.777283 
	C92.600334,212.114960 95.726570,211.348923 98.090950,211.130615 
	C101.943687,210.774857 102.728737,214.039413 103.696091,217.307831 
z"/>
</svg>