<svg version="1.1" id="Layer_1" xmlns="http://www.w3.org/2000/svg" xmlns:xlink="http://www.w3.org/1999/xlink" x="0px" y="0px"
	 width="100%" viewBox="0 0 200 200" enable-background="new 0 0 200 200" xml:space="preserve">
<path opacity="1.000000" stroke="none" 
	d="
M132.000000,201.000000 
	C88.000000,201.000000 44.500004,201.000000 1.000006,201.000000 
	C1.000004,134.333344 1.000004,67.666679 1.000002,1.000015 
	C67.666656,1.000010 134.333313,1.000010 200.999969,1.000005 
	C200.999985,67.666649 200.999985,134.333298 201.000000,200.999969 
	C178.166672,201.000000 155.333328,201.000000 132.000000,201.000000 
M96.098610,173.582809 
	C99.039406,173.575851 102.551163,174.603851 104.808693,173.358398 
	C110.471687,170.234207 115.513390,166.001877 120.900246,162.355759 
	C137.572052,151.071365 149.782349,136.400513 153.449127,116.242012 
	C155.227325,106.466042 154.874329,96.302422 155.515503,85.836029 
	C145.192520,85.836029 136.246262,85.836029 127.465096,85.836029 
	C126.183464,82.066048 128.213730,81.892960 130.680786,81.909271 
	C138.624985,81.961784 146.569717,81.928833 154.978775,81.928833 
	C154.978775,68.312645 155.057999,55.191692 154.826050,42.076244 
	C154.807800,41.043869 152.772018,39.477753 151.422577,39.127285 
	C139.237656,35.962643 127.026619,32.883747 114.758766,30.059790 
	C109.043907,28.744280 102.988037,26.611814 97.438019,27.381758 
	C87.468872,28.764757 77.773750,32.094448 67.946968,34.541798 
	C60.813244,36.318443 53.651852,37.983994 46.002235,39.819168 
	C46.002235,46.457077 46.002232,53.417831 46.002232,60.378590 
	C46.002232,67.320885 46.002235,74.263184 46.002235,81.528275 
	C48.373981,81.686485 50.166676,81.896759 51.960758,81.909363 
	C58.291382,81.953865 64.622940,81.976723 70.953209,81.913757 
	C74.155312,81.881905 74.618729,83.223572 73.158783,86.217705 
	C64.239700,86.217705 55.315098,86.217705 46.004288,86.217705 
	C46.004288,93.133789 45.779392,99.610146 46.052162,106.065475 
	C46.583008,118.628395 50.323845,130.338409 58.014442,140.237701 
	C63.339115,147.091599 69.590858,153.362915 76.128410,159.096313 
	C82.090454,164.324997 88.994957,168.479019 96.098610,173.582809 
z"/>
<path fill="#67BB43" opacity="1.000000" stroke="none" 
	d="
M95.791344,173.344757 
	C88.994957,168.479019 82.090454,164.324997 76.128410,159.096313 
	C69.590858,153.362915 63.339115,147.091599 58.014442,140.237701 
	C50.323845,130.338409 46.583008,118.628395 46.052162,106.065475 
	C45.779392,99.610146 46.004288,93.133789 46.004288,86.217705 
	C55.315098,86.217705 64.239700,86.217705 73.158783,86.217705 
	C74.618729,83.223572 74.155312,81.881905 70.953209,81.913757 
	C64.622940,81.976723 58.291382,81.953865 51.960758,81.909363 
	C50.166676,81.896759 48.373981,81.686485 46.002235,81.528275 
	C46.002235,74.263184 46.002232,67.320885 46.002232,60.378590 
	C46.002232,53.417831 46.002235,46.457077 46.002235,39.819168 
	C53.651852,37.983994 60.813244,36.318443 67.946968,34.541798 
	C77.773750,32.094448 87.468872,28.764757 97.438019,27.381758 
	C102.988037,26.611814 109.043907,28.744280 114.758766,30.059790 
	C127.026619,32.883747 139.237656,35.962643 151.422577,39.127285 
	C152.772018,39.477753 154.807800,41.043869 154.826050,42.076244 
	C155.057999,55.191692 154.978775,68.312645 154.978775,81.928833 
	C146.569717,81.928833 138.624985,81.961784 130.680786,81.909271 
	C128.213730,81.892960 126.183464,82.066048 127.465096,85.836029 
	C136.246262,85.836029 145.192520,85.836029 155.515503,85.836029 
	C154.874329,96.302422 155.227325,106.466042 153.449127,116.242012 
	C149.782349,136.400513 137.572052,151.071365 120.900246,162.355759 
	C115.513390,166.001877 110.471687,170.234207 104.808693,173.358398 
	C102.551163,174.603851 99.039406,173.575851 95.791344,173.344757 
M92.397408,68.739540 
	C88.753204,71.320221 86.039970,74.467232 84.643265,78.908745 
	C82.013794,87.270531 86.584389,96.439217 95.671974,100.276886 
	C102.087067,102.985977 112.347298,98.606209 115.687988,91.732704 
	C118.563469,85.816360 117.108620,76.478874 112.043823,71.625824 
	C107.185043,66.970192 101.120110,63.342896 92.397408,68.739540 
z"/>
<path fill="#000000" opacity="1.000000" stroke="none" 
	d="
M92.716049,68.532745 
	C101.120110,63.342896 107.185043,66.970192 112.043823,71.625824 
	C117.108620,76.478874 118.563469,85.816360 115.687988,91.732704 
	C112.347298,98.606209 102.087067,102.985977 95.671974,100.276886 
	C86.584389,96.439217 82.013794,87.270531 84.643265,78.908745 
	C86.039970,74.467232 88.753204,71.320221 92.716049,68.532745 
M106.023491,83.928444 
	C108.372223,80.563324 107.936951,77.061737 104.982964,74.771698 
	C102.268608,72.667427 98.686569,71.922554 95.652443,74.963173 
	C92.712021,77.909889 93.029793,80.574554 95.303421,84.115196 
	C97.388000,87.361435 98.095047,91.492249 99.586403,95.738243 
	C104.760719,96.288948 104.915779,96.110039 105.042229,89.962082 
	C105.078377,88.204773 105.513504,86.455666 106.023491,83.928444 
z"/>
<path fill="#64B840" opacity="1.000000" stroke="none" 
	d="
M105.894592,84.315620 
	C105.513504,86.455666 105.078377,88.204773 105.042229,89.962082 
	C104.915779,96.110039 104.760719,96.288948 99.586403,95.738243 
	C98.095047,91.492249 97.388000,87.361435 95.303421,84.115196 
	C93.029793,80.574554 92.712021,77.909889 95.652443,74.963173 
	C98.686569,71.922554 102.268608,72.667427 104.982964,74.771698 
	C107.936951,77.061737 108.372223,80.563324 105.894592,84.315620 
z"/>
</svg>