<?xml version="1.0" standalone="no"?>
<!DOCTYPE svg PUBLIC "-//W3C//DTD SVG 20010904//EN"
 "http://www.w3.org/TR/2001/REC-SVG-20010904/DTD/svg10.dtd">
<svg version="1.0" xmlns="http://www.w3.org/2000/svg"
 width="30.000000pt" height="30.000000pt" viewBox="0 0 30.000000 30.000000"
 preserveAspectRatio="xMidYMid meet">
<metadata>
Created by potrace 1.16, written by Peter Selinger 2001-2019
</metadata>
<g transform="translate(0.000000,30.000000) scale(0.003750,-0.005181)"
fill="#67BB43" stroke="none">
<path d="M1447 4342 c-790 -790 -1437 -1442 -1437 -1447 0 -13 2872 -2885
2885 -2885 6 0 659 649 1453 1443 l1442 1442 -485 485 -485 485 -347 -348
-348 -347 138 -137 137 -138 -752 -752 -753 -753 -752 752 -753 753 752 752
753 753 137 -137 138 -138 348 348 347 347 -480 480 c-264 264 -484 480 -490
480 -6 0 -657 -647 -1448 -1438z"/>
<path d="M3642 4337 l-1442 -1442 485 -485 485 -485 347 348 348 347 -138 137
-137 138 752 752 753 753 752 -752 753 -753 -752 -752 -753 -753 -137 137
-138 138 -348 -348 -347 -347 480 -480 c264 -264 484 -480 490 -480 6 0 659
649 1453 1443 l1442 1442 -1443 1443 c-793 793 -1447 1442 -1452 1442 -6 0
-659 -649 -1453 -1443z"/>
</g>
</svg>
