<?xml version="1.0" standalone="no"?>
<!DOCTYPE svg PUBLIC "-//W3C//DTD SVG 20010904//EN"
 "http://www.w3.org/TR/2001/REC-SVG-20010904/DTD/svg10.dtd">
<svg version="1.0" xmlns="http://www.w3.org/2000/svg"
 width="30.000000pt" height="30.000000pt" viewBox="0 0 30.000000 30.000000"
 preserveAspectRatio="xMidYMid meet">
<metadata>
Created by potrace 1.16, written by Peter Selinger 2001-2019
</metadata>
<g transform="translate(0.000000,30.000000) scale(0.005859,-0.005859)"
fill="#FFFFFF" stroke="none">
<path d="M2235 5094 c-472 -64 -916 -254 -1285 -551 -385 -309 -691 -767 -838
-1253 -70 -231 -102 -465 -102 -735 0 -423 80 -771 266 -1145 124 -249 280
-466 479 -665 402 -402 918 -655 1488 -730 156 -20 488 -20 644 0 474 62 921
253 1293 552 385 309 691 767 838 1253 70 232 102 461 102 735 0 426 -80 770
-266 1145 -124 249 -280 466 -479 665 -402 402 -918 655 -1488 730 -147 19
-510 19 -652 -1z m642 -119 c938 -123 1723 -779 2013 -1682 42 -131 76 -282
95 -426 20 -155 20 -469 0 -624 -123 -938 -779 -1723 -1682 -2013 -241 -78
-459 -110 -738 -110 -351 0 -630 55 -943 186 -288 120 -523 278 -756 504 -401
390 -648 882 -721 1433 -20 155 -20 469 0 624 124 943 784 1729 1693 2016 128
41 271 73 407 91 141 20 486 20 632 1z"/>
<path d="M2743 3895 c-65 -20 -132 -63 -202 -129 -61 -58 -156 -175 -148 -183
2 -2 24 4 48 12 122 43 260 38 357 -12 32 -17 180 -144 387 -332 184 -167 335
-307 335 -310 0 -4 -11 -18 -25 -31 -14 -13 -25 -28 -24 -34 1 -12 228 -221
240 -221 3 0 91 92 193 205 l186 205 -52 48 c-29 27 -85 78 -125 114 l-72 64
-34 -37 -34 -38 -309 280 c-375 340 -407 366 -478 393 -66 24 -176 27 -243 6z"/>
<path d="M3333 3691 l-22 -28 132 -119 c165 -150 164 -149 183 -133 43 35 40
41 -112 178 -80 72 -148 131 -153 131 -4 0 -17 -13 -28 -29z"/>
<path d="M1543 3649 c-18 -5 -33 -11 -33 -13 0 -2 71 -68 158 -146 86 -78 158
-145 160 -149 2 -7 -276 -321 -285 -321 -3 0 -77 66 -166 146 -151 137 -162
145 -168 123 -32 -113 25 -286 123 -374 80 -71 146 -99 253 -103 50 -2 108 1
130 7 l39 10 80 -72 c379 -339 917 -826 985 -890 l84 -79 1 -107 c1 -97 4
-111 32 -172 78 -165 219 -248 402 -236 46 3 88 9 93 14 7 7 -47 62 -148 154
-87 78 -158 146 -158 151 0 8 277 318 285 318 3 0 77 -66 165 -145 181 -164
180 -164 173 -31 -7 111 -36 182 -105 256 -80 87 -158 123 -277 128 -50 2
-107 0 -126 -5 -35 -10 -36 -10 -185 125 -83 74 -197 178 -255 232 -58 53
-250 228 -428 388 l-323 291 -2 108 c-2 93 -6 116 -29 165 -49 104 -148 190
-257 222 -59 17 -167 20 -218 5z"/>
<path d="M2793 3109 c-131 -139 -238 -257 -238 -263 0 -16 293 -281 310 -281
10 0 351 382 453 507 11 13 -9 35 -137 152 l-149 136 -239 -251z"/>
<path d="M1705 1958 c-214 -227 -390 -415 -390 -418 0 -7 366 -340 374 -340
10 0 746 851 748 864 2 11 -304 292 -329 301 -8 3 -168 -159 -403 -407z"/>
</g>
</svg>
