<svg width="21" height="19" viewBox="0 0 21 19" fill="none" xmlns="http://www.w3.org/2000/svg">
<g clip-path="url(#clip0_83_1943)">
<path d="M0.567383 9.5V0H20.4663V19H0.567383" fill="#007ACC"/>
<path d="M4.93066 9.53323V10.3075H7.51753V17.3375H9.35321V10.3075H11.9401V9.54748C11.9401 9.11998 11.9401 8.77323 11.9202 8.76373C11.9202 8.74948 10.3432 8.74473 8.42791 8.74473L4.94559 8.75898V9.53798L4.93066 9.53323ZM16.5566 8.73998C17.0641 8.85398 17.4521 9.07248 17.8003 9.41923C17.9844 9.60923 18.258 9.94173 18.2779 10.0272C18.2779 10.0557 17.4173 10.6115 16.8949 10.9202C16.875 10.9345 16.7954 10.8537 16.7158 10.7302C16.4571 10.3787 16.1935 10.2267 15.7806 10.1982C15.1836 10.1602 14.7856 10.4595 14.7856 10.9582C14.7856 11.1102 14.8155 11.1957 14.8752 11.3192C15.0095 11.5805 15.2582 11.7372 16.0293 12.0602C17.4521 12.6445 18.0689 13.0292 18.4421 13.5802C18.8649 14.1977 18.9594 15.1667 18.6759 15.8935C18.3575 16.6867 17.5814 17.2235 16.4721 17.3992C16.1238 17.4562 15.3279 17.4467 14.9548 17.385C14.1588 17.2425 13.3977 16.8625 12.93 16.3732C12.746 16.1832 12.3928 15.675 12.4127 15.6417L12.6017 15.5277L13.3479 15.1145L13.9101 14.801L14.0394 14.9672C14.2036 15.2142 14.5717 15.5467 14.7856 15.6607C15.4323 15.979 16.2979 15.9362 16.7258 15.5657C16.9098 15.4042 16.9894 15.2332 16.9894 14.9957C16.9894 14.7772 16.9546 14.6775 16.8402 14.5112C16.681 14.3022 16.3626 14.1312 15.4672 13.7512C14.4374 13.3332 13.9996 13.0672 13.5917 12.6587C13.3579 12.4117 13.144 12.027 13.0445 11.7087C12.9698 11.4332 12.945 10.7587 13.0146 10.488C13.2285 9.53798 13.9797 8.87298 15.0543 8.68298C15.4025 8.61648 16.2233 8.64498 16.5666 8.73048L16.5566 8.73998Z" fill="white"/>
</g>
<defs>
<clipPath id="clip0_83_1943">
<rect width="19.899" height="19" fill="white" transform="translate(0.567383)"/>
</clipPath>
</defs>
</svg>
