<svg xmlns="http://www.w3.org/2000/svg" data-name="LINE COLOR" viewBox="0 0 64 64"><path fill="#1976d2" d="M52,55H13.17A9.18,9.18,0,0,1,4,45.83V18.17A9.18,9.18,0,0,1,13.17,9H50.83A9.18,9.18,0,0,1,60,18.17V46a2,2,0,0,1-4,0V18.17A5.18,5.18,0,0,0,50.83,13H13.17A5.18,5.18,0,0,0,8,18.17V45.83A5.18,5.18,0,0,0,13.17,51H52a2,2,0,0,1,0,4Z"/><path fill="#1976d2" d="M27.29,43.25a4.33,4.33,0,0,1-2.11-.56A4.23,4.23,0,0,1,23,39V25.05a4.29,4.29,0,0,1,6.5-3.68l11.59,7a4.3,4.3,0,0,1,0,7.36l-11.59,7A4.23,4.23,0,0,1,27.29,43.25Zm0-18.5a.27.27,0,0,0-.14,0,.28.28,0,0,0-.15.26V39a.29.29,0,0,0,.44.25l11.59-7a.29.29,0,0,0,0-.5L27.44,24.8A.21.21,0,0,0,27.29,24.75Z"/><path fill="#ef9a9a" d="M13,29a2,2,0,0,1-2-2V21a2,2,0,0,1,4,0v6A2,2,0,0,1,13,29Z"/></svg>