<?xml version="1.0" standalone="no"?>
<!DOCTYPE svg PUBLIC "-//W3C//DTD SVG 20010904//EN"
 "http://www.w3.org/TR/2001/REC-SVG-20010904/DTD/svg10.dtd">
<svg version="1.0" xmlns="http://www.w3.org/2000/svg"
 width="30.000000pt" height="30.000000pt" viewBox="0 0 30.000000 30.000000"
 preserveAspectRatio="xMidYMid meet">
<metadata>
Created by potrace 1.16, written by Peter Selinger 2001-2019
</metadata>
<g transform="translate(0.000000,30.000000) scale(0.013333,-0.013333)"
fill="#4353ff" stroke="none">
<path d="M1030 2244 c-208 -25 -383 -88 -544 -196 -78 -53 -231 -206 -284
-284 -87 -129 -153 -291 -183 -444 -16 -84 -16 -306 0 -390 30 -153 96 -315
183 -444 53 -78 206 -231 284 -284 129 -87 291 -153 444 -183 84 -16 306 -16
390 0 153 30 315 96 444 183 78 53 231 206 284 284 87 129 153 291 183 444 16
84 16 306 0 390 -30 153 -96 315 -183 444 -54 79 -206 231 -287 286 -127 85
-266 144 -415 174 -75 16 -256 27 -316 20z m-320 -782 c61 -31 114 -92 130
-150 5 -21 14 -104 19 -186 5 -81 11 -149 13 -152 3 -2 31 65 63 148 71 186
88 221 131 275 52 63 206 128 219 92 2 -8 20 -131 38 -274 l33 -260 47 150
c26 83 59 174 72 203 49 104 136 171 245 188 28 5 41 3 39 -3 -2 -6 -62 -154
-134 -329 -129 -317 -130 -319 -190 -380 -61 -62 -116 -89 -194 -96 l-35 -3
-32 230 c-18 127 -34 239 -36 250 -2 11 -20 -26 -42 -85 -83 -225 -140 -316
-228 -361 -44 -22 -129 -41 -140 -31 -4 4 -34 176 -68 382 -33 206 -63 388
-66 404 -6 27 -5 28 27 21 19 -3 59 -18 89 -33z"/>
</g>
</svg>
