<svg xmlns="http://www.w3.org/2000/svg"  viewBox="0 0 100 100" width="100px" height="100px" baseProfile="basic"><path fill="#444445" d="M90.77,78.57l-5.71-10.69c-0.12-0.2-11.32-20.29-33.07-19.17c3.49-3.8,5.8-5.23,8.29-7.69 c1.18,0.67,2.3,1.17,3.18,1.29c0.89,0.13,1.74,0.19,2.55,0.19c1.89,0,3.56-0.33,5.11-0.89c3.91-1.42,6.5-3.58,7.77-6.46 c0.69-1.54,0.56-3.26-0.35-4.72c-0.92-1.47-2.47-2.39-4.2-2.47c-3.13-0.19-5.21,1.56-8.18,3.45c-0.69,0.43-1.58,0.45-2.26,0 c-3.64-2.47-11.01-5.34-22.29-3.47c-8.66,1.43-15.83,9.76-19,14.06c-1.11,1.47,0.14,3.61,1.97,3.28c1.6-0.29,3.59-1.02,5.94-1.85 c1.66-0.58,2.78-2.16,2.78-3.9v-1.21c0-2.07,2.08-4.54,6.23-6.23c3.74-1.12,8.31,0,13.98,4.16c0.91,0.72,2.08,1.62,3.31,2.51 c-2.78,2.77-6.39,6.46-10.14,10.62c-14.92,2.3-34.15,14.92-34.15,24.25c0,4.16,3.31,4.54,6.23,4.16 c12.24,0,21.57-14.48,22.05-15.12c0.46-0.6,0.93-1.2,1.41-1.79c17.54-3.45,29.28,2.38,33.2,4.34c2.37,1.18,2.16,1.99,1.79,3.49 c-0.15,0.56-0.29,1.16-0.29,1.81c0,3.94,7.65,8.76,11.15,10.72c0.77,0.43,1.73,0.29,2.35-0.34 C91.04,80.28,91.18,79.34,90.77,78.57z M68.3,35.04c0.98-0.87,3.2-2.33,6.44-1.51c0.33,0.09,0.47,0.45,0.31,0.73 c-1.56,2.83-5.02,2.11-6.56,1.62C68.11,35.76,68,35.3,68.3,35.04z M34.883,63.34c-2.57,2.95-7.793,8.87-13.793,10.52 c-1.8,0.5-3.33-1.54-2.32-3.12c3.54-5.55,10.859-7.468,15.479-8.668C34.719,61.951,35.203,62.97,34.883,63.34z"/><path fill="#444445" d="M59.733,24.862c3.203,0,5.8,0,5.8-2.077c0-6.231-3.867-10.385-7.733-10.385 c-3.203,0-5.8,3.446-5.8,7.6C52,23.441,56.53,24.862,59.733,24.862z"/><path d="M59.733,25.862C55.5,25.862,51,23.808,51,20c0-4.742,3.051-8.601,6.8-8.601c4.2,0,8.733,4.354,8.733,11.386 C66.534,25.862,63.077,25.862,59.733,25.862z M57.8,13.399c-2.602,0-4.8,3.022-4.8,6.601c0,2.664,3.938,3.862,6.733,3.862 c3.385,0,4.8-0.149,4.8-1.077C64.534,16.988,61.039,13.399,57.8,13.399z"/><path d="M89.018,82.487c-0.487,0-0.98-0.121-1.437-0.376c-3.507-1.962-11.663-7.018-11.663-11.594 c0-0.749,0.16-1.428,0.323-2.059c0.337-1.349,0.38-1.521-1.265-2.344c-3.746-1.873-15.144-7.569-32.2-4.327 c-0.404,0.501-0.795,0.995-1.177,1.492l-0.117,0.169c-3.186,4.611-11.777,15.338-22.72,15.338C15.489,78.76,12,77.226,12,73 c0-4.663,4.259-10.229,11.684-15.271c6.824-4.633,15.202-8.086,22.489-9.278c2.849-3.149,5.91-6.364,9.115-9.573 c-0.896-0.67-1.727-1.318-2.396-1.844c-5.07-3.716-9.479-5.063-13.072-3.982c-4.05,1.646-5.519,3.874-5.519,5.273v1.204 c0,2.177-1.388,4.126-3.453,4.849l-0.49,0.174c-2.166,0.768-4.037,1.431-5.603,1.715c-1.238,0.221-2.422-0.305-3.091-1.385 c-0.677-1.093-0.623-2.459,0.139-3.479c3.521-4.763,10.759-12.979,19.642-14.448c12.827-2.131,20.366,1.827,23.012,3.627 c0.335,0.225,0.796,0.221,1.165-0.017c0.424-0.27,0.83-0.536,1.223-0.795c2.438-1.603,4.541-2.988,7.558-2.808 c2.037,0.099,3.905,1.2,4.986,2.944c1.09,1.733,1.243,3.794,0.416,5.648c-1.375,3.134-4.182,5.488-8.34,6.992 c-2.59,0.933-5.165,1.173-8.144,0.756c-0.774-0.104-1.72-0.448-2.874-1.05c-0.806,0.76-1.596,1.431-2.423,2.134 c-1.136,0.965-2.299,1.953-3.643,3.283c19.833,0.356,30.357,17.644,31.533,19.688l5.699,10.674 c0.513,0.962,0.505,2.104-0.021,2.981C91.022,81.96,90.034,82.487,89.018,82.487z M52.948,58.807 c11.881,0,19.86,3.989,22.923,5.52c2.866,1.433,2.776,2.758,2.312,4.617c-0.141,0.544-0.264,1.06-0.264,1.574 c0,2.877,5.731,7.103,10.639,9.848c0.456,0.256,1.037,0.088,1.319-0.382c0.164-0.273,0.153-0.671-0.028-1.011l-5.67-10.623 c-1.158-2.014-11.924-19.721-32.132-18.642l-2.439,0.125l1.651-1.8c2.172-2.369,3.925-3.857,5.471-5.171 c0.981-0.834,1.908-1.621,2.85-2.551l0.537-0.53l0.657,0.372c1.214,0.687,2.163,1.079,2.819,1.167 c2.668,0.375,4.913,0.166,7.193-0.656c3.622-1.31,6.042-3.302,7.19-5.919c0.553-1.24,0.449-2.616-0.284-3.781 c-0.737-1.19-2.006-1.938-3.397-2.006c-2.368-0.149-4.036,0.959-6.35,2.481c-0.401,0.264-0.815,0.536-1.248,0.812 c-1.037,0.66-2.354,0.656-3.355-0.012c-2.455-1.669-9.454-5.321-21.568-3.313C33.28,30.331,26.102,38.953,23.41,42.595 c-0.327,0.437-0.237,0.923-0.045,1.232c0.11,0.178,0.43,0.578,1.034,0.471c1.408-0.256,3.208-0.894,5.292-1.632l0.494-0.175 c1.267-0.444,2.117-1.635,2.117-2.963v-1.204c0-2.702,2.627-5.445,6.855-7.158c4.375-1.316,9.234,0.09,14.944,4.274 c0.912,0.717,2.083,1.629,3.304,2.512l0.954,0.69l-0.835,0.83c-3.57,3.544-6.968,7.104-10.102,10.58l-0.238,0.264l-0.352,0.055 C32.799,52.535,14,64.119,14,73c0,3.383,3.336,3.775,4.771,3.787c9.987,0,18.059-10.123,21.066-14.475 c0.083-0.12,0.14-0.201,0.168-0.24c0.396-0.516,0.794-1.02,1.194-1.521c0.3-0.379,0.729-0.638,1.205-0.728 C46.192,59.103,49.716,58.807,52.948,58.807z"/><path d="M70.751,36.972c-0.911,0-1.708-0.294-2.464-0.637c-0.352-0.159-0.594-0.463-0.646-0.812 c-0.048-0.321,0.071-0.636,0.326-0.86l0,0c1.105-0.976,3.468-2.482,6.891-1.612c0.362,0.092,0.667,0.396,0.761,0.755 c0.079,0.307-0.006,0.614-0.228,0.823C73.495,36.408,72.013,36.972,70.751,36.972z M72.816,33.811 c-2.022,0-3.438,0.941-4.187,1.602h-0.001c-0.005,0.005-0.007,0.008-0.007,0.008c1.665,0.722,3.208,1.112,5.939-1.386 C73.937,33.877,73.355,33.811,72.816,33.811z"/><path d="M20.363,74.434c-0.748,0-1.465-0.356-1.935-0.994c-0.595-0.806-0.638-1.86-0.111-2.687 c3.466-5.431,12.507-8.268,16.233-9.236c0.411-0.104,0.835,0.062,1.059,0.424c0.221,0.356,0.184,0.809-0.093,1.125 c-2.511,2.882-8.954,9.748-14.523,11.283l0,0C20.784,74.406,20.573,74.434,20.363,74.434z M34.763,62.409 c-2.779,0.808-12.235,3.606-15.603,8.882c-0.367,0.576-0.203,1.181,0.073,1.555c0.282,0.382,0.824,0.725,1.495,0.538l0,0 C26.184,71.881,32.85,64.604,34.763,62.409z"/></svg>