<svg width="390" height="89" viewBox="0 0 390 89" fill="none" xmlns="http://www.w3.org/2000/svg">
<path d="M145.836 38.0873C145.526 37.0089 145.09 36.0561 144.529 35.2288C143.967 34.3867 143.28 33.6776 142.468 33.1015C141.67 32.5106 140.754 32.06 139.72 31.7498C138.701 31.4396 137.571 31.2845 136.33 31.2845C134.011 31.2845 131.972 31.8606 130.214 33.0129C128.471 34.1651 127.112 35.8418 126.137 38.043C125.162 40.2293 124.674 42.9032 124.674 46.0646C124.674 49.2259 125.154 51.9146 126.115 54.1305C127.075 56.3464 128.434 58.0379 130.192 59.2049C131.95 60.3572 134.025 60.9333 136.419 60.9333C138.59 60.9333 140.444 60.5492 141.98 59.7811C143.532 58.9981 144.713 57.8975 145.526 56.4793C146.353 55.0612 146.767 53.3845 146.767 51.4492L148.717 51.7373H137.017V44.5134H156.007V50.2305C156.007 54.2191 155.165 57.6464 153.481 60.5123C151.797 63.3634 149.478 65.5646 146.523 67.1157C143.569 68.6521 140.186 69.4203 136.374 69.4203C132.12 69.4203 128.382 68.4822 125.162 66.6061C121.941 64.7151 119.43 62.0339 117.628 58.5623C115.84 55.0759 114.946 50.9396 114.946 46.1532C114.946 42.4748 115.478 39.1953 116.542 36.3146C117.62 33.4191 119.127 30.9668 121.062 28.9578C122.998 26.9487 125.25 25.4197 127.821 24.3708C130.391 23.322 133.176 22.7975 136.175 22.7975C138.745 22.7975 141.138 23.1742 143.354 23.9276C145.57 24.6663 147.535 25.7151 149.249 27.0742C150.977 28.4333 152.388 30.0509 153.481 31.9271C154.574 33.7884 155.276 35.8418 155.586 38.0873H145.836ZM184.864 54.3078V34.7634H194.304V68.7998H185.241V62.6174H184.886C184.118 64.6117 182.84 66.2146 181.053 67.4259C179.28 68.6373 177.116 69.243 174.56 69.243C172.285 69.243 170.283 68.7259 168.555 67.6919C166.826 66.6578 165.475 65.1879 164.5 63.2822C163.539 61.3765 163.052 59.0941 163.037 56.435V34.7634H172.477V54.7509C172.492 56.76 173.031 58.3481 174.095 59.5151C175.158 60.6822 176.584 61.2657 178.371 61.2657C179.509 61.2657 180.572 61.0072 181.562 60.4901C182.552 59.9583 183.35 59.1754 183.955 58.1413C184.576 57.1072 184.879 55.8293 184.864 54.3078ZM201.854 68.7998V34.7634H211.006V40.7021H211.361C211.981 38.5896 213.023 36.9941 214.485 35.9157C215.948 34.8225 217.632 34.2759 219.537 34.2759C220.01 34.2759 220.52 34.3055 221.066 34.3646C221.613 34.4237 222.093 34.5049 222.507 34.6083V42.9845C222.063 42.8515 221.45 42.7333 220.667 42.6299C219.884 42.5265 219.168 42.4748 218.518 42.4748C217.129 42.4748 215.888 42.7776 214.795 43.3833C213.717 43.9742 212.86 44.8015 212.225 45.8651C211.604 46.9288 211.294 48.1549 211.294 49.5436V68.7998H201.854ZM249.214 54.3078V34.7634H258.654V68.7998H249.591V62.6174H249.236C248.468 64.6117 247.19 66.2146 245.403 67.4259C243.63 68.6373 241.466 69.243 238.91 69.243C236.635 69.243 234.633 68.7259 232.905 67.6919C231.176 66.6578 229.825 65.1879 228.85 63.2822C227.889 61.3765 227.402 59.0941 227.387 56.435V34.7634H236.827V54.7509C236.842 56.76 237.381 58.3481 238.445 59.5151C239.508 60.6822 240.934 61.2657 242.721 61.2657C243.859 61.2657 244.922 61.0072 245.912 60.4901C246.902 59.9583 247.7 59.1754 248.305 58.1413C248.926 57.1072 249.229 55.8293 249.214 54.3078ZM266.382 68.7998V23.418H275.977V42.1424H295.454V23.418H305.027V68.7998H295.454V50.0532H275.977V68.7998H266.382ZM334.587 54.3078V34.7634H344.027V68.7998H334.964V62.6174H334.609C333.841 64.6117 332.563 66.2146 330.776 67.4259C329.003 68.6373 326.839 69.243 324.283 69.243C322.008 69.243 320.007 68.7259 318.278 67.6919C316.55 66.6578 315.198 65.1879 314.223 63.2822C313.263 61.3765 312.775 59.0941 312.761 56.435V34.7634H322.2V54.7509C322.215 56.76 322.754 58.3481 323.818 59.5151C324.882 60.6822 326.307 61.2657 328.095 61.2657C329.232 61.2657 330.296 61.0072 331.286 60.4901C332.275 59.9583 333.073 59.1754 333.679 58.1413C334.299 57.1072 334.602 55.8293 334.587 54.3078ZM351.755 68.7998V23.418H361.195V40.4805H361.483C361.897 39.5646 362.495 38.6339 363.278 37.6884C364.076 36.7282 365.11 35.9305 366.38 35.2953C367.665 34.6453 369.261 34.3203 371.166 34.3203C373.648 34.3203 375.938 34.9703 378.036 36.2703C380.133 37.5555 381.81 39.4981 383.066 42.0981C384.322 44.6833 384.949 47.9259 384.949 51.8259C384.949 55.6225 384.336 58.8282 383.11 61.443C381.899 64.043 380.244 66.0151 378.147 67.3595C376.064 68.689 373.729 69.3538 371.144 69.3538C369.312 69.3538 367.754 69.0509 366.469 68.4453C365.198 67.8396 364.157 67.0788 363.344 66.1629C362.532 65.2322 361.911 64.2941 361.483 63.3487H361.062V68.7998H351.755ZM360.995 51.7816C360.995 53.8055 361.276 55.5708 361.837 57.0776C362.399 58.5845 363.211 59.7589 364.275 60.6009C365.339 61.4282 366.631 61.8418 368.153 61.8418C369.689 61.8418 370.989 61.4208 372.053 60.5788C373.116 59.722 373.922 58.5401 374.468 57.0333C375.029 55.5117 375.31 53.7612 375.31 51.7816C375.31 49.8168 375.037 48.0884 374.49 46.5964C373.944 45.1043 373.139 43.9373 372.075 43.0953C371.011 42.2532 369.704 41.8322 368.153 41.8322C366.616 41.8322 365.316 42.2384 364.253 43.0509C363.204 43.8634 362.399 45.0157 361.837 46.5078C361.276 47.9998 360.995 49.7578 360.995 51.7816Z" fill="white"/>
<circle cx="44.1999" cy="44.1999" r="33.8" fill="white"/>
<path d="M88.4 44.2C88.4 68.611 68.611 88.4 44.2 88.4C19.789 88.4 0 68.611 0 44.2C0 19.789 19.789 0 44.2 0C68.611 0 88.4 19.789 88.4 44.2ZM17.68 44.2C17.68 58.8466 29.5534 70.72 44.2 70.72C58.8466 70.72 70.72 58.8466 70.72 44.2C70.72 29.5534 58.8466 17.68 44.2 17.68C29.5534 17.68 17.68 29.5534 17.68 44.2Z" fill="#2563EB"/>
<circle cx="44.2001" cy="44.2001" r="15.6" fill="#2563EB"/>
<circle cx="44.1999" cy="44.1999" r="7.8" fill="white"/>
<rect x="54.6001" y="36.3999" width="20.8" height="5.2" fill="#2563EB"/>
<rect x="44.2002" y="41.6001" width="20.8" height="5.2" fill="white"/>
</svg>
