<svg width="150" height="34" viewBox="0 0 150 34" fill="none" xmlns="http://www.w3.org/2000/svg">
<path d="M56.0909 14.1875C55.9716 13.7727 55.804 13.4062 55.5881 13.0881C55.3722 12.7642 55.108 12.4915 54.7955 12.2699C54.4886 12.0426 54.1364 11.8693 53.7386 11.75C53.3466 11.6307 52.9119 11.571 52.4347 11.571C51.5426 11.571 50.7585 11.7926 50.0824 12.2358C49.4119 12.679 48.8892 13.3239 48.5142 14.1705C48.1392 15.0114 47.9517 16.0398 47.9517 17.2557C47.9517 18.4716 48.1364 19.5057 48.5057 20.358C48.875 21.2102 49.3977 21.8608 50.0739 22.3097C50.75 22.7528 51.5483 22.9744 52.4688 22.9744C53.304 22.9744 54.017 22.8267 54.608 22.5312C55.2045 22.2301 55.6591 21.8068 55.9716 21.2614C56.2898 20.7159 56.4489 20.071 56.4489 19.3267L57.1989 19.4375H52.6989V16.6591H60.0028V18.858C60.0028 20.392 59.679 21.7102 59.0312 22.8125C58.3835 23.9091 57.4915 24.7557 56.3551 25.3523C55.2188 25.9432 53.9176 26.2386 52.4517 26.2386C50.8153 26.2386 49.3778 25.8778 48.1392 25.1562C46.9006 24.429 45.9347 23.3977 45.2415 22.0625C44.554 20.7216 44.2102 19.1307 44.2102 17.2898C44.2102 15.875 44.4148 14.6136 44.8239 13.5057C45.2386 12.392 45.8182 11.4489 46.5625 10.6761C47.3068 9.90341 48.1733 9.31534 49.1619 8.91193C50.1506 8.50852 51.2216 8.30682 52.375 8.30682C53.3636 8.30682 54.2841 8.4517 55.1364 8.74148C55.9886 9.02557 56.7443 9.42898 57.4034 9.9517C58.0682 10.4744 58.6108 11.0966 59.0312 11.8182C59.4517 12.5341 59.7216 13.3239 59.8409 14.1875H56.0909ZM71.1016 20.4261V12.9091H74.7322V26H71.2464V23.6222H71.1101C70.8146 24.3892 70.3232 25.0057 69.6357 25.4716C68.9538 25.9375 68.1214 26.1705 67.1385 26.1705C66.2635 26.1705 65.4936 25.9716 64.8288 25.5739C64.1641 25.1761 63.6442 24.6108 63.2692 23.8778C62.8999 23.1449 62.7124 22.267 62.7067 21.2443V12.9091H66.3374V20.5966C66.343 21.3693 66.5504 21.9801 66.9595 22.429C67.3686 22.8778 67.9169 23.1023 68.6044 23.1023C69.0419 23.1023 69.451 23.0028 69.8317 22.804C70.2124 22.5994 70.5192 22.2983 70.7521 21.9006C70.9908 21.5028 71.1072 21.0114 71.1016 20.4261ZM77.6364 26V12.9091H81.1562V15.1932H81.2926C81.5313 14.3807 81.9318 13.767 82.4943 13.3523C83.0568 12.9318 83.7045 12.7216 84.4375 12.7216C84.6193 12.7216 84.8153 12.733 85.0256 12.7557C85.2358 12.7784 85.4205 12.8097 85.5795 12.8494V16.071C85.4091 16.0199 85.1733 15.9744 84.8722 15.9347C84.571 15.8949 84.2955 15.875 84.0455 15.875C83.5114 15.875 83.0341 15.9915 82.6136 16.2244C82.1989 16.4517 81.8693 16.7699 81.625 17.179C81.3864 17.5881 81.267 18.0597 81.267 18.5938V26H77.6364ZM95.8516 20.4261V12.9091H99.4822V26H95.9964V23.6222H95.8601C95.5646 24.3892 95.0732 25.0057 94.3857 25.4716C93.7038 25.9375 92.8714 26.1705 91.8885 26.1705C91.0135 26.1705 90.2436 25.9716 89.5788 25.5739C88.9141 25.1761 88.3942 24.6108 88.0192 23.8778C87.6499 23.1449 87.4624 22.267 87.4567 21.2443V12.9091H91.0874V20.5966C91.093 21.3693 91.3004 21.9801 91.7095 22.429C92.1186 22.8778 92.6669 23.1023 93.3544 23.1023C93.7919 23.1023 94.201 23.0028 94.5817 22.804C94.9624 22.5994 95.2692 22.2983 95.5021 21.9006C95.7408 21.5028 95.8572 21.0114 95.8516 20.4261ZM102.455 26V8.54545H106.145V15.7472H113.636V8.54545H117.318V26H113.636V18.7898H106.145V26H102.455ZM128.688 20.4261V12.9091H132.318V26H128.832V23.6222H128.696C128.401 24.3892 127.909 25.0057 127.222 25.4716C126.54 25.9375 125.707 26.1705 124.724 26.1705C123.849 26.1705 123.08 25.9716 122.415 25.5739C121.75 25.1761 121.23 24.6108 120.855 23.8778C120.486 23.1449 120.298 22.267 120.293 21.2443V12.9091H123.923V20.5966C123.929 21.3693 124.136 21.9801 124.545 22.429C124.955 22.8778 125.503 23.1023 126.19 23.1023C126.628 23.1023 127.037 23.0028 127.418 22.804C127.798 22.5994 128.105 22.2983 128.338 21.9006C128.577 21.5028 128.693 21.0114 128.688 20.4261ZM135.29 26V8.54545H138.921V15.108H139.032C139.191 14.7557 139.421 14.3977 139.722 14.0341C140.029 13.6648 140.427 13.358 140.915 13.1136C141.41 12.8636 142.023 12.7386 142.756 12.7386C143.711 12.7386 144.592 12.9886 145.398 13.4886C146.205 13.983 146.85 14.7301 147.333 15.7301C147.816 16.7244 148.058 17.9716 148.058 19.4716C148.058 20.9318 147.822 22.1648 147.35 23.1705C146.884 24.1705 146.248 24.929 145.441 25.446C144.64 25.9574 143.742 26.2131 142.748 26.2131C142.043 26.2131 141.444 26.0966 140.95 25.8636C140.461 25.6307 140.06 25.3381 139.748 24.9858C139.435 24.6278 139.197 24.267 139.032 23.9034H138.87V26H135.29ZM138.844 19.4545C138.844 20.233 138.952 20.9119 139.168 21.4915C139.384 22.071 139.697 22.5227 140.106 22.8466C140.515 23.1648 141.012 23.3239 141.597 23.3239C142.188 23.3239 142.688 23.1619 143.097 22.8381C143.506 22.5085 143.816 22.054 144.026 21.4744C144.242 20.8892 144.35 20.2159 144.35 19.4545C144.35 18.6989 144.245 18.0341 144.035 17.4602C143.825 16.8864 143.515 16.4375 143.106 16.1136C142.697 15.7898 142.194 15.6278 141.597 15.6278C141.006 15.6278 140.506 15.7841 140.097 16.0966C139.694 16.4091 139.384 16.8523 139.168 17.4261C138.952 18 138.844 18.6761 138.844 19.4545Z" fill="white"/>
<circle cx="17" cy="17" r="13" fill="white"/>
<path d="M34 17C34 26.3888 26.3888 34 17 34C7.61116 34 0 26.3888 0 17C0 7.61116 7.61116 0 17 0C26.3888 0 34 7.61116 34 17ZM6.8 17C6.8 22.6333 11.3667 27.2 17 27.2C22.6333 27.2 27.2 22.6333 27.2 17C27.2 11.3667 22.6333 6.8 17 6.8C11.3667 6.8 6.8 11.3667 6.8 17Z" fill="#2563EB"/>
<circle cx="17" cy="17" r="6" fill="#2563EB"/>
<circle cx="17" cy="17" r="3" fill="white"/>
<rect x="21" y="14" width="8" height="2" fill="#2563EB"/>
<rect x="17" y="16" width="8" height="2" fill="white"/>
</svg>
