<svg width="15" height="15" viewBox="0 0 11 11"  xmlns="http://www.w3.org/2000/svg">
<path fill-rule="evenodd" clip-rule="evenodd" d="M4.71963 14.4636C5.07906 14.164 5.53213 14 6 14H17C17.5523 14 18 13.5523 18 13V3C18 2.44771 17.5523 2 17 2H3C2.44772 2 2 2.44772 2 3V16.7299L4.71963 14.4636ZM6 16H17C18.6569 16 20 14.6569 20 13V3C20 1.34315 18.6569 0 17 0H3C1.34315 0 0 1.34315 0 3V16.7299C0 18.4256 1.97771 19.3519 3.28037 18.2664L6 16Z" fill="#6B6D7F"/>
<path fill-rule="evenodd" clip-rule="evenodd" d="M5 6C5 5.44772 5.44772 5 6 5H14C14.5523 5 15 5.44772 15 6C15 6.55228 14.5523 7 14 7H6C5.44772 7 5 6.55228 5 6Z" fill="#6B6D7F"/>
<path fill-rule="evenodd" clip-rule="evenodd" d="M5 10C5 9.44772 5.44772 9 6 9H10C10.5523 9 11 9.44772 11 10C11 10.5523 10.5523 11 10 11H6C5.44772 11 5 10.5523 5 10Z" fill="#6B6D7F"/>
</svg>
