<svg width="35" height="34" viewBox="0 0 35 34" xmlns="http://www.w3.org/2000/svg">
<path fill-rule="evenodd" clip-rule="evenodd" d="M7.5 15.2509C7.5 14.4378 8.17157 13.7786 9 13.7786H21C21.8284 13.7786 22.5 14.4378 22.5 15.2509C22.5 16.0641 21.8284 16.7233 21 16.7233H9C8.17157 16.7233 7.5 16.0641 7.5 15.2509Z
M7.5 21.1406C7.5 20.3274 8.17157 19.6682 9 19.6682H15C15.8284 19.6682 16.5 20.3274 16.5 21.1406C16.5 21.9537 15.8284 22.6129 15 22.6129H9C8.17157 22.6129 7.5 21.9537 7.5 21.1406Z
M7.07945 27.7129C7.61859 27.2719 8.29819 27.0303 9 27.0303H25.5C26.3284 27.0303 27 26.3711 27 25.558V10.8343C27 10.0212 26.3284 9.36197 25.5 9.36197H4.5C3.67157 9.36197 3 10.0212 3 10.8343V31.0498L7.07945 27.7129ZM9 29.9751H25.5C27.9853 29.9751 30 27.9975 30 25.558V10.8343C30 8.39484 27.9853 6.41724 25.5 6.41724H4.5C2.01472 6.41724 0 8.39484 0 10.8343V31.0498C0 33.5464 2.96657 34.9103 4.92055 33.312L9 29.9751Z" fill="#6b6d7f" />
<rect x="17" y="1" width="17" height="16.7236" rx="8.36182" fill="#41C6FF"/>
<rect x="17" y="1" width="17" height="16.7236" rx="8.36182" stroke="white" stroke-width="2"/>
</svg>
