<svg width="15" height="15" viewBox="0 0 11 11" fill="none" xmlns="http://www.w3.org/2000/svg">
<path fill-rule="evenodd" clip-rule="evenodd" d="M4.71963 17.4636C5.07906 17.164 5.53213 17 6 17H17C17.5523 17 18 16.5523 18 16V6C18 5.44771 17.5523 5 17 5H3C2.44772 5 2 5.44772 2 6V19.7299L4.71963 17.4636ZM6 19H17C18.6569 19 20 17.6569 20 16V6C20 4.34315 18.6569 3 17 3H3C1.34315 3 0 4.34315 0 6V19.7299C0 21.4256 1.97771 22.3519 3.28037 21.2664L6 19Z" fill="#6B6D7F"/>
<path fill-rule="evenodd" clip-rule="evenodd" d="M5 9C5 8.44772 5.44772 8 6 8H14C14.5523 8 15 8.44772 15 9C15 9.55228 14.5523 10 14 10H6C5.44772 10 5 9.55228 5 9Z" fill="#6B6D7F"/>
<path fill-rule="evenodd" clip-rule="evenodd" d="M5 13C5 12.4477 5.44772 12 6 12H10C10.5523 12 11 12.4477 11 13C11 13.5523 10.5523 14 10 14H6C5.44772 14 5 13.5523 5 13Z" fill="#6B6D7F"/>
<rect x="9" y="1" width="12" height="12" rx="6" fill="#41C6FF"/>
<rect x="9" y="1" width="12" height="12" rx="6" stroke="white" stroke-width="2"/>
</svg>
