<svg width="33" height="31" viewBox="0 0 33 31" xmlns="http://www.w3.org/2000/svg">
<path fill-rule="evenodd" clip-rule="evenodd" d="M9.625 11.6249C9.625 10.9116 10.2406 10.3333 11 10.3333H22C22.7594 10.3333 23.375 10.9116 23.375 11.6249C23.375 12.3383 22.7594 12.9166 22 12.9166H11C10.2406 12.9166 9.625 12.3383 9.625 11.6249Z
M9.625 16.7917C9.625 16.0783 10.2406 15.5 11 15.5H16.5C17.2594 15.5 17.875 16.0783 17.875 16.7917C17.875 17.505 17.2594 18.0833 16.5 18.0833H11C10.2406 18.0833 9.625 17.505 9.625 16.7917Z
M9.23949 22.5571C9.73371 22.1702 10.3567 21.9583 11 21.9583H26.125C26.8844 21.9583 27.5 21.38 27.5 20.6667V7.75C27.5 7.03663 26.8844 6.45833 26.125 6.45833H6.875C6.11561 6.45833 5.5 7.03663 5.5 7.75V25.4845L9.23949 22.5571ZM11 24.5417H26.125C28.4032 24.5417 30.25 22.8068 30.25 20.6667V7.75C30.25 5.6099 28.4032 3.875 26.125 3.875H6.875C4.59683 3.875 2.75 5.6099 2.75 7.75V25.4845C2.75 27.6747 5.46935 28.8712 7.2605 27.4691L11 24.5417Z" fill="#6B6D7F"/>
<rect x="19" y="1" width="13" height="13" rx="6.5" fill="#41C6FF"/>
<rect x="19" y="1" width="13" height="13" rx="6.5" stroke="white" stroke-width="2"/>
</svg>

