<svg width="37" height="35" viewBox="0 0 37 35" color="#6b6d7f" xmlns="http://www.w3.org/2000/svg">
<path fill-rule="evenodd" clip-rule="evenodd" d="M10.7917 13.1251C10.7917 12.3197 11.4819 11.6667 12.3334 11.6667H24.6667C25.5181 11.6667 26.2084 12.3197 26.2084 13.1251C26.2084 13.9305 25.5181 14.5834 24.6667 14.5834H12.3334C11.4819 14.5834 10.7917 13.9305 10.7917 13.1251Z
M10.7917 18.9583C10.7917 18.1529 11.4819 17.5 12.3334 17.5H18.5C19.3515 17.5 20.0417 18.1529 20.0417 18.9583C20.0417 19.7637 19.3515 20.4167 18.5 20.4167H12.3334C11.4819 20.4167 10.7917 19.7637 10.7917 18.9583Z
M10.3594 25.4677C10.9135 25.0309 11.612 24.7917 12.3333 24.7917H29.2916C30.1431 24.7917 30.8333 24.1387 30.8333 23.3333V8.75C30.8333 7.94458 30.1431 7.29167 29.2916 7.29167H7.70831C6.85687 7.29167 6.16665 7.94458 6.16665 8.75V28.7728L10.3594 25.4677ZM12.3333 27.7083H29.2916C31.846 27.7083 33.9166 25.7496 33.9166 23.3333V8.75C33.9166 6.33375 31.846 4.375 29.2916 4.375H7.70831C5.154 4.375 3.08331 6.33375 3.08331 8.75V28.7728C3.08331 31.2457 6.13229 32.5965 8.14054 31.0134L12.3333 27.7083Z" fill="#6b6d7f" />
</svg>
