<svg width="17" height="15" viewBox="0 0 17 15" fill="none" xmlns="http://www.w3.org/2000/svg">
<path d="M8.5 2.78068C11.4286 2.78068 14.0405 4.44909 15.3155 7.08877C14.8595 8.04439 14.2182 8.86684 13.4532 9.53264L14.5427 10.6371C15.6168 9.67363 16.4668 8.46736 17 7.08877C15.6632 3.65013 12.3636 1.2141 8.5 1.2141C7.51864 1.2141 6.57591 1.37076 5.68727 1.66057L6.96227 2.953C7.46455 2.85117 7.97455 2.78068 8.5 2.78068ZM7.67318 3.67363L9.27273 5.29504C9.71318 5.49086 10.0686 5.85118 10.2618 6.29765L11.8614 7.91906C11.9232 7.65274 11.9695 7.37076 11.9695 7.08094C11.9773 5.13838 10.4164 3.56397 8.5 3.56397C8.21409 3.56397 7.94364 3.60313 7.67318 3.67363ZM0.780455 1.11227L2.85136 3.21149C1.59182 4.2141 0.595 5.54569 0 7.08877C1.33682 10.5274 4.63636 12.9634 8.5 12.9634C9.67455 12.9634 10.8027 12.7363 11.8382 12.3211L14.4809 15L15.5705 13.8956L1.87 0L0.780455 1.11227ZM6.57591 6.98695L8.59273 9.03133C8.56182 9.03916 8.53091 9.047 8.5 9.047C7.43364 9.047 6.56818 8.16971 6.56818 7.08877C6.56818 7.04961 6.57591 7.02611 6.57591 6.98695ZM3.94864 4.32376L5.30091 5.69452C5.12318 6.12533 5.02273 6.5953 5.02273 7.08877C5.02273 9.03133 6.58364 10.6136 8.5 10.6136C8.98682 10.6136 9.45045 10.5118 9.86773 10.3316L10.625 11.0992C9.945 11.2872 9.23409 11.3969 8.5 11.3969C5.57136 11.3969 2.95955 9.72846 1.68455 7.08877C2.22545 5.96867 3.01364 5.04439 3.94864 4.32376Z" fill="#6B6D7F"/>
</svg>
