<svg width="18" height="21" viewBox="0 0 18 21" fill="none" xmlns="http://www.w3.org/2000/svg">
<path d="M17.0001 6.60578L11.0001 1.33032C10.4501 0.836924 9.73803 0.564148 9.0001 0.564148C8.26216 0.564148 7.55012 0.836924 7.0001 1.33032L1.00009 6.60578C0.682463 6.89069 0.428995 7.24019 0.256567 7.63103C0.0841385 8.02186 -0.00329256 8.44505 9.47941e-05 8.87242V17.6381C9.47941e-05 18.4361 0.316165 19.2014 0.878775 19.7657C1.44138 20.3299 2.20445 20.6469 3.0001 20.6469H15.0001C15.7957 20.6469 16.5588 20.3299 17.1214 19.7657C17.684 19.2014 18.0001 18.4361 18.0001 17.6381V8.86239C18.0021 8.43671 17.9139 8.01545 17.7416 7.62645C17.5692 7.23745 17.3165 6.88957 17.0001 6.60578ZM11.0001 18.641H7.0001V13.6263C7.0001 13.3603 7.10545 13.1053 7.29299 12.9172C7.48053 12.7291 7.73488 12.6234 8.0001 12.6234H10.0001C10.2653 12.6234 10.5197 12.7291 10.7072 12.9172C10.8947 13.1053 11.0001 13.3603 11.0001 13.6263V18.641ZM16.0001 17.6381C16.0001 17.9041 15.8947 18.1592 15.7072 18.3473C15.5197 18.5354 15.2653 18.641 15.0001 18.641H13.0001V13.6263C13.0001 12.8284 12.684 12.0631 12.1214 11.4988C11.5588 10.9345 10.7957 10.6175 10.0001 10.6175H8.0001C7.20445 10.6175 6.44138 10.9345 5.87877 11.4988C5.31617 12.0631 5.0001 12.8284 5.0001 13.6263V18.641H3.0001C2.73488 18.641 2.48053 18.5354 2.29299 18.3473C2.10545 18.1592 2.0001 17.9041 2.0001 17.6381V8.86239C2.00027 8.71999 2.03069 8.57926 2.08931 8.44956C2.14794 8.31986 2.23343 8.20417 2.3401 8.11019L8.3401 2.84476C8.52258 2.68397 8.75719 2.5953 9.0001 2.5953C9.243 2.5953 9.47761 2.68397 9.6601 2.84476L15.6601 8.11019C15.7668 8.20417 15.8523 8.31986 15.9109 8.44956C15.9695 8.57926 15.9999 8.71999 16.0001 8.86239V17.6381Z" fill="current"/>
</svg>
