<svg width="16" height="12" viewBox="0 0 16 12" fill="none" xmlns="http://www.w3.org/2000/svg">
<path d="M6.55778 11.6975C6.73857 11.5126 6.83308 11.2815 6.84129 11.0042C6.84951 10.7269 6.76322 10.4958 6.58243 10.3109L3.3282 7.0084H15.0139C15.2933 7.0084 15.5275 6.91177 15.7165 6.71849C15.9055 6.52521 16 6.28571 16 6C16 5.71429 15.9055 5.47479 15.7165 5.28151C15.5275 5.08824 15.2933 4.9916 15.0139 4.9916H3.3282L6.60709 1.66387C6.78788 1.46219 6.87416 1.22689 6.86595 0.957983C6.85773 0.689075 6.76322 0.462185 6.58243 0.277311C6.38521 0.0924371 6.151 0 5.87981 0C5.60863 0 5.38264 0.0924371 5.20185 0.277311L0.295837 5.29412C0.197225 5.39496 0.123265 5.5042 0.0739584 5.62185C0.0246515 5.7395 0 5.86555 0 6C0 6.13445 0.0246515 6.2605 0.0739584 6.37815C0.123265 6.4958 0.197225 6.60504 0.295837 6.70588L5.17719 11.6975C5.37442 11.8992 5.60452 12 5.86749 12C6.13046 12 6.36055 11.8992 6.55778 11.6975Z" fill="current"/>
</svg>
