<svg width="20" height="21" viewBox="0 0 20 21" fill="none" xmlns="http://www.w3.org/2000/svg">
<path d="M19.32 8.36162L17.43 7.72977L18.32 5.94454C18.4102 5.75767 18.4404 5.54734 18.4064 5.34254C18.3723 5.13775 18.2758 4.9486 18.13 4.80119L16 2.66493C15.8522 2.51658 15.6618 2.41841 15.4556 2.38423C15.2493 2.35005 15.0375 2.38157 14.85 2.47437L13.07 3.36698L12.44 1.47143C12.3735 1.27384 12.2472 1.10197 12.0787 0.979738C11.9102 0.857502 11.7079 0.790981 11.5 0.789432H8.5C8.29036 0.788889 8.08585 0.854441 7.91538 0.976823C7.7449 1.0992 7.61709 1.27223 7.55 1.47143L6.92 3.36698L5.14 2.47437C4.95369 2.38388 4.74397 2.35362 4.53978 2.38775C4.33558 2.42188 4.14699 2.51873 4 2.66493L1.87 4.80119C1.72209 4.94939 1.62421 5.14036 1.59013 5.34724C1.55605 5.55413 1.58748 5.76652 1.68 5.95457L2.57 7.7398L0.680003 8.37165C0.482996 8.43838 0.311629 8.56504 0.189751 8.73402C0.0678738 8.90299 0.00154767 9.10586 3.33354e-06 9.31441V12.3232C-0.000537828 12.5335 0.0648223 12.7386 0.186845 12.9096C0.308868 13.0805 0.481382 13.2087 0.680003 13.276L2.57 13.9079L1.68 15.6931C1.58978 15.88 1.55961 16.0903 1.59364 16.2951C1.62767 16.4999 1.72423 16.689 1.87 16.8364L4 18.9727C4.14777 19.1211 4.33818 19.2192 4.54446 19.2534C4.75074 19.2876 4.96251 19.2561 5.15 19.1633L6.93 18.2707L7.56 20.1662C7.62709 20.3654 7.7549 20.5384 7.92538 20.6608C8.09585 20.7832 8.30036 20.8487 8.51 20.8482H11.51C11.7196 20.8487 11.9242 20.7832 12.0946 20.6608C12.2651 20.5384 12.3929 20.3654 12.46 20.1662L13.09 18.2707L14.87 19.1633C15.0551 19.2515 15.2628 19.2805 15.4649 19.2464C15.667 19.2123 15.8538 19.1168 16 18.9727L18.13 16.8364C18.2779 16.6882 18.3758 16.4973 18.4099 16.2904C18.444 16.0835 18.4125 15.8711 18.32 15.6831L17.43 13.8978L19.32 13.266C19.517 13.1993 19.6884 13.0726 19.8103 12.9036C19.9321 12.7346 19.9985 12.5318 20 12.3232V9.31441C20.0005 9.10415 19.9352 8.89904 19.8132 8.72806C19.6911 8.55709 19.5186 8.4289 19.32 8.36162ZM18 11.6011L16.8 12.0023C16.5241 12.0921 16.2709 12.241 16.0581 12.4387C15.8452 12.6364 15.6778 12.8781 15.5675 13.1472C15.4571 13.4163 15.4064 13.7062 15.419 13.9969C15.4315 14.2876 15.5069 14.572 15.64 14.8306L16.21 15.9739L15.11 17.0772L14 16.4754C13.7436 16.3473 13.4627 16.2759 13.1763 16.2661C12.89 16.2563 12.6049 16.3083 12.3403 16.4186C12.0758 16.5289 11.8379 16.695 11.6429 16.9055C11.4479 17.116 11.3003 17.3661 11.21 17.6388L10.81 18.8423H9.22L8.82 17.6388C8.7305 17.362 8.58203 17.1081 8.3849 16.8947C8.18778 16.6812 7.94671 16.5133 7.67842 16.4026C7.41014 16.292 7.12106 16.2411 6.83123 16.2537C6.5414 16.2663 6.25777 16.3419 6 16.4754L4.86 17.0471L3.76 15.9438L4.36 14.8306C4.4931 14.572 4.56852 14.2876 4.58105 13.9969C4.59358 13.7062 4.5429 13.4163 4.43254 13.1472C4.32218 12.8781 4.15478 12.6364 3.94195 12.4387C3.72912 12.241 3.47595 12.0921 3.2 12.0023L2 11.6011V10.0365L3.2 9.63535C3.47595 9.54558 3.72912 9.39668 3.94195 9.19897C4.15478 9.00126 4.32218 8.75949 4.43254 8.49042C4.5429 8.22134 4.59358 7.93141 4.58105 7.64073C4.56852 7.35005 4.4931 7.06559 4.36 6.80706L3.79 5.6938L4.89 4.59057L6 5.16224C6.25777 5.29573 6.5414 5.37138 6.83123 5.38394C7.12106 5.3965 7.41014 5.34568 7.67842 5.235C7.94671 5.12431 8.18778 4.95642 8.3849 4.74296C8.58203 4.5295 8.7305 4.27559 8.82 3.99884L9.22 2.79531H10.78L11.18 3.99884C11.2695 4.27559 11.418 4.5295 11.6151 4.74296C11.8122 4.95642 12.0533 5.12431 12.3216 5.235C12.5899 5.34568 12.879 5.3965 13.1688 5.38394C13.4586 5.37138 13.7422 5.29573 14 5.16224L15.14 4.59057L16.24 5.6938L15.64 6.80706C15.5122 7.06426 15.4411 7.34599 15.4313 7.63317C15.4215 7.92036 15.4734 8.20629 15.5834 8.47162C15.6934 8.73695 15.8589 8.97548 16.0688 9.17107C16.2787 9.36665 16.5281 9.51473 16.8 9.60526L18 10.0064V11.6011ZM10 6.80706C9.20888 6.80706 8.43552 7.04235 7.77772 7.48317C7.11993 7.92398 6.60724 8.55053 6.30449 9.28358C6.00174 10.0166 5.92252 10.8233 6.07686 11.6015C6.2312 12.3797 6.61217 13.0945 7.17158 13.6556C7.73099 14.2166 8.44372 14.5987 9.21964 14.7535C9.99557 14.9083 10.7998 14.8288 11.5307 14.5252C12.2616 14.2216 12.8864 13.7074 13.3259 13.0476C13.7654 12.3879 14 11.6123 14 10.8188C14 9.75483 13.5786 8.73443 12.8284 7.98208C12.0783 7.22973 11.0609 6.80706 10 6.80706ZM10 12.8247C9.60444 12.8247 9.21776 12.7071 8.88886 12.4866C8.55997 12.2662 8.30362 11.953 8.15224 11.5864C8.00087 11.2199 7.96126 10.8166 8.03843 10.4275C8.1156 10.0384 8.30609 9.68097 8.58579 9.40045C8.8655 9.11992 9.22186 8.92888 9.60982 8.85148C9.99779 8.77408 10.3999 8.81381 10.7654 8.96563C11.1308 9.11745 11.4432 9.37455 11.6629 9.70441C11.8827 10.0343 12 10.4221 12 10.8188C12 11.3508 11.7893 11.861 11.4142 12.2372C11.0391 12.6134 10.5304 12.8247 10 12.8247Z"/>
</svg>
