<svg width="17" height="15" viewBox="0 0 17 15"><defs><style>.cls-1{fill:#6b6d7f;}</style></defs><path class="cls-1" d="M8.5,5.15A1.94,1.94,0,1,1,6.62,7.09,1.91,1.91,0,0,1,8.5,5.15m0-1.59A3.53,3.53,0,1,0,12,7.09,3.5,3.5,0,0,0,8.5,3.56Z"/><path class="cls-1" d="M15.73,4.67A9.09,9.09,0,0,0,8.5,1.21,9.09,9.09,0,0,0,1.27,4.67,7.9,7.9,0,0,0,0,7.09,8,8,0,0,0,1.27,9.51,9.08,9.08,0,0,0,8.5,13a9.08,9.08,0,0,0,7.23-3.45A8,8,0,0,0,17,7.09,7.9,7.9,0,0,0,15.73,4.67ZM8.5,11.34A7.24,7.24,0,0,1,1.74,7.09,7.25,7.25,0,0,1,8.5,2.83a7.25,7.25,0,0,1,6.76,4.26A7.24,7.24,0,0,1,8.5,11.34Z"/></svg>