<svg xmlns="http://www.w3.org/2000/svg" viewBox="0 0 48 48"><g data-name="Layer 2"><path fill="#30385c" d="M42,42H8a1,1,0,0,1-1-1V7A1,1,0,0,1,8,6H42a1,1,0,0,1,1,1V41A1,1,0,0,1,42,42ZM9,40H41V8H9Z"/><circle cx="12" cy="11" r="1" fill="#30385c"/><circle cx="16" cy="11" r="1" fill="#30385c"/><circle cx="20" cy="11" r="1" fill="#30385c"/><path fill="#30385c" d="M22 16H8a1 1 0 0 1 0-2H21.59l3.7-3.71A1 1 0 0 1 26 10H42a1 1 0 0 1 0 2H26.41l-3.7 3.71A1 1 0 0 1 22 16zM19.27 25h-.54A2.74 2.74 0 0 1 16 22.27V19a1 1 0 0 1 1-1h4a1 1 0 0 1 1 1v3.27A2.74 2.74 0 0 1 19.27 25zM18 20v2.27a.73.73 0 0 0 .73.73h.54a.73.73 0 0 0 .73-.73V20zM22 34H16a1 1 0 0 1 0-2h6a1 1 0 0 1 0 2z"/><path fill="#30385c" d="M23,42H15a1,1,0,0,1-1-1V37a1,1,0,0,1,1-1,1,1,0,0,0,1-1V33a1,1,0,0,1,1-1h4a1,1,0,0,1,1,1v2a.93.93,0,0,0,.29.69A1,1,0,0,0,23,36a1,1,0,0,1,1,1v4A1,1,0,0,1,23,42Zm-7-2h6V37.83A3,3,0,0,1,20,35V34H18v1a3,3,0,0,1-2,2.83Z"/><path fill="#30385c" d="M19 34a1 1 0 0 1-1-1V24a1 1 0 0 1 2 0v9A1 1 0 0 1 19 34zM33 18.8a6.54 6.54 0 0 0-.59-.3 1 1 0 0 0-1.41.91v4l-1 .5-1-.5v-4a1 1 0 0 0-1.41-.91A6 6 0 0 0 27 29.19V41a1 1 0 0 0 1 1h4a1 1 0 0 0 1-1V29.19A6 6 0 0 0 33 18.8zm0 7.84a4 4 0 0 1-1.4 1 1 1 0 0 0-.6.92V40H29V28.58a1 1 0 0 0-.6-.92 4 4 0 0 1-1.4-6.3V24a1 1 0 0 0 .55.89l2 1a1 1 0 0 0 .9 0l2-1A1 1 0 0 0 33 24V21.36a4 4 0 0 1 0 5.28z"/><rect width="3" height="28" x="38" y="12" fill="#30385c" opacity=".5"/><path fill="#30385c" d="M38 37h0a0 0 0 0 1 0 0v3a0 0 0 0 1 0 0H35a0 0 0 0 1 0 0v0A3 3 0 0 1 38 37zM31 38h0a0 0 0 0 1 0 0v2a0 0 0 0 1 0 0H29a0 0 0 0 1 0 0v0A2 2 0 0 1 31 38zM20 38h0a0 0 0 0 1 0 0v2a0 0 0 0 1 0 0H18a0 0 0 0 1 0 0v0A2 2 0 0 1 20 38zM20 21h0a0 0 0 0 1 0 0v2a0 0 0 0 1 0 0H18a0 0 0 0 1 0 0v0A2 2 0 0 1 20 21zM41 10H34a2 2 0 0 0 2-2h5z" opacity=".5"/><rect width="2" height="5" x="20" y="35" fill="#30385c" opacity=".5"/></g></svg>