<svg xmlns="http://www.w3.org/2000/svg"  viewBox="0 0 48 48" width="48px" height="48px" baseProfile="basic"><path fill="#d6e5e5" d="M5.5,34.5c0-9,0-10.669-0.016-19c-0.003-1.731,0.337-4.077,2.016-5 c2.965-1.63,13.09-5.425,16.451-6.598c0.845-0.295,1.751-0.299,2.598-0.01c3.72,1.266,10.189,3.719,15.467,6.452 c1.449,0.75,2.297,2.305,2.144,3.929l-0.585,18.802c-0.091,0.961-0.032,2.161-0.807,2.738c-2.268,1.688-9.152,5.44-14.585,7.479 c-1.589,0.596-3.226,1.201-4.923,1.171c-1.813-0.032-3.528-0.784-5.157-1.581c-3.192-1.561-7.449-3.251-10.777-5.207 C6.197,37.012,5.5,35.809,5.5,34.5L5.5,34.5z"/><path fill="#565656" d="M22.957,42.863c-0.051-8.375,0.363-16.58,0.398-21.736c0.011-1.671,1.051-3.155,2.62-3.731 c3.633-1.334,8.129-2.382,13.387-4.898c0,0,4.526-1.861,4.633,3.213L44,34.737c0,0.772-0.444,1.474-1.14,1.806l-17.04,8.114 C24.497,45.287,22.966,44.328,22.957,42.863z"/><path d="M6,34.5c0-4.608,0-9.215-0.007-13.823c-0.002-1.252-0.004-2.503-0.006-3.755c-0.002-1.235-0.062-2.485,0.243-3.693 c0.265-1.049,0.768-1.898,1.739-2.413c0.674-0.358,1.373-0.67,2.07-0.978c3.813-1.684,7.729-3.153,11.641-4.589 c0.719-0.264,1.438-0.525,2.16-0.78c0.63-0.222,1.259-0.358,1.931-0.257c0.578,0.087,1.142,0.331,1.691,0.524 c2.417,0.85,4.81,1.77,7.176,2.755c1.426,0.594,2.842,1.214,4.241,1.869c0.651,0.304,1.298,0.616,1.941,0.936 c0.591,0.295,1.221,0.563,1.714,1.012c1.05,0.955,1.149,2.198,1.108,3.509c-0.082,2.62-0.163,5.24-0.245,7.86 c-0.092,2.97-0.185,5.941-0.277,8.911c-0.018,0.577-0.023,1.156-0.066,1.732c-0.04,0.529-0.031,1.109-0.236,1.607 c-0.182,0.442-0.592,0.668-0.971,0.922c-0.775,0.519-1.578,0.999-2.385,1.466c-2.234,1.29-4.532,2.473-6.87,3.564 c-1.267,0.591-2.548,1.154-3.85,1.665c-1.371,0.538-2.779,1.103-4.241,1.333c-3.111,0.49-5.947-1.368-8.662-2.602 c-2.665-1.21-5.365-2.372-7.908-3.826C6.814,36.809,6,35.85,6,34.5c0-0.643-1-0.645-1,0c0,3.071,3.106,4.252,5.442,5.384 c2.719,1.319,5.484,2.56,8.231,3.82c1.382,0.634,2.828,1.174,4.362,1.25c1.675,0.083,3.297-0.446,4.847-1.019 c2.646-0.978,5.218-2.148,7.736-3.417c2.176-1.096,4.34-2.252,6.387-3.577c0.777-0.503,1.545-0.963,1.829-1.901 c0.2-0.659,0.212-1.39,0.244-2.073c0.114-2.394,0.149-4.793,0.224-7.188c0.101-3.228,0.201-6.456,0.302-9.685 c0.019-0.607,0.03-1.215,0.057-1.822c0.053-1.211-0.266-2.353-1.057-3.292c-0.914-1.085-2.382-1.613-3.631-2.207 c-2.721-1.296-5.504-2.462-8.315-3.549c-1.229-0.475-2.464-0.934-3.706-1.374c-1.263-0.447-2.46-0.876-3.813-0.526 c-1.773,0.459-3.515,1.247-5.226,1.892c-2.167,0.817-4.326,1.653-6.47,2.529C10.768,8.43,9.065,9.104,7.464,9.952 c-2.111,1.119-2.481,3.6-2.48,5.776C4.987,20.49,4.999,25.252,5,30.014c0,1.495,0,2.99,0,4.486C5,35.143,6,35.145,6,34.5z"/><path d="M24,44.5c-0.16-7.608-0.075-15.214-0.014-22.823c0.007-0.845,0.072-1.616,0.523-2.357c0.44-0.722,1.106-1.209,1.89-1.5 c1.547-0.574,3.134-1.042,4.705-1.547c1.841-0.593,3.672-1.219,5.466-1.944c0.958-0.387,1.916-0.787,2.846-1.238 c0.177-0.086,0.336-0.157,0.523-0.214c0.675-0.207,1.436-0.31,2.123-0.098c1.255,0.387,1.535,1.78,1.571,2.936 c0.02,0.642,1.021,0.645,1,0c-0.04-1.266-0.321-2.649-1.396-3.448c-0.706-0.525-1.613-0.663-2.471-0.572 c-0.473,0.05-0.954,0.145-1.398,0.323c-1.105,0.441-2.168,0.99-3.275,1.432c-1.01,0.403-2.031,0.777-3.059,1.131 c-1.805,0.622-3.634,1.172-5.446,1.773c-1.598,0.531-3.162,1.041-4.027,2.609c-0.794,1.438-0.577,3.186-0.592,4.77 c-0.018,1.859-0.037,3.718-0.051,5.578C22.881,34.374,22.894,39.438,23,44.5C23.013,45.143,24.014,45.145,24,44.5L24,44.5z"/><path fill="#d6e5e5" d="M31.911,33.776c-0.214-1.024-1.036-1.735-1.836-2.33c-0.703-0.523-1.691-1.056-1.967-1.95 c-0.199-0.645,0.103-1.344,0.664-1.703c0.658-0.42,1.537-0.25,2.104,0.245c0.483,0.422,1.193-0.283,0.707-0.707 c-0.418-0.365-0.93-0.606-1.461-0.707c-0.041-0.375-0.08-0.749-0.123-1.124c-0.016-0.137-0.045-0.252-0.146-0.354 C29.767,25.06,29.625,24.994,29.5,25c-0.129,0.006-0.263,0.048-0.354,0.146C29.063,25.238,28.985,25.371,29,25.5 c0.043,0.372,0.082,0.744,0.122,1.117c-0.375,0.069-0.74,0.212-1.065,0.463c-0.957,0.737-1.276,2.03-0.739,3.114 c0.434,0.876,1.316,1.431,2.08,1.988c0.79,0.576,1.702,1.306,1.56,2.4c-0.191,1.474-1.967,2.048-3.017,1.02 c-0.46-0.451-1.168,0.256-0.707,0.707c0.49,0.481,1.137,0.752,1.802,0.802c-0.003,0.023-0.015,0.045-0.013,0.068 c0.014,0.144,0.029,0.289,0.037,0.433c0.002,0.046,0.001,0.093-0.002,0.139c-0.006,0.029-0.013,0.059-0.017,0.089 C29.009,38.06,29,38.278,29,38.5c0,0.262,0.23,0.512,0.5,0.5c0.271-0.012,0.5-0.22,0.5-0.5c0-0.166,0.002-0.333,0.021-0.499 c0.015-0.08,0.033-0.159,0.039-0.242c0.014-0.191-0.019-0.39-0.038-0.58c-0.006-0.056-0.018-0.107-0.034-0.157 c0.187-0.051,0.371-0.114,0.547-0.206C31.607,36.258,32.154,34.939,31.911,33.776z"/><path fill="#43af1b" d="M36.107,33.549c-0.705,0.3-1.432,0.626-1.973,0.838c-0.384,0.151-0.634,0.517-0.634,0.93v0.166 c0,0.718,0.732,1.201,1.393,0.919c0.662-0.283,1.353-0.57,1.952-0.785c0.396-0.143,0.656-0.515,0.656-0.937v-0.211 C37.5,33.751,36.768,33.268,36.107,33.549z"/></svg>
