<svg xmlns="http://www.w3.org/2000/svg" viewBox="0 0 64 64"><circle cx="32" cy="32" r="21.97" fill="#dd655b"/><path fill="#fbd984" d="M24.17 2.33h15.66v4.85H24.17z"/><path fill="#5fc3ab" d="M27.37 10.83c-1.88-.26-3.29.46-3.27 2.43v3.09a1.72 1.72 0 1 1-3.44 0v-3.8c0-1.81.68-3.57 1.94-4.88 1.64-1.72 4.06-2.68 6.14-2.83l-1.37 5.99zm9.26 0c1.88-.26 3.29.46 3.27 2.43v3.09a1.72 1.72 0 1 0 3.44 0v-3.8c0-1.81-.68-3.57-1.94-4.88-1.64-1.72-4.06-2.68-6.14-2.83l1.37 5.99z"/><path fill="#516c72" d="M37.15 8.6c0 2.84-2.31 5.15-5.15 5.15-2.84 0-5.15-2.31-5.15-5.15 0-2.84 2.31-5.15 5.15-5.15 2.84-.01 5.15 2.3 5.15 5.15z"/><path fill="#e4bf6d" d="M21.93 0h20.14v3.25H21.93z"/><path fill="#fbd984" d="M24.17 56.81h15.66v4.85H24.17z"/><path fill="#58b5ac" d="M27.37 53.17c-1.88.26-3.29-.46-3.27-2.43v-3.09a1.72 1.72 0 1 0-3.44 0v3.8c0 1.81.68 3.57 1.94 4.88 1.64 1.72 4.06 2.68 6.14 2.83l-1.37-5.99zm9.26 0c1.88.26 3.29-.46 3.27-2.43v-3.09a1.72 1.72 0 1 1 3.44 0v3.8c0 1.81-.68 3.57-1.94 4.88-1.64 1.72-4.06 2.68-6.14 2.83l1.37-5.99z"/><path fill="#516c72" d="M37.15 55.4c0-2.84-2.31-5.15-5.15-5.15-2.84 0-5.15 2.31-5.15 5.15 0 2.84 2.31 5.15 5.15 5.15 2.84.01 5.15-2.3 5.15-5.15z"/><path fill="#e4bf6d" d="M21.93 60.75h20.14V64H21.93z"/><path fill="#fbd984" d="M2.331 39.831v-15.66h4.85v15.66z"/><path fill="#f37970" d="M10.83 36.63c-.26 1.88.46 3.29 2.43 3.27h3.09a1.72 1.72 0 1 1 0 3.44h-3.8c-1.81 0-3.57-.68-4.88-1.94-1.72-1.64-2.68-4.06-2.83-6.14l5.99 1.37zm0-9.26c-.26-1.88.46-3.29 2.43-3.27h3.09a1.72 1.72 0 1 0 0-3.44h-3.8c-1.81 0-3.57.68-4.88 1.94-1.72 1.64-2.68 4.06-2.83 6.14l5.99-1.37z"/><path fill="#516c72" d="M8.6 26.85c2.84 0 5.15 2.31 5.15 5.15 0 2.84-2.31 5.15-5.15 5.15-2.84 0-5.15-2.31-5.15-5.15-.01-2.84 2.3-5.15 5.15-5.15z"/><path fill="#e4bf6d" d="M-.005 42.075v-20.14h3.25v20.14z"/><path fill="#fbd984" d="M56.809 39.829v-15.66h4.85v15.66z"/><path fill="#3facd7" d="M53.17 36.63c.26 1.88-.46 3.29-2.43 3.27h-3.09a1.72 1.72 0 1 0 0 3.44h3.8c1.81 0 3.57-.68 4.88-1.94 1.72-1.64 2.68-4.06 2.83-6.14l-5.99 1.37zm0-9.26c.26-1.88-.46-3.29-2.43-3.27h-3.09a1.72 1.72 0 1 1 0-3.44h3.8c1.81 0 3.57.68 4.88 1.94 1.72 1.64 2.68 4.06 2.83 6.14l-5.99-1.37z"/><path fill="#516c72" d="M55.4 26.85c-2.84 0-5.15 2.31-5.15 5.15 0 2.84 2.31 5.15 5.15 5.15s5.15-2.31 5.15-5.15c.01-2.84-2.3-5.15-5.15-5.15z"/><path fill="#e4bf6d" d="M60.745 42.075v-20.14h3.25v20.14z"/><path fill="#f0f3f5" d="M27.36 16.12h9.27v6.94h-9.27zM27.36 40.94h9.27v6.94h-9.27zM16.122 36.632v-9.27h6.94v9.27zM40.938 36.638v-9.27h6.94v9.27z"/></svg>