<svg xmlns="http://www.w3.org/2000/svg" enable-background="new 0 0 64 64" viewBox="0 0 64 64"><path fill="#4e5292" d="M43.88 3.44H23.4c-.81 0-1.46.66-1.46 1.47 0 .82.65 1.47 1.46 1.47h20.48c.81 0 1.47-.65 1.47-1.47C45.35 4.1 44.69 3.44 43.88 3.44zM43.88 5.39H23.4c-.27 0-.47-.22-.47-.48s.21-.48.47-.48h20.48c.27 0 .48.22.48.48S44.15 5.39 43.88 5.39zM16.86 3.34C16 3.34 15.3 4.05 15.3 4.9c0 .87.7 1.57 1.57 1.57.86 0 1.57-.7 1.57-1.57C18.43 4.05 17.72 3.34 16.86 3.34zM16.86 5.48c-.32 0-.58-.26-.58-.58 0-.32.26-.58.58-.58.32 0 .58.27.58.58C17.44 5.23 17.18 5.48 16.86 5.48zM11.19 3.34c-.86 0-1.57.71-1.57 1.57 0 .87.71 1.57 1.57 1.57.87 0 1.57-.7 1.57-1.57C12.76 4.05 12.06 3.34 11.19 3.34zM11.19 5.48c-.32 0-.58-.26-.58-.58 0-.32.27-.58.58-.58.32 0 .58.27.58.58C11.77 5.23 11.52 5.48 11.19 5.48zM5.53 3.34c-.87 0-1.57.71-1.57 1.57 0 .87.7 1.57 1.57 1.57.87 0 1.57-.7 1.57-1.57C7.09 4.05 6.4 3.34 5.53 3.34zM5.53 5.48c-.32 0-.58-.26-.58-.58 0-.32.26-.58.58-.58.32 0 .58.27.58.58C6.11 5.23 5.85 5.48 5.53 5.48zM7.48 15.86v3.43c0 .28-.22.49-.49.49-.27 0-.49-.22-.49-.49v-3.43c0-.28.23-.49.49-.49C7.26 15.37 7.48 15.59 7.48 15.86zM10.55 16.16c-.99 0-1.81.81-1.81 1.81 0 .99.82 1.81 1.81 1.81 1 0 1.82-.82 1.82-1.81C12.37 16.97 11.55 16.16 10.55 16.16zM10.55 18.8c-.45 0-.83-.37-.83-.83 0-.46.37-.83.83-.83.46 0 .84.36.84.83C11.39 18.42 11.01 18.8 10.55 18.8zM14.81 15.86v3.43c0 .28-.22.49-.49.49-.27 0-.49-.22-.49-.49v-3.43c0-.28.23-.49.49-.49C14.6 15.37 14.81 15.59 14.81 15.86zM17.89 16.16c-.99 0-1.81.81-1.81 1.81 0 .99.82 1.81 1.81 1.81 1 0 1.82-.82 1.82-1.81C19.71 16.97 18.89 16.16 17.89 16.16zM17.89 18.8c-.45 0-.83-.37-.83-.83 0-.46.37-.83.83-.83.46 0 .84.36.84.83C18.72 18.42 18.35 18.8 17.89 18.8zM22.15 15.86v3.43c0 .28-.22.49-.49.49-.27 0-.49-.22-.49-.49v-3.43c0-.28.23-.49.49-.49C21.93 15.37 22.15 15.59 22.15 15.86zM25.22 16.16c-.99 0-1.81.81-1.81 1.81 0 .99.82 1.81 1.81 1.81 1 0 1.81-.82 1.81-1.81C27.03 16.97 26.23 16.16 25.22 16.16zM25.22 18.8c-.45 0-.83-.37-.83-.83 0-.46.37-.83.83-.83.46 0 .83.36.83.83C26.05 18.42 25.68 18.8 25.22 18.8zM29.48 15.86v3.43c0 .28-.22.49-.49.49-.28 0-.49-.22-.49-.49v-3.43c0-.28.22-.49.49-.49C29.27 15.37 29.48 15.59 29.48 15.86zM32.56 16.16c-1 0-1.81.8-1.81 1.81 0 .99.81 1.81 1.81 1.81 1 0 1.81-.82 1.81-1.81C34.37 16.96 33.56 16.16 32.56 16.16zM32.56 18.79c-.45 0-.83-.37-.83-.82 0-.47.38-.83.83-.83.46 0 .83.36.83.83C33.39 18.42 33.02 18.79 32.56 18.79z"/><path fill="#d8dfe6" d="M33.39,17.97c0,0.45-0.37,0.82-0.83,0.82c-0.45,0-0.83-0.37-0.83-0.82c0-0.47,0.38-0.83,0.83-0.83
		C33.02,17.14,33.39,17.5,33.39,17.97z"/><path fill="#4e5292" d="M36.82 15.86v3.43c0 .28-.22.49-.49.49-.28 0-.49-.22-.49-.49v-3.43c0-.28.22-.49.49-.49C36.6 15.37 36.82 15.59 36.82 15.86zM7.48 22.27v3.44c0 .27-.22.49-.49.49-.27 0-.49-.23-.49-.49v-3.44c0-.27.23-.49.49-.49C7.26 21.78 7.48 22.01 7.48 22.27zM10.55 22.57c-.99 0-1.81.82-1.81 1.81 0 1 .82 1.82 1.81 1.82 1 0 1.82-.82 1.82-1.82C12.37 23.38 11.55 22.57 10.55 22.57zM10.55 25.22c-.45 0-.83-.37-.83-.84 0-.45.37-.83.83-.83.46 0 .84.37.84.83C11.39 24.84 11.01 25.22 10.55 25.22zM14.81 22.27v3.44c0 .27-.22.49-.49.49-.27 0-.49-.23-.49-.49v-3.44c0-.27.23-.49.49-.49C14.6 21.78 14.81 22.01 14.81 22.27zM25.22 22.57c-.99 0-1.81.82-1.81 1.81 0 1 .82 1.82 1.81 1.82 1 0 1.81-.82 1.81-1.82C27.03 23.38 26.23 22.57 25.22 22.57zM25.22 25.22c-.45 0-.83-.37-.83-.84 0-.45.37-.83.83-.83.46 0 .83.37.83.83C26.05 24.84 25.68 25.22 25.22 25.22zM29.48 22.27v3.44c0 .27-.22.49-.49.49-.28 0-.49-.23-.49-.49v-3.44c0-.27.22-.49.49-.49C29.27 21.78 29.48 22.01 29.48 22.27zM32.56 22.57c-.99 0-1.81.82-1.81 1.81 0 1 .82 1.82 1.81 1.82 1 0 1.81-.82 1.81-1.82C34.37 23.38 33.56 22.57 32.56 22.57zM32.56 25.22c-.45 0-.83-.37-.83-.84 0-.45.37-.83.83-.83.46 0 .83.37.83.83C33.38 24.84 33.02 25.22 32.56 25.22zM36.82 22.27v3.44c0 .27-.22.49-.49.49-.28 0-.49-.23-.49-.49v-3.44c0-.27.22-.49.49-.49C36.6 21.78 36.82 22.01 36.82 22.27zM7.48 28.69v3.43c0 .28-.22.49-.49.49-.27 0-.49-.22-.49-.49v-3.43c0-.28.23-.49.49-.49C7.26 28.2 7.48 28.42 7.48 28.69zM10.55 28.99c-.99 0-1.81.81-1.81 1.81 0 .99.82 1.81 1.81 1.81 1 0 1.82-.82 1.82-1.81C12.37 29.79 11.55 28.99 10.55 28.99zM10.55 31.63c-.45 0-.83-.37-.83-.83 0-.46.37-.83.83-.83.46 0 .84.36.84.83C11.39 31.25 11.01 31.63 10.55 31.63zM14.81 28.69v3.43c0 .28-.22.49-.49.49-.27 0-.49-.22-.49-.49v-3.43c0-.28.23-.49.49-.49C14.6 28.2 14.81 28.42 14.81 28.69zM17.89 28.99c-.99 0-1.81.81-1.81 1.81 0 .99.82 1.81 1.81 1.81 1 0 1.82-.82 1.82-1.81C19.71 29.79 18.89 28.99 17.89 28.99zM17.89 31.63c-.45 0-.83-.37-.83-.83 0-.46.37-.83.83-.83.46 0 .84.36.84.83C18.72 31.25 18.35 31.63 17.89 31.63zM22.15 28.69v3.43c0 .28-.22.49-.49.49-.27 0-.49-.22-.49-.49v-3.43c0-.28.23-.49.49-.49C21.93 28.2 22.15 28.42 22.15 28.69zM25.22 28.99c-.99 0-1.81.81-1.81 1.81 0 .99.82 1.81 1.81 1.81 1 0 1.81-.82 1.81-1.81C27.03 29.79 26.23 28.99 25.22 28.99zM25.22 31.63c-.45 0-.83-.37-.83-.83 0-.46.37-.83.83-.83.46 0 .83.36.83.83C26.05 31.25 25.68 31.63 25.22 31.63zM29.48 28.69v3.43c0 .28-.22.49-.49.49-.28 0-.49-.22-.49-.49v-3.43c0-.28.22-.49.49-.49C29.27 28.2 29.48 28.42 29.48 28.69zM7.48 35.1v3.44c0 .27-.22.49-.49.49-.27 0-.49-.23-.49-.49V35.1c0-.27.23-.49.49-.49C7.26 34.61 7.48 34.84 7.48 35.1zM10.55 35.4c-.99 0-1.81.82-1.81 1.81 0 1 .82 1.82 1.81 1.82 1 0 1.82-.82 1.82-1.82C12.37 36.21 11.55 35.4 10.55 35.4zM10.55 38.05c-.45 0-.83-.37-.83-.84 0-.45.37-.83.83-.83.46 0 .84.37.84.83C11.39 37.67 11.01 38.05 10.55 38.05zM14.81 35.1v3.44c0 .27-.22.49-.49.49-.27 0-.49-.23-.49-.49V35.1c0-.27.23-.49.49-.49C14.6 34.61 14.81 34.84 14.81 35.1zM17.89 35.4c-.99 0-1.81.82-1.81 1.81 0 1 .82 1.82 1.81 1.82 1 0 1.82-.82 1.82-1.82C19.71 36.21 18.89 35.4 17.89 35.4zM17.89 38.05c-.45 0-.83-.37-.83-.84 0-.45.37-.83.83-.83.46 0 .84.37.84.83C18.72 37.67 18.35 38.05 17.89 38.05zM22.15 35.1v3.44c0 .27-.22.49-.49.49-.27 0-.49-.23-.49-.49V35.1c0-.27.23-.49.49-.49C21.93 34.61 22.15 34.84 22.15 35.1zM7.48 41.52v3.43c0 .28-.22.49-.49.49-.27 0-.49-.22-.49-.49v-3.43c0-.28.23-.49.49-.49C7.26 41.03 7.48 41.25 7.48 41.52zM10.55 41.81c-.99 0-1.81.82-1.81 1.82 0 .99.82 1.81 1.81 1.81 1 0 1.82-.82 1.82-1.81C12.37 42.62 11.55 41.81 10.55 41.81zM10.55 44.46c-.45 0-.83-.37-.83-.83 0-.46.37-.84.83-.84.46 0 .84.37.84.84C11.39 44.08 11.01 44.46 10.55 44.46zM14.81 41.52v3.43c0 .28-.22.49-.49.49-.27 0-.49-.22-.49-.49v-3.43c0-.28.23-.49.49-.49C14.6 41.03 14.81 41.25 14.81 41.52zM17.89 41.81c-.99 0-1.81.82-1.81 1.82 0 .99.82 1.81 1.81 1.81 1 0 1.82-.82 1.82-1.81C19.71 42.62 18.89 41.81 17.89 41.81zM17.89 44.46c-.45 0-.83-.37-.83-.83 0-.46.37-.84.83-.84.46 0 .84.37.84.84C18.72 44.08 18.35 44.46 17.89 44.46zM22.15 41.52v3.43c0 .28-.22.49-.49.49-.27 0-.49-.22-.49-.49v-3.43c0-.28.23-.49.49-.49C21.93 41.03 22.15 41.25 22.15 41.52zM25.22 41.81c-.99 0-1.81.82-1.81 1.82 0 .99.82 1.81 1.81 1.81 1 0 1.81-.82 1.81-1.81C27.03 42.62 26.23 41.81 25.22 41.81zM25.22 44.46c-.45 0-.83-.37-.83-.83 0-.46.37-.84.83-.84.46 0 .83.37.83.84C26.05 44.08 25.68 44.46 25.22 44.46zM7.48 47.93v3.43c0 .28-.22.49-.49.49-.27 0-.49-.22-.49-.49v-3.43c0-.27.23-.49.49-.49C7.26 47.44 7.48 47.67 7.48 47.93zM10.55 48.23c-.99 0-1.81.82-1.81 1.81 0 1 .82 1.81 1.81 1.81 1 0 1.82-.81 1.82-1.81C12.37 49.04 11.55 48.23 10.55 48.23zM10.55 50.87c-.45 0-.83-.36-.83-.83 0-.45.37-.83.83-.83.46 0 .84.37.84.83C11.39 50.5 11.01 50.87 10.55 50.87zM14.81 47.93v3.43c0 .28-.22.49-.49.49-.27 0-.49-.22-.49-.49v-3.43c0-.27.23-.49.49-.49C14.6 47.44 14.81 47.67 14.81 47.93z"/><path fill="#4e5292" d="M63.22,44.26H61c-0.35-1.53-0.96-2.98-1.8-4.32l1.58-1.57c0.09-0.09,0.14-0.22,0.14-0.34
		c0-0.13-0.05-0.26-0.14-0.34l-3.82-3.82c-0.19-0.19-0.51-0.19-0.7,0l-1.58,1.57c-1.34-0.84-2.79-1.44-4.32-1.79v-2.22
		c0-0.27-0.22-0.49-0.49-0.49h-0.85V9.33c0,0,0,0,0-0.01c0,0,0,0,0-0.01V2.43c0-1.34-1.1-2.43-2.45-2.43H2.73
		C1.39,0,0.3,1.09,0.3,2.43v6.85c0,0.02-0.01,0.03-0.01,0.04c0,0.02,0.01,0.03,0.01,0.04v48.76c0,1.35,1.09,2.44,2.43,2.44h34.16
		l0.51,0.5c0.19,0.19,0.51,0.19,0.7,0l1.57-1.57c1.34,0.84,2.8,1.44,4.32,1.79v2.22c0,0.27,0.23,0.49,0.49,0.49h5.41
		c0.28,0,0.49-0.23,0.49-0.49v-2.23c1.54-0.34,2.98-0.96,4.32-1.79l1.57,1.57c0.19,0.19,0.51,0.19,0.7,0l3.82-3.82
		c0.19-0.19,0.19-0.5,0-0.69l-1.58-1.58c0.84-1.34,1.44-2.79,1.79-4.32h2.22c0.28,0,0.49-0.22,0.49-0.49v-5.41
		C63.71,44.48,63.49,44.26,63.22,44.26z M1.28,2.43c0-0.8,0.65-1.45,1.45-1.45h43.84c0.81,0,1.47,0.65,1.47,1.45v6.4H1.28V2.43z
		 M2.73,59.58c-0.81,0-1.45-0.64-1.45-1.46V9.82h46.75v21.11h-1.78V12.25c0-0.28-0.22-0.49-0.49-0.49H3.54
		c-0.27,0-0.49,0.22-0.49,0.49v44.92c0,0.27,0.23,0.49,0.49,0.49h30.44l1.92,1.92H2.73z M33.57,38.38l1.57,1.58
		c-0.84,1.34-1.44,2.79-1.78,4.32h-2.22c-0.28,0-0.49,0.22-0.49,0.49v5.41c0,0.27,0.22,0.49,0.49,0.49h2.22
		c0.35,1.53,0.96,2.98,1.79,4.32l-1.57,1.57c-0.03,0.03-0.06,0.08-0.08,0.12H4.03V12.74h41.24v18.19h-0.8
		c-0.28,0-0.49,0.23-0.49,0.49v2.23c-1.54,0.35-2.99,0.96-4.32,1.79l-1.57-1.57c-0.1-0.1-0.23-0.15-0.35-0.15
		c-0.13,0-0.26,0.05-0.34,0.15l-3.82,3.82c-0.1,0.09-0.15,0.22-0.15,0.34C33.42,38.16,33.47,38.29,33.57,38.38z M62.72,49.66h-2.12
		c-0.24,0-0.44,0.17-0.48,0.39c-0.33,1.68-0.99,3.27-1.95,4.71c-0.13,0.2-0.11,0.45,0.06,0.62l1.51,1.51l-3.13,3.12l-1.5-1.5
		c-0.17-0.17-0.42-0.2-0.62-0.06c-1.44,0.96-3.02,1.61-4.71,1.95c-0.23,0.05-0.39,0.25-0.39,0.48v2.13h-4.42v-2.13
		c0-0.23-0.16-0.43-0.39-0.48c-1.68-0.33-3.27-0.98-4.71-1.95c-0.2-0.13-0.45-0.1-0.62,0.07l-1.51,1.5l-3.12-3.12l1.51-1.5
		c0.16-0.17,0.19-0.42,0.06-0.62c-0.97-1.44-1.61-3.02-1.96-4.71c-0.04-0.24-0.25-0.39-0.48-0.39h-2.12v-4.42h2.12
		c0.24,0,0.43-0.17,0.48-0.39c0.33-1.69,0.99-3.27,1.95-4.71c0.13-0.2,0.1-0.45-0.06-0.62l-1.51-1.51l3.12-3.12l1.51,1.5
		c0.16,0.17,0.42,0.2,0.62,0.07c1.43-0.96,3.01-1.62,4.71-1.96c0.23-0.05,0.39-0.25,0.39-0.48v-2.13h4.41v2.13
		c0,0.23,0.17,0.43,0.39,0.48c1.69,0.33,3.28,0.98,4.72,1.95c0.2,0.13,0.45,0.1,0.62-0.07l1.5-1.5l3.12,3.12l-1.5,1.5
		c-0.17,0.17-0.19,0.42-0.06,0.62c0.96,1.44,1.61,3.02,1.95,4.71c0.05,0.24,0.26,0.39,0.48,0.39h2.13V49.66z"/><path fill="#ffdb7c" d="M60.6,45.24c-0.23,0-0.43-0.16-0.48-0.39c-0.33-1.68-0.99-3.27-1.95-4.71c-0.13-0.2-0.11-0.45,0.06-0.62
		l1.5-1.5L56.6,34.9l-1.5,1.5c-0.17,0.17-0.42,0.2-0.62,0.07c-1.44-0.96-3.02-1.61-4.72-1.95c-0.23-0.05-0.39-0.26-0.39-0.48v-2.13
		h-4.41v2.13c0,0.24-0.17,0.43-0.39,0.48c-1.69,0.33-3.28,0.99-4.71,1.96c-0.2,0.13-0.46,0.1-0.62-0.07l-1.51-1.5l-3.12,3.12
		l1.51,1.51c0.16,0.17,0.19,0.42,0.06,0.62c-0.96,1.44-1.61,3.01-1.95,4.71c-0.05,0.23-0.25,0.39-0.48,0.39h-2.12v4.42h2.12
		c0.24,0,0.44,0.16,0.48,0.39c0.34,1.68,0.99,3.27,1.96,4.71c0.13,0.2,0.1,0.45-0.06,0.62l-1.51,1.5l3.12,3.12l1.51-1.5
		c0.17-0.17,0.42-0.2,0.62-0.07c1.44,0.96,3.02,1.61,4.71,1.95c0.24,0.05,0.39,0.26,0.39,0.48v2.13h4.42v-2.13
		c0-0.24,0.17-0.43,0.39-0.48c1.68-0.33,3.27-0.99,4.71-1.95c0.2-0.14,0.45-0.11,0.62,0.06l1.5,1.5l3.13-3.12l-1.51-1.51
		c-0.17-0.17-0.19-0.42-0.06-0.62c0.96-1.44,1.61-3.02,1.95-4.71c0.04-0.23,0.25-0.39,0.48-0.39h2.12v-4.42H60.6z M54.31,54.2
		c-0.01,0.02-0.02,0.04-0.03,0.06c-0.02,0.01-0.03,0.02-0.05,0.03c-1.78,1.85-4.28,3-7.05,3s-5.27-1.15-7.05-2.99
		c-0.02-0.02-0.04-0.02-0.05-0.04c-0.02-0.02-0.03-0.04-0.04-0.07c-1.66-1.75-2.69-4.13-2.69-6.72c0-5.41,4.38-9.81,9.78-9.83
		c0.02,0,0.03-0.01,0.05-0.01c0.01,0,0.02,0.01,0.04,0.01c5.4,0.02,9.79,4.42,9.79,9.83C57,50.08,55.97,52.45,54.31,54.2z"/><path fill="#f0ca6c" d="M60.6,45.24c-0.23,0-0.43-0.16-0.48-0.39c-0.33-1.68-0.99-3.27-1.95-4.71c-0.13-0.2-0.11-0.45,0.06-0.62
		l1.5-1.5L56.6,34.9l-1.5,1.5c-0.17,0.17-0.42,0.2-0.62,0.07c-1.44-0.96-3.02-1.61-4.72-1.95c-0.23-0.05-0.39-0.26-0.39-0.48v-2.13
		h-4.41v2.13c0,0.24-0.17,0.43-0.39,0.48c-1.69,0.33-3.28,0.99-4.71,1.96c-0.2,0.13-0.46,0.1-0.62-0.07l-1.51-1.5l-3.12,3.12
		l1.51,1.51c0.16,0.17,0.19,0.42,0.06,0.62c-0.96,1.44-1.61,3.01-1.95,4.71c-0.05,0.23-0.25,0.39-0.48,0.39h-2.12v4.42h2.12
		c0.24,0,0.44,0.16,0.48,0.39c0.34,1.68,0.99,3.27,1.96,4.71c0.13,0.2,0.1,0.45-0.06,0.62l-1.51,1.5l3.12,3.12l1.51-1.5
		c0.17-0.17,0.42-0.2,0.62-0.07c1.44,0.96,3.02,1.61,4.71,1.95c0.24,0.05,0.39,0.26,0.39,0.48v2.13h4.42v-2.13
		c0-0.24,0.17-0.43,0.39-0.48c1.68-0.33,3.27-0.99,4.71-1.95c0.2-0.14,0.45-0.11,0.62,0.06l1.5,1.5l3.13-3.12l-1.51-1.51
		c-0.17-0.17-0.19-0.42-0.06-0.62c0.96-1.44,1.61-3.02,1.95-4.71c0.04-0.23,0.25-0.39,0.48-0.39h2.12v-4.42H60.6z M61.29,49.46
		h-1.93c-0.21,0-0.39,0.16-0.43,0.36c-0.31,1.53-0.91,2.96-1.77,4.26c-0.11,0.18-0.1,0.41,0.06,0.56l1.37,1.37l-2.85,2.84
		l-1.36-1.36c-0.15-0.16-0.38-0.18-0.56-0.06c-1.3,0.87-2.74,1.47-4.27,1.77c-0.2,0.05-0.35,0.23-0.35,0.44v1.92h-4.01v-1.92
		c0-0.21-0.15-0.39-0.36-0.44c-1.53-0.31-2.96-0.9-4.26-1.77c-0.18-0.11-0.41-0.09-0.56,0.07l-1.37,1.36l-2.84-2.84l1.37-1.36
		c0.15-0.15,0.17-0.38,0.06-0.56c-0.88-1.3-1.47-2.74-1.78-4.27c-0.04-0.21-0.23-0.35-0.43-0.35h-1.92v-4.01H35
		c0.21,0,0.38-0.16,0.43-0.36c0.31-1.54,0.91-2.96,1.77-4.26c0.11-0.18,0.09-0.41-0.06-0.56l-1.37-1.37l2.84-2.84l1.37,1.36
		c0.14,0.16,0.38,0.18,0.56,0.07c1.29-0.88,2.74-1.48,4.27-1.78c0.2-0.05,0.35-0.23,0.35-0.43v-1.93h4v1.93
		c0,0.2,0.16,0.38,0.36,0.43c1.54,0.31,2.97,0.9,4.27,1.77c0.18,0.11,0.41,0.09,0.56-0.07l1.36-1.36l2.84,2.84l-1.36,1.36
		c-0.16,0.15-0.17,0.38-0.06,0.56c0.87,1.3,1.47,2.75,1.77,4.27c0.05,0.21,0.24,0.35,0.44,0.35h1.93V49.46z"/><path fill="#d8dfe6" d="M4.03,12.74v43.93H33.5c0.02-0.04,0.05-0.09,0.08-0.12l1.57-1.57c-0.84-1.34-1.44-2.8-1.79-4.32h-2.22
		c-0.28,0-0.49-0.23-0.49-0.49v-5.41c0-0.28,0.22-0.49,0.49-0.49h2.22c0.34-1.54,0.95-2.98,1.78-4.32l-1.57-1.58
		c-0.1-0.09-0.15-0.22-0.15-0.34c0-0.13,0.05-0.26,0.15-0.34l3.82-3.82c0.09-0.1,0.22-0.15,0.34-0.15c0.13,0,0.26,0.05,0.35,0.15
		l1.57,1.57c1.33-0.84,2.79-1.44,4.32-1.79v-2.23c0-0.27,0.22-0.49,0.49-0.49h0.8V12.74H4.03z M7.48,51.36
		c0,0.28-0.22,0.49-0.49,0.49c-0.27,0-0.49-0.22-0.49-0.49v-3.43c0-0.27,0.23-0.49,0.49-0.49c0.28,0,0.49,0.23,0.49,0.49V51.36z
		 M7.48,44.95c0,0.28-0.22,0.49-0.49,0.49c-0.27,0-0.49-0.22-0.49-0.49v-3.43c0-0.28,0.23-0.49,0.49-0.49
		c0.28,0,0.49,0.22,0.49,0.49V44.95z M7.48,38.54c0,0.27-0.22,0.49-0.49,0.49c-0.27,0-0.49-0.23-0.49-0.49V35.1
		c0-0.27,0.23-0.49,0.49-0.49c0.28,0,0.49,0.23,0.49,0.49V38.54z M7.48,32.12c0,0.28-0.22,0.49-0.49,0.49
		c-0.27,0-0.49-0.22-0.49-0.49v-3.43c0-0.28,0.23-0.49,0.49-0.49c0.28,0,0.49,0.22,0.49,0.49V32.12z M7.48,25.71
		c0,0.27-0.22,0.49-0.49,0.49c-0.27,0-0.49-0.23-0.49-0.49v-3.44c0-0.27,0.23-0.49,0.49-0.49c0.28,0,0.49,0.23,0.49,0.49V25.71z
		 M7.48,19.29c0,0.28-0.22,0.49-0.49,0.49c-0.27,0-0.49-0.22-0.49-0.49v-3.43c0-0.28,0.23-0.49,0.49-0.49
		c0.28,0,0.49,0.22,0.49,0.49V19.29z M10.55,51.85c-0.99,0-1.81-0.81-1.81-1.81c0-0.99,0.82-1.81,1.81-1.81c1,0,1.82,0.82,1.82,1.81
		C12.37,51.04,11.55,51.85,10.55,51.85z M10.55,45.44c-0.99,0-1.81-0.82-1.81-1.81c0-1,0.82-1.82,1.81-1.82c1,0,1.82,0.82,1.82,1.82
		C12.37,44.62,11.55,45.44,10.55,45.44z M10.55,39.03c-0.99,0-1.81-0.82-1.81-1.82c0-0.99,0.82-1.81,1.81-1.81
		c1,0,1.82,0.82,1.82,1.81C12.37,38.21,11.55,39.03,10.55,39.03z M10.55,32.61c-0.99,0-1.81-0.82-1.81-1.81c0-1,0.82-1.81,1.81-1.81
		c1,0,1.82,0.81,1.82,1.81C12.37,31.79,11.55,32.61,10.55,32.61z M10.55,26.2c-0.99,0-1.81-0.82-1.81-1.82
		c0-0.99,0.82-1.81,1.81-1.81c1,0,1.82,0.82,1.82,1.81C12.37,25.38,11.55,26.2,10.55,26.2z M10.55,19.78
		c-0.99,0-1.81-0.82-1.81-1.81c0-1,0.82-1.81,1.81-1.81c1,0,1.82,0.81,1.82,1.81C12.37,18.96,11.55,19.78,10.55,19.78z M14.81,51.36
		c0,0.28-0.22,0.49-0.49,0.49c-0.27,0-0.49-0.22-0.49-0.49v-3.43c0-0.27,0.23-0.49,0.49-0.49c0.28,0,0.49,0.23,0.49,0.49V51.36z
		 M14.81,44.95c0,0.28-0.22,0.49-0.49,0.49c-0.27,0-0.49-0.22-0.49-0.49v-3.43c0-0.28,0.23-0.49,0.49-0.49
		c0.28,0,0.49,0.22,0.49,0.49V44.95z M14.81,38.54c0,0.27-0.22,0.49-0.49,0.49c-0.27,0-0.49-0.23-0.49-0.49V35.1
		c0-0.27,0.23-0.49,0.49-0.49c0.28,0,0.49,0.23,0.49,0.49V38.54z M14.81,32.12c0,0.28-0.22,0.49-0.49,0.49
		c-0.27,0-0.49-0.22-0.49-0.49v-3.43c0-0.28,0.23-0.49,0.49-0.49c0.28,0,0.49,0.22,0.49,0.49V32.12z M14.81,25.71
		c0,0.27-0.22,0.49-0.49,0.49c-0.27,0-0.49-0.23-0.49-0.49v-3.44c0-0.27,0.23-0.49,0.49-0.49c0.28,0,0.49,0.23,0.49,0.49V25.71z
		 M14.81,19.29c0,0.28-0.22,0.49-0.49,0.49c-0.27,0-0.49-0.22-0.49-0.49v-3.43c0-0.28,0.23-0.49,0.49-0.49
		c0.28,0,0.49,0.22,0.49,0.49V19.29z M17.89,45.44c-0.99,0-1.81-0.82-1.81-1.81c0-1,0.82-1.82,1.81-1.82c1,0,1.82,0.82,1.82,1.82
		C19.71,44.62,18.89,45.44,17.89,45.44z M17.89,39.03c-0.99,0-1.81-0.82-1.81-1.82c0-0.99,0.82-1.81,1.81-1.81
		c1,0,1.82,0.82,1.82,1.81C19.71,38.21,18.89,39.03,17.89,39.03z M17.89,32.61c-0.99,0-1.81-0.82-1.81-1.81c0-1,0.82-1.81,1.81-1.81
		c1,0,1.82,0.81,1.82,1.81C19.71,31.79,18.89,32.61,17.89,32.61z M17.89,19.78c-0.99,0-1.81-0.82-1.81-1.81c0-1,0.82-1.81,1.81-1.81
		c1,0,1.82,0.81,1.82,1.81C19.71,18.96,18.89,19.78,17.89,19.78z M22.15,44.95c0,0.28-0.22,0.49-0.49,0.49
		c-0.27,0-0.49-0.22-0.49-0.49v-3.43c0-0.28,0.23-0.49,0.49-0.49c0.28,0,0.49,0.22,0.49,0.49V44.95z M22.15,38.54
		c0,0.27-0.22,0.49-0.49,0.49c-0.27,0-0.49-0.23-0.49-0.49V35.1c0-0.27,0.23-0.49,0.49-0.49c0.28,0,0.49,0.23,0.49,0.49V38.54z
		 M22.15,32.12c0,0.28-0.22,0.49-0.49,0.49c-0.27,0-0.49-0.22-0.49-0.49v-3.43c0-0.28,0.23-0.49,0.49-0.49
		c0.28,0,0.49,0.22,0.49,0.49V32.12z M22.15,19.29c0,0.28-0.22,0.49-0.49,0.49c-0.27,0-0.49-0.22-0.49-0.49v-3.43
		c0-0.28,0.23-0.49,0.49-0.49c0.28,0,0.49,0.22,0.49,0.49V19.29z M25.22,45.44c-0.99,0-1.81-0.82-1.81-1.81c0-1,0.82-1.82,1.81-1.82
		c1,0,1.81,0.82,1.81,1.82C27.03,44.62,26.23,45.44,25.22,45.44z M25.22,32.61c-0.99,0-1.81-0.82-1.81-1.81c0-1,0.82-1.81,1.81-1.81
		c1,0,1.81,0.81,1.81,1.81C27.03,31.79,26.23,32.61,25.22,32.61z M25.22,26.2c-0.99,0-1.81-0.82-1.81-1.82
		c0-0.99,0.82-1.81,1.81-1.81c1,0,1.81,0.82,1.81,1.81C27.03,25.38,26.23,26.2,25.22,26.2z M25.22,19.78
		c-0.99,0-1.81-0.82-1.81-1.81c0-1,0.82-1.81,1.81-1.81c1,0,1.81,0.81,1.81,1.81C27.03,18.96,26.23,19.78,25.22,19.78z M29.48,32.12
		c0,0.28-0.22,0.49-0.49,0.49c-0.28,0-0.49-0.22-0.49-0.49v-3.43c0-0.28,0.22-0.49,0.49-0.49c0.28,0,0.49,0.22,0.49,0.49V32.12z
		 M29.48,25.71c0,0.27-0.22,0.49-0.49,0.49c-0.28,0-0.49-0.23-0.49-0.49v-3.44c0-0.27,0.22-0.49,0.49-0.49
		c0.28,0,0.49,0.23,0.49,0.49V25.71z M29.48,19.29c0,0.28-0.22,0.49-0.49,0.49c-0.28,0-0.49-0.22-0.49-0.49v-3.43
		c0-0.28,0.22-0.49,0.49-0.49c0.28,0,0.49,0.22,0.49,0.49V19.29z M32.56,26.2c-0.99,0-1.81-0.82-1.81-1.82
		c0-0.99,0.82-1.81,1.81-1.81c1,0,1.81,0.82,1.81,1.81C34.37,25.38,33.56,26.2,32.56,26.2z M32.56,19.78
		c-0.99,0-1.81-0.82-1.81-1.81c0-1,0.82-1.81,1.81-1.81c1,0,1.81,0.81,1.81,1.81C34.37,18.96,33.56,19.78,32.56,19.78z M36.82,25.71
		c0,0.27-0.22,0.49-0.49,0.49c-0.28,0-0.49-0.23-0.49-0.49v-3.44c0-0.27,0.22-0.49,0.49-0.49c0.28,0,0.49,0.23,0.49,0.49V25.71z
		 M36.82,19.29c0,0.28-0.22,0.49-0.49,0.49c-0.28,0-0.49-0.22-0.49-0.49v-3.43c0-0.28,0.22-0.49,0.49-0.49
		c0.28,0,0.49,0.22,0.49,0.49V19.29z"/><path fill="#ccd5dd" d="M33.35,50.67h-2.22c-0.28,0-0.49-0.23-0.49-0.49v-1.89H14.81v3.07c0,0.28-0.22,0.49-0.49,0.49
		c-0.27,0-0.49-0.22-0.49-0.49v-3.24c-0.83-0.34-1.4-1.15-1.4-2.1V12.74H6.12v39.59c0,1.24,1.01,2.25,2.25,2.25h26.54
		C34.19,53.37,33.67,52.05,33.35,50.67z M7.48,51.36c0,0.28-0.22,0.49-0.49,0.49c-0.27,0-0.49-0.22-0.49-0.49v-3.43
		c0-0.27,0.23-0.49,0.49-0.49c0.28,0,0.49,0.23,0.49,0.49V51.36z M7.48,44.95c0,0.28-0.22,0.49-0.49,0.49
		c-0.27,0-0.49-0.22-0.49-0.49v-3.43c0-0.28,0.23-0.49,0.49-0.49c0.28,0,0.49,0.22,0.49,0.49V44.95z M7.48,38.54
		c0,0.27-0.22,0.49-0.49,0.49c-0.27,0-0.49-0.23-0.49-0.49V35.1c0-0.27,0.23-0.49,0.49-0.49c0.28,0,0.49,0.23,0.49,0.49V38.54z
		 M7.48,32.12c0,0.28-0.22,0.49-0.49,0.49c-0.27,0-0.49-0.22-0.49-0.49v-3.43c0-0.28,0.23-0.49,0.49-0.49
		c0.28,0,0.49,0.22,0.49,0.49V32.12z M7.48,25.71c0,0.27-0.22,0.49-0.49,0.49c-0.27,0-0.49-0.23-0.49-0.49v-3.44
		c0-0.27,0.23-0.49,0.49-0.49c0.28,0,0.49,0.23,0.49,0.49V25.71z M7.48,19.29c0,0.28-0.22,0.49-0.49,0.49
		c-0.27,0-0.49-0.22-0.49-0.49v-3.43c0-0.28,0.23-0.49,0.49-0.49c0.28,0,0.49,0.22,0.49,0.49V19.29z M10.55,51.85
		c-0.99,0-1.81-0.81-1.81-1.81c0-0.13,0.01-0.25,0.04-0.36v-0.01c0.1-0.47,0.39-0.89,0.79-1.14c0.29-0.19,0.62-0.3,0.98-0.3
		c0.11,0,0.21,0.01,0.31,0.03c0.76,0.13,1.36,0.73,1.49,1.48c0.02,0.1,0.03,0.2,0.03,0.31C12.37,51.04,11.55,51.85,10.55,51.85z
		 M10.55,45.44c-0.99,0-1.81-0.82-1.81-1.81c0-0.13,0.01-0.25,0.04-0.36v-0.01c0.1-0.48,0.39-0.9,0.79-1.15
		c0.29-0.19,0.62-0.3,0.98-0.3c0.11,0,0.21,0.01,0.31,0.03c0.76,0.13,1.36,0.73,1.49,1.49c0.02,0.1,0.03,0.2,0.03,0.31
		C12.37,44.62,11.55,45.44,10.55,45.44z M10.55,39.03c-0.99,0-1.81-0.82-1.81-1.82c0-0.13,0.01-0.25,0.04-0.36v-0.01
		c0.1-0.47,0.39-0.89,0.79-1.14c0.29-0.19,0.62-0.3,0.98-0.3c0.11,0,0.21,0.01,0.31,0.03c0.77,0.13,1.37,0.73,1.49,1.49
		c0.02,0.1,0.03,0.2,0.03,0.3C12.37,38.21,11.55,39.03,10.55,39.03z M10.55,32.61c-0.99,0-1.81-0.82-1.81-1.81
		c0-0.13,0.01-0.25,0.04-0.36v-0.01c0.1-0.48,0.39-0.89,0.79-1.15c0.29-0.18,0.62-0.29,0.98-0.29c0.11,0,0.21,0.01,0.31,0.03
		c0.76,0.13,1.36,0.72,1.49,1.48c0.02,0.1,0.03,0.2,0.03,0.31C12.37,31.79,11.55,32.61,10.55,32.61z M10.55,26.2
		c-0.99,0-1.81-0.82-1.81-1.82c0-0.13,0.01-0.25,0.04-0.36V24c0.1-0.47,0.39-0.89,0.79-1.14c0.29-0.19,0.62-0.3,0.98-0.3
		c0.11,0,0.21,0.01,0.31,0.03c0.77,0.13,1.37,0.73,1.49,1.49c0.02,0.1,0.03,0.2,0.03,0.3C12.37,25.38,11.55,26.2,10.55,26.2z
		 M10.55,19.78c-0.99,0-1.81-0.82-1.81-1.81c0-0.13,0.01-0.25,0.04-0.36v-0.01c0.1-0.48,0.39-0.89,0.79-1.15
		c0.29-0.18,0.62-0.29,0.98-0.29c0.11,0,0.21,0.01,0.31,0.03c0.76,0.13,1.36,0.72,1.49,1.48c0.02,0.1,0.03,0.2,0.03,0.31
		C12.37,18.96,11.55,19.78,10.55,19.78z"/><path fill="#b5c3cc" d="M35.15,54.99l-1.57,1.57c-0.03,0.03-0.06,0.08-0.08,0.12H4.03V12.74h2.09v39.59c0,1.24,1.01,2.25,2.25,2.25
		h26.54C34.98,54.72,35.07,54.86,35.15,54.99z"/><path fill="#d8dfe6" d="M33.38 24.38c0 .46-.36.84-.83.84-.45 0-.83-.37-.83-.84 0-.45.37-.83.83-.83C33.02 23.55 33.38 23.93 33.38 24.38zM26.05 43.63c0 .45-.36.83-.83.83-.45 0-.83-.37-.83-.83 0-.46.37-.84.83-.84C25.68 42.79 26.05 43.17 26.05 43.63zM26.05 30.8c0 .45-.36.83-.83.83-.45 0-.83-.37-.83-.83 0-.46.37-.83.83-.83C25.68 29.97 26.05 30.34 26.05 30.8zM18.72 37.21c0 .46-.37.84-.84.84-.45 0-.83-.37-.83-.84 0-.45.37-.83.83-.83C18.35 36.38 18.72 36.76 18.72 37.21zM18.72 43.63c0 .45-.37.83-.84.83-.45 0-.83-.37-.83-.83 0-.46.37-.84.83-.84C18.35 42.79 18.72 43.17 18.72 43.63zM11.39 50.04c0 .46-.37.83-.84.83-.45 0-.83-.36-.83-.83 0-.45.37-.83.83-.83C11.01 49.21 11.39 49.59 11.39 50.04zM11.39 43.63c0 .45-.37.83-.84.83-.45 0-.83-.37-.83-.83 0-.46.37-.84.83-.84C11.01 42.79 11.39 43.17 11.39 43.63zM11.39 37.21c0 .46-.37.84-.84.84-.45 0-.83-.37-.83-.84 0-.45.37-.83.83-.83C11.01 36.38 11.39 36.76 11.39 37.21zM18.72 30.8c0 .45-.37.83-.84.83-.45 0-.83-.37-.83-.83 0-.46.37-.83.83-.83C18.35 29.97 18.72 30.34 18.72 30.8zM11.39 30.8c0 .45-.37.83-.84.83-.45 0-.83-.37-.83-.83 0-.46.37-.83.83-.83C11.01 29.97 11.39 30.34 11.39 30.8zM11.39 24.38c0 .46-.37.84-.84.84-.45 0-.83-.37-.83-.84 0-.45.37-.83.83-.83C11.01 23.55 11.39 23.93 11.39 24.38zM11.39 17.97c0 .45-.37.83-.84.83-.45 0-.83-.37-.83-.83 0-.46.37-.83.83-.83C11.01 17.14 11.39 17.51 11.39 17.97zM18.72 17.97c0 .45-.37.83-.84.83-.45 0-.83-.37-.83-.83 0-.46.37-.83.83-.83C18.35 17.14 18.72 17.51 18.72 17.97zM26.05 17.97c0 .45-.36.83-.83.83-.45 0-.83-.37-.83-.83 0-.46.37-.83.83-.83C25.68 17.14 26.05 17.51 26.05 17.97zM26.05 24.38c0 .46-.36.84-.83.84-.45 0-.83-.37-.83-.84 0-.45.37-.83.83-.83C25.68 23.55 26.05 23.93 26.05 24.38z"/><path fill="#f1b8c7" d="M46.57,0.98H2.73c-0.8,0-1.45,0.65-1.45,1.45v6.4h46.75v-6.4C48.03,1.63,47.37,0.98,46.57,0.98z M5.53,6.47
		c-0.87,0-1.57-0.7-1.57-1.57c0-0.86,0.7-1.57,1.57-1.57c0.87,0,1.57,0.71,1.57,1.57C7.09,5.77,6.4,6.47,5.53,6.47z M11.19,6.47
		c-0.86,0-1.57-0.7-1.57-1.57c0-0.86,0.71-1.57,1.57-1.57c0.87,0,1.57,0.71,1.57,1.57C12.76,5.77,12.06,6.47,11.19,6.47z
		 M16.86,6.47c-0.87,0-1.57-0.7-1.57-1.57c0-0.86,0.7-1.57,1.57-1.57c0.86,0,1.57,0.71,1.57,1.57C18.43,5.77,17.72,6.47,16.86,6.47z
		 M43.88,6.37H23.4c-0.81,0-1.46-0.65-1.46-1.47c0-0.81,0.65-1.47,1.46-1.47h20.48c0.81,0,1.47,0.66,1.47,1.47
		C45.35,5.72,44.69,6.37,43.88,6.37z"/><path fill="#ec9aad" d="M45.22,5.48C45,6.01,44.48,6.37,43.88,6.37H23.4c-0.6,0-1.11-0.36-1.33-0.89h-3.76
		c-0.23,0.57-0.8,0.98-1.45,0.98c-0.66,0-1.22-0.4-1.46-0.98h-1.48c-0.47,0-0.89-0.21-1.17-0.54c0,0.18-0.03,0.33-0.1,0.49
		c-0.22,0.6-0.79,1.03-1.47,1.03c-0.86,0-1.57-0.7-1.57-1.57c0-0.73,0.51-1.34,1.18-1.52c0.13-0.03,0.26-0.05,0.38-0.05
		c0.47,0,0.9,0.22,1.18,0.55v-2.9H2.73c-0.1,0-0.19,0.01-0.29,0.03C2.39,1.15,2.37,1.3,2.37,1.45v5.1c0,0.72,0.58,1.3,1.3,1.3h44.37
		V5.48H45.22z M7,5.44c-0.22,0.6-0.79,1.03-1.47,1.03c-0.87,0-1.57-0.7-1.57-1.57c0-0.72,0.49-1.34,1.17-1.51
		c0.13-0.04,0.26-0.06,0.39-0.06c0.87,0,1.57,0.71,1.57,1.57C7.09,5.09,7.06,5.27,7,5.44z"/><path fill="#d88b9e" d="M48.03,7.85v0.98H1.28v-6.4c0-0.7,0.5-1.29,1.16-1.42C2.39,1.15,2.37,1.3,2.37,1.45v5.1
		c0,0.72,0.58,1.3,1.3,1.3H48.03z"/><path fill="#4ebce5" d="M6.11,4.9c0,0.33-0.26,0.58-0.58,0.58c-0.32,0-0.58-0.26-0.58-0.58c0-0.32,0.26-0.58,0.58-0.58
		C5.85,4.32,6.11,4.59,6.11,4.9z"/><path fill="#f27974" d="M11.77,4.9c0,0.33-0.26,0.58-0.58,0.58c-0.32,0-0.58-0.26-0.58-0.58c0-0.32,0.27-0.58,0.58-0.58
		C11.52,4.32,11.77,4.59,11.77,4.9z"/><circle cx="16.86" cy="4.9" r=".58" fill="#98d3ba"/><path fill="#cae5f7" d="M44.36,4.9c0,0.27-0.22,0.48-0.48,0.48H23.4c-0.27,0-0.47-0.22-0.47-0.48s0.21-0.48,0.47-0.48h20.48
		C44.15,4.42,44.36,4.64,44.36,4.9z"/><path fill="#bec5da" d="M48.03,9.82v21.11h-1.78V12.25c0-0.28-0.22-0.49-0.49-0.49H3.54c-0.27,0-0.49,0.22-0.49,0.49v44.92
		c0,0.27,0.23,0.49,0.49,0.49h30.44l1.92,1.92H2.73c-0.81,0-1.45-0.64-1.45-1.46V9.82H48.03z"/><path fill="#9da3b4" d="M35.9,59.58H2.73c-0.81,0-1.45-0.64-1.45-1.46V9.82h1.08v47.22c0,0.82,0.64,1.46,1.45,1.46h31.01L35.9,59.58z"/><path fill="#acb3c6" d="M34.82,58.5H3.82c-0.81,0-1.45-0.64-1.45-1.46V9.82h10v1.94H3.54c-0.27,0-0.49,0.22-0.49,0.49v44.92
		c0,0.27,0.23,0.49,0.49,0.49h30.44L34.82,58.5z"/><path fill="#4e5292" d="M47.22,37.64c-0.02,0-0.03-0.01-0.04-0.01c-0.02,0-0.03,0.01-0.05,0.01c-5.4,0.02-9.78,4.42-9.78,9.83
		c0,2.6,1.02,4.97,2.69,6.72c0.01,0.03,0.02,0.05,0.04,0.07c0.01,0.02,0.03,0.02,0.05,0.04c1.78,1.84,4.28,2.99,7.05,2.99
		s5.27-1.15,7.05-3c0.02-0.01,0.03-0.02,0.05-0.03c0.01-0.02,0.02-0.04,0.03-0.06c1.66-1.75,2.7-4.13,2.7-6.73
		C57,42.06,52.61,37.66,47.22,37.64z M38.34,47.47c0-4.71,3.7-8.57,8.35-8.82v8.61l-6.22,5.96C39.14,51.66,38.34,49.65,38.34,47.47z
		 M47.18,56.31c-2.33,0-4.45-0.92-6.03-2.39l6.03-5.78l6.03,5.78C51.62,55.39,49.5,56.31,47.18,56.31z M53.88,53.21l-6.21-5.96
		v-8.61c4.65,0.26,8.35,4.11,8.35,8.82C56.02,49.66,55.21,51.66,53.88,53.21z"/><path fill="#bbe0f6" d="M56.02 47.47c0 2.2-.81 4.19-2.14 5.74l-6.21-5.96v-8.61C52.32 38.9 56.02 42.75 56.02 47.47zM53.2 53.92c-1.59 1.48-3.7 2.39-6.03 2.39-2.33 0-4.45-.92-6.03-2.39l6.03-5.78L53.2 53.92zM46.69 38.65v8.61l-6.22 5.96c-1.32-1.55-2.13-3.55-2.13-5.74C38.34 42.76 42.04 38.9 46.69 38.65z"/></svg>