<svg xmlns="http://www.w3.org/2000/svg" width="512" height="512" viewBox="0 0 512 512"><polyline fill="#78b9eb" points="374.8 464 496 464 496 80 16 80 16 464 137.2 464"/><polygon fill="#006df0" points="464 48 464 80 48 80 48 16 160 16 176 48 464 48"/><path fill="#787680" d="M322.08,336H189.92a20,20,0,0,1-16.51-31.29l.49-.71,2.03-2.97c49.46-17.37,110.68-17.37,160.14,0L338.1,304l.49.71A20,20,0,0,1,322.08,336Z"/><path fill="#3e3d42" d="M336.07,301.03c-49.46-17.37-110.68-17.37-160.14,0l47.06-68.78a39.993,39.993,0,0,1,66.02,0Z"/><line x1="175.93" x2="173.9" y1="301.03" y2="304" fill="none"/><line x1="338.1" x2="336.07" y1="304" y2="301.03" fill="none"/><path fill="#3e3d42" d="M279.17,336H308a60,60,0,0,1,60,60l8,80a20,20,0,0,1-20,20H156a20,20,0,0,1-20-20l8-80a60,60,0,0,1,60-60h28.83"/><path fill="#787680" d="M328,464H184V380a12,12,0,0,1,12-12H316a12,12,0,0,1,12,12Z"/><path fill="#acabb1" d="M340,496H172a12,12,0,0,1-12-12V464H352v20A12,12,0,0,1,340,496Z"/><path fill="#ffbcab" d="M288,296.56V312a32,32,0,0,1-64,0V296.56"/><circle cx="256" cy="416" r="16" fill="#ffda44"/><g><path d="M256,392a24,24,0,1,0,24,24A24.028,24.028,0,0,0,256,392Zm0,32a8,8,0,1,1,8-8A8.009,8.009,0,0,1,256,424Z"/><path d="M496,72H472V48a8,8,0,0,0-8-8H180.94L167.16,12.42A8.011,8.011,0,0,0,160,8H48a8,8,0,0,0-8,8V72H16a8,8,0,0,0-8,8V464a8,8,0,0,0,8,8H128.36l-.32,3.2a7.143,7.143,0,0,0-.04.8,28.031,28.031,0,0,0,28,28H356a28.031,28.031,0,0,0,28-28,7.143,7.143,0,0,0-.04-.8l-.32-3.2H496a8,8,0,0,0,8-8V80A8,8,0,0,0,496,72ZM56,24h99.06l13.78,27.58A8.011,8.011,0,0,0,176,56H456V72H56ZM344,484a4,4,0,0,1-4,4H172a4,4,0,0,1-4-4V472H344ZM192,456V380a4,4,0,0,1,4-4H316a4,4,0,0,1,4,4v76Zm167.69,31.41A20.112,20.112,0,0,0,360,484V464a8,8,0,0,0-8-8H336V380a20.02,20.02,0,0,0-20-20H196a20.02,20.02,0,0,0-20,20v76H160a8,8,0,0,0-8,8v20a20.112,20.112,0,0,0,.31,3.41A12.011,12.011,0,0,1,144,476.35l1.16-11.51v-.04l6.8-68a7.143,7.143,0,0,0,.04-.8,52.063,52.063,0,0,1,52-52h28.03a39.91,39.91,0,0,0,47.94,0H308a52.063,52.063,0,0,1,52,52,7.143,7.143,0,0,0,.04.8l6.8,68v.04L368,476.35A12.011,12.011,0,0,1,359.69,487.41ZM193.59,289.38l36-52.61a31.988,31.988,0,0,1,52.82,0l36,52.61A213.565,213.565,0,0,0,193.59,289.38Zm139.44,22.05c.05.02.1.03.15.05A11.974,11.974,0,0,1,322.08,328H292.65A39.72,39.72,0,0,0,296,312V300.23A217.735,217.735,0,0,1,333.03,311.43ZM280,297.58V312a24,24,0,0,1-48,0V297.58A194.682,194.682,0,0,1,280,297.58Zm-64,2.65V312a39.72,39.72,0,0,0,3.35,16H189.92a11.974,11.974,0,0,1-11.1-16.52c.05-.02.1-.03.15-.05A217.735,217.735,0,0,1,216,300.23ZM488,456H382.04L376,395.59a68.023,68.023,0,0,0-34.95-58.98,28.035,28.035,0,0,0,4.14-36.42l-49.58-72.46a47.985,47.985,0,0,0-79.22,0l-49.58,72.46a28.035,28.035,0,0,0,4.14,36.42A68.023,68.023,0,0,0,136,395.59L129.96,456H24V88H488Z"/></g></svg>