<svg xmlns="http://www.w3.org/2000/svg" width="32" height="32"><g transform="translate(-110.748 -1012.497)"><circle cx="126.748" cy="1028.497" r="16" fill="#ffcc0f" fill-rule="evenodd"/><g transform="matrix(.58936 0 0 .58937 117.318 1018.8)"><path fill="#5fd38d" stroke="#373748" stroke-linecap="round" stroke-linejoin="round" stroke-width=".999" d="m29.812 17.35 1.576 7.526c.445 1.7-.63 3.605-2.419 3.956-1.687.397-3.346-.631-3.81-2.4l-2.3-7.263z" color="#000" overflow="visible" style="isolation:auto;mix-blend-mode:normal"/><path fill="#f2f2f2" stroke="#373748" stroke-linecap="round" stroke-linejoin="round" stroke-width=".999" style="isolation:auto;mix-blend-mode:normal" d="M7.328 8.758a6.239 6.239 0 0 0-6.238 6.239 6.239 6.239 0 0 0 .828 3.088l-1.29 6.138c-.518 1.974.736 4.187 2.822 4.594 1.967.462 3.9-.73 4.44-2.787l1.433-4.503a2.88 2.88 0 0 0 1.845.669 2.88 2.88 0 0 0 2.142-.96h4.74a2.88 2.88 0 0 0 2.14.96 2.88 2.88 0 0 0 2.143-.96h.251l1.524 4.794c.54 2.056 2.476 3.249 4.443 2.787 2.086-.407 3.338-2.62 2.82-4.594l-1.305-6.21a6.239 6.239 0 0 0 .778-3.016 6.239 6.239 0 0 0-6.239-6.239 6.239 6.239 0 0 0-3.318.96H10.641a6.239 6.239 0 0 0-3.313-.96Z" color="#000" overflow="visible"/><path fill="#5fd38d" fill-rule="evenodd" stroke="#373748" stroke-linecap="round" stroke-linejoin="round" stroke-width=".999" d="M7.328 11.644v4.829m2.393-2.414H4.936"/><ellipse cx="24.605" cy="11.648" fill="#ffd42a" stroke="#373748" stroke-linecap="round" stroke-linejoin="round" stroke-width=".999" color="#000" overflow="visible" style="isolation:auto;mix-blend-mode:normal" rx=".963" ry=".97"/><ellipse cx="27.002" cy="14.066" fill="#2a7fff" stroke="#373748" stroke-linecap="round" stroke-linejoin="round" stroke-width=".999" color="#000" overflow="visible" style="isolation:auto;mix-blend-mode:normal" rx=".963" ry=".97"/><ellipse cx="24.605" cy="16.484" fill="#5fd38d" stroke="#373748" stroke-linecap="round" stroke-linejoin="round" stroke-width=".999" color="#000" overflow="visible" style="isolation:auto;mix-blend-mode:normal" rx=".963" ry=".97"/><ellipse cx="22.209" cy="14.066" fill="#f55" stroke="#373748" stroke-linecap="round" stroke-linejoin="round" stroke-width=".999" color="#000" overflow="visible" style="isolation:auto;mix-blend-mode:normal" rx=".963" ry=".97"/><circle cx="11.168" cy="18.836" fill="#8d5fd3" stroke="#373748" stroke-linecap="round" stroke-linejoin="round" stroke-width=".999" color="#000" overflow="visible" style="isolation:auto;mix-blend-mode:normal" r="1.44"/><circle cx="20.286" cy="18.836" fill="#8d5fd3" stroke="#373748" stroke-linecap="round" stroke-linejoin="round" stroke-width=".999" color="#000" overflow="visible" style="isolation:auto;mix-blend-mode:normal" r="1.44"/><path fill="none" stroke="#373748" stroke-linecap="round" stroke-linejoin="round" stroke-width=".999" d="M14.047 15.477h.96m1.92 0h.96M14.469 7.573a3.062 3.062 0 013.062 0m-4.083-1.768a5.104 5.104 0 015.104 0m-6.125-1.768a7.145 7.145 0 017.145 0"/></g></g></svg>