<?xml version="1.0" ?><svg id="Capa_1" style="enable-background:new 0 0 150 150;" version="1.1" viewBox="0 0 150 150" xml:space="preserve" xmlns="http://www.w3.org/2000/svg" xmlns:xlink="http://www.w3.org/1999/xlink"><style type="text/css">
	.st0{fill:#1A73E8;}
	.st1{fill:#EA4335;}
	.st2{fill:#4285F4;}
	.st3{fill:#FBBC04;}
	.st4{fill:#34A853;}
	.st5{fill:#4CAF50;}
	.st6{fill:#1E88E5;}
	.st7{fill:#E53935;}
	.st8{fill:#C62828;}
	.st9{fill:#FBC02D;}
	.st10{fill:#1565C0;}
	.st11{fill:#2E7D32;}
	.st12{fill:#F6B704;}
	.st13{fill:#E54335;}
	.st14{fill:#4280EF;}
	.st15{fill:#34A353;}
	.st16{clip-path:url(#SVGID_2_);}
	.st17{fill:#188038;}
	.st18{opacity:0.2;fill:#FFFFFF;enable-background:new    ;}
	.st19{opacity:0.3;fill:#0D652D;enable-background:new    ;}
	.st20{clip-path:url(#SVGID_4_);}
	.st21{opacity:0.3;fill:url(#_45_shadow_1_);enable-background:new    ;}
	.st22{clip-path:url(#SVGID_6_);}
	.st23{fill:#FA7B17;}
	.st24{opacity:0.3;fill:#174EA6;enable-background:new    ;}
	.st25{opacity:0.3;fill:#A50E0E;enable-background:new    ;}
	.st26{opacity:0.3;fill:#E37400;enable-background:new    ;}
	.st27{fill:url(#Finish_mask_1_);}
	.st28{fill:#FFFFFF;}
	.st29{fill:#0C9D58;}
	.st30{opacity:0.2;fill:#004D40;enable-background:new    ;}
	.st31{opacity:0.2;fill:#3E2723;enable-background:new    ;}
	.st32{fill:#FFC107;}
	.st33{opacity:0.2;fill:#1A237E;enable-background:new    ;}
	.st34{opacity:0.2;}
	.st35{fill:#1A237E;}
	.st36{fill:url(#SVGID_7_);}
	.st37{fill:#FBBC05;}
	.st38{clip-path:url(#SVGID_9_);fill:#E53935;}
	.st39{clip-path:url(#SVGID_11_);fill:#FBC02D;}
	.st40{clip-path:url(#SVGID_13_);fill:#E53935;}
	.st41{clip-path:url(#SVGID_15_);fill:#FBC02D;}
</style><g><path class="st1" d="M88.7,56.8h2.7l7.8-7.8l0.4-3.3c-14.5-12.8-36.7-11.4-49.5,3.1c-3.6,4-6.1,8.8-7.6,14c0.9-0.4,1.8-0.4,2.7-0.2   l15.6-2.6c0,0,0.8-1.3,1.2-1.2C69,51.2,80.7,50.3,88.7,56.8L88.7,56.8z"/><path class="st2" d="M110.4,62.8c-1.8-6.6-5.5-12.5-10.6-17.1L88.8,56.7c4.6,3.8,7.3,9.5,7.1,15.4v1.9c5.4,0,9.7,4.4,9.7,9.7   s-4.4,9.7-9.7,9.7H76.5l-1.9,2v11.7l1.9,1.9H96c14,0.1,25.4-11.2,25.5-25.2C121.6,75.5,117.4,67.6,110.4,62.8z"/><path class="st4" d="M56.9,109h19.5V93.4H56.9c-1.4,0-2.8-0.3-4-0.9l-2.7,0.9l-7.9,7.8l-0.7,2.7C46,107.3,51.4,109.1,56.9,109z"/><path class="st37" d="M56.9,58.4c-14,0.1-25.3,11.5-25.2,25.5c0,7.8,3.7,15.2,9.9,19.9l11.3-11.3c-4.9-2.2-7.1-8-4.9-12.9   c2.2-4.9,8-7.1,12.9-4.9c2.2,1,3.9,2.7,4.9,4.9l11.3-11.3C72.3,62.1,64.8,58.4,56.9,58.4z"/></g></svg>