<svg xmlns="http://www.w3.org/2000/svg" data-name="Layer 1" viewBox="0 0 168 168"><path fill="#2d4356" d="M45 42.37263a3 3 0 1 0-3-3A3.00344 3.00344 0 0 0 45 42.37263zm0-4.5a1.5 1.5 0 1 1-1.5 1.5A1.50148 1.50148 0 0 1 45 37.87263zM108 17.48724a2 2 0 1 0 2 2A2.00229 2.00229 0 0 0 108 17.48724zm0 3a1 1 0 1 1 1-1A1.001 1.001 0 0 1 108 20.48724zM87 49.25033a2 2 0 1 0 2 2A2.00229 2.00229 0 0 0 87 49.25033zm0 3a1 1 0 1 1 1-1A1.001 1.001 0 0 1 87 52.25033zM162 20.48724a2 2 0 1 0 2 2A2.00229 2.00229 0 0 0 162 20.48724zm0 3a1 1 0 1 1 1-1A1.001 1.001 0 0 1 162 23.48724zM13 65.37263a2 2 0 1 0-2 2A2.00229 2.00229 0 0 0 13 65.37263zm-3 0a1 1 0 1 1 1 1A1.001 1.001 0 0 1 10 65.37263z"/><polygon fill="#0bceb2" points="9.915 21.237 11.402 19.281 10.463 18.749 9.509 20.939 9.477 20.939 8.508 18.764 7.552 19.312 9.024 21.221 9.024 21.253 6.723 20.955 6.723 22.019 9.039 21.722 9.039 21.753 7.552 23.662 8.444 24.225 9.462 22.019 9.492 22.019 10.431 24.209 11.417 23.646 9.915 21.768 9.915 21.737 12.277 22.019 12.277 20.955 9.915 21.268 9.915 21.237"/><polygon fill="#0bceb2" points="71.334 6.357 70.478 7.456 70.991 7.781 71.577 6.51 71.595 6.51 72.136 7.772 72.704 7.448 71.839 6.366 71.839 6.348 73.199 6.51 73.199 5.898 71.839 6.078 71.839 6.06 72.695 4.934 72.154 4.627 71.604 5.889 71.586 5.889 71.028 4.636 70.478 4.952 71.325 6.051 71.325 6.069 70 5.898 70 6.51 71.334 6.339 71.334 6.357"/><polygon fill="#0bceb2" points="145.448 41.394 145.448 40.351 143.132 40.657 143.132 40.627 144.59 38.709 143.669 38.187 142.733 40.335 142.702 40.335 141.751 38.202 140.813 38.739 142.257 40.612 142.257 40.642 140 40.351 140 41.394 142.272 41.103 142.272 41.133 140.813 43.005 141.688 43.558 142.687 41.394 142.717 41.394 143.638 43.543 144.605 42.99 143.132 41.148 143.132 41.118 145.448 41.394"/><polygon fill="#0bceb2" points="155.282 81.161 156.54 79.506 155.745 79.056 154.938 80.909 154.911 80.909 154.091 79.069 153.282 79.532 154.527 81.148 154.527 81.174 152.581 80.922 152.581 81.822 154.54 81.571 154.54 81.598 153.282 83.212 154.037 83.689 154.898 81.822 154.924 81.822 155.718 83.676 156.553 83.199 155.282 81.611 155.282 81.584 157.28 81.822 157.28 80.922 155.282 81.187 155.282 81.161"/><circle cx="2" cy="147.373" r="2" fill="#2d4356"/><path fill="#2d4356" d="M11 145.37263H8a2 2 0 0 0 0 4h3a2 2 0 0 0 0-4zM160 145.37263h-3a2 2 0 0 0 0 4h3a2 2 0 0 0 0-4z"/><circle cx="166" cy="147.373" r="2" fill="#2d4356"/><path fill="#0bceb2" d="M118.15387 153.37263h-8.30774a2.00641 2.00641 0 0 0 0 4h8.30774a2.00641 2.00641 0 0 0 0-4zM58.15387 153.37263H49.84613a2.00641 2.00641 0 0 0 0 4h8.30774a2.00641 2.00641 0 0 0 0-4zM104 153.37263H64a2 2 0 0 0 0 4H79.94v2H72a2 2 0 0 0 0 4H97a2 2 0 0 0 0-4H88.06v-2H104a2 2 0 0 0 0-4z"/><path fill="#2d4356" d="M66.58441 61.37263h-.525c.00946.01257.02087.0235.03027.03613C66.252 61.38478 66.42029 61.3885 66.58441 61.37263zM47.941 61.37263h-.52631c.16455.01593.33331.01221.49591.03625C47.92 61.39625 47.93152 61.38527 47.941 61.37263z"/><path fill="#0bceb2" d="M40.73694,68.52272a5.944,5.944,0,0,0-.56287,7.88147A5.93156,5.93156,0,0,0,35,82.375v1.99524a5.93207,5.93207,0,0,0,5.17566,5.972,5.93756,5.93756,0,0,0,.56006,7.87909l1.41138,1.41327a6.16535,6.16535,0,0,0,4.312,1.8075,5.65284,5.65284,0,0,0,3.57281-1.24762,5.93083,5.93083,0,0,0,5.96912,5.17816h2a5.92984,5.92984,0,0,0,5.96716-5.17786,5.6532,5.6532,0,0,0,3.57288,1.24731,6.14885,6.14885,0,0,0,4.3053-1.80292l1.41614-1.41608a6.14582,6.14582,0,0,0,1.80994-4.31372,5.64955,5.64955,0,0,0-1.24811-3.56714A5.93212,5.93212,0,0,0,79,84.37025V82.375a5.93166,5.93166,0,0,0-5.176-5.971,5.71767,5.71767,0,0,0,1.238-3.92084,6.12058,6.12058,0,0,0-1.79956-3.96106l-1.415-1.41351a6.14336,6.14336,0,0,0-4.30695-1.80579A5.65312,5.65312,0,0,0,63.96808,66.55a5.92937,5.92937,0,0,0-5.9671-5.17737h-2a5.93113,5.93113,0,0,0-5.96912,5.1778,5.65317,5.65317,0,0,0-3.5722-1.24762,6.15406,6.15406,0,0,0-4.30695,1.80365Zm2.829,2.82788,1.41156-1.412a2.11748,2.11748,0,0,1,1.48218-.63574,1.66314,1.66314,0,0,1,1.18976.4765L49.45313,71.585a13.94532,13.94532,0,0,1,4.54639-1.88568V67.1529A1.89916,1.89916,0,0,1,56.001,65.37263h2a1.89791,1.89791,0,0,1,1.99951,1.78027v2.54645A13.91738,13.91738,0,0,1,64.54492,71.585l1.80566-1.80573a1.66328,1.66328,0,0,1,1.18982-.4765,2.11062,2.11062,0,0,1,1.4801.63574l1.41357,1.412a1.8961,1.8961,0,0,1,.15771,2.6748L68.791,75.82673a13.95264,13.95264,0,0,1,1.88379,4.54486h2.54688A1.89761,1.89761,0,0,1,75,82.375v1.99524a1.89853,1.89853,0,0,1-1.77832,2.00439H70.6748A13.95631,13.95631,0,0,1,68.791,90.91853l1.80078,1.80322a1.89376,1.89376,0,0,1-.15771,2.67285l-1.41357,1.41351a2.11309,2.11309,0,0,1-1.47943.634,1.66282,1.66282,0,0,1-1.19049-.47717l-1.80566-1.80231a14.00721,14.00721,0,0,1-4.54443,1.8833V99.5923a1.89856,1.89856,0,0,1-1.99951,1.78033h-2a1.89981,1.89981,0,0,1-2.00146-1.78033V97.04591a14.03545,14.03545,0,0,1-4.54639-1.8833l-1.80371,1.80231a1.66218,1.66218,0,0,1-1.19037.47717,2.12037,2.12037,0,0,1-1.48157-.634L43.56592,95.3946a1.90124,1.90124,0,0,1-.16064-2.67285l1.80664-1.80322a13.89481,13.89481,0,0,1-1.88483-4.54388H40.77832A1.90112,1.90112,0,0,1,39,84.37025V82.375a1.9002,1.9002,0,0,1,1.77832-2.00342h2.54877a13.89118,13.89118,0,0,1,1.88483-4.54486L43.40527,74.0254A1.90358,1.90358,0,0,1,43.56592,71.3506Z"/><path fill="#0bceb2" d="M57,92.28279a8.91016,8.91016,0,1,0-8.91016-8.91113A8.92076,8.92076,0,0,0,57,92.28279Zm0-13.82031a4.91016,4.91016,0,1,1-4.91016,4.90918A4.91545,4.91545,0,0,1,57,78.46247Z"/><path fill="#2d4356" d="M150.72131,145.37263h-2.72986a3.979,3.979,0,0,0-.79419-2.39941,2.00836,2.00836,0,0,0-.35156-.3623s-5.5199-4.49475-5.92285-4.71765A1.97982,1.97982,0,0,0,141,137.37263v-70a6.00656,6.00656,0,0,0-6-6H68.65613a10.19962,10.19962,0,0,1,6.01825,2.90607l1.09509,1.09393H135a2.00229,2.00229,0,0,1,2,2v70H122v-56a4.00427,4.00427,0,0,0-4-4h-8a4.00427,4.00427,0,0,0-4,4v56h-4v-44a4.00427,4.00427,0,0,0-4-4H90a4.00427,4.00427,0,0,0-4,4v44H82v-28a4.00427,4.00427,0,0,0-4-4H70a4.00427,4.00427,0,0,0-4,4v28H62v-16a4.00427,4.00427,0,0,0-4-4H50a4.00427,4.00427,0,0,0-4,4v16H31v-70a2.00229,2.00229,0,0,1,2-2h5.23l1.09778-1.09814a10.21919,10.21919,0,0,1,6.01672-2.90186H33a6.00656,6.00656,0,0,0-6,6v70a1.97982,1.97982,0,0,0,.07715.52063c-.403.2229-5.92285,4.71765-5.92285,4.71765a2.00837,2.00837,0,0,0-.35156.3623,3.979,3.979,0,0,0-.79419,2.39941H17.27869a2.017,2.017,0,1,0,0,4H150.72131a2.017,2.017,0,1,0,0-4ZM110,81.37263h8v56h-8Zm-20,12h8v44H90Zm-20,16h8v28H70Zm-20,12h8v16H50Zm-25.89453,23.999s4.79688-3.86426,4.89746-3.999l109.99414.00049c.10156.13477,4.89844,3.99951,4.89844,3.99951Z"/></svg>