<svg xmlns="http://www.w3.org/2000/svg" enable-background="new 0 0 68 68" viewBox="0 0 68 68"><path fill="#DEE1E6" d="M2.0002,48.3216V7.6785c0-1.1046,0.8954-2,2-2h60c1.1046,0,2,0.8954,2,2v40.6431c0,1.1046-0.8954,2-2,2h-60
		C2.8957,50.3216,2.0002,49.4261,2.0002,48.3216z"/><rect width="55" height="35.643" x="6.5" y="10.178" fill="#4DABF4"/><path fill="#1D7BD5" d="M61.5017,10.175v35.65h-55v-3.92c29.18-2.12,36.5-20.69,38.25-31.73H61.5017z"/><path fill="#FFF" d="M55.8828 18.9978c-.4141 0-.75-.3359-.75-.75v-3c0-.4141.3359-.75.75-.75s.75.3359.75.75v3C56.6328 18.6619 56.2969 18.9978 55.8828 18.9978zM55.8828 27.5007c-.4141 0-.75-.3359-.75-.75v-4.5c0-.4141.3359-.75.75-.75s.75.3359.75.75v4.5C56.6328 27.1648 56.2969 27.5007 55.8828 27.5007z"/><polygon fill="#C7CBD1" points="26.09 50.322 24.139 57.322 43.862 57.322 41.911 50.322"/><path fill="#DEE1E6" d="M19.3096,58.3216v3c0,0.5523,0.4477,1,1,1h27.3812c0.5523,0,1-0.4477,1-1v-3c0-0.5523-0.4477-1-1-1H20.3096
		C19.7573,57.3216,19.3096,57.7693,19.3096,58.3216z"/><path fill="#FBC41A" d="M45.0002,18.6848C36.7966,17.0067,34,14.5,34,14.5s-2.7967,2.5068-11.0002,4.1848
			c0,0-2.7967,19.0863,11.0002,22.8152C47.7969,37.7711,45.0002,18.6848,45.0002,18.6848z"/><path fill="#EF3D3D" d="M34.0018,41.4949c-3.105-0.8412-5.3792-2.4612-7.02-4.4654c7.3523-0.9969,13.0535-8.4738,13.0535-17.5396
			c0-0.7269-0.0415-1.4435-0.1039-2.1392c1.3916,0.4673,3.0739,0.9242,5.0677,1.3292
			C44.999,18.6798,47.7925,37.7668,34.0018,41.4949z"/><path fill="#F59F02" d="M34.0017,41.4951c-3.1-0.84-5.38-2.46-7.02-4.47c2.73-0.37,5.23-1.63,7.29-3.53
			c1.91-1.76,3.45-4.06,4.45-6.72c0.84-2.22,1.31-4.69,1.31-7.29c0-0.72-0.04-1.44-0.1-2.13c1.39,0.46,3.07,0.92,5.07,1.32
			C45.0017,18.675,47.7917,37.765,34.0017,41.4951z"/><circle cx="34" cy="26.016" r="3" fill="#FFF"/><path fill="#FFF" d="M34,29.016"/><path d="M64,4.6785H4c-1.6543,0-3,1.3457-3,3v40.6431c0,1.6543,1.3457,3,3,3h20.7725l-1.3933,5h-3.0696c-1.103,0-2,0.897-2,2v3
					c0,1.103,0.897,2,2,2h27.3813c1.103,0,2-0.897,2-2v-3c0-1.103-0.897-2-2-2h-3.0696l-1.3933-5H64c1.6543,0,3-1.3457,3-3V7.6785
					C67,6.0242,65.6543,4.6785,64,4.6785z M47.6924,61.3215H20.3096v-3c8.4968,0,18.9059,0,27.3813,0L47.6924,61.3215z
					 M42.5449,56.3215H25.4556l1.3931-5h14.3032L42.5449,56.3215z M65,48.3215c0,0.5513-0.4487,1-1,1c-12.7709,0-47.2152,0-60,0
					c-0.5513,0-1-0.4487-1-1V7.6785c0-0.5513,0.4487-1,1-1h60c0.5513,0,1,0.4487,1,1V48.3215z"/><path d="M61.5,9.1785h-55c-0.5522,0-1,0.4478-1,1v35.6431c0,0.5522,0.4478,1,1,1h55c0.5522,0,1-0.4478,1-1V10.1785
					C62.5,9.6262,62.0522,9.1785,61.5,9.1785z M60.5,44.8215h-53V11.1785h53V44.8215z"/><path d="M33.7393,42.4651c0.0854,0.0229,0.1729,0.0347,0.2607,0.0347s0.1753-0.0117,0.2607-0.0347
					c14.4868-3.915,11.7578-23.7256,11.7285-23.9253c-0.061-0.4165-0.3765-0.7505-0.7891-0.8345
					c-7.7505-1.5859-10.5107-3.9312-10.5327-3.9502c-0.3799-0.3408-0.9551-0.3408-1.335,0
					c-0.0259,0.0234-2.686,2.3447-10.5327,3.9502c-0.4126,0.084-0.728,0.418-0.7891,0.8345
					C21.9814,18.7395,19.2524,38.55,33.7393,42.4651z M23.9141,19.5139c5.8105-1.2695,8.854-2.9482,10.0859-3.7725
					c1.2314,0.8247,4.2749,2.5029,10.0859,3.7725c0.3105,3.3242,0.9888,17.73-10.0859,20.9473
					C22.9253,37.2439,23.6035,22.8381,23.9141,19.5139z"/><path d="M33,29.8738v3.1103c0,0.5522,0.4478,1,1,1s1-0.4478,1-1v-3.1103c1.7203-0.4473,3-1.9997,3-3.858c0-2.2056-1.7944-4-4-4
					s-4,1.7944-4,4C30,27.8741,31.2797,29.4266,33,29.8738z M34,24.0159c1.103,0,2,0.897,2,2s-0.897,2-2,2s-2-0.897-2-2
					S32.897,24.0159,34,24.0159z"/></svg>