<?xml version="1.0" ?><!DOCTYPE svg  PUBLIC '-//W3C//DTD SVG 1.1//EN'  'http://www.w3.org/Graphics/SVG/1.1/DTD/svg11.dtd'><svg enable-background="new 0 0 512 512" id="Layer_1" version="1.1" viewBox="0 0 512 512" xml:space="preserve" xmlns="http://www.w3.org/2000/svg" xmlns:xlink="http://www.w3.org/1999/xlink"><circle cx="256" cy="256" fill="#F55247" id="ellipse" r="256"/><path d="M290.1,375.6c-3.3-1.1-5.4-3.5-7.2-6.4c-2.5-4.2-5.2-8.3-7.6-12.6c-9.1-16.3-18.2-32.4-27.3-48.7  c-0.3-0.4-0.5-0.8-0.8-1.3c-1.5,0.4-2.9,0.8-4.4,1.1c-20.1,5.2-40,10.4-60.1,15.5c-2.4,0.6-4.7,1.3-7.1,1.3c-4.8,0-8.5-2.1-11-6.2  c-0.6-1-1.1-2-1.5-3.2c-18.4-39.8-36.9-79.7-55.2-119.4c-3.3-7.1-6.6-14.3-9.7-21.3c-0.8-1.8-1.3-3.7-2-5.6  c-0.1-0.3-0.3-0.5-0.4-0.8c0-0.8,0-1.5,0-2.3c0.1-0.4,0.4-0.6,0.5-1c0.4-1.1,1.1-1.9,2.3-2.4c0.9-0.4,1.8-0.6,2.7-0.6  c4.8-0.5,9.6-0.9,14.4-1.3c6.6-0.5,13.3-1,19.8-1.5c8.5-0.6,17-1.4,25.5-2c1.4-0.1,2.8-0.3,4-0.5c1.4,0,2.8,0,4.3,0  c0.3,0.1,0.5,0.1,0.8,0.3c2,0.3,3.5,1.3,4.7,3c1,1.5,2,3,3,4.5c25,41.9,50.1,83.7,75.1,125.6c0.3,0.4,0.5,0.9,0.9,1.4  c32.2-7.7,64.4-15.4,96.8-23.2c-0.4-0.5-0.5-0.9-0.8-1.1c-10.4-14.6-20.6-29.2-30.9-43.8c-0.4-0.5-0.8-1.1-1-1.8  c-0.8-1.5-0.4-2.8,1.1-3.5c1.1-0.5,2.3-1,3.5-1.3c5.9-1,11.9-2,17.7-3c7.8-1.3,15.7-2.7,23.4-3.9c2-0.4,3.9-0.6,5.9-0.9  c1.8-0.3,3.4,0.3,4.9,1.3c1.5,1.1,2.8,2.5,4,3.9c8,9.8,15.9,19.7,23.9,29.5c4.2,5.2,8.5,10.4,12.6,15.5c0.4,0.4,0.6,0.9,0.9,1.3  c0,0.6,0,1.4,0,2c-0.8,1.3-2.1,1.6-3.4,2c-14,3.8-28,7.4-42,11.2c-0.4,0.1-0.9,0.3-1.4,0.4c0.4,0.5,0.5,0.8,0.8,1.1  c6.4,8.6,12.7,17,19.2,25.6c6.4,8.6,12.7,17.2,19.1,25.8c0.5,0.8,1,1.5,1.4,2.4c0.8,1.5,0.4,2.8-1,3.7c-0.9,0.6-1.8,1.1-2.8,1.4  c-3.2,1.3-6.3,2.4-9.5,3.5c-26,9.3-52,18.7-78,28c-6.3,2.3-12.6,4.4-19.1,6.6c-1.6,0.5-3.4,0.9-5,1.4  C292.8,375.6,291.5,375.6,290.1,375.6z M163.8,165.7c-4,0.4-8.1,0.8-12.2,1c-4.3,0.4-8.5,0.8-12.7,1.1c-5.3,0.5-10.7,0.9-16,1.4  c-3.5,0.3-7.1,0.6-10.6,0.9c-0.9,0.1-1.1,0.4-1,1.3c0.1,0.5,0.3,1,0.5,1.4c0.4,0.9,0.8,1.6,1.3,2.5c16.3,33.5,32.6,67,48.7,100.5  c5.3,10.9,10.5,21.7,15.7,32.6c0.3,0.6,0.6,0.9,1.3,0.8c0.9-0.1,1.8-0.3,2.5-0.5c17.4-4.2,34.7-8.3,52.1-12.4  c1.8-0.4,3.7-0.9,5.4-1.3c1.3-0.4,1.6-1,1.1-2.3c-0.3-0.6-0.5-1.1-0.9-1.6c-23.9-41.2-47.6-82.2-71.4-123.3  C166.2,165.5,166.2,165.5,163.8,165.7z M260.7,303.1c0.3,0.5,0.4,0.8,0.6,1c7.1,12.2,14.3,24.6,21.5,36.9c2.8,4.8,5.7,9.6,8.6,14.4  c0.6,1,1.4,2,2.1,2.9c0.9,0.9,2,1.1,3.2,0.6c0.5-0.3,1-0.4,1.5-0.5c21.1-7.2,42.2-14.4,63.2-21.5c9.6-3.3,19.2-6.4,28.8-9.7  c0.5-0.1,1.1-0.4,1.6-0.6c1-0.5,1.1-1,0.5-1.9c-0.4-0.6-0.9-1.4-1.3-2c-3.8-5.3-7.7-10.5-11.5-15.8c-6.3-8.6-12.5-17.2-18.8-25.8  c-0.5-0.8-1-1.5-1.6-2.3s-1.4-1.1-2.4-0.8c-0.8,0.3-1.4,0.4-2.1,0.6c-10.2,2.7-20.4,5.3-30.7,8c-20.6,5.3-41.2,10.7-61.7,16  C261.7,302.7,261.2,302.9,260.7,303.1z M361.1,265.6c0.3,0,0.5-0.1,0.8-0.1c12.1-3,24.4-5.9,36.5-9c0.5-0.1,1-0.3,1.5-0.5  c1.1-0.5,1.4-1.1,0.5-2.1c-0.1-0.1-0.3-0.4-0.4-0.5c-9-11.4-17.8-22.7-26.8-34c-0.1-0.3-0.4-0.5-0.5-0.6c-0.9-1-1.9-1.3-3.3-1  c-10.9,2-21.7,3.9-32.6,5.9c-1.3,0.3-2.7,0.4-3.9,0.8c-1.1,0.3-1.3,0.8-0.8,1.6c0.3,0.4,0.5,0.9,0.9,1.3  c9.1,12.4,18.1,24.9,27.1,37.2C360.5,264.9,360.7,265.3,361.1,265.6z" fill="#FFFFFF" id="logo"/></svg>