<svg xmlns="http://www.w3.org/2000/svg" viewBox="0 0 48 48"><g data-name="report presentation"><path fill="#a87e6b" d="M1 5h46v4H1z"/><path fill="#be927c" d="M47 5v2H6a2 2 0 0 1-2-2Z"/><path fill="#a87e6b" d="M1 33h46v4H1zM21 1h6v4h-6z"/><path fill="#be927c" d="M27 1v2h-2a2 2 0 0 1-2-2Z"/><path fill="#a87e6b" d="M36 47h-6l-4-10h6Z"/><path fill="#be927c" d="M35.2 45c-4.91 0-3.62 1-7.2-8h4Z"/><path fill="#a87e6b" d="m22 37-4 10h-6l4-10Z"/><path fill="#be927c" d="m22 37-3.2 8h-2.52a1 1 0 0 1-.93-1.37L18 37Z"/><path fill="#dad7e5" d="M3 9h42v24H3z"/><path fill="#edebf2" d="M45 9v22H9a3 3 0 0 1-3-3V9Z"/><path fill="#6fabe6" d="M13 21v8H9v-5l4-3zM17 23v6h-4v-8l4 2zM21 19v10h-4v-6l4-4z"/><path fill="#82bcf4" d="M13 24v5H9v-2l4-3zM17 26v3h-4v-5l4 2zM21 22v7h-4v-3l4-4z"/><path fill="#fc6" d="M35 15v6l-4.24 4.24A6 6 0 0 1 35 15Z"/><path fill="#82bcf4" d="M41 21h-6v-6a6 6 0 0 1 6 6Z"/><path fill="#db5669" d="M41 21a6 6 0 0 1-10.24 4.24L35 21Z"/><path fill="#f26674" d="M41 21a5.91 5.91 0 0 1-.88 3.12 6 6 0 0 1-7.36-.88L35 21Z"/><path fill="#ffde76" d="M35 15v6l-2.24 2.24a6 6 0 0 1-.88-7.36A5.91 5.91 0 0 1 35 15Z"/><path fill="#be927c" d="M47 33v2H6a2 2 0 0 1-2-2Z"/><path d="M47 10a1 1 0 0 0 1-1V5a1 1 0 0 0-1-1H28V1a1 1 0 0 0-1-1h-6a1 1 0 0 0-1 1v3H1a1 1 0 0 0-1 1v4a1 1 0 0 0 1 1h1v22H1a1 1 0 0 0-1 1v4a1 1 0 0 0 1 1h13.52c-3.73 9.33-3.76 9-3.35 9.56s.3.44 6.83.44c.94 0 .73-.13 4.68-10h2.64l3.75 9.37c.34.84.56.63 6.93.63a1 1 0 0 0 .93-1.37L33.48 38H47a1 1 0 0 0 1-1v-4a1 1 0 0 0-1-1h-1V10ZM22 2h4v2h-4ZM2 6h44v2H2Zm15.32 40h-3.84l3.2-8h3.84Zm17.2 0h-3.84l-3.2-8h3.84ZM46 36H2v-2h44Zm-2-4H4V10h40Z"/><path d="M7 30h16a1 1 0 0 0 0-2h-1v-8.59l2-2V19a1 1 0 0 0 2 0c0-5.94.87-5-5-5a1 1 0 0 0 0 2h1.59l-5.79 5.78C13.52 20.14 13.35 20 13 20s-.31 0-4.57 3.19C7.83 23.63 8 24 8 28H7a1 1 0 0 0 0 2zm7-7.38 2 1V28h-2zM20 28h-2v-4.59l2-2zm-10-3.5 2-1.5v5h-2zM7 14h8a1 1 0 0 0 0-2H7a1 1 0 0 0 0 2zm0 4h4a1 1 0 0 0 0-2H7a1 1 0 0 0 0 2zm28 10a7 7 0 1 0-7-7 7 7 0 0 0 7 7zm-2.75-2.83L35.41 22h4.49a5 5 0 0 1-7.65 3.17zM39.9 20H36v-3.9a5 5 0 0 1 3.9 3.9zM34 16.1v4.49l-3.17 3.16A5 5 0 0 1 34 16.1z"/></g></svg>