<svg xmlns="http://www.w3.org/2000/svg" width="32" height="32" enable-background="new 0 0 32 32" viewBox="0 0 32 32"><path fill="#263238" d="M23.586,23.586c0.122-0.122,0.262-0.217,0.408-0.299l-2.276-2.277c-0.195-0.195-0.512-0.195-0.707,0
								c-0.195,0.196-0.195,0.512,0,0.708l2.271,2.271C23.367,23.846,23.465,23.707,23.586,23.586z"/><path fill="#263238" d="M28.5 31c-.668 0-1.295-.26-1.768-.732l-3.5-3.5C22.76 26.295 22.5 25.668 22.5 25s.26-1.295.732-1.768c.906-.906 2.629-.906 3.535 0l3.5 3.5C30.74 27.205 31 27.832 31 28.5s-.26 1.295-.732 1.768S29.168 31 28.5 31zM25 23.52c-.407 0-.793.152-1.061.42C23.656 24.223 23.5 24.6 23.5 25s.156.777.439 1.061l3.5 3.5c.566.566 1.555.566 2.121 0C29.844 29.277 30 28.9 30 28.5s-.156-.777-.439-1.061l-3.5-3.5C25.793 23.672 25.407 23.52 25 23.52zM13.012 27.499c-3.214 0-6.396-1.063-8.982-3.105-.217-.171-.254-.485-.083-.702.172-.216.485-.253.702-.083 3.759 2.967 8.865 3.712 13.327 1.945.257-.103.547.023.649.28.102.257-.024.548-.28.649C16.623 27.165 14.813 27.499 13.012 27.499zM26.035 18.618c-.061 0-.123-.011-.183-.034-.257-.102-.384-.392-.283-.648 1.734-4.421 1.003-9.487-1.91-13.223-.17-.218-.131-.532.087-.702.219-.171.531-.131.702.087 3.128 4.013 3.915 9.455 2.053 14.203C26.423 18.498 26.234 18.618 26.035 18.618z"/><path fill="#263238" d="M13,25C6.383,25,1,19.617,1,13S6.383,1,13,1s12,5.383,12,12S19.617,25,13,25z M13,2
							C6.935,2,2,6.935,2,13s4.935,11,11,11s11-4.935,11-11S19.065,2,13,2z"/><path fill="#263238" d="M20.5 16c-.276 0-.5-.224-.5-.5v-2c0-.827-.673-1.5-1.5-1.5-.276 0-.5-.224-.5-.5s.224-.5.5-.5c1.379 0 2.5 1.121 2.5 2.5v2C21 15.776 20.776 16 20.5 16zM5.5 16C5.224 16 5 15.776 5 15.5v-2C5 12.121 6.121 11 7.5 11 7.776 11 8 11.224 8 11.5S7.776 12 7.5 12C6.673 12 6 12.673 6 13.5v2C6 15.776 5.776 16 5.5 16zM14 6.5c-.276 0-.5-.224-.5-.5 0-.827.673-1.5 1.5-1.5.276 0 .5.224.5.5S15.276 5.5 15 5.5c-.275 0-.5.225-.5.5C14.5 6.276 14.276 6.5 14 6.5zM12 6.5c-.276 0-.5-.224-.5-.5 0-.275-.225-.5-.5-.5-.276 0-.5-.224-.5-.5s.224-.5.5-.5c.827 0 1.5.673 1.5 1.5C12.5 6.276 12.276 6.5 12 6.5zM17.5 5C17.224 5 17 5.224 17 5.5v1C17 7.327 16.327 8 15.5 8h-.689c.298.261.517.604.619 1h.07C16.879 9 18 7.879 18 6.5v-1C18 5.224 17.776 5 17.5 5zM11.189 8H10.5C9.673 8 9 7.327 9 6.5v-1C9 5.224 8.776 5 8.5 5S8 5.224 8 5.5v1C8 7.879 9.121 9 10.5 9h.07C10.673 8.604 10.892 8.261 11.189 8z"/><path fill="#263238" d="M11,10.551V9.5C11,8.673,11.673,8,12.5,8h1C14.327,8,15,8.673,15,9.5v1.051
			c0.36,0.061,0.695,0.188,1,0.365V9.5C16,8.121,14.879,7,13.5,7h-1C11.121,7,10,8.121,10,9.5v1.416
			C10.305,10.738,10.64,10.611,11,10.551z"/><path fill="#263238" d="M13.5,21h-1C9.725,21,8,18.893,8,15.5v-2c0-1.93,1.57-3.5,3.5-3.5h3c1.93,0,3.5,1.57,3.5,3.5v2
			C18,18.893,16.275,21,13.5,21z M11.5,11C10.121,11,9,12.121,9,13.5v2c0,1.056,0.252,4.5,3.5,4.5h1c3.248,0,3.5-3.444,3.5-4.5v-2
			c0-1.379-1.121-2.5-2.5-2.5H11.5z"/><path fill="#263238" d="M13,20.5c-0.276,0-0.5-0.224-0.5-0.5v-7.5c0-0.276,0.224-0.5,0.5-0.5s0.5,0.224,0.5,0.5V20
			C13.5,20.276,13.276,20.5,13,20.5z"/><circle cx="10.5" cy="15.5" r=".5" fill="#263238"/><circle cx="15.5" cy="15.5" r=".5" fill="#263238"/><circle cx="10.5" cy="13.5" r=".5" fill="#263238"/><circle cx="15.5" cy="13.5" r=".5" fill="#263238"/><path fill="#263238" d="M18.5 10h-1C17.224 10 17 9.776 17 9.5S17.224 9 17.5 9h1C19.327 9 20 8.327 20 7.5 20 7.224 20.224 7 20.5 7S21 7.224 21 7.5C21 8.879 19.879 10 18.5 10zM8.5 10h-1C6.121 10 5 8.879 5 7.5 5 7.224 5.224 7 5.5 7S6 7.224 6 7.5C6 8.327 6.673 9 7.5 9h1C8.776 9 9 9.224 9 9.5S8.776 10 8.5 10z"/><circle cx="2.5" cy="22.5" r=".5" fill="#263238"/><circle cx="22.5" cy="2.5" r=".5" fill="#263238"/></svg>