<svg xmlns="http://www.w3.org/2000/svg" data-name="Layer 1" viewBox="0 0 64 64"><rect width="28" height="44" x="18" y="10" fill="#a3b9d9" rx="1.791"/><path fill="#506b8c" d="M44.2088 10H19.7912A1.79118 1.79118 0 0 0 18 11.79114V14H46V11.79114A1.79118 1.79118 0 0 0 44.2088 10zM19.7912 54H44.2088A1.79118 1.79118 0 0 0 46 52.20886V50H18v2.20886A1.79118 1.79118 0 0 0 19.7912 54z"/><path fill="#404c59" d="M40.65228,30.18182a.91031.91031,0,0,1-.85876-.65643,8.11585,8.11585,0,0,0-.53333-1.28387.91109.91109,0,0,1,.14283-1.07325l.95367-.95367L37.7854,23.64325l-.95367.95373a.91111.91111,0,0,1-1.07325.14283,8.11022,8.11022,0,0,0-1.28387-.53333.91031.91031,0,0,1-.65643-.85876V22H30.18182v1.34772a.91031.91031,0,0,1-.65643.85876,8.11022,8.11022,0,0,0-1.28387.53333.91111.91111,0,0,1-1.07325-.14283l-.95367-.95373L23.64331,26.2146l.95367.95367a.91109.91109,0,0,1,.14283,1.07325,8.11585,8.11585,0,0,0-.53333,1.28387.91031.91031,0,0,1-.85876.65643H22v3.63636h1.34772a.91031.91031,0,0,1,.85876.65643,8.11819,8.11819,0,0,0,.53333,1.28387.91111.91111,0,0,1-.14283,1.07325l-.95367.95367,2.57129,2.57129.95367-.95367a.91092.91092,0,0,1,1.07325-.14283,8.11561,8.11561,0,0,0,1.28387.53327.91038.91038,0,0,1,.65643.85882V42h3.63636V40.65228a.91038.91038,0,0,1,.65643-.85882,8.11561,8.11561,0,0,0,1.28387-.53327.91092.91092,0,0,1,1.07325.14283l.95367.95367,2.57129-2.57129-.95367-.95367a.91111.91111,0,0,1-.14283-1.07325,8.11819,8.11819,0,0,0,.53333-1.28387.91031.91031,0,0,1,.85876-.65643H42V30.18182ZM32,36.5A4.5,4.5,0,1,1,36.5,32,4.5,4.5,0,0,1,32,36.5Z"/><path fill="#7c8fa6" d="M32 61A28.977 28.977 0 0 1 7.23413 16.94128l1.91235 1.91236a.49968.49968 0 0 0 .83838-.23242l2-8a.49955.49955 0 0 0-.60595-.606l-8 2a.49968.49968 0 0 0-.23243.83838l2.634 2.634A30.99327 30.99327 0 0 0 50.60059 56.80127l-1.20118-1.59863A28.7521 28.7521 0 0 1 32 61zM58.21625 48.51A30.991 30.991 0 0 0 13.39941 7.19873l1.20118 1.59863A28.99141 28.99141 0 0 1 56.76843 47.06213l-1.915-1.915a.49967.49967 0 0 0-.83837.23242l-2 8a.49978.49978 0 0 0 .48486.62109.4866.4866 0 0 0 .12109-.01514l8-2a.49967.49967 0 0 0 .23242-.83837z"/></svg>