<svg width="41" height="16" viewBox="0 0 41 16" fill="none" xmlns="http://www.w3.org/2000/svg">
<path d="M6.36915 3.67959L3.18432 1.8398L0 3.67959V1.8398L3.18483 0L6.36966 1.8398V3.67959H6.36915Z" fill="#A435F0"/>
<path d="M1.66851 5.22454V9.27967C1.66851 10.3274 2.4505 10.8382 3.18483 10.8382C3.92531 10.8382 4.70166 10.3141 4.70166 9.26584V5.22454H6.36966V9.3765C6.36966 10.3417 6.06629 11.0862 5.46007 11.597C4.85283 12.1073 4.09493 12.3557 3.17048 12.3557C2.24706 12.3557 1.48864 12.1078 0.896262 11.597C0.303366 11.0867 0 10.3699 0 9.41749V5.22454H1.66851ZM20.7923 10.2644L22.0314 10.9801C21.2756 11.8419 20.2676 12.3419 19.0008 12.3419C17.9114 12.3419 17.0151 12.0109 16.3397 11.3628C15.6643 10.7142 15.32 9.84478 15.32 8.75504V8.70073C15.32 7.59665 15.6643 6.7139 16.3397 6.03813C17.0295 5.36236 17.8986 5.03139 18.9599 5.03139C19.9668 5.03139 20.7934 5.36236 21.4273 6.03813C22.0755 6.7139 22.3927 7.54183 22.3927 8.53525C22.3927 8.85546 22.3563 9.19616 22.3563 9.19616H16.9665C17.0572 10.2526 17.8596 10.935 19.0562 10.935C19.7121 10.935 20.2876 10.7142 20.7923 10.2644ZM17.6224 6.87989C17.2667 7.15656 17.0623 7.49675 17.009 7.90047H20.7088C20.6934 7.51007 20.5156 7.17039 20.1866 6.89373C19.8413 6.58991 19.4415 6.43826 18.9593 6.43826C18.4495 6.43826 17.9939 6.58991 17.6219 6.87938L17.6224 6.87989ZM37.5856 13.279C36.9092 14.878 36.201 15.4215 35.1151 15.4215H34.3623V13.9419H34.9711C35.3447 13.9419 35.6916 13.8015 36.0226 13.0377L36.3537 12.2727L33.4994 5.22454H35.1956L37.2223 10.3008L39.3043 5.22454H41L37.5861 13.279H37.5856ZM12.8644 2.56296H14.519V12.1764H12.8644V11.5365C12.4872 11.8844 11.7734 12.3281 10.6445 12.3281C9.6662 12.3281 8.83861 11.9833 8.16321 11.2931C7.50113 10.5897 7.17061 9.73463 7.17061 8.69971C7.17061 7.6653 7.50113 6.81022 8.16321 6.1201C8.83861 5.41718 9.66569 5.07238 10.6445 5.07238C11.4669 5.07238 12.3176 5.36389 12.8644 5.8542V2.56296ZM12.9889 8.70073C12.9889 8.0931 12.7813 7.58282 12.3678 7.1832C11.9681 6.78306 11.4582 6.57608 10.8648 6.57608C10.2719 6.57608 9.7897 6.78306 9.38999 7.1832C9.00412 7.58282 8.81093 8.0931 8.81093 8.70073C8.81093 9.30734 9.00464 9.81762 9.38999 10.2178C9.7897 10.6179 10.2719 10.8249 10.8648 10.8249C11.4582 10.8249 11.9681 10.6179 12.3678 10.2178C12.7813 9.81762 12.9889 9.30734 12.9889 8.70073ZM30.9274 5.08723C32.3664 5.08723 33.3405 6.06016 33.3405 7.8728V12.1764H31.6858V8.10694C31.6858 7.15553 31.2308 6.56225 30.4447 6.56225C29.6315 6.56225 29.0668 7.2247 29.0668 8.1761V12.1769H27.4259V8.10796C27.4259 7.15604 26.9714 6.56276 26.1848 6.56276C25.4136 6.56276 24.834 7.23853 24.834 8.17661V12.1769H23.1937V5.22556H24.834V5.94847C25.1266 5.58983 25.7133 5.08672 26.709 5.08672C27.8866 5.08672 28.3908 5.76915 28.5697 6.11088C29.0176 5.60828 29.6704 5.08672 30.9274 5.08672V5.08723Z" fill="black"/>
</svg>
