<svg width="22" height="22" viewBox="0 0 22 22" fill="currentColor" xmlns="http://www.w3.org/2000/svg">
<path d="M10.9749 18.175C11.1749 18.175 11.3499 18.1083 11.4999 17.975C11.6499 17.8417 11.7249 17.6583 11.7249 17.425V16.925C12.7249 16.825 13.5124 16.4958 14.0874 15.9375C14.6624 15.3792 14.9499 14.6417 14.9499 13.725C14.9499 12.8417 14.7082 12.1333 14.2249 11.6C13.7416 11.0667 12.9082 10.6083 11.7249 10.225C10.6916 9.875 9.98324 9.52917 9.5999 9.1875C9.21657 8.84583 9.0249 8.40833 9.0249 7.875C9.0249 7.39167 9.20407 7.01667 9.5624 6.75C9.92074 6.48333 10.3999 6.35 10.9999 6.35C11.3999 6.35 11.7541 6.425 12.0624 6.575C12.3707 6.725 12.6416 6.95 12.8749 7.25C13.0249 7.41667 13.1957 7.51667 13.3874 7.55C13.5791 7.58333 13.7582 7.55 13.9249 7.45C14.1249 7.35 14.2499 7.2 14.2999 7C14.3499 6.8 14.3082 6.60833 14.1749 6.425C13.8916 6.025 13.5541 5.7125 13.1624 5.4875C12.7707 5.2625 12.3082 5.11667 11.7749 5.05V4.575C11.7749 4.34167 11.6999 4.1625 11.5499 4.0375C11.3999 3.9125 11.2249 3.85 11.0249 3.85C10.8249 3.85 10.6457 3.9125 10.4874 4.0375C10.3291 4.1625 10.2499 4.34167 10.2499 4.575V5.05C9.36657 5.18333 8.6874 5.50833 8.2124 6.025C7.7374 6.54167 7.4999 7.175 7.4999 7.925C7.4999 8.775 7.7249 9.45 8.1749 9.95C8.6249 10.45 9.46657 10.9333 10.6999 11.4C11.7832 11.8 12.5082 12.1583 12.8749 12.475C13.2416 12.7917 13.4249 13.2083 13.4249 13.725C13.4249 14.2417 13.2166 14.6833 12.7999 15.05C12.3832 15.4167 11.8416 15.6 11.1749 15.6C10.6416 15.6 10.1499 15.4708 9.6999 15.2125C9.2499 14.9542 8.90824 14.5917 8.6749 14.125C8.5749 13.975 8.44157 13.8583 8.2749 13.775C8.10824 13.6917 7.94157 13.675 7.7749 13.725C7.5249 13.825 7.36657 13.975 7.2999 14.175C7.23324 14.375 7.26657 14.575 7.3999 14.775C7.73324 15.3417 8.13324 15.7958 8.5999 16.1375C9.06657 16.4792 9.5999 16.725 10.1999 16.875V17.425C10.1999 17.6417 10.2791 17.8208 10.4374 17.9625C10.5957 18.1042 10.7749 18.175 10.9749 18.175ZM10.9999 21.35C9.53324 21.35 8.17074 21.0875 6.9124 20.5625C5.65407 20.0375 4.55824 19.3083 3.6249 18.375C2.69157 17.4417 1.9624 16.3458 1.4374 15.0875C0.912402 13.8292 0.649902 12.4667 0.649902 11C0.649902 9.55 0.912402 8.19167 1.4374 6.925C1.9624 5.65833 2.69157 4.5625 3.6249 3.6375C4.55824 2.7125 5.65407 1.97917 6.9124 1.4375C8.17074 0.895833 9.53324 0.625 10.9999 0.625C12.4499 0.625 13.8082 0.891667 15.0749 1.425C16.3416 1.95833 17.4416 2.69167 18.3749 3.625C19.3082 4.55833 20.0416 5.65417 20.5749 6.9125C21.1082 8.17083 21.3749 9.53333 21.3749 11C21.3749 12.4667 21.1041 13.8292 20.5624 15.0875C20.0207 16.3458 19.2874 17.4417 18.3624 18.375C17.4374 19.3083 16.3416 20.0375 15.0749 20.5625C13.8082 21.0875 12.4499 21.35 10.9999 21.35ZM10.9999 19.375C13.3832 19.375 15.3749 18.5792 16.9749 16.9875C18.5749 15.3958 19.3749 13.4 19.3749 11C19.3749 8.61667 18.5749 6.625 16.9749 5.025C15.3749 3.425 13.3832 2.625 10.9999 2.625C8.61657 2.625 6.6249 3.42083 5.0249 5.0125C3.4249 6.60417 2.6249 8.6 2.6249 11C2.6249 13.3833 3.4249 15.375 5.0249 16.975C6.6249 18.575 8.61657 19.375 10.9999 19.375Z"/>
</svg>
