<svg width="21" height="22" viewBox="0 0 21 22" fill="currentColor" xmlns="http://www.w3.org/2000/svg">
<path d="M19.1833 0.931041C18.4665 0.807212 17.7406 0.743472 17.0133 0.740483C14.5316 0.738442 12.1018 1.45214 10.0133 2.79651C7.91942 1.46979 5.48992 0.773611 3.01327 0.79063C2.28591 0.793619 1.56007 0.857359 0.843268 0.981188C0.608475 1.02179 0.395849 1.14513 0.243681 1.329C0.0915139 1.51287 0.00980452 1.74519 0.0132682 1.98413V14.0194C0.0111266 14.1668 0.0413944 14.3128 0.101918 14.4471C0.162442 14.5814 0.251734 14.7007 0.363441 14.7964C0.475149 14.8922 0.606525 14.9621 0.748224 15.0011C0.889922 15.0402 1.03846 15.0474 1.18327 15.0223C2.61629 14.7735 4.08447 14.8148 5.50133 15.1438C6.9182 15.4727 8.25509 16.0828 9.43327 16.9379L9.55327 17.0081H9.66327C9.77417 17.0545 9.89312 17.0784 10.0133 17.0784C10.1334 17.0784 10.2524 17.0545 10.3633 17.0081H10.4733L10.5933 16.9379C11.7632 16.0637 13.0963 15.4339 14.5134 15.0859C15.9306 14.7379 17.4029 14.6787 18.8433 14.912C18.9881 14.9371 19.1366 14.9298 19.2783 14.8908C19.42 14.8517 19.5514 14.7818 19.6631 14.6861C19.7748 14.5903 19.8641 14.4711 19.9246 14.3368C19.9851 14.2025 20.0154 14.0564 20.0133 13.9091V1.8738C20.0029 1.64529 19.9149 1.42721 19.7639 1.25573C19.6129 1.08426 19.4081 0.969691 19.1833 0.931041ZM9.01327 14.2601C7.16315 13.2839 5.10379 12.7745 3.01327 12.7757C2.68327 12.7757 2.35327 12.7757 2.01327 12.7757V2.74636C2.34632 2.72711 2.68021 2.72711 3.01327 2.74636C5.14665 2.744 7.23348 3.37188 9.01327 4.55165V14.2601ZM18.0133 12.8159C17.6733 12.8159 17.3433 12.8159 17.0133 12.8159C14.9227 12.8146 12.8634 13.324 11.0133 14.3002V4.55165C12.7931 3.37188 14.8799 2.744 17.0133 2.74636C17.3463 2.72711 17.6802 2.72711 18.0133 2.74636V12.8159ZM19.1833 16.9781C18.4665 16.8542 17.7406 16.7905 17.0133 16.7875C14.5316 16.7855 12.1018 17.4992 10.0133 18.8435C7.92478 17.4992 5.4949 16.7855 3.01327 16.7875C2.28591 16.7905 1.56007 16.8542 0.843268 16.9781C0.713095 16.9988 0.588291 17.0451 0.476031 17.1144C0.36377 17.1836 0.266269 17.2745 0.189135 17.3816C0.112 17.4888 0.0567536 17.6103 0.026572 17.7389C-0.00360967 17.8676 -0.00813089 18.001 0.0132682 18.1314C0.0640869 18.3919 0.215759 18.6215 0.435059 18.77C0.654359 18.9185 0.923408 18.9738 1.18327 18.9238C2.61629 18.6749 4.08447 18.7162 5.50133 19.0452C6.9182 19.3742 8.25509 19.9842 9.43327 20.8394C9.60263 20.9603 9.80536 21.0253 10.0133 21.0253C10.2212 21.0253 10.4239 20.9603 10.5933 20.8394C11.7714 19.9842 13.1083 19.3742 14.5252 19.0452C15.9421 18.7162 17.4102 18.6749 18.8433 18.9238C19.1031 18.9738 19.3722 18.9185 19.5915 18.77C19.8108 18.6215 19.9624 18.3919 20.0133 18.1314C20.0347 18.001 20.0301 17.8676 20 17.7389C19.9698 17.6103 19.9145 17.4888 19.8374 17.3816C19.7603 17.2745 19.6628 17.1836 19.5505 17.1144C19.4382 17.0451 19.3134 16.9988 19.1833 16.9781V16.9781Z"/>
</svg>
