<svg width="20" height="21" viewBox="0 0 20 21" fill="currentColor" xmlns="http://www.w3.org/2000/svg">
<path d="M10 4.09305C9.73478 4.09305 9.48043 4.19871 9.29289 4.3868C9.10536 4.57489 9 4.82999 9 5.09599V15.1254C9 15.3914 9.10536 15.6465 9.29289 15.8345C9.48043 16.0226 9.73478 16.1283 10 16.1283C10.2652 16.1283 10.5196 16.0226 10.7071 15.8345C10.8946 15.6465 11 15.3914 11 15.1254V5.09599C11 4.82999 10.8946 4.57489 10.7071 4.3868C10.5196 4.19871 10.2652 4.09305 10 4.09305ZM5 10.1107C4.73478 10.1107 4.48043 10.2163 4.29289 10.4044C4.10536 10.5925 4 10.8476 4 11.1136V15.1254C4 15.3914 4.10536 15.6465 4.29289 15.8345C4.48043 16.0226 4.73478 16.1283 5 16.1283C5.26522 16.1283 5.51957 16.0226 5.70711 15.8345C5.89464 15.6465 6 15.3914 6 15.1254V11.1136C6 10.8476 5.89464 10.5925 5.70711 10.4044C5.51957 10.2163 5.26522 10.1107 5 10.1107ZM15 8.1048C14.7348 8.1048 14.4804 8.21046 14.2929 8.39855C14.1054 8.58664 14 8.84174 14 9.10773V15.1254C14 15.3914 14.1054 15.6465 14.2929 15.8345C14.4804 16.0226 14.7348 16.1283 15 16.1283C15.2652 16.1283 15.5196 16.0226 15.7071 15.8345C15.8946 15.6465 16 15.3914 16 15.1254V9.10773C16 8.84174 15.8946 8.58664 15.7071 8.39855C15.5196 8.21046 15.2652 8.1048 15 8.1048ZM17 0.0812988H3C2.20435 0.0812988 1.44129 0.398298 0.87868 0.96256C0.316071 1.52682 0 2.29212 0 3.09011V17.1312C0 17.9292 0.316071 18.6945 0.87868 19.2588C1.44129 19.823 2.20435 20.14 3 20.14H17C17.7956 20.14 18.5587 19.823 19.1213 19.2588C19.6839 18.6945 20 17.9292 20 17.1312V3.09011C20 2.29212 19.6839 1.52682 19.1213 0.96256C18.5587 0.398298 17.7956 0.0812988 17 0.0812988ZM18 17.1312C18 17.3972 17.8946 17.6523 17.7071 17.8404C17.5196 18.0285 17.2652 18.1342 17 18.1342H3C2.73478 18.1342 2.48043 18.0285 2.29289 17.8404C2.10536 17.6523 2 17.3972 2 17.1312V3.09011C2 2.82412 2.10536 2.56901 2.29289 2.38093C2.48043 2.19284 2.73478 2.08717 3 2.08717H17C17.2652 2.08717 17.5196 2.19284 17.7071 2.38093C17.8946 2.56901 18 2.82412 18 3.09011V17.1312Z"/>
</svg>
