<svg width="18" height="21" viewBox="0 0 18 21" fill="currentColor" xmlns="http://www.w3.org/2000/svg">
<path d="M17.0001 6.60584L11.0001 1.33039C10.4501 0.836985 9.73803 0.564209 9.0001 0.564209C8.26216 0.564209 7.55012 0.836985 7.0001 1.33039L1.00009 6.60584C0.682463 6.89075 0.428995 7.24026 0.256567 7.63109C0.0841385 8.02192 -0.00329256 8.44511 9.47941e-05 8.87248V17.6382C9.47941e-05 18.4361 0.316165 19.2015 0.878775 19.7657C1.44138 20.33 2.20445 20.647 3.0001 20.647H15.0001C15.7957 20.647 16.5588 20.33 17.1214 19.7657C17.684 19.2015 18.0001 18.4361 18.0001 17.6382V8.86245C18.0021 8.43677 17.9139 8.01551 17.7416 7.62651C17.5692 7.23751 17.3165 6.88963 17.0001 6.60584ZM11.0001 18.6411H7.0001V13.6264C7.0001 13.3604 7.10545 13.1053 7.29299 12.9172C7.48053 12.7291 7.73488 12.6235 8.0001 12.6235H10.0001C10.2653 12.6235 10.5197 12.7291 10.7072 12.9172C10.8947 13.1053 11.0001 13.3604 11.0001 13.6264V18.6411ZM16.0001 17.6382C16.0001 17.9042 15.8947 18.1593 15.7072 18.3473C15.5197 18.5354 15.2653 18.6411 15.0001 18.6411H13.0001V13.6264C13.0001 12.8284 12.684 12.0631 12.1214 11.4989C11.5588 10.9346 10.7957 10.6176 10.0001 10.6176H8.0001C7.20445 10.6176 6.44138 10.9346 5.87877 11.4989C5.31617 12.0631 5.0001 12.8284 5.0001 13.6264V18.6411H3.0001C2.73488 18.6411 2.48053 18.5354 2.29299 18.3473C2.10545 18.1593 2.0001 17.9042 2.0001 17.6382V8.86245C2.00027 8.72005 2.03069 8.57932 2.08931 8.44962C2.14794 8.31992 2.23343 8.20423 2.3401 8.11025L8.3401 2.84482C8.52258 2.68403 8.75719 2.59536 9.0001 2.59536C9.243 2.59536 9.47761 2.68403 9.6601 2.84482L15.6601 8.11025C15.7668 8.20423 15.8523 8.31992 15.9109 8.44962C15.9695 8.57932 15.9999 8.72005 16.0001 8.86245V17.6382Z"/>
</svg>
