<svg width="20" height="24" viewBox="0 0 32 32" fill="currentColor" xmlns="http://www.w3.org/2000/svg">

<g>
	<rect x="0.5" y="4.5" class="avocado_zes" width="31" height="21"/>
	<g>
		<path class="avocado_acht" d="M0.5,4.5v21h13v4h6v-4h12v-21H0.5z M30,24H2V6h28V24z"/>
	</g>
	<rect x="13.5" y="25.5" class="avocado_zeven" width="6" height="1.5"/>
	<path class="avocado_een" d="M32,26V4H0v22h13v3h-1v1h9v-1h-1v-3H32z M1,25V5h30v20H1z M19,29h-5v-3h5V29z"/>
	<g>
		<g>
			<path class="avocado_vijf" d="M15,18h1v1H6v-1h1v-6h2v6h1v-5h2v5h1v-7h2V18z M20,12v1h6v-1H20z M20,15h6v-1h-6V15z M20,17
				h6v-1h-6V17z M20,19h6v-1h-6V19z"/>
		</g>
	</g>
</g>
</svg>
