<svg width="23" height="23" viewBox="0 0 23 23" fill="currentColor" xmlns="http://www.w3.org/2000/svg">
<path d="M13.225 11.5C14.1833 11.5 14.9883 11.1742 15.64 10.5225C16.2917 9.87083 16.6175 9.06583 16.6175 8.1075C16.6175 7.14917 16.2917 6.34417 15.64 5.6925C14.9883 5.04083 14.1833 4.715 13.225 4.715C12.2667 4.715 11.4617 5.04083 10.81 5.6925C10.1583 6.34417 9.8325 7.14917 9.8325 8.1075C9.8325 9.06583 10.1583 9.87083 10.81 10.5225C11.4617 11.1742 12.2667 11.5 13.225 11.5ZM5.175 17.8537C6.30583 16.4162 7.59958 15.3812 9.05625 14.7487C10.5129 14.1162 11.9025 13.8 13.225 13.8C14.5475 13.8 15.9371 14.1162 17.3937 14.7487C18.8504 15.3812 20.1442 16.4162 21.275 17.8537V1.725H5.175V17.8537ZM5.175 19.55C4.715 19.55 4.3125 19.3775 3.9675 19.0325C3.6225 18.6875 3.45 18.285 3.45 17.825V1.725C3.45 1.265 3.6225 0.8625 3.9675 0.5175C4.3125 0.1725 4.715 0 5.175 0H21.275C21.735 0 22.1375 0.1725 22.4825 0.5175C22.8275 0.8625 23 1.265 23 1.725V17.825C23 18.285 22.8275 18.6875 22.4825 19.0325C22.1375 19.3775 21.735 19.55 21.275 19.55H5.175ZM1.725 23C1.265 23 0.8625 22.8275 0.5175 22.4825C0.1725 22.1375 0 21.735 0 21.275V5.75C0 5.50083 0.0814584 5.29479 0.244375 5.13188C0.407292 4.96896 0.613333 4.8875 0.8625 4.8875C1.11167 4.8875 1.31771 4.96896 1.48062 5.13188C1.64354 5.29479 1.725 5.50083 1.725 5.75V21.275H17.25C17.4992 21.275 17.7052 21.3565 17.8681 21.5194C18.031 21.6823 18.1125 21.8883 18.1125 22.1375C18.1125 22.3867 18.031 22.5927 17.8681 22.7556C17.7052 22.9185 17.4992 23 17.25 23H1.725ZM13.225 9.775C12.765 9.775 12.3721 9.61208 12.0463 9.28625C11.7204 8.96042 11.5575 8.5675 11.5575 8.1075C11.5575 7.6475 11.7204 7.25458 12.0463 6.92875C12.3721 6.60292 12.765 6.44 13.225 6.44C13.685 6.44 14.0779 6.60292 14.4037 6.92875C14.7296 7.25458 14.8925 7.6475 14.8925 8.1075C14.8925 8.5675 14.7296 8.96042 14.4037 9.28625C14.0779 9.61208 13.685 9.775 13.225 9.775ZM7.84875 17.825H18.6012C17.9879 17.1542 17.1973 16.6031 16.2294 16.1719C15.2615 15.7406 14.26 15.525 13.225 15.525C12.19 15.525 11.1885 15.7406 10.2206 16.1719C9.25271 16.6031 8.46208 17.1542 7.84875 17.825Z"/>
</svg>
