<svg width="17" height="14" viewBox="0 0 17 14" fill="none" xmlns="http://www.w3.org/2000/svg">
<path d="M14.2542 1.12932C14.5271 0.869478 14.8903 0.725828 15.2671 0.728679C15.644 0.731531 16.0049 0.880661 16.2739 1.1446C16.5429 1.40854 16.6988 1.76665 16.7087 2.14336C16.7187 2.52006 16.5819 2.88591 16.3273 3.16369L8.59666 12.8318C8.46373 12.975 8.30329 13.0899 8.12494 13.1697C7.94659 13.2494 7.75399 13.2924 7.55865 13.296C7.36331 13.2996 7.16925 13.2638 6.98807 13.1907C6.80688 13.1176 6.6423 13.0087 6.50416 12.8706L1.37754 7.74394C1.23477 7.61091 1.12026 7.45049 1.04084 7.27224C0.961414 7.09399 0.918708 6.90157 0.915265 6.70646C0.911823 6.51134 0.947715 6.31754 1.0208 6.1366C1.09388 5.95566 1.20266 5.79129 1.34065 5.65331C1.47864 5.51532 1.643 5.40654 1.82394 5.33346C2.00488 5.26037 2.19869 5.22448 2.3938 5.22792C2.58891 5.23136 2.78133 5.27407 2.95958 5.35349C3.13783 5.43292 3.29825 5.54743 3.43129 5.69019L7.48841 9.74538L14.2174 1.17194C14.2295 1.15703 14.2424 1.1428 14.2561 1.12932H14.2542Z" fill="#2563EB"/>
</svg>
