<svg width="20" height="21" viewBox="0 0 20 21" fill="currentColor" xmlns="http://www.w3.org/2000/svg">
<path d="M19.32 8.36174L17.43 7.72989L18.32 5.94466C18.4102 5.7578 18.4404 5.54746 18.4064 5.34267C18.3723 5.13787 18.2758 4.94872 18.13 4.80131L16 2.66505C15.8522 2.5167 15.6618 2.41853 15.4556 2.38435C15.2493 2.35017 15.0375 2.38169 14.85 2.47449L13.07 3.36711L12.44 1.47155C12.3735 1.27397 12.2472 1.1021 12.0787 0.97986C11.9102 0.857624 11.7079 0.791103 11.5 0.789554H8.5C8.29036 0.789011 8.08585 0.854564 7.91538 0.976945C7.7449 1.09933 7.61709 1.27235 7.55 1.47155L6.92 3.36711L5.14 2.47449C4.95369 2.38401 4.74397 2.35374 4.53978 2.38787C4.33558 2.422 4.14699 2.51885 4 2.66505L1.87 4.80131C1.72209 4.94951 1.62421 5.14048 1.59013 5.34736C1.55605 5.55425 1.58748 5.76665 1.68 5.95469L2.57 7.73992L0.680003 8.37177C0.482996 8.4385 0.311629 8.56516 0.189751 8.73414C0.0678738 8.90311 0.00154767 9.10599 3.33354e-06 9.31453V12.3233C-0.000537828 12.5336 0.0648223 12.7387 0.186845 12.9097C0.308868 13.0807 0.481382 13.2089 0.680003 13.2761L2.57 13.908L1.68 15.6932C1.58978 15.8801 1.55961 16.0904 1.59364 16.2952C1.62767 16.5 1.72423 16.6892 1.87 16.8366L4 18.9728C4.14777 19.1212 4.33818 19.2193 4.54446 19.2535C4.75074 19.2877 4.96251 19.2562 5.15 19.1634L6.93 18.2708L7.56 20.1663C7.62709 20.3655 7.7549 20.5386 7.92538 20.6609C8.09585 20.7833 8.30036 20.8489 8.51 20.8483H11.51C11.7196 20.8489 11.9242 20.7833 12.0946 20.6609C12.2651 20.5386 12.3929 20.3655 12.46 20.1663L13.09 18.2708L14.87 19.1634C15.0551 19.2516 15.2628 19.2806 15.4649 19.2465C15.667 19.2124 15.8538 19.1169 16 18.9728L18.13 16.8366C18.2779 16.6884 18.3758 16.4974 18.4099 16.2905C18.444 16.0836 18.4125 15.8712 18.32 15.6832L17.43 13.898L19.32 13.2661C19.517 13.1994 19.6884 13.0727 19.8103 12.9037C19.9321 12.7348 19.9985 12.5319 20 12.3233V9.31453C20.0005 9.10427 19.9352 8.89916 19.8132 8.72818C19.6911 8.55721 19.5186 8.42902 19.32 8.36174ZM18 11.6012L16.8 12.0024C16.5241 12.0922 16.2709 12.2411 16.0581 12.4388C15.8452 12.6365 15.6778 12.8783 15.5675 13.1473C15.4571 13.4164 15.4064 13.7063 15.419 13.997C15.4315 14.2877 15.5069 14.5722 15.64 14.8307L16.21 15.974L15.11 17.0773L14 16.4755C13.7436 16.3474 13.4627 16.276 13.1763 16.2662C12.89 16.2564 12.6049 16.3084 12.3403 16.4187C12.0758 16.5291 11.8379 16.6951 11.6429 16.9056C11.4479 17.1161 11.3003 17.3662 11.21 17.6389L10.81 18.8424H9.22L8.82 17.6389C8.7305 17.3622 8.58203 17.1083 8.3849 16.8948C8.18778 16.6813 7.94671 16.5134 7.67842 16.4028C7.41014 16.2921 7.12106 16.2413 6.83123 16.2538C6.5414 16.2664 6.25777 16.342 6 16.4755L4.86 17.0472L3.76 15.944L4.36 14.8307C4.4931 14.5722 4.56852 14.2877 4.58105 13.997C4.59358 13.7063 4.5429 13.4164 4.43254 13.1473C4.32218 12.8783 4.15478 12.6365 3.94195 12.4388C3.72912 12.2411 3.47595 12.0922 3.2 12.0024L2 11.6012V10.0366L3.2 9.63547C3.47595 9.5457 3.72912 9.3968 3.94195 9.19909C4.15478 9.00139 4.32218 8.75961 4.43254 8.49054C4.5429 8.22146 4.59358 7.93153 4.58105 7.64085C4.56852 7.35017 4.4931 7.06571 4.36 6.80719L3.79 5.69392L4.89 4.59069L6 5.16237C6.25777 5.29585 6.5414 5.3715 6.83123 5.38406C7.12106 5.39662 7.41014 5.3458 7.67842 5.23512C7.94671 5.12443 8.18778 4.95654 8.3849 4.74308C8.58203 4.52962 8.7305 4.27571 8.82 3.99896L9.22 2.79543H10.78L11.18 3.99896C11.2695 4.27571 11.418 4.52962 11.6151 4.74308C11.8122 4.95654 12.0533 5.12443 12.3216 5.23512C12.5899 5.3458 12.879 5.39662 13.1688 5.38406C13.4586 5.3715 13.7422 5.29585 14 5.16237L15.14 4.59069L16.24 5.69392L15.64 6.80719C15.5122 7.06438 15.4411 7.34611 15.4313 7.63329C15.4215 7.92048 15.4734 8.20641 15.5834 8.47174C15.6934 8.73708 15.8589 8.97561 16.0688 9.17119C16.2787 9.36678 16.5281 9.51485 16.8 9.60538L18 10.0066V11.6012ZM10 6.80719C9.20888 6.80719 8.43552 7.04247 7.77772 7.48329C7.11993 7.92411 6.60724 8.55065 6.30449 9.28371C6.00174 10.0168 5.92252 10.8234 6.07686 11.6016C6.2312 12.3798 6.61217 13.0946 7.17158 13.6557C7.73099 14.2167 8.44372 14.5988 9.21964 14.7536C9.99557 14.9084 10.7998 14.829 11.5307 14.5253C12.2616 14.2217 12.8864 13.7075 13.3259 13.0477C13.7654 12.388 14 11.6124 14 10.8189C14 9.75496 13.5786 8.73455 12.8284 7.9822C12.0783 7.22985 11.0609 6.80719 10 6.80719ZM10 12.8248C9.60444 12.8248 9.21776 12.7072 8.88886 12.4868C8.55997 12.2664 8.30362 11.9531 8.15224 11.5866C8.00087 11.22 7.96126 10.8167 8.03843 10.4276C8.1156 10.0385 8.30609 9.6811 8.58579 9.40057C8.8655 9.12004 9.22186 8.929 9.60982 8.8516C9.99779 8.77421 10.3999 8.81393 10.7654 8.96575C11.1308 9.11757 11.4432 9.37467 11.6629 9.70453C11.8827 10.0344 12 10.4222 12 10.8189C12 11.3509 11.7893 11.8611 11.4142 12.2373C11.0391 12.6135 10.5304 12.8248 10 12.8248Z"/>
</svg>
